<?xml version="1.0" encoding="utf-8"?>
<!-- Generator: Adobe Illustrator 22.0.1, SVG Export Plug-In . SVG Version: 6.00 Build 0)  -->
<svg version="1.1" id="Calque_1" xmlns="http://www.w3.org/2000/svg" xmlns:xlink="http://www.w3.org/1999/xlink" x="0px" y="0px"
	 viewBox="0 0 1000 1000" style="enable-background:new 0 0 1000 1000;" xml:space="preserve">
<style type="text/css">
	.st0{display:none;}
	.st1{fill:#FFFFFF;}
</style>
<g id="AU3xRS.tif" class="st0">
	
		<image style="display:inline;overflow:visible;" width="312" height="312" id="Layer_0_1_" xlink:href="6FBD46464D717773.png"  transform="matrix(2.438 0 0 2.438 127.9036 108.5863)">
	</image>
</g>
<g>
	
		<ellipse transform="matrix(0.7071 -0.7071 0.7071 0.7071 -200.5446 504.1079)" class="st1" cx="508.2" cy="494.1" rx="95.9" ry="95.9"/>
	<path class="st1" d="M627.6,285.9h-241c-51.3,0-92.8,41.6-92.8,92.8v241c0,51.3,41.6,92.8,92.8,92.8h241
		c51.3,0,92.8-41.6,92.8-92.8v-241C720.4,327.4,678.9,285.9,627.6,285.9z M508.2,632.6c-76.5,0-138.4-62-138.4-138.4
		s62-138.4,138.4-138.4c76.5,0,138.4,62,138.4,138.4S584.7,632.6,508.2,632.6z"/>
	<path class="st1" d="M500,50.2L500,50.2C251.6,50.2,50.2,251.6,50.2,500v0c0,248.4,201.4,449.8,449.8,449.8h0
		c248.4,0,449.8-201.4,449.8-449.8v0C949.8,251.6,748.4,50.2,500,50.2z M761.8,623.3c0,72.1-58.5,130.6-130.6,130.6H383.1
		c-72.1,0-130.6-58.5-130.6-130.6V375.1c0-72.1,58.5-130.6,130.6-130.6h248.2c72.1,0,130.6,58.5,130.6,130.6V623.3z"/>
</g>
</svg>
