<svg id="Calque_1" data-name="Calque 1" xmlns="http://www.w3.org/2000/svg" viewBox="0 0 825.63 794.96"><defs><style>.cls-1{fill:#9774ac;}</style></defs><title>shapeAKOviolette</title><path class="cls-1" d="M881.87,727.23a4.58,4.58,0,0,1-8-4q.86-3.74,1.46-7.33h0c.64-3.73,1-7.34,1.29-10.87l-.26,0c.05-.29.07-.57.12-.86-4.89-1.24-10.75-4.32-11.18-12.21-.49-9.2,4.73-11.48,9.9-11.55a73.7,73.7,0,0,0-7.92-21.63c-8.41,5.45-20.85,10.05-31.25,0-11.88-11.55-4.62-22.22,1.3-27.87A70.67,70.67,0,0,0,808.46,624a187.72,187.72,0,0,0-23.9,1.21c4.77,9.07,4,21.75-13.2,22.57-13.77.64-15.23-10.62-14.59-18.39-14.78,2.65-30.14,5.87-45.47,8.77,7.36,10.22,8.59,17.8-14.68,24.46-19.1,5.47-20-8.49-18.15-19.13-8.78,1.09-17.39,1.85-25.74,2,5.66,11.55-5.65,18.67-21.58,16.12-11.55-1.85-9.74-11.29-6.87-18-19.54-3.46-36.81-11.8-48.83-28.81,29.75,86.55,103,95.55,131.86,144.71,25.42,43.31.07,93.71-16.1,118.51a4.58,4.58,0,0,1-8.4-2.73q.09-3.32-.09-6.69c-.15-3-.51-6-1-9.06-6,1.52-14.44.53-16.78-10.77-2.3-11,2.94-16.59,8.42-18.65a160.13,160.13,0,0,0-8.15-16.94c-5.59,3.22-13.61,4.85-21.6-3.85-9.27-10-2.12-17.67,4.36-21.91a174.8,174.8,0,0,0-36.92-35.13c-1.73-1.19-3.46-2.38-5.24-3.56-4,8.64-12.21,19.16-26.56,9.05-13.88-9.77-9.27-21.73-3.91-29.27-7.44-5-14.88-10.14-22.1-15.48-8.2,7.13-20.12,12.64-31.08-.76-10.62-13-7.62-22.84-2.87-29-12.45-13.65-23.76-31.25-26.73-48.18A231.67,231.67,0,0,1,476,667.06c4.61,6.15,7.53,15.36-1,26.69-9.11,12.1-17.91,10.89-23.83,7.58-5.57,7.63-10.95,15.29-16,23,7,5.41,13.91,15,5.9,29.21-8.29,14.72-19.57,13.08-27.12,9.56a166.69,166.69,0,0,0-9.8,30.28c9.23,3.31,20.92,9.32,21.08,20.41.29,19.84-14.35,19.54-23.9,19.53a150.32,150.32,0,0,0,3.37,22.26q1.33,5.82,3.17,11.82a4.58,4.58,0,0,1-7.94,4.2c-27.82-34.61-75.12-114.14-6.2-194.71,0,0-12.15,8.59-30.05,18.52,4.21,9.58,1.56,16.2-10.63,24.22-9.7,6.41-15.07-4-17.27-10.3A221.15,221.15,0,0,1,303,721c5,8.8,9.49,23.23-12.28,25.68-18.66,2.09-25.22-8.43-27.46-17.44a244.7,244.7,0,0,0-35.73,11.93c5,4.68,10,12.21,1.75,19.26-11.53,9.91-24.73,12.6-35.54-.89a157.77,157.77,0,0,0-38,36.38c7.69,5.31,16.74,14.56,9.71,25.76-8.25,13.13-19.72,13.07-27.7,6-.86,2.06-1.68,4.1-2.42,6.1a154.09,154.09,0,0,0-4.76,15.41c-1.27,5-8.63,4.35-9-.82-3.72-51.29,6-148.22,126.09-174,53.61-11.51,93.56-28.75,123.11-46.79-15.34,1.57-29.82-14.65-45-33.58-7,5.57-17.76,10.38-28.12.8-13.32-12.32-2.67-25.41,3.29-31-10.36-11.55-21.91-22.39-35.36-30.05-5.92,14.92-16.71,16.11-34.76,12.53-13.61-2.69-11.24-15.64-8.22-23.84a93.28,93.28,0,0,0-17.29,1.93,127.44,127.44,0,0,0-40.16,15c7.6,5,16,13.73,7.13,24.69-11.41,14.06-31.2,16.87-40.6,7.17a117.68,117.68,0,0,0-11.52,22.28c6,1.93,12.14,6.48,11,17.09-1.36,12.28-11.66,15.19-19.43,15.61-.41,2.83-.75,5.6-1,8.27-.58,5.93-.82,11.41-.86,16.24a4.58,4.58,0,0,1-8.74,1.86C82,611.38,51.1,511.73,164.68,456.1c133.14-65.2,181.41,135.2,246.57,95.49,36.87-22.46,70.17-40.38-47-217.61-58.18-88,23.57-259.63,160.38-248.23C612,93,745,164.24,675.6,327.26s-29.22,222.16-29.22,222.16c66.66,14.74,25.51-143,102.21-212.24,65.25-58.88,126.12-11.72,151.8,14.61a4.58,4.58,0,0,1-4.84,7.49c-3.73-1.31-7.37-2.43-10.91-3.39a122.12,122.12,0,0,0-18.14-3.55c-.24,7.57-2.6,17.51-17.44,16.05-13.14-1.28-14.26-7.76-13.55-14.23-18.78,4.87-33.36,16.63-45,32.4,12.11,1.17,27.05,5.84,17.18,22.71-10.75,18.34-28.65,19.14-38.58,17.89-3.9,10-7.28,20.41-10.3,30.93,9-1.64,20.89-1.33,16.32,13.38s-16,16-23.7,15c-2.13,8.86-4.09,17.54-6,25.84,8.47,1.91,21.09,6.41,14.19,15.54-7.94,10.5-11.8,18.15-21.16,13.57-5.53,21-11.48,36-20.31,39,51.63-13.54,104-38.32,144.82-2.29C935.76,642.42,903.26,701.31,881.87,727.23Z" transform="translate(-82.3 -85.21)"/></svg>