<?xml version="1.0" encoding="utf-8"?>
<!-- Generator: Adobe Illustrator 22.0.1, SVG Export Plug-In . SVG Version: 6.00 Build 0)  -->
<svg version="1.1" id="Calque_1" xmlns="http://www.w3.org/2000/svg" xmlns:xlink="http://www.w3.org/1999/xlink" x="0px" y="0px"
	 viewBox="0 0 1000 1000" style="enable-background:new 0 0 1000 1000;" xml:space="preserve">
<style type="text/css">
	.st0{fill:#D63F77;}
</style>
<path class="st0" d="M747.2,947.4H297c-113,0-204.9-91.9-204.9-204.9v-33.3c0-37.3,30.2-67.5,67.5-67.5s67.5,30.2,67.5,67.5v33.3
	c0,38.5,31.3,69.9,69.9,69.9h450.2c38.5,0,69.9-31.3,69.9-69.9v-33.3c0-37.3,30.2-67.5,67.5-67.5s67.5,30.2,67.5,67.5v33.3
	C952,855.5,860.1,947.4,747.2,947.4z"/>
<path class="st0" d="M736.4,562.9L582.1,743.8c-15.6,18.3-37.8,27.6-60,27.5c-22.3,0.1-44.4-9.2-60-27.5L307.8,562.9
	c-28-32.9-24.1-82.2,8.8-110.2c14.7-12.5,32.8-18.7,50.7-18.7c22.1,0,44.1,9.3,59.5,27.5l17.1,20.1V130.8c0-43.2,35-78.2,78.2-78.2
	h0c43.2,0,78.2,35,78.2,78.2v350.7l17.1-20.1c15.5-18.1,37.4-27.5,59.5-27.5c17.9,0,36,6.2,50.7,18.7
	C760.5,480.7,764.4,530.1,736.4,562.9z"/>
</svg>
