<svg xmlns="http://www.w3.org/2000/svg" xmlns:xlink="http://www.w3.org/1999/xlink" viewBox="0 0 996.47 996.47"><defs><style>.cls-1{fill:#79cadd;}.cls-2{fill:url(#Dégradé_sans_nom_36);}.cls-3{fill:#673b15;}.cls-4,.cls-5{fill:#1a171b;}.cls-4{stroke:#1a171b;stroke-linecap:round;stroke-linejoin:round;}</style><linearGradient id="Dégradé_sans_nom_36" x1="263.74" y1="219.16" x2="731.58" y2="907.84" gradientUnits="userSpaceOnUse"><stop offset="0" stop-color="#88b917"/><stop offset="1" stop-color="#08812e"/></linearGradient></defs><title>AvatarPoire</title><g id="Calque_1" data-name="Calque 1"><circle class="cls-1" cx="498.24" cy="498.24" r="498.24"/></g><g id="fruit"><path class="cls-2" d="M770.21,684.34c0,142.65-115.65,258.3-258.3,258.3-141.35,0-258.41-117.16-258.3-258.51a257.08,257.08,0,0,1,49.32-151.62c40.87-56.15,59.3-125.94,50.28-194.79a163.1,163.1,0,0,1-1.37-23.31c1.11-88.13,75.77-160.83,163.91-159.69.88,0,1.75,0,2.63.06q6.51.18,12.88.88A161.91,161.91,0,0,1,673.85,338.94c-9.64,69.44,9.07,139.57,49.43,196.9A257.11,257.11,0,0,1,770.21,684.34Z" transform="translate(-1.23 -2.26)"/><path class="cls-3" d="M531.26,155.66q-6.37-.69-12.88-.88c5.34-43.43-15.06-52.44-15.06-52.44l33.32-3.57S541.5,126.69,531.26,155.66Z" transform="translate(-1.23 -2.26)"/><circle class="cls-4" cx="448.19" cy="436.24" r="19.3"/><circle class="cls-4" cx="570.51" cy="436.24" r="19.3"/><path class="cls-5" d="M508.12,512.36a33.09,33.09,0,0,1-33.06-33.05,5,5,0,0,1,10,0,23.06,23.06,0,0,0,46.12,0,5,5,0,0,1,10,0A33.09,33.09,0,0,1,508.12,512.36Z" transform="translate(-1.23 -2.26)"/></g></svg>