<svg id="Calque_1" data-name="Calque 1" xmlns="http://www.w3.org/2000/svg" viewBox="0 0 1000 1000"><defs><style>.cls-1{fill:#79cadd;}.cls-2{fill:#efc94b;}.cls-3{fill:#f3c498;}.cls-4{fill:#e2ae83;}.cls-5{fill:#fff;}.cls-6{fill:#1a171b;}.cls-7{fill:#e64340;}.cls-8{fill:#834318;}.cls-9{fill:#a469a4;}.cls-10{fill:none;stroke:#7b457c;stroke-miterlimit:10;stroke-width:2px;}</style></defs><title>AvatarPrincesse</title><path class="cls-1" d="M998.94,500.91c0,212.93-133.11,394.78-320.66,466.87q-11.6,4.46-23.46,8.35-10.79,3.54-21.8,6.6a503.52,503.52,0,0,1-266.3.51q-15.29-4.17-30.16-9.3-8.28-2.82-16.41-5.94c-187.84-72-321.21-254-321.21-467.09,0-276.14,223.86-500,500-500S998.94,224.77,998.94,500.91Z" transform="translate(1.06 -0.91)"/><path class="cls-2" d="M700,487.76C733.33,182.94,530.11,214.78,498.4,233c-31.71-18.2-234.93-50-201.56,254.78S167.93,677.32,167.93,677.32,199.51,841.11,498.4,833.53c298.89,7.58,330.47-156.21,330.47-156.21S666.6,792.58,700,487.76Z" transform="translate(1.06 -0.91)"/><path class="cls-3" d="M539.13,680c-40.41,46.46-80.79,0-80.79,0l10-74.46,2.59-19.45a64.76,64.76,0,0,0,54.79,0l2.77,19.36Z" transform="translate(1.06 -0.91)"/><path class="cls-4" d="M528.44,605.43c-.92.46-1.84.9-2.77,1.32a64.76,64.76,0,0,1-54.79,0c-.87-.39-1.73-.8-2.59-1.23l2.59-19.45a64.76,64.76,0,0,0,54.79,0Z" transform="translate(1.06 -0.91)"/><path class="cls-3" d="M620.07,420.23a237.07,237.07,0,0,1-6.34,54.91q-2,8.42-4.58,16.41c-19.13,59.3-61.39,100.5-110.45,100.5-51.46,0-95.44-45.32-113.1-109.3q-2.5-9.08-4.29-18.62a240.84,240.84,0,0,1-4-43.9c0-83.88,42.45-153.72,98.6-168.82a87.64,87.64,0,0,1,44.16-.36C576.91,265.35,620.07,335.65,620.07,420.23Z" transform="translate(1.06 -0.91)"/><path class="cls-4" d="M618.49,426a273,273,0,0,1-6.34,59c-29.3-37.5-53.2-97.9-55.17-129.35-22.55-1.24-50.84-8-58.58-32.81-9.68,29-40.53,34.16-68.44,34.6-3.23,29.21-24.25,79.72-50.23,115.73a277.7,277.7,0,0,1-4-47.18c0-90.13,42.45-165.18,98.6-181.4a115.49,115.49,0,0,1,44.16-.39C575.33,259.6,618.49,335.14,618.49,426Z" transform="translate(1.06 -0.91)"/><path class="cls-2" d="M648.46,494.88c-36.41-20.22-67.93-94.22-75.72-139.12q-.07-.35-.12-.69a123.3,123.3,0,0,1-1.55-12.67c-22.84-2.08-63.18-10.09-72.67-40.55-11.87,35.6-55.59,42.25-86.65,43.44l5.74-.1c-.19,3.09-.58,6.44-1.14,10-.11.72-.24,1.45-.37,2.19-7.93,45.38-43.38,121.31-82,137.87L344.79,274l67.56-33.26,86-7.73,71.5,9.57,84.59,42.3Z" transform="translate(1.06 -0.91)"/><path class="cls-5" d="M466.21,412.68A35.23,35.23,0,0,1,465,422c-2.14,7.7-6.85,13.06-12.31,13.06-7.47,0-13.52-10-13.52-22.37a36.39,36.39,0,0,1,.78-7.53c1.83-8.45,6.64-14.55,12.33-14.82a2.82,2.82,0,0,1,.41,0c5.93,0,11,6.3,12.79,15.08A35.53,35.53,0,0,1,466.21,412.68Z" transform="translate(1.06 -0.91)"/><path class="cls-5" d="M546.86,412.68a35,35,0,0,1-1.2,9.21c-2.12,7.76-6.84,13.16-12.32,13.16-7.47,0-13.53-10-13.53-22.37a35.79,35.79,0,0,1,.82-7.7c1.75-7.89,6.11-13.69,11.35-14.55a7.64,7.64,0,0,1,1.36-.12c6,0,11,6.41,12.83,15.31A35.59,35.59,0,0,1,546.86,412.68Z" transform="translate(1.06 -0.91)"/><path class="cls-4" d="M465.47,405.39c-10.94-9-23.67-1.43-25.53-.24,1.83-8.45,6.64-14.55,12.33-14.82a2.82,2.82,0,0,1,.41,0C458.61,390.31,463.65,396.61,465.47,405.39Z" transform="translate(1.06 -0.91)"/><path class="cls-4" d="M546.17,405.62c-10.58-9-22.94-2.24-25.54-.64,1.75-7.89,6.11-13.69,11.35-14.55a7.64,7.64,0,0,1,1.36-.12C539.32,390.31,544.39,396.72,546.17,405.62Z" transform="translate(1.06 -0.91)"/><ellipse class="cls-6" cx="453.42" cy="425.26" rx="6.73" ry="9.68"/><ellipse class="cls-6" cx="535.12" cy="424.93" rx="6.73" ry="9.68"/><path class="cls-7" d="M507.55,507.93c-2.63.07-6.52,5.22-9.15,5.22s-6.52-5-9.15-5.22c-10.6-.74-26.84,8.35-37.9,9.14,8.8,13,33.35,31.72,47,31.72s39.56-17.68,47.05-31.72C534.74,516.7,518,507.63,507.55,507.93Z" transform="translate(1.06 -0.91)"/><path class="cls-5" d="M509.68,516.39c-3.07.27-5.41,4.92-11.47,4.92-6.72,0-7.87-5.07-10.93-5.34-6.74-.59-15.61,3.43-25.9,4.59,6.51,6.56,26.9,15.54,37,15.54s32-4.88,37.63-14.87C527,521.25,516.41,515.8,509.68,516.39Z" transform="translate(1.06 -0.91)"/><path class="cls-8" d="M522.07,383.56c.8,1.89,20.6.67,26.48,3.85,6.07,3.29,18.28,20.72,18.28,20.72s-7.29-26.08-17-29.22S516.4,370.19,522.07,383.56Z" transform="translate(1.06 -0.91)"/><path class="cls-8" d="M469.82,383.56c-.8,1.89-20.59.67-26.48,3.85-6.07,3.29-18.27,20.72-18.27,20.72s7.29-26.08,17-29.22S475.49,370.19,469.82,383.56Z" transform="translate(1.06 -0.91)"/><ellipse class="cls-5" cx="452.63" cy="431.17" rx="2.61" ry="3.76"/><ellipse class="cls-5" cx="534.45" cy="430.87" rx="2.61" ry="3.76"/><path class="cls-4" d="M484.71,483.55a6.71,6.71,0,0,1,4.06,1.16c1.22.72,2.35,1.53,3.49,2.3a24.77,24.77,0,0,0,3.43,2,7,7,0,0,0,3.56.8c2.41-.19,4.77-1.73,7.12-3.13,1.19-.71,2.4-1.44,3.67-2a8.07,8.07,0,0,1,4.06-1,8.82,8.82,0,0,0-3.78,1.48,36.79,36.79,0,0,0-3.29,2.48,30,30,0,0,1-3.43,2.48,9.84,9.84,0,0,1-4.23,1.47,8.41,8.41,0,0,1-4.43-1,21.91,21.91,0,0,1-3.54-2.43c-1.08-.89-2.1-1.82-3.16-2.67a7.4,7.4,0,0,0-3.53-1.85Z" transform="translate(1.06 -0.91)"/><path class="cls-4" d="M512.65,486.8a15.94,15.94,0,0,0,5.94-3.6,7.34,7.34,0,0,0,1.73-2.8,4.85,4.85,0,0,0-.1-3.15c-.84-2.08-2.41-3.95-3.71-5.93a28.33,28.33,0,0,1-3.45-6.29,45.34,45.34,0,0,0,4.05,5.84c.74.93,1.51,1.85,2.21,2.82a13.75,13.75,0,0,1,1.88,3.18,5.54,5.54,0,0,1,.42,1.91,5.9,5.9,0,0,1-.29,1.93,7.69,7.69,0,0,1-2.09,3.16A12.52,12.52,0,0,1,512.65,486.8Z" transform="translate(1.06 -0.91)"/><path class="cls-4" d="M485.44,486.8a12.49,12.49,0,0,1-6.59-2.93,7.5,7.5,0,0,1-2.09-3.16,5.65,5.65,0,0,1-.29-1.93,5.77,5.77,0,0,1,.41-1.91,14.11,14.11,0,0,1,1.88-3.18c.71-1,1.47-1.89,2.21-2.82A44.43,44.43,0,0,0,485,465a28.33,28.33,0,0,1-3.45,6.29c-1.3,2-2.88,3.85-3.71,5.93a4.73,4.73,0,0,0-.1,3.15,7.44,7.44,0,0,0,1.72,2.8A16.06,16.06,0,0,0,485.44,486.8Z" transform="translate(1.06 -0.91)"/><path class="cls-3" d="M654.82,976.13q-10.79,3.54-21.8,6.6a503.52,503.52,0,0,1-266.3.51q-15.29-4.17-30.16-9.3c-12-36.65-32-118.46-30.32-128.27,14-81.21,77-145.18,146.39-170,18.92-6.78,25.59-14,46.55-14,22.24,0,27.22,5.93,47.15,13.53l1.21.47c67.31,26.15,130.34,90.5,144.51,170.35C693.78,855.72,668,939.11,654.82,976.13Z" transform="translate(1.06 -0.91)"/><path class="cls-9" d="M730.86,838.43,692.05,846,642,855.74l-25.4,83.13L633,982.73a503.52,503.52,0,0,1-266.3.51l16.64-44.37L358,855.74l-51.72-10.07-37.18-7.24,114.3-161.64,69.27-1.15,46.6,132.28L547.3,675.64h.24l69,1.15Z" transform="translate(1.06 -0.91)"/><polyline class="cls-10" points="353.24 810.65 359.02 854.83 384.42 937.96"/><polyline class="cls-10" points="398.99 810.65 404.77 854.83 430.17 937.96"/><polyline class="cls-10" points="647.72 810.65 641.94 854.83 616.54 937.96"/><polyline class="cls-10" points="607.88 810.65 602.1 854.83 576.7 937.96"/></svg>