<?xml version="1.0" encoding="utf-8"?>
<!-- Generator: Adobe Illustrator 16.0.3, SVG Export Plug-In . SVG Version: 6.00 Build 0)  -->
<!DOCTYPE svg PUBLIC "-//W3C//DTD SVG 1.1//EN" "http://www.w3.org/Graphics/SVG/1.1/DTD/svg11.dtd">
<svg version="1.1" id="Layer_1" xmlns="http://www.w3.org/2000/svg" xmlns:xlink="http://www.w3.org/1999/xlink" x="0px" y="0px"
	 width="960px" height="560px" viewBox="0 0 960 560" enable-background="new 0 0 960 560" xml:space="preserve">
<circle fill="#79CADC" cx="522.533" cy="291" r="261"/>
<path fill="#D82A2A" d="M683.107,317.521L533.586,477.86l-160.7-149.855c-7.569-7.061-13.885-14.96-18.933-23.423
	c-22.134-37.07-20.004-84.913,7.224-120.08l3.696-3.964c-27.228,35.168-29.357,83.009-7.224,120.081
	c5.048,8.464,11.362,16.365,18.931,23.424c25.754,24.017,60.194,32.861,92.364,26.948c21.743-4.003,42.499-14.792,58.756-32.226
	l0.116-0.125c1.352,1.428,2.753,2.802,4.188,4.141c25.753,24.017,60.177,32.879,92.346,26.966
	c20.742-3.829,40.503-13.77,56.358-29.8l0.018-0.018c0.639-0.611,1.274-1.258,1.877-1.904
	C682.79,317.863,682.939,317.702,683.107,317.521z"/>
<path fill="#D82A2A" d="M678.908,321.987c-16.163,17.151-36.702,27.743-58.252,31.723c-32.171,5.914-66.593-2.95-92.347-26.967
	c-1.437-1.338-2.837-2.712-4.189-4.14l-0.116,0.125c-16.257,17.433-37.012,28.222-58.755,32.226
	c-32.17,5.912-66.608-2.934-92.362-26.949c-7.569-7.061-13.885-14.96-18.933-23.423c-22.134-37.07-20.004-84.913,7.224-120.08
	l11.992-12.86c12.586-11.232,27.256-18.945,42.691-23.163c34.565-9.447,73.059-1.282,101.18,24.942
	c1.452,1.354,2.871,2.744,4.206,4.156l0.116-0.125c14.048-15.065,31.428-25.182,49.939-30.218
	c34.548-9.464,73.057-1.284,101.161,24.925c42.075,39.235,45.414,104.517,8.265,147.769l-0.018,0.018
	c-0.331,0.396-0.698,0.79-1.033,1.182C679.409,321.417,679.176,321.701,678.908,321.987z"/>
<circle fill="#050505" cx="449" cy="237.75" r="7.25"/>
<image overflow="visible" width="480" height="480" xlink:href="C:\Users\helen\Downloads\tongue.png"  transform="matrix(0.1865 0 0 0.1865 485.7666 316.96)">
</image>
<image overflow="visible" width="512" height="512" xlink:href="C:\Users\helen\Downloads\eye.png"  transform="matrix(0.096 0 0 0.096 424.437 213.6484)">
</image>
<image overflow="visible" width="512" height="512" xlink:href="C:\Users\helen\Downloads\eye.png"  transform="matrix(0.096 0 0 0.096 577.4375 213.1865)">
</image>
</svg>
