<svg xmlns="http://www.w3.org/2000/svg" viewBox="0 0 998.04 998.04"><defs><style>.cls-1{fill:#7bcadd;}.cls-2,.cls-3{fill:#fff;}.cls-3{stroke:#1a171b;stroke-miterlimit:10;}.cls-4{fill:#1a171b;}</style></defs><title>AvatarNuage</title><g id="Calque_1" data-name="Calque 1"><circle class="cls-1" cx="499.02" cy="499.02" r="499.02"/></g><g id="Calque_2" data-name="Calque 2"><path class="cls-2" d="M123.78,439.53v12.34c-.1-2.05-.15-4.1-.15-6.17S123.68,441.58,123.78,439.53Z" transform="translate(-0.91 -0.91)"/><path class="cls-2" d="M883.18,406.54a199.34,199.34,0,0,1-1.47,24.21v105c0,84.41-67.74,152.83-151.29,152.83H247.65c-83.56,0-151.29-68.42-151.29-152.83V483.37a117.34,117.34,0,0,1,66.86-100.5,115.1,115.1,0,0,1,110.72,6.88c.8-2.31,1.65-4.62,2.54-6.88C302.39,317,366,270.52,440.41,270.52A174.19,174.19,0,0,1,531,295.82c34.84-51,93.08-84.38,159-84.38C796.73,211.44,883.18,298.79,883.18,406.54Z" transform="translate(-0.91 -0.91)"/><circle class="cls-3" cx="622.97" cy="421.42" r="66.08"/><circle class="cls-3" cx="722.33" cy="439.56" r="50.68"/><circle class="cls-4" cx="701.18" cy="462.65" r="19.65"/><circle class="cls-4" cx="650.55" cy="459.06" r="19.65"/><circle class="cls-4" cx="672.21" cy="534.45" r="17.22"/></g></svg>