<?xml version="1.0" encoding="utf-8"?>
<!-- Generator: Adobe Illustrator 22.1.0, SVG Export Plug-In . SVG Version: 6.00 Build 0)  -->
<svg version="1.1" id="Layer_1" xmlns="http://www.w3.org/2000/svg" xmlns:xlink="http://www.w3.org/1999/xlink" x="0px" y="0px"
	 viewBox="0 0 521 520" style="enable-background:new 0 0 521 520;" xml:space="preserve">
<style type="text/css">
	.st0{fill:#79CADC;}
	.st1{fill:#08700F;}
	.st2{fill:#078413;}
	.st3{fill:#037508;}
	.st4{fill:#FFFFFF;}
	.st5{fill:#020202;}
	.st6{fill:#070707;}
</style>
<circle class="st0" cx="261" cy="261" r="261"/>
<path class="st1" d="M333.3,178.7L266.3,247l-68.5-67.1c-3.2-3.2-5.9-6.7-8-10.4c-9.3-16.4-7.8-37.3,4.4-52.3l1.7-1.7
	c-12.3,15-13.7,35.9-4.4,52.3c2.1,3.7,4.8,7.3,8,10.4c11,10.8,25.9,15,40,12.7c9.5-1.5,18.7-6,26-13.4l0.1-0.1
	c0.6,0.6,1.2,1.3,1.8,1.9c11,10.8,25.9,15,40,12.8c9.1-1.4,17.8-5.6,24.9-12.4l0,0c0.3-0.3,0.6-0.5,0.8-0.8
	C333.1,178.9,333.2,178.8,333.3,178.7z"/>
<path class="st2" d="M331.4,180.6c-7.2,7.3-16.3,11.7-25.7,13.2c-14.1,2.2-29-2-40-12.8c-0.6-0.6-1.2-1.2-1.8-1.9l-0.1,0.1
	c-7.3,7.4-16.4,11.9-26,13.4c-14.1,2.2-29-2-40-12.7c-3.2-3.2-5.9-6.7-8-10.4c-9.3-16.4-7.8-37.3,4.4-52.3l5.4-5.5
	c5.6-4.8,12.1-8,18.9-9.6c15.2-3.7,31.9,0.2,43.9,12c0.6,0.6,1.2,1.2,1.8,1.9l0.1-0.1c6.3-6.4,14-10.6,22.1-12.6
	c15.2-3.8,31.9,0.2,43.9,12c17.9,17.6,18.7,46.1,2,64.5l0,0c-0.1,0.2-0.3,0.3-0.5,0.5C331.6,180.4,331.5,180.5,331.4,180.6z"/>
<path class="st1" d="M337.3,317.5l-68.3-67l67.1-68.5c3.2-3.2,6.7-5.9,10.4-8c16.4-9.3,37.3-7.8,52.3,4.5l1.7,1.7
	c-15-12.3-35.9-13.7-52.3-4.5c-3.7,2.1-7.3,4.8-10.4,8c-10.8,11-15,25.9-12.8,40c1.5,9.5,6,18.7,13.4,26l0.1,0.1
	c-0.6,0.6-1.3,1.2-1.9,1.8c-10.8,11-15,25.9-12.8,40c1.4,9.1,5.6,17.8,12.4,24.9l0,0c0.3,0.3,0.5,0.6,0.8,0.8
	C337.2,317.4,337.3,317.4,337.3,317.5z"/>
<path class="st2" d="M335.4,315.6c-7.3-7.2-11.7-16.3-13.2-25.8c-2.2-14.1,2-29,12.8-40c0.6-0.6,1.2-1.2,1.9-1.8l-0.1-0.1
	c-7.4-7.3-11.9-16.5-13.4-26c-2.2-14.1,2-29,12.8-40c3.2-3.2,6.7-5.9,10.4-8c16.4-9.3,37.3-7.8,52.3,4.5l5.5,5.4
	c4.8,5.6,8,12.1,9.6,18.9c3.7,15.2-0.2,31.9-12,43.9c-0.6,0.6-1.2,1.2-1.9,1.8l0.1,0.1c6.4,6.3,10.6,14,12.6,22.1
	c3.8,15.2-0.2,31.9-12,43.9c-17.6,17.9-46.1,18.7-64.5,2l0,0c-0.2-0.1-0.3-0.3-0.5-0.5C335.7,315.9,335.6,315.8,335.4,315.6z"/>
<path class="st1" d="M194.8,184.4l69.1,66.1l-66.2,69.3c-3.1,3.3-6.6,6-10.3,8.1c-16.3,9.5-37.2,8.3-52.4-3.8l-1.7-1.6
	c15.2,12.1,36.1,13.3,52.4,3.8c3.7-2.2,7.2-4.9,10.3-8.1c10.6-11.1,14.7-26.1,12.3-40.2c-1.6-9.5-6.2-18.6-13.7-25.8l-0.1-0.1
	c0.6-0.6,1.2-1.2,1.8-1.8c10.6-11.1,14.7-26.1,12.3-40.1c-1.6-9.1-5.8-17.7-12.7-24.8l0,0c-0.3-0.3-0.5-0.6-0.8-0.8
	C194.9,184.5,194.9,184.4,194.8,184.4z"/>
<path class="st2" d="M196.7,186.2c7.4,7.1,11.9,16.2,13.5,25.6c2.4,14.1-1.6,29-12.3,40.1c-0.6,0.6-1.2,1.2-1.8,1.8l0.1,0.1
	c7.5,7.2,12.1,16.3,13.7,25.8c2.4,14.1-1.6,29-12.3,40.1c-3.1,3.3-6.6,6-10.3,8.1c-16.3,9.5-37.2,8.3-52.4-3.8l-5.5-5.3
	c-4.8-5.5-8.1-12-9.9-18.7c-3.9-15.1-0.2-31.9,11.4-44c0.6-0.6,1.2-1.2,1.8-1.8l-0.1-0.1c-6.5-6.2-10.8-13.8-12.9-22
	c-3.9-15.1-0.2-31.9,11.4-44c17.3-18.1,45.8-19.3,64.5-2.8l0,0c0.2,0.1,0.3,0.3,0.5,0.5C196.5,186,196.6,186.1,196.7,186.2z"/>
<path class="st1" d="M199,322.2l67.3-68l68.1,67.5c3.2,3.2,5.9,6.7,7.9,10.5c9.2,16.5,7.6,37.3-4.7,52.3l-1.7,1.7
	c12.3-15,13.9-35.8,4.7-52.3c-2.1-3.8-4.7-7.3-7.9-10.5c-10.9-10.8-25.8-15.1-39.9-13c-9.5,1.5-18.7,5.9-26,13.3l-0.1,0.1
	c-0.6-0.6-1.2-1.3-1.8-1.9c-10.9-10.8-25.8-15.1-39.9-13c-9.1,1.4-17.8,5.5-25,12.3l0,0c-0.3,0.3-0.6,0.5-0.8,0.8
	C199.1,322.1,199,322.1,199,322.2z"/>
<path class="st2" d="M200.8,320.3c7.3-7.3,16.4-11.6,25.8-13.1c14.1-2.2,29,2.2,39.9,13c0.6,0.6,1.2,1.2,1.8,1.9l0.1-0.1
	c7.3-7.4,16.5-11.8,26-13.3c14.1-2.2,29,2.2,39.9,13c3.2,3.2,5.9,6.7,7.9,10.5c9.2,16.5,7.6,37.3-4.7,52.3l-5.4,5.5
	c-5.6,4.7-12.1,7.9-18.9,9.5c-15.2,3.7-31.9-0.4-43.8-12.2c-0.6-0.6-1.2-1.2-1.8-1.9l-0.1,0.1c-6.3,6.4-14,10.6-22.2,12.5
	c-15.2,3.7-31.9-0.4-43.8-12.2c-17.8-17.7-18.4-46.2-1.7-64.6l0,0c0.1-0.2,0.3-0.3,0.5-0.5C200.6,320.6,200.7,320.5,200.8,320.3z"/>
<ellipse transform="matrix(0.1602 -0.9871 0.9871 0.1602 -20.6091 471.2509)" class="st3" cx="266.6" cy="247.7" rx="18.4" ry="18.4"/>
<circle class="st4" cx="266.6" cy="247.7" r="10.6"/>
<path class="st4" d="M245.3,205.1c0,0,18.2,28.4,42.6,0"/>
<circle class="st5" cx="232.2" cy="177" r="8.9"/>
<circle class="st6" cx="295.2" cy="177" r="8.9"/>
</svg>
