<?xml version="1.0" encoding="utf-8"?>
<!-- Generator: Adobe Illustrator 22.0.1, SVG Export Plug-In . SVG Version: 6.00 Build 0)  -->
<svg version="1.1" xmlns="http://www.w3.org/2000/svg" xmlns:xlink="http://www.w3.org/1999/xlink" x="0px" y="0px"
	 viewBox="0 0 1167.1 1050.2" style="enable-background:new 0 0 1167.1 1050.2;" xml:space="preserve">
<style type="text/css">
	.st0{display:none;}
	.st1{display:inline;}
	.st2{fill:#D8CCBB;}
	.st3{fill:#EBE4DD;}
	.st4{fill:#C6B6A4;}
	.st5{fill:#AB927C;}
	.st6{fill:#C0A992;}
	.st7{fill:none;stroke:#000000;stroke-miterlimit:10;}
</style>
<g id="Calque_1" class="st0">
	<g id="xi3m1M.tif" class="st1">
		
			<image style="overflow:visible;" width="652" height="608" id="Layer_0_6_" xlink:href="9C14576AB30E414A.png"  transform="matrix(2.5383 0 0 2.5383 -163.2827 -420.0314)">
		</image>
	</g>
</g>
<g id="Calque_2">
	<polygon class="st2" points="628.6,423.3 762.2,423.5 827.2,343.5 1103.2,343.5 1103.2,949.5 975.2,948.5 	"/>
	<rect x="50.7" y="98" class="st2" width="80" height="850"/>
	<polygon class="st3" points="975.2,948.5 131.2,948.5 131.2,98.5 414.2,98.5 	"/>
	<path class="st4" d="M419.8,98.5H48.6c-5.8,0-10.4-4.7-10.4-10.4V40.9c0-5.8,4.7-10.4,10.4-10.4h371.2c5.8,0,10.4,4.7,10.4,10.4
		v47.2C430.2,93.8,425.6,98.5,419.8,98.5z"/>
	<path class="st2" d="M419.8,98.5H134.6c-5.8,0-10.4-4.7-10.4-10.4V40.9c0-5.8,4.7-10.4,10.4-10.4h285.2c5.8,0,10.4,4.7,10.4,10.4
		v47.2C430.2,93.8,425.6,98.5,419.8,98.5z"/>
	<path class="st5" d="M1111.3,343.5H834.6c-5.8,0-10.4-4.7-10.4-10.4v-47.2c0-5.8,4.7-10.4,10.4-10.4h276.7
		c5.8,0,10.4,4.7,10.4,10.4v47.2C1121.7,338.8,1117.1,343.5,1111.3,343.5z"/>
	<path class="st6" d="M1111.3,343.5H906.6c-5.8,0-10.4-4.7-10.4-10.4v-47.2c0-5.8,4.7-10.4,10.4-10.4h204.7
		c5.8,0,10.4,4.7,10.4,10.4v47.2C1121.7,338.8,1117.1,343.5,1111.3,343.5z"/>
	<path class="st2" d="M368.7,207.5h-184c-11.3,0-20.5-9.2-20.5-20.5v0c0-11.3,9.2-20.5,20.5-20.5h184c11.3,0,20.5,9.2,20.5,20.5v0
		C389.2,198.3,380,207.5,368.7,207.5z"/>
	<path class="st4" d="M546.2,309.5h-495c-10.5,0-19-8.5-19-19v0c0-10.5,8.5-19,19-19h495c10.5,0,19,8.5,19,19v0
		C565.2,301,556.7,309.5,546.2,309.5z"/>
	<path class="st2" d="M546.2,309.5h-403c-10.5,0-19-8.5-19-19v0c0-10.5,8.5-19,19-19h403c10.5,0,19,8.5,19,19v0
		C565.2,301,556.7,309.5,546.2,309.5z"/>
	<path class="st4" d="M692.7,542.5H51.2c-10.5,0-19-8.5-19-19v0c0-10.5,8.5-19,19-19h641.5c10.5,0,19,8.5,19,19v0
		C711.7,534,703.2,542.5,692.7,542.5z"/>
	<path class="st2" d="M692.7,542.5H136.2c-10.5,0-19-8.5-19-19v0c0-10.5,8.5-19,19-19h556.5c10.5,0,19,8.5,19,19v0
		C711.7,534,703.2,542.5,692.7,542.5z"/>
	<path class="st5" d="M1121.7,523.5c0,5.2-2.1,10-5.6,13.4c-3.4,3.4-8.2,5.6-13.4,5.6H707.3l-25.1-38c0.3,0,0.7,0,1,0h419.5
		C1113.2,504.5,1121.7,513,1121.7,523.5z"/>
	<path class="st6" d="M1102.7,542.5H771.2c-10.5,0-19-8.5-19-19v0c0-10.5,8.5-19,19-19h331.5c10.5,0,19,8.5,19,19v0
		C1121.7,534,1113.2,542.5,1102.7,542.5z"/>
	<path class="st4" d="M834.7,755.5H51.2c-10.5,0-19-8.5-19-19v0c0-10.5,8.5-19,19-19h783.5c10.5,0,19,8.5,19,19v0
		C853.7,747,845.2,755.5,834.7,755.5z"/>
	<path class="st2" d="M834.7,755.5H143.2c-10.5,0-19-8.5-19-19v0c0-10.5,8.5-19,19-19h691.5c10.5,0,19,8.5,19,19v0
		C853.7,747,845.2,755.5,834.7,755.5z"/>
	<path class="st4" d="M1095,1014H56c-18.1,0-32.7-14.7-32.7-32.7v0c0-18.1,14.7-32.8,32.7-32.8h1039c18.1,0,32.8,14.7,32.8,32.8v0
		C1127.7,999.3,1113.1,1014,1095,1014z"/>
	<path class="st2" d="M1095,1014H371c-18.1,0-32.7-14.7-32.7-32.7v0c0-18.1,14.7-32.8,32.7-32.8h724c18.1,0,32.8,14.7,32.8,32.8v0
		C1127.7,999.3,1113.1,1014,1095,1014z"/>
	<path class="st5" d="M234.2,442v62.5h-103V442c0-28.4,23.1-51.5,51.5-51.5c9.5,0,18.4,2.6,26,7C224,406.4,234.2,423,234.2,442z"/>
	<path class="st6" d="M234.2,442v62.5h-51V442c0-19,10.2-35.5,25.5-44.5C224,406.4,234.2,423,234.2,442z"/>
	<path class="st5" d="M423.7,442.5V505h-103v-62.5c0-28.4,23.1-51.5,51.5-51.5c9.5,0,18.4,2.6,26,7
		C413.5,406.9,423.7,423.5,423.7,442.5z"/>
	<path class="st6" d="M423.7,442.5V505h-51v-62.5c0-19,10.2-35.5,25.5-44.5C413.5,406.9,423.7,423.5,423.7,442.5z"/>
	<path class="st5" d="M234.2,655v62.5h-103V655c0-28.4,23.1-51.5,51.5-51.5c9.5,0,18.4,2.6,26,7C224,619.4,234.2,636,234.2,655z"/>
	<path class="st6" d="M234.2,655v62.5h-51V655c0-19,10.2-35.5,25.5-44.5C224,619.4,234.2,636,234.2,655z"/>
	<path class="st5" d="M423.7,655.5V718h-103v-62.5c0-28.4,23.1-51.5,51.5-51.5c9.5,0,18.4,2.6,26,7
		C413.5,619.9,423.7,636.5,423.7,655.5z"/>
	<path class="st6" d="M423.7,655.5V718h-51v-62.5c0-19,10.2-35.5,25.5-44.5C413.5,619.9,423.7,636.5,423.7,655.5z"/>
	<path class="st5" d="M234.2,885v62.5h-103V885c0-28.4,23.1-51.5,51.5-51.5c9.5,0,18.4,2.6,26,7C224,849.4,234.2,866,234.2,885z"/>
	<path class="st6" d="M234.2,885v62.5h-51V885c0-19,10.2-35.5,25.5-44.5C224,849.4,234.2,866,234.2,885z"/>
	<path class="st5" d="M423.7,885.5V948h-103v-62.5c0-28.4,23.1-51.5,51.5-51.5c9.5,0,18.4,2.6,26,7
		C413.5,849.9,423.7,866.5,423.7,885.5z"/>
	<path class="st6" d="M423.7,885.5V948h-51v-62.5c0-19,10.2-35.5,25.5-44.5C413.5,849.9,423.7,866.5,423.7,885.5z"/>
	<path class="st5" d="M609.7,885.5V948h-103v-62.5c0-28.4,23.1-51.5,51.5-51.5c9.5,0,18.4,2.6,26,7
		C599.5,849.9,609.7,866.5,609.7,885.5z"/>
	<path class="st6" d="M609.7,885.5V948h-51v-62.5c0-19,10.2-35.5,25.5-44.5C599.5,849.9,609.7,866.5,609.7,885.5z"/>
	<path class="st5" d="M795.7,885.5V948h-103v-62.5c0-28.4,23.1-51.5,51.5-51.5c9.5,0,18.4,2.6,26,7
		C785.5,849.9,795.7,866.5,795.7,885.5z"/>
	<path class="st6" d="M795.7,885.5V948h-51v-62.5c0-19,10.2-35.5,25.5-44.5C785.5,849.9,795.7,866.5,795.7,885.5z"/>
	<path class="st5" d="M1023.7,659.5V722h-103v-62.5c0-28.4,23.1-51.5,51.5-51.5c9.5,0,18.4,2.6,26,7
		C1013.5,623.9,1023.7,640.5,1023.7,659.5z"/>
	<path class="st6" d="M1023.7,659.5V722h-51v-62.5c0-19,10.2-35.5,25.5-44.5C1013.5,623.9,1023.7,640.5,1023.7,659.5z"/>
	<path class="st5" d="M835.7,654.5V717h-13.3l-68.7-104c8.5-6.3,19.1-10,30.5-10c9.5,0,18.4,2.6,26,7
		C825.5,618.9,835.7,635.5,835.7,654.5z"/>
	<path class="st5" d="M1023.7,885.5V948h-51v-3.3l-49.5-75c6-18.5,22.1-32.4,41.8-35.2c2.4-0.3,4.8-0.5,7.2-0.5c9.5,0,18.4,2.6,26,7
		C1013.5,849.9,1023.7,866.5,1023.7,885.5z"/>
	<path class="st6" d="M1023.7,885.5V948h-51v-62.5c0-10.1,2.9-19.4,7.9-27.4c4.4-7,10.5-12.9,17.6-17.1
		C1013.5,849.9,1023.7,866.5,1023.7,885.5z"/>
	<path class="st5" d="M609.7,654.5V717h-103v-62.5c0-28.4,23.1-51.5,51.5-51.5c9.5,0,18.4,2.6,26,7
		C599.5,618.9,609.7,635.5,609.7,654.5z"/>
	<path class="st6" d="M609.7,654.5V717h-51v-62.5c0-19,10.2-35.5,25.5-44.5C599.5,618.9,609.7,635.5,609.7,654.5z"/>
	<line class="st7" x1="693.7" y1="423.4" x2="693.6" y2="423.3"/>
	<path class="st5" d="M1023.7,923.5V948h-51v-62.5c0-10.1,2.9-19.4,7.9-27.4L1023.7,923.5z"/>
	<path class="st5" d="M1121.2,736.5c0,10.5-8.5,19-19,19H847.8l-25.1-38h279.5c5.2,0,10,2.1,13.4,5.6
		C1119.1,726.5,1121.2,731.2,1121.2,736.5z"/>
	<path class="st6" d="M1102.7,755.5H914.6c-10.5,0-19-8.5-19-19v0c0-10.5,8.5-19,19-19h188.1c10.5,0,19,8.5,19,19v0
		C1121.7,747,1113.2,755.5,1102.7,755.5z"/>
	<polygon class="st4" points="1101.2,949 1101.2,949.5 973.2,948.5 972.9,948 970.7,944.7 921.2,869.6 845.8,755.5 820.8,717.5 
		820.4,717 751.8,612.9 705.3,542.5 680.2,504.5 626.6,423.3 691.7,423.4 745.2,504.5 770.3,542.5 885.8,717.5 910.8,755.5 
		963,834.5 978.6,858.1 1021.7,923.5 1038.2,948.5 	"/>
</g>
</svg>
