<?xml version="1.0" encoding="utf-8"?>
<!-- Generator: Adobe Illustrator 22.0.1, SVG Export Plug-In . SVG Version: 6.00 Build 0)  -->
<svg version="1.1" xmlns="http://www.w3.org/2000/svg" xmlns:xlink="http://www.w3.org/1999/xlink" x="0px" y="0px"
	 viewBox="0 0 1209.5 1612.8" style="enable-background:new 0 0 1209.5 1612.8;" xml:space="preserve">
<style type="text/css">
	.st0{fill:#D8CCBB;}
	.st1{fill:#EBE4DD;}
	.st2{fill:#C6B6A4;}
	.st3{fill:#AB927C;}
	.st4{fill:#C0A992;}
	.st5{fill:#74C77D;}
	.st6{fill:#57A95B;}
</style>
<g id="Calque_1">
</g>
<g id="Calque_2">
	<g>
		
			<rect x="357.3" y="293" transform="matrix(0.978 0.2084 -0.2084 0.978 179.0105 -64.8612)" class="st0" width="80" height="1048"/>
		
			<rect x="430.7" y="359.1" transform="matrix(0.978 0.2084 -0.2084 0.978 199.5629 -127.6028)" class="st1" width="549" height="1048"/>
		
			<rect x="555.6" y="84.4" transform="matrix(0.978 0.2084 -0.2084 0.978 51.3601 -120.1187)" class="st0" width="80" height="198.5"/>
		
			<rect x="630.5" y="137.9" transform="matrix(0.978 0.2084 -0.2084 0.978 67.9344 -170.8199)" class="st1" width="428" height="198"/>
		<path class="st2" d="M937,1117.5L322.8,986.6c-9.7-2.1-15.9-11.6-13.9-21.4v0c2.1-9.7,11.6-15.9,21.4-13.9l614.2,130.9
			c9.7,2.1,15.9,11.6,13.9,21.4l0,0C956.2,1113.4,946.7,1119.6,937,1117.5z"/>
		<path class="st0" d="M937,1117.5l-536-114.2c-9.7-2.1-15.9-11.6-13.9-21.4l0,0c2.1-9.7,11.6-15.9,21.4-13.9l536,114.2
			c9.7,2.1,15.9,11.6,13.9,21.4l0,0C956.2,1113.4,946.7,1119.6,937,1117.5z"/>
		<path class="st2" d="M985.5,889.7L371.3,758.8c-9.7-2.1-15.9-11.6-13.9-21.4h0c2.1-9.7,11.6-15.9,21.4-13.9L993,854.5
			c9.7,2.1,15.9,11.6,13.9,21.4v0C1004.8,885.5,995.3,891.7,985.5,889.7z"/>
		<path class="st0" d="M985.5,889.7l-536-114.2c-9.7-2.1-15.9-11.6-13.9-21.4v0c2.1-9.7,11.6-15.9,21.4-13.9l536,114.2
			c9.7,2.1,15.9,11.6,13.9,21.4v0C1004.8,885.5,995.3,891.7,985.5,889.7z"/>
		<path class="st2" d="M1035.1,656.9L420.9,526c-9.7-2.1-15.9-11.6-13.9-21.4l0,0c2.1-9.7,11.6-15.9,21.4-13.9l614.2,130.9
			c9.7,2.1,15.9,11.6,13.9,21.4l0,0C1054.4,652.8,1044.9,659,1035.1,656.9z"/>
		<path class="st0" d="M1035.1,656.9l-536-114.2c-9.7-2.1-15.9-11.6-13.9-21.4v0c2.1-9.7,11.6-15.9,21.4-13.9l536,114.2
			c9.7,2.1,15.9,11.6,13.9,21.4l0,0C1054.4,652.8,1044.9,659,1035.1,656.9z"/>
		<path class="st2" d="M1084.3,426.1L470.1,295.2c-9.7-2.1-15.9-11.6-13.9-21.4v0c2.1-9.7,11.6-15.9,21.4-13.9l614.2,130.9
			c9.7,2.1,15.9,11.6,13.9,21.4v0C1103.6,421.9,1094.1,428.1,1084.3,426.1z"/>
		<path class="st0" d="M1084.3,426.1l-536-114.2c-9.7-2.1-15.9-11.6-13.9-21.4v0c2.1-9.7,11.6-15.9,21.4-13.9l536,114.2
			c9.7,2.1,15.9,11.6,13.9,21.4v0C1103.6,421.9,1094.1,428.1,1084.3,426.1z"/>
		<path class="st2" d="M1074.9,184.8L583,80c-9.7-2.1-15.9-11.6-13.9-21.4v0c2.1-9.7,11.6-15.9,21.4-13.9l492,104.8
			c9.7,2.1,15.9,11.6,13.9,21.4v0C1094.2,180.7,1084.6,186.9,1074.9,184.8z"/>
		<path class="st0" d="M1074.9,184.8L658.8,96.1c-9.7-2.1-15.9-11.6-13.9-21.4l0,0c2.1-9.7,11.6-15.9,21.4-13.9l416.2,88.7
			c9.7,2.1,15.9,11.6,13.9,21.4v0C1094.2,180.7,1084.6,186.9,1074.9,184.8z"/>
		<path class="st3" d="M713,220.7l-18.2,85.6L596,285.2l18.2-85.6c5.8-27.3,32.6-44.7,59.9-38.9c9.1,1.9,17.1,6.2,23.5,12.1
			C710.4,184.5,716.9,202.5,713,220.7z"/>
		<path class="st4" d="M713,220.7l-18.2,85.6l-48.9-10.4l18.2-85.6c3.9-18.2,17.1-32,33.5-37.4C710.4,184.5,716.9,202.5,713,220.7z"
			/>
		<path class="st3" d="M852.8,250.5L834.6,336L735.8,315l18.2-85.6c5.8-27.3,32.6-44.7,59.9-38.9c9.1,1.9,17.1,6.2,23.5,12.1
			C850.3,214.3,856.7,232.3,852.8,250.5z"/>
		<path class="st4" d="M852.8,250.5L834.6,336l-48.9-10.4l18.2-85.6c3.9-18.2,17.1-32,33.5-37.4
			C850.3,214.3,856.7,232.3,852.8,250.5z"/>
		<path class="st3" d="M990.8,279.9l-18.2,85.6l-98.8-21.1l18.2-85.6c5.8-27.3,32.6-44.7,59.9-38.9c9.1,1.9,17.1,6.2,23.5,12.1
			C988.2,243.7,994.6,261.7,990.8,279.9z"/>
		<path class="st4" d="M990.8,279.9l-18.2,85.6L923.6,355l18.2-85.6c3.9-18.2,17.1-32,33.5-37.4
			C988.2,243.7,994.6,261.7,990.8,279.9z"/>
		<path class="st3" d="M622.7,442.7l-18.2,85.6l-98.8-21.1l18.2-85.6c5.8-27.3,32.6-44.7,59.9-38.9c9.1,1.9,17.1,6.2,23.5,12.1
			C620.2,406.6,626.6,424.5,622.7,442.7z"/>
		<path class="st4" d="M622.7,442.7l-18.2,85.6l-48.9-10.4l18.2-85.6c3.9-18.2,17.1-32,33.5-37.4
			C620.2,406.6,626.6,424.5,622.7,442.7z"/>
		<path class="st3" d="M803.7,481.3l-18.2,85.6l-98.8-21.1l18.2-85.6c5.8-27.3,32.6-44.7,59.9-38.9c9.1,1.9,17.1,6.2,23.5,12.1
			C801.1,445.1,807.5,463.1,803.7,481.3z"/>
		<path class="st4" d="M803.7,481.3l-18.2,85.6l-48.9-10.4l18.2-85.6c3.9-18.2,17.1-32,33.5-37.4
			C801.1,445.1,807.5,463.1,803.7,481.3z"/>
		<path class="st3" d="M984.6,519.8l-18.2,85.6l-98.8-21.1l18.2-85.6c5.8-27.3,32.6-44.7,59.9-38.9c9.1,1.9,17.1,6.2,23.5,12.1
			C982,483.7,988.5,501.7,984.6,519.8z"/>
		<path class="st4" d="M984.6,519.8l-18.2,85.6L917.5,595l18.2-85.6c3.9-18.2,17.1-32,33.5-37.4C982,483.7,988.5,501.7,984.6,519.8z
			"/>
		<path class="st3" d="M573.5,673.5l-18.2,85.6l-98.8-21.1l18.2-85.6c5.8-27.3,32.6-44.7,59.9-38.9c9.1,1.9,17.1,6.2,23.5,12.1
			C571,637.4,577.4,655.4,573.5,673.5z"/>
		<path class="st4" d="M573.5,673.5l-18.2,85.6l-48.9-10.4l18.2-85.6c3.9-18.2,17.1-32,33.5-37.4C571,637.4,577.4,655.4,573.5,673.5
			z"/>
		<path class="st3" d="M754.5,712.1l-18.2,85.6l-98.8-21.1l18.2-85.6c5.8-27.3,32.6-44.7,59.9-38.9c9.1,1.9,17.1,6.2,23.5,12.1
			C751.9,675.9,758.3,693.9,754.5,712.1z"/>
		<path class="st4" d="M754.5,712.1l-18.2,85.6l-48.9-10.4l18.2-85.6c3.9-18.2,17.1-32,33.5-37.4
			C751.9,675.9,758.3,693.9,754.5,712.1z"/>
		<path class="st3" d="M935.4,750.7l-18.2,85.6l-98.8-21.1l18.2-85.6c5.8-27.3,32.6-44.7,59.9-38.9c9.1,1.9,17.1,6.2,23.5,12.1
			C932.8,714.5,939.3,732.5,935.4,750.7z"/>
		<path class="st4" d="M935.4,750.7l-18.2,85.6l-48.9-10.4l18.2-85.6c3.9-18.2,17.1-32,33.5-37.4
			C932.8,714.5,939.3,732.5,935.4,750.7z"/>
		<path class="st3" d="M524.3,904.4l-18.2,85.6l-98.8-21.1l18.2-85.6c5.8-27.3,32.6-44.7,59.9-38.9c9.1,1.9,17.1,6.2,23.5,12.1
			C521.8,868.2,528.2,886.2,524.3,904.4z"/>
		<path class="st4" d="M524.3,904.4l-18.2,85.6l-48.9-10.4l18.2-85.6c3.9-18.2,17.1-32,33.5-37.4
			C521.8,868.2,528.2,886.2,524.3,904.4z"/>
		<path class="st3" d="M705.3,942.9l-18.2,85.6l-98.8-21.1l18.2-85.6c5.8-27.3,32.6-44.7,59.9-38.9c9.1,1.9,17.1,6.2,23.5,12.1
			C702.7,906.8,709.1,924.7,705.3,942.9z"/>
		<path class="st4" d="M705.3,942.9l-18.2,85.6l-48.9-10.4l18.2-85.6c3.9-18.2,17.1-32,33.5-37.4
			C702.7,906.8,709.1,924.7,705.3,942.9z"/>
		<path class="st3" d="M886.2,981.5l-18.2,85.6l-98.8-21.1l18.2-85.6c5.8-27.3,32.6-44.7,59.9-38.9c9.1,1.9,17.1,6.2,23.5,12.1
			C883.6,945.3,890.1,963.3,886.2,981.5z"/>
		<path class="st4" d="M886.2,981.5l-18.2,85.6l-48.9-10.4l18.2-85.6c3.9-18.2,17.1-32,33.5-37.4
			C883.6,945.3,890.1,963.3,886.2,981.5z"/>
		<path class="st3" d="M475.1,1135.2l-47.8,224.5l-98.8-21.1l47.8-224.5c5.8-27.3,32.6-44.7,59.9-38.9c9.1,1.9,17.1,6.2,23.5,12.1
			C472.6,1099,479,1117,475.1,1135.2z"/>
		<path class="st4" d="M475.1,1135.2l-47.8,224.5l-48.9-10.4l47.8-224.5c3.9-18.2,17.1-32,33.5-37.4
			C472.6,1099,479,1117,475.1,1135.2z"/>
		<path class="st3" d="M656.1,1173.7l-47.8,224.5l-98.8-21.1l47.8-224.5c5.8-27.3,32.6-44.7,59.9-38.9c9.1,1.9,17.1,6.2,23.5,12.1
			C653.5,1137.6,660,1155.6,656.1,1173.7z"/>
		<path class="st4" d="M656.1,1173.7l-47.8,224.5l-48.9-10.4l47.8-224.5c3.9-18.2,17.1-32,33.5-37.4
			C653.5,1137.6,660,1155.6,656.1,1173.7z"/>
		<path class="st3" d="M837,1212.3l-47.8,224.5l-98.8-21.1l47.8-224.5c5.8-27.3,32.6-44.7,59.9-38.9c9.1,1.9,17.1,6.2,23.5,12.1
			C834.5,1176.1,840.9,1194.1,837,1212.3z"/>
		<path class="st4" d="M837,1212.3l-47.8,224.5l-48.9-10.4l47.8-224.5c3.9-18.2,17.1-32,33.5-37.4
			C834.5,1176.1,840.9,1194.1,837,1212.3z"/>
	</g>
	<path class="st5" d="M1182.4,1378.5v125.1H34.4v-125.1c0-34.3,30.2-62.6,69-66.4c13.1-21.2,39.1-35.6,69-35.6
		c32.7,0,60.8,17.3,72.3,41.8c14.3-14.5,35.7-23.8,59.7-23.8c20.5,0,39.1,6.8,53,17.8c13.9-11,32.5-17.8,53-17.8
		c43.1,0,78,29.9,78,66.8c0,3.4-0.3,6.7-0.9,9.9c5.1-0.9,10.4-1.4,15.9-1.4c13.9,0,26.9,3.1,38.2,8.6h233.6c-3.4-9.1-4.6-19-3-29
		c5.6-36.6,44.8-62.3,87.5-57.5c27.2,3.1,49.3,17.8,60.3,37.6c16.6-16.7,42.4-26,69.6-22.9c18.7,2.1,35,9.7,46.9,20.7
		c15.2-23,45.6-37.1,78.1-33.4c42.7,4.8,72.8,38.4,67.2,75C1181.3,1372.2,1182.4,1378.5,1182.4,1378.5z"/>
	<path class="st6" d="M855.4,1435.1c0,5.3-0.7,10.4-2,15.3v53.2h-534v-68.5c0-2.6,0.2-5.2,0.5-7.8c2.8-20.8,16.4-38.7,35.8-49.4
		c-7.8-10.5-12.3-23-12.3-36.5c0-37.4,34.9-67.6,78-67.6c20.5,0,39.1,6.8,53,18c13.9-11.2,32.5-18,53-18c24,0,45.4,9.4,59.7,24.1
		c11.6-24.8,39.6-42.3,72.3-42.3c34,0,62.9,18.9,73.6,45.2c1.5-0.1,2.9-0.1,4.4-0.1c43.1,0,78,30.3,78,67.6c0,2.5-0.2,5-0.5,7.5
		C839.1,1387.3,855.4,1409.5,855.4,1435.1z"/>
</g>
</svg>
