<svg xmlns="http://www.w3.org/2000/svg" viewBox="0 0 1187.5 1099"><defs><style>.cls-1{fill:#c6b6a4;}.cls-2{fill:#d8ccbb;}.cls-3{fill:#ebe4dd;}.cls-4{fill:#c0a992;}.cls-5{fill:#ab927c;}</style></defs><title>ArcTriomphe</title><g id="Calque_2" data-name="Calque 2"><rect class="cls-1" x="50" y="288.5" width="95" height="156.44"/><rect class="cls-2" x="145" y="289.06" width="989" height="156.44"/><rect class="cls-2" x="216" y="76.07" width="69" height="136.01"/><rect class="cls-3" x="145" y="76.07" width="69" height="136.01"/><rect class="cls-1" x="50" y="76.07" width="95" height="136.01"/><rect class="cls-3" x="285" y="76.07" width="71" height="136.01"/><rect class="cls-2" x="356" y="76.07" width="71" height="136.01"/><rect class="cls-3" x="427" y="76.07" width="70" height="136.01"/><rect class="cls-2" x="497" y="76.07" width="70" height="136.01"/><rect class="cls-3" x="567" y="76.07" width="70" height="136.01"/><rect class="cls-2" x="637" y="76.07" width="71" height="136.01"/><rect class="cls-3" x="708" y="76.07" width="71" height="136.01"/><rect class="cls-2" x="779" y="76.07" width="71" height="136.01"/><rect class="cls-3" x="850" y="76.07" width="71" height="136.01"/><rect class="cls-2" x="921" y="76.07" width="71" height="136.01"/><rect class="cls-3" x="992" y="76.07" width="71" height="136.01"/><rect class="cls-2" x="1063" y="76.07" width="71" height="136.01"/><rect class="cls-2" x="50" y="445" width="95" height="500"/><rect class="cls-3" x="145" y="445" width="240" height="500"/><rect class="cls-2" x="799.5" y="445" width="94.86" height="500"/><rect class="cls-3" x="894.36" y="445" width="239.64" height="500"/><rect class="cls-2" x="288" y="945" width="97" height="78"/><rect class="cls-1" x="50" y="945" width="95" height="78"/><rect class="cls-2" x="1037" y="945" width="97" height="78"/><rect class="cls-1" x="799" y="945" width="95" height="78"/><path class="cls-4" d="M312.5,920.12v123.5h-143V920.12a71.5,71.5,0,1,1,143,0Z" transform="translate(-24.5 -20.62)"/><path class="cls-1" d="M312.5,920.12v123.5h-68V920.12a71.46,71.46,0,0,1,34-60.89A71.46,71.46,0,0,1,312.5,920.12Z" transform="translate(-24.5 -20.62)"/><path class="cls-4" d="M1061.5,920.12v123.5h-143V920.12a71.5,71.5,0,1,1,143,0Z" transform="translate(-24.5 -20.62)"/><path class="cls-1" d="M1061.5,920.12v123.5h-68V920.12a71.46,71.46,0,0,1,34-60.89A71.46,71.46,0,0,1,1061.5,920.12Z" transform="translate(-24.5 -20.62)"/><path class="cls-1" d="M823.5,465.62v200h-.15c-4.21-110.61-95.21-199-206.85-199S413.86,555,409.65,665.62h-.15v-200Z" transform="translate(-24.5 -20.62)"/><path d="M704.76,680.66a1.5,1.5,0,0,0,0-3,1.5,1.5,0,0,0,0,3Z" transform="translate(-24.5 -20.62)"/><rect class="cls-4" width="1183" height="76" rx="38" ry="38"/><rect class="cls-1" x="121" width="1062" height="76" rx="38" ry="38"/><rect class="cls-4" y="212" width="1183" height="76" rx="38" ry="38"/><rect class="cls-1" x="121" y="212" width="1062" height="76" rx="38" ry="38"/><rect class="cls-1" y="604" width="436.5" height="76" rx="38" ry="38"/><rect class="cls-2" x="127" y="604" width="309.5" height="76" rx="38" ry="38"/><rect class="cls-1" x="747" y="604" width="436.5" height="76" rx="38" ry="38"/><rect class="cls-2" x="874" y="604" width="309.5" height="76" rx="38" ry="38"/><rect class="cls-5" x="751" y="1023" width="436.5" height="76" rx="38" ry="38"/><rect class="cls-4" x="878" y="1023" width="309.5" height="76" rx="38" ry="38"/><rect class="cls-5" x="2" y="1023" width="436.5" height="76" rx="38" ry="38"/><rect class="cls-4" x="129" y="1023" width="309.5" height="76" rx="38" ry="38"/><rect class="cls-4" x="118" y="490" width="192.5" height="76" rx="38" ry="38"/><rect class="cls-1" x="214" y="490" width="96.5" height="76" rx="38" ry="38"/><rect class="cls-4" x="869" y="490" width="192.5" height="76" rx="38" ry="38"/><rect class="cls-1" x="965" y="490" width="96.5" height="76" rx="38" ry="38"/></g></svg>