<?xml version="1.0" encoding="utf-8"?>
<!-- Generator: Adobe Illustrator 22.0.1, SVG Export Plug-In . SVG Version: 6.00 Build 0)  -->
<svg version="1.1" xmlns="http://www.w3.org/2000/svg" xmlns:xlink="http://www.w3.org/1999/xlink" x="0px" y="0px"
	 viewBox="0 0 1242 3263.4" style="enable-background:new 0 0 1242 3263.4;" xml:space="preserve">
<style type="text/css">
	.st0{fill:#B87D4D;}
	.st1{fill:#C78A55;}
	.st2{fill:#D99F63;}
	.st3{fill:#CBD0D1;}
	.st4{fill:#E0E2E2;}
	.st5{fill:#B3BBBC;}
	.st6{fill:#88888F;}
	.st7{fill:#9D9D9E;}
</style>
<g id="Calque_1">
</g>
<g id="Calque_2">
	<path class="st0" d="M985.6,1400.8H274.4c-16,0-28.9-12.9-28.9-28.9V921.7c0-16,12.9-28.9,28.9-28.9h711.2
		c16,0,28.9,12.9,28.9,28.9v450.2C1014.5,1387.9,1001.6,1400.8,985.6,1400.8z"/>
	<path class="st1" d="M932.6,1416.8H323.4c-16,0-28.9-12.9-28.9-28.9V890.7c0-16,12.9-28.9,28.9-28.9h609.2
		c16,0,28.9,12.9,28.9,28.9v497.2C961.5,1403.9,948.6,1416.8,932.6,1416.8z"/>
	<path class="st2" d="M932.6,1416.8H412.4c-16,0-28.9-12.9-28.9-28.9V890.7c0-16,12.9-28.9,28.9-28.9h520.2
		c16,0,28.9,12.9,28.9,28.9v497.2C961.5,1403.9,948.6,1416.8,932.6,1416.8z"/>
	<path class="st3" d="M859.5,1138.8c0,8.1-0.4,16.1-1.2,24c-4.8,46.6-23.4,89-51.7,123.2c-6.4,7.7-13.3,15.1-20.7,21.9
		c-3.9,3.6-7.9,7.1-12,10.5c-34.4,27.8-76.8,46-123.3,50.4c-7.2,0.7-14.6,1-22,1c-8.1,0-16.1-0.4-24-1.2
		c-46.3-4.8-88.6-23.2-122.7-51.3c-11.9-9.8-22.8-20.7-32.5-32.6c-27.9-34.2-46.2-76.5-50.8-122.9c-0.8-7.6-1.1-15.2-1.1-23
		s0.4-15.4,1.1-23c4.6-46.5,23-88.9,50.9-123.1c9.7-11.9,20.6-22.8,32.5-32.6c18.5-15.2,39.4-27.6,62.1-36.4
		c19.3-7.6,39.9-12.6,61.4-14.8c7.6-0.8,15.2-1.1,23-1.1s15.4,0.4,23,1.1c46.7,4.6,89.3,23.1,123.7,51.4
		c11.9,9.8,22.8,20.7,32.5,32.6c28.1,34.4,46.4,77.1,50.9,123.9C859.2,1124.1,859.5,1131.4,859.5,1138.8z"/>
	<path class="st4" d="M859.5,1138.8c0,66.8-28.3,126.9-73.6,169.1c-26.1,10.3-54.6,15.9-84.4,15.9c-127.6,0-231-103.4-231-231
		c0-66.8,28.3-126.9,73.6-169.1c26.1-10.3,54.6-15.9,84.4-15.9C756.1,907.8,859.5,1011.3,859.5,1138.8z"/>
	<path class="st5" d="M741,1138.8c0,26.6-9.2,51-24.7,70.3c-3.4,4.3-7.2,8.3-11.2,12.1c-20.1,18.7-47,30.1-76.6,30.1
		c-62.1,0-112.5-50.4-112.5-112.5c0-47.6,29.6-88.4,71.4-104.8c4.6-1.8,9.4-3.3,14.2-4.5c8.6-2.1,17.6-3.2,26.8-3.2
		C690.6,1026.3,741,1076.7,741,1138.8z"/>
	<path class="st3" d="M741,1138.8c0,26.6-9.2,51-24.7,70.3c-8.6,2.1-17.6,3.2-26.8,3.2c-62.1,0-112.5-50.4-112.5-112.5
		c0-26.6,9.2-51,24.7-70.3c8.6-2.1,17.6-3.2,26.8-3.2C690.6,1026.3,741,1076.7,741,1138.8z"/>
	<path class="st6" d="M715.5,1161.8h-87c-12.7,0-23-10.3-23-23v-113c0-12.7,10.3-23,23-23c12.7,0,23,10.3,23,23v90h64
		c12.7,0,23,10.3,23,23S728.2,1161.8,715.5,1161.8z"/>
	<path class="st6" d="M651.5,909v18.9c0,12.7-10.3,23-23,23s-23-10.3-23-23V909c7.6-0.8,15.2-1.1,23-1.1S643.9,908.2,651.5,909z"/>
	<path class="st6" d="M807.6,993l-13.4,13.4c-9,9-23.5,9-32.5,0c-9-9-9-23.5,0-32.5l13.5-13.5C787,970.1,797.9,981,807.6,993z"/>
	<path class="st6" d="M859.5,1138.8c0,8.1-0.4,16.1-1.2,24h-18.8c-12.7,0-23-10.3-23-23s10.3-23,23-23h19
		C859.2,1124.1,859.5,1131.4,859.5,1138.8z"/>
	<path class="st6" d="M806.5,1286c-6.4,7.7-13.3,15.1-20.7,21.9c-3.9,3.6-7.9,7.1-12,10.5l-12.9-12.9c-9-9-9-23.5,0-32.5
		c9-9,23.5-9,32.5,0L806.5,1286z"/>
	<path class="st6" d="M650.5,1350.8v18c-7.2,0.7-14.6,1-22,1c-8.1,0-16.1-0.4-24-1.2v-17.8c0-12.7,10.3-23,23-23
		S650.5,1338.1,650.5,1350.8z"/>
	<path class="st6" d="M494.4,1304.8l-12.5,12.5c-11.9-9.8-22.8-20.7-32.5-32.6l12.4-12.4c9-9,23.5-9,32.5,0
		C503.3,1281.3,503.3,1295.8,494.4,1304.8z"/>
	<path class="st6" d="M439.5,1138.8c0,12.7-10.3,23-23,23h-17.9c-0.8-7.6-1.1-15.2-1.1-23s0.4-15.4,1.1-23h17.9
		C429.2,1115.8,439.5,1126.1,439.5,1138.8z"/>
	<path class="st6" d="M495.1,1005.7c-9,9-23.5,9-32.5,0l-13-13c9.7-11.9,20.6-22.8,32.5-32.6l13,13
		C504,982.1,504,996.7,495.1,1005.7z"/>
	<rect x="346.5" y="701.8" class="st0" width="563" height="160"/>
	<rect x="433.5" y="701.8" class="st1" width="476" height="160"/>
	<path class="st0" d="M879.7,1575.8H376.3c-16.4,0-29.8-13.3-29.8-29.8v-130.2h563v130.2C909.5,1562.5,896.2,1575.8,879.7,1575.8z"
		/>
	<path class="st1" d="M879.7,1575.8H433.5v-160h476v130.2C909.5,1562.5,896.2,1575.8,879.7,1575.8z"/>
	<path class="st0" d="M459.5,833.8L459.5,833.8c13.3,0,24-10.7,24-24v-53c0-13.3-10.7-24-24-24h0c-13.3,0-24,10.7-24,24v53
		C435.5,823.1,446.2,833.8,459.5,833.8z"/>
	<path class="st0" d="M571.5,833.8L571.5,833.8c13.3,0,24-10.7,24-24v-53c0-13.3-10.7-24-24-24l0,0c-13.3,0-24,10.7-24,24v53
		C547.5,823.1,558.2,833.8,571.5,833.8z"/>
	<path class="st0" d="M683.5,833.8L683.5,833.8c13.3,0,24-10.7,24-24v-53c0-13.3-10.7-24-24-24l0,0c-13.3,0-24,10.7-24,24v53
		C659.5,823.1,670.2,833.8,683.5,833.8z"/>
	<path class="st0" d="M795.5,833.8L795.5,833.8c13.3,0,24-10.7,24-24v-53c0-13.3-10.7-24-24-24l0,0c-13.3,0-24,10.7-24,24v53
		C771.5,823.1,782.2,833.8,795.5,833.8z"/>
	<path class="st0" d="M459.5,1545.8L459.5,1545.8c13.3,0,24-10.7,24-24v-53c0-13.3-10.7-24-24-24h0c-13.3,0-24,10.7-24,24v53
		C435.5,1535.1,446.2,1545.8,459.5,1545.8z"/>
	<path class="st0" d="M571.5,1545.8L571.5,1545.8c13.3,0,24-10.7,24-24v-53c0-13.3-10.7-24-24-24l0,0c-13.3,0-24,10.7-24,24v53
		C547.5,1535.1,558.2,1545.8,571.5,1545.8z"/>
	<path class="st0" d="M683.5,1545.8L683.5,1545.8c13.3,0,24-10.7,24-24v-53c0-13.3-10.7-24-24-24l0,0c-13.3,0-24,10.7-24,24v53
		C659.5,1535.1,670.2,1545.8,683.5,1545.8z"/>
	<path class="st0" d="M795.5,1545.8L795.5,1545.8c13.3,0,24-10.7,24-24v-53c0-13.3-10.7-24-24-24l0,0c-13.3,0-24,10.7-24,24v53
		C771.5,1535.1,782.2,1545.8,795.5,1545.8z"/>
	<path class="st7" d="M909.5,701.8h-47V529.3c0-13,10.5-23.5,23.5-23.5l0,0c13,0,23.5,10.5,23.5,23.5V701.8z"/>
	<path class="st6" d="M393.5,701.8h-47V529.3c0-13,10.5-23.5,23.5-23.5h0c13,0,23.5,10.5,23.5,23.5V701.8z"/>
	<rect x="474.5" y="423.8" class="st0" width="308" height="96"/>
	<path class="st1" d="M782.5,519.8h-218v-67.5c0-15.7,12.7-28.5,28.5-28.5h189.5V519.8z"/>
	<path class="st7" d="M777.5,423.8h-303c0,0,107-172,154-355C678.5,251.8,777.5,423.8,777.5,423.8z"/>
	<path class="st6" d="M628.5,68.8c0,0-25.2,250.5-41.6,355H474.5C474.5,423.8,581.5,251.8,628.5,68.8z"/>
	<path class="st7" d="M862.5,646.6v55.2h-469v-54c0,0,71-79,81-128h308C782.5,519.8,810.5,602.5,862.5,646.6z"/>
	<path class="st6" d="M565.1,519.8c-21,56.8-84.3,134.6-131.2,182h-40.3v-54c0,0,71-79,81-128H565.1z"/>
	<rect x="376" y="1576.3" class="st0" width="95" height="314"/>
	<rect x="468" y="1577.3" class="st2" width="405" height="314"/>
	<path class="st0" d="M867.2,2008.3H389.8c-16.4,0-29.8-13.3-29.8-29.8v-66c0-15.6,12.7-28.3,28.3-28.3h480.5
		c15.6,0,28.3,12.7,28.3,28.3v66C897,1995,883.7,2008.3,867.2,2008.3z"/>
	<path class="st1" d="M867.2,2008.3H443v-124h425.8c15.6,0,28.3,12.7,28.3,28.3v66C897,1995,883.7,2008.3,867.2,2008.3z"/>
	<rect x="376" y="2855.3" class="st0" width="95" height="314"/>
	<rect x="468" y="2856.3" class="st2" width="405" height="314"/>
	<path class="st0" d="M467.8,1985.1L467.8,1985.1c12.6,0,22.9-10.2,22.9-22.9v-32.5c0-12.6-10.2-22.9-22.9-22.9h0
		c-12.6,0-22.9,10.2-22.9,22.9v32.5C444.9,1974.8,455.1,1985.1,467.8,1985.1z"/>
	<path class="st0" d="M574.6,1985.1L574.6,1985.1c12.6,0,22.9-10.2,22.9-22.9v-32.5c0-12.6-10.2-22.9-22.9-22.9h0
		c-12.6,0-22.9,10.2-22.9,22.9v32.5C551.7,1974.8,562,1985.1,574.6,1985.1z"/>
	<path class="st0" d="M681.4,1985.1L681.4,1985.1c12.6,0,22.9-10.2,22.9-22.9v-32.5c0-12.6-10.2-22.9-22.9-22.9l0,0
		c-12.6,0-22.9,10.2-22.9,22.9v32.5C658.5,1974.8,668.8,1985.1,681.4,1985.1z"/>
	<path class="st0" d="M788.3,1985.1L788.3,1985.1c12.6,0,22.9-10.2,22.9-22.9v-32.5c0-12.6-10.2-22.9-22.9-22.9l0,0
		c-12.6,0-22.9,10.2-22.9,22.9v32.5C765.4,1974.8,775.6,1985.1,788.3,1985.1z"/>
	<rect x="376" y="2432.3" class="st0" width="95" height="314"/>
	<rect x="468" y="2433.3" class="st2" width="405" height="314"/>
	<path class="st0" d="M867.2,2864.3H389.8c-16.4,0-29.8-13.3-29.8-29.8v-66c0-15.6,12.7-28.3,28.3-28.3h480.5
		c15.6,0,28.3,12.7,28.3,28.3v66C897,2851,883.7,2864.3,867.2,2864.3z"/>
	<path class="st1" d="M867.2,2864.3H443v-124h425.8c15.6,0,28.3,12.7,28.3,28.3v66C897,2851,883.7,2864.3,867.2,2864.3z"/>
	<path class="st0" d="M467.8,2841.1L467.8,2841.1c12.6,0,22.9-10.2,22.9-22.9v-32.5c0-12.6-10.2-22.9-22.9-22.9h0
		c-12.6,0-22.9,10.2-22.9,22.9v32.5C444.9,2830.8,455.1,2841.1,467.8,2841.1z"/>
	<path class="st0" d="M574.6,2841.1L574.6,2841.1c12.6,0,22.9-10.2,22.9-22.9v-32.5c0-12.6-10.2-22.9-22.9-22.9h0
		c-12.6,0-22.9,10.2-22.9,22.9v32.5C551.7,2830.8,562,2841.1,574.6,2841.1z"/>
	<path class="st0" d="M681.4,2841.1L681.4,2841.1c12.6,0,22.9-10.2,22.9-22.9v-32.5c0-12.6-10.2-22.9-22.9-22.9l0,0
		c-12.6,0-22.9,10.2-22.9,22.9v32.5C658.5,2830.8,668.8,2841.1,681.4,2841.1z"/>
	<path class="st0" d="M788.3,2841.1L788.3,2841.1c12.6,0,22.9-10.2,22.9-22.9v-32.5c0-12.6-10.2-22.9-22.9-22.9l0,0
		c-12.6,0-22.9,10.2-22.9,22.9v32.5C765.4,2830.8,775.6,2841.1,788.3,2841.1z"/>
	<rect x="376" y="2008.3" class="st0" width="95" height="314"/>
	<rect x="468" y="2009.3" class="st2" width="405" height="314"/>
	<path class="st0" d="M867.2,2440.3H389.8c-16.4,0-29.8-13.3-29.8-29.8v-66c0-15.6,12.7-28.3,28.3-28.3h480.5
		c15.6,0,28.3,12.7,28.3,28.3v66C897,2427,883.7,2440.3,867.2,2440.3z"/>
	<path class="st1" d="M867.2,2440.3H443v-124h425.8c15.6,0,28.3,12.7,28.3,28.3v66C897,2427,883.7,2440.3,867.2,2440.3z"/>
	<path class="st0" d="M467.8,2417.1L467.8,2417.1c12.6,0,22.9-10.2,22.9-22.9v-32.5c0-12.6-10.2-22.9-22.9-22.9h0
		c-12.6,0-22.9,10.2-22.9,22.9v32.5C444.9,2406.8,455.1,2417.1,467.8,2417.1z"/>
	<path class="st0" d="M574.6,2417.1L574.6,2417.1c12.6,0,22.9-10.2,22.9-22.9v-32.5c0-12.6-10.2-22.9-22.9-22.9h0
		c-12.6,0-22.9,10.2-22.9,22.9v32.5C551.7,2406.8,562,2417.1,574.6,2417.1z"/>
	<path class="st0" d="M681.4,2417.1L681.4,2417.1c12.6,0,22.9-10.2,22.9-22.9v-32.5c0-12.6-10.2-22.9-22.9-22.9l0,0
		c-12.6,0-22.9,10.2-22.9,22.9v32.5C658.5,2406.8,668.8,2417.1,681.4,2417.1z"/>
	<path class="st0" d="M788.3,2417.1L788.3,2417.1c12.6,0,22.9-10.2,22.9-22.9v-32.5c0-12.6-10.2-22.9-22.9-22.9l0,0
		c-12.6,0-22.9,10.2-22.9,22.9v32.5C765.4,2406.8,775.6,2417.1,788.3,2417.1z"/>
</g>
</svg>
