<?xml version="1.0" encoding="utf-8"?>
<!-- Generator: Adobe Illustrator 22.0.1, SVG Export Plug-In . SVG Version: 6.00 Build 0)  -->
<svg version="1.1" xmlns="http://www.w3.org/2000/svg" xmlns:xlink="http://www.w3.org/1999/xlink" x="0px" y="0px"
	 viewBox="0 0 1349.3 1296.7" style="enable-background:new 0 0 1349.3 1296.7;" xml:space="preserve">
<style type="text/css">
	.st0{fill:#D8CCBB;}
	.st1{fill:#C6B6A4;}
	.st2{fill:#AB927C;}
	.st3{fill:#C0A992;}
	.st4{fill:#EBE4DD;}
	.st5{fill:#74C77D;}
	.st6{fill:#65BB6B;}
	.st7{fill:#57A95B;}
</style>
<g id="Calque_1">
	<g id="GXg4Zs.tif">
		
			<image style="overflow:visible;" width="614" height="610" id="Layer_0_8_" xlink:href="170FCC540E1AACF0.png"  transform="matrix(-0.6691 -0.7843 -0.7843 0.6691 3440.6064 1838.7284)">
		</image>
	</g>
</g>
<g id="Calque_3">
</g>
<g id="Calque_2">
</g>
<g id="Calque_4">
	<g>
		<polygon class="st0" points="1050.4,299.1 1038.4,370.1 1028.4,367.5 549.4,244.3 549.4,170.8 738,219.1 1028.4,293.4 		"/>
		<polygon class="st1" points="549.4,170.8 549.4,244.3 518.4,236.3 459.4,221.1 459.4,185.9 472.4,151.1 		"/>
		<polygon class="st2" points="549.4,244.3 549.4,518.1 459.4,518.1 459.4,221.1 518.4,236.3 		"/>
		<polygon class="st3" points="1028.4,367.5 1028.4,624.1 518.4,624.1 518.4,518.1 549.4,518.1 549.4,244.3 		"/>
		<path class="st1" d="M653.7,490.1h-68.6c-12,0-21.7-9.7-21.7-21.7v-27.6c0-12,9.7-21.7,21.7-21.7h68.6c12,0,21.7,9.7,21.7,21.7
			v27.6C675.4,480.3,665.7,490.1,653.7,490.1z"/>
		<path class="st1" d="M870.7,425.1h-68.6c-12,0-21.7-9.7-21.7-21.7v-27.6c0-12,9.7-21.7,21.7-21.7h68.6c12,0,21.7,9.7,21.7,21.7
			v27.6C892.4,415.3,882.7,425.1,870.7,425.1z"/>
	</g>
	<g>
		<rect x="212.4" y="95.1" class="st4" width="271" height="112"/>
		<rect x="212.4" y="268.1" class="st4" width="271" height="211.5"/>
		<path class="st1" d="M473.9,96.6H221.4c-17.1,0-31-13.9-31-31v0c0-17.1,13.9-31,31-31h252.5c17.1,0,31,13.9,31,31v0
			C504.9,82.7,491,96.6,473.9,96.6z"/>
		<path class="st0" d="M473.9,96.6H326.4c-17.1,0-31-13.9-31-31v0c0-17.1,13.9-31,31-31h147.5c17.1,0,31,13.9,31,31v0
			C504.9,82.7,491,96.6,473.9,96.6z"/>
		<path class="st1" d="M473.9,268.6H221.4c-17.1,0-31-13.9-31-31v0c0-17.1,13.9-31,31-31h252.5c17.1,0,31,13.9,31,31v0
			C504.9,254.7,491,268.6,473.9,268.6z"/>
		<path class="st0" d="M473.9,268.6H326.4c-17.1,0-31-13.9-31-31v0c0-17.1,13.9-31,31-31h147.5c17.1,0,31,13.9,31,31v0
			C504.9,254.7,491,268.6,473.9,268.6z"/>
		<rect x="212.4" y="95.1" class="st0" width="105" height="112"/>
		<rect x="212.4" y="268.1" class="st0" width="105" height="211.5"/>
		<path class="st3" d="M287.9,130.1L287.9,130.1c-16.3,0-29.5,13.2-29.5,29.5v47.5h59v-47.5C317.4,143.3,304.2,130.1,287.9,130.1z"
			/>
		<path class="st3" d="M405.9,130.1L405.9,130.1c-16.3,0-29.5,13.2-29.5,29.5v47.5h59v-47.5C435.4,143.3,422.2,130.1,405.9,130.1z"
			/>
	</g>
	<g>
		<path class="st5" d="M799.4,553.1L464.7,657.3l-169.3,52.8L105.1,598.3c8.3-112.1,47-215.8,107.9-302.8
			c36.1,25.3,71.4,50.9,106.8,75.7C456.9,467.3,596.3,550.7,799.4,553.1z"/>
		<path class="st6" d="M464.7,657.3l-169.3,52.8L105.1,598.3c8.3-112.1,47-215.8,107.9-302.8c36.1,25.3,71.4,50.9,106.8,75.7
			C286.7,443.6,274.1,611.8,464.7,657.3z"/>
	</g>
	<g>
		<polygon class="st0" points="1018.4,543.1 1009.4,545.8 443.4,716.1 367.4,739 347.4,745 347.4,673.4 367.4,667.6 443.4,645.7 
			833.8,533.1 982.9,490.1 		"/>
		<polygon class="st3" points="1009.4,545.8 1009.4,921.1 367.4,921.1 367.4,739 443.4,716.1 		"/>
		<polygon class="st2" points="443.4,716.1 443.4,921.1 367.4,921.1 367.4,739 		"/>
		<polygon class="st1" points="443.4,645.7 443.4,716.1 367.4,739 347.4,745 347.4,673.4 367.4,667.6 		"/>
		<path class="st1" d="M870.7,795.1h-68.6c-12,0-21.7-9.7-21.7-21.7v-27.6c0-12,9.7-21.7,21.7-21.7h68.6c12,0,21.7,9.7,21.7,21.7
			v27.6C892.4,785.3,882.7,795.1,870.7,795.1z"/>
		<path class="st1" d="M658.7,795.1h-68.6c-12,0-21.7-9.7-21.7-21.7v-27.6c0-12,9.7-21.7,21.7-21.7h68.6c12,0,21.7,9.7,21.7,21.7
			v27.6C680.4,785.3,670.7,795.1,658.7,795.1z"/>
		<path class="st1" d="M541.7,866.1h-68.6c-12,0-21.7-9.7-21.7-21.7v-27.6c0-12,9.7-21.7,21.7-21.7h68.6c12,0,21.7,9.7,21.7,21.7
			v27.6C563.4,856.3,553.7,866.1,541.7,866.1z"/>
	</g>
	<g>
		<rect x="997.6" y="348.9" class="st4" width="310.6" height="128.4"/>
		<rect x="997.6" y="547.2" class="st4" width="310.6" height="242.4"/>
		<path class="st1" d="M1301.8,350.6h-298.4c-17.1,0-31-13.9-31-31v-9.1c0-17.1,13.9-31,31-31h298.4c17.1,0,31,13.9,31,31v9.1
			C1332.8,336.7,1319,350.6,1301.8,350.6z"/>
		<path class="st0" d="M1301.8,350.6h-178.1c-17.1,0-31-13.9-31-31v-9.1c0-17.1,13.9-31,31-31h178.1c17.1,0,31,13.9,31,31v9.1
			C1332.8,336.7,1319,350.6,1301.8,350.6z"/>
		<path class="st1" d="M1301.8,547.7h-298.4c-17.1,0-31-13.9-31-31v-9.1c0-17.1,13.9-31,31-31h298.4c17.1,0,31,13.9,31,31v9.1
			C1332.8,533.9,1319,547.7,1301.8,547.7z"/>
		<path class="st0" d="M1301.8,547.7h-178.1c-17.1,0-31-13.9-31-31v-9.1c0-17.1,13.9-31,31-31h178.1c17.1,0,31,13.9,31,31v9.1
			C1332.8,533.9,1319,547.7,1301.8,547.7z"/>
		<rect x="997.6" y="348.9" class="st0" width="120.3" height="128.4"/>
		<rect x="997.6" y="547.2" class="st0" width="120.3" height="242.4"/>
		<path class="st3" d="M1088.4,389h-8.6c-16.3,0-29.5,13.2-29.5,29.5v58.7h67.6v-58.7C1117.9,402.2,1104.7,389,1088.4,389z"/>
		<path class="st3" d="M1223.7,389h-8.6c-16.3,0-29.5,13.2-29.5,29.5v58.7h67.6v-58.7C1253.2,402.2,1240,389,1223.7,389z"/>
	</g>
	<g>
		<rect x="57.6" y="532.9" class="st4" width="310.6" height="128.4"/>
		<rect x="57.6" y="731.2" class="st4" width="310.6" height="242.4"/>
		<path class="st1" d="M361.8,534.6H63.4c-17.1,0-31-13.9-31-31v-9.1c0-17.1,13.9-31,31-31h298.4c17.1,0,31,13.9,31,31v9.1
			C392.8,520.7,379,534.6,361.8,534.6z"/>
		<path class="st0" d="M361.8,534.6H183.7c-17.1,0-31-13.9-31-31v-9.1c0-17.1,13.9-31,31-31h178.1c17.1,0,31,13.9,31,31v9.1
			C392.8,520.7,379,534.6,361.8,534.6z"/>
		<path class="st1" d="M361.8,731.7H63.4c-17.1,0-31-13.9-31-31v-9.1c0-17.1,13.9-31,31-31h298.4c17.1,0,31,13.9,31,31v9.1
			C392.8,717.9,379,731.7,361.8,731.7z"/>
		<path class="st0" d="M361.8,731.7H183.7c-17.1,0-31-13.9-31-31v-9.1c0-17.1,13.9-31,31-31h178.1c17.1,0,31,13.9,31,31v9.1
			C392.8,717.9,379,731.7,361.8,731.7z"/>
		<rect x="57.6" y="532.9" class="st0" width="120.3" height="128.4"/>
		<rect x="57.6" y="731.2" class="st0" width="120.3" height="242.4"/>
		<path class="st3" d="M148.4,573h-8.6c-16.3,0-29.5,13.2-29.5,29.5v58.7h67.6v-58.7C177.9,586.2,164.7,573,148.4,573z"/>
		<path class="st3" d="M283.7,573h-8.6c-16.3,0-29.5,13.2-29.5,29.5v58.7h67.6v-58.7C313.2,586.2,300,573,283.7,573z"/>
	</g>
	<g>
		<path class="st5" d="M1307.9,644.1v139.8c-77.4,9.5-146.3,68.2-191.9,129.2c-52.3,70-111.9,135-215.5,171s-276.1,17-390,29
			c-23,2.4-52,5.1-84.6,8.5c-113.1,11.5-269.1,30.4-368,70.1V893.2c38.1-16.1,107-39.8,186.8-43.1c46.8-1.9,104.7,8.3,165,20.8
			c97.1,20,200.4,45.7,273.2,35.2c118-17,254.5-128,361.2-196c90.7-57.8,174.2-91.6,263.8-100.5
			C1308.5,621,1307.9,632.4,1307.9,644.1z"/>
		<path class="st6" d="M1307.9,783.9v469.2H57.9v-61.4c98.9-39.7,254.9-58.6,368-70.1c0.1,0,0.1,0,0.2,0c32.5-3.3,61.4-6,84.4-8.4
			c113.9-12,286.3,7,390-29s163.2-101,215.5-171C1161.6,852.1,1230.5,793.4,1307.9,783.9z"/>
		<path class="st6" d="M425.9,1121.5c-113.1,11.5-269.1,30.4-368,70.1V893.2c38.1-16.1,107-39.8,186.8-43.1
			c46.8-1.9,104.7,8.3,165,20.8C380.6,921.5,342.1,1013,425.9,1121.5z"/>
		<path class="st7" d="M446.4,1253.1H57.9v-61.4c98.9-39.7,254.9-58.6,368-70.1c0.1,0,0.1,0,0.2,0
			C422.7,1126.8,392.1,1180.2,446.4,1253.1z"/>
	</g>
</g>
</svg>
