<?xml version="1.0" encoding="utf-8"?>
<!-- Generator: Adobe Illustrator 22.0.1, SVG Export Plug-In . SVG Version: 6.00 Build 0)  -->
<svg version="1.1" xmlns="http://www.w3.org/2000/svg" xmlns:xlink="http://www.w3.org/1999/xlink" x="0px" y="0px"
	 viewBox="0 0 1242 1018.8" style="enable-background:new 0 0 1242 1018.8;" xml:space="preserve">
<style type="text/css">
	.st0{fill:#FDCC50;}
	.st1{fill:#FDB74F;}
	.st2{fill:#FAA83C;}
	.st3{fill:#EBE4DD;}
	.st4{fill:#D8CCBB;}
</style>
<g id="Calque_1">
</g>
<g id="Calque_2">
	<path class="st0" d="M1218.8,532.3v171c-10.6,8.1-23.9,17.4-39.7,26.9c-7,4.2-14.6,8.5-22.6,12.8c-0.2,0.1-0.3,0.2-0.5,0.3
		l-44.8-211.1L1061,295.6l157.7,236.5L1218.8,532.3z"/>
	<path class="st0" d="M1087.8,772.8c-53.7,18.4-119.5,30.3-195.8,23.8c-47.9-4.1-85.2-9.8-116.4-16.4c-2.9-1-5.8-1.9-8.6-2.6
		l-53-245.5l-100.5-465l244.2,363.5l64.8,96.5l3.4,5L1087.1,772C1087.3,772.3,1087.6,772.5,1087.8,772.8z"/>
	<path class="st1" d="M766.9,777.8c-43.3-10.3-82.9-23.4-128.9-35.8c0,0,0,0,0,0c-41.2-11.1-87.7-21.6-146.5-29
		c-0.1,0-0.2,0-0.4-0.1L355,509.9l100.8-172.7v0L613.5,67.1L766.9,777.8z"/>
	<path class="st0" d="M492.1,714.3c-3.6-0.3-7.3-0.5-11.1-0.7c-2.5-0.2-5.1-0.3-7.6-0.4c-69.9-3.8-129.4-1.5-181.6,3.9
		c-3.6-0.1-7.2,0.1-10.8,0.6l-38.2-185.5l-56.3-273l183.4,273l121.6,181C491.5,713.1,491.7,713.6,492.1,714.3z"/>
	<path class="st1" d="M281.1,718.2c-32,3.6-61.2,8.4-88.5,13.7c-23.7,4.6-45.8,9.5-67,14.4C81.2,684.8,42,607.2,22.5,532.5
		c0,0,0,0,0,0l0,0l0.2-0.3l80.6-134.4l83.2-138.6l56.2,273L281.1,718.2z"/>
	<path class="st1" d="M1156.5,743c-20,10.6-42.9,21-68.7,29.8c0,0-0.1,0-0.1,0c-0.1,0-0.2,0.1-0.4,0.1L925.8,532.1l-3.3-5l139-232
		l50.3,237L1156.5,743z"/>
	<path class="st2" d="M638,742.1c-41.2-11.1-87.7-21.6-146.5-29c-0.1,0-0.2,0-0.4-0.1L355,509.9l100.8-172.7
		C444,488.5,464.6,640.6,638,742.1z"/>
	<path class="st2" d="M1155.6,743.4c-19.8,10.4-42.4,20.6-67.8,29.4c0,0-0.1,0-0.1,0l-0.5-0.8L925.9,532.1l-3.4-5l60.3-101.3
		c1.6,33.3,8.2,69.8,21.1,106.4C1030.8,608.3,1062.2,697.8,1155.6,743.4z"/>
	<path class="st2" d="M192.6,731.9c-23.8,4.6-46.2,9.6-67.5,14.5c-36.3,8.3-69.7,16.4-102.7,21.9V532.5c0,0,0,0,0,0l0,0l0.2-0.3
		l80.6-134.4c-9.1,43.9-12.3,89.1-6.6,134.4C105.3,600.2,133.9,668.3,192.6,731.9z"/>
</g>
<g id="Calque_3">
	<path class="st3" d="M1218.8,703.3v289.5H22.5V768.3c112.3-18.9,229.5-67.1,450.9-55.1c2.5,0.1,5.1,0.3,7.6,0.4
		c193.5,11.5,193.5,64.5,411,83C1052.7,810.3,1167.2,742.4,1218.8,703.3z"/>
	<path class="st4" d="M492.5,992.7h-470V768.3c112.3-18.9,229.5-67.1,450.9-55.1C412,794,359.2,879.5,492.5,992.7z"/>
	<path class="st0" d="M1023.5,164.3c0,43.8-23.3,82.2-58.1,103.4c-18.3,11.2-39.8,17.6-62.9,17.6c-66.8,0-121-54.2-121-121
		s54.2-121,121-121c8.9,0,17.7,1,26,2.8C982.9,58,1023.5,106.4,1023.5,164.3z"/>
	<path class="st1" d="M965.4,267.7c-18.3,11.2-39.8,17.6-62.9,17.6c-66.8,0-121-54.2-121-121s54.2-121,121-121c8.9,0,17.7,1,26,2.8
		C883.3,152.2,836.2,216.4,965.4,267.7z"/>
	<path class="st1" d="M976,164.3c0,38-28.8,69.2-65.8,73.1c-2.5,0.3-5.1,0.4-7.8,0.4c-40.6,0-73.5-32.9-73.5-73.5
		c0-40.6,32.9-73.5,73.5-73.5c2.1,0,4.1,0.1,6.2,0.3C946.4,94.2,976,125.8,976,164.3z"/>
	<path class="st2" d="M910.3,237.4c-2.5,0.3-5.1,0.4-7.8,0.4c-40.6,0-73.5-32.9-73.5-73.5c0-40.6,32.9-73.5,73.5-73.5
		c2.1,0,4.1,0.1,6.2,0.3C880.9,153.6,864.1,199.5,910.3,237.4z"/>
</g>
</svg>
