<?xml version="1.0" encoding="utf-8"?>
<!-- Generator: Adobe Illustrator 22.0.1, SVG Export Plug-In . SVG Version: 6.00 Build 0)  -->
<svg version="1.1" xmlns="http://www.w3.org/2000/svg" xmlns:xlink="http://www.w3.org/1999/xlink" x="0px" y="0px"
	 viewBox="0 0 1324.6 1367.8" style="enable-background:new 0 0 1324.6 1367.8;" xml:space="preserve">
<style type="text/css">
	.st0{fill:#FDCC50;}
	.st1{fill:#FDB74F;}
	.st2{fill:#FADEA7;}
	.st3{fill:#FAA83C;}
	.st4{fill:#E78D24;}
</style>
<g id="Calque_1">
</g>
<g id="Calque_2">
	<path class="st0" d="M1153.6,1293h-971l176-498.9c10.2-28.9,37.5-48.1,68-48.1h484.7c30.7,0,58,19.4,68.1,48.4l2,5.7L1153.6,1293z"
		/>
	<path class="st1" d="M810.6,668l-0.6,0c-2.9,2.6-5.9,5.2-8.9,7.7c-27.3,22.2-60.3,37.7-96.4,44.1c-12,2.1-24.4,3.2-37.1,3.2
		c-0.3,0-0.7,0-1,0c-0.3,0-0.7,0-1,0c-12,0-23.7-1-35.1-2.9c-9.5-1.6-18.9-3.8-27.9-6.6c-26-8.1-49.8-21-70.5-37.8
		c-2.9-2.4-5.7-4.8-8.5-7.3c-0.1-0.1-0.3-0.2-0.4-0.4l-0.6,58c0,0,7.6,5.3,10.5,7.7c20.4,16.5,43.9,29.4,69.5,37.5
		c0.3,0.1,0.7,0.2,1,0.3c9.1,2.8,18.4,5,27.9,6.6c11.4,1.9,23.1,2.9,35.1,2.9c0.3,0,0.7,0,1,0c0.3,0,0.7,0,1,0
		c12.7,0,25-1.1,37.1-3.2c36.1-6.4,69.1-21.9,96.4-44.1c3-2.4,5.9-4.9,8.7-7.5L810.6,668z"/>
	<path class="st2" d="M810.6,725l-0.6,0c-2.9,2.6-5.9,5.2-8.9,7.7c-27.3,22.2-60.3,37.7-96.4,44.1c-12,2.1-24.4,3.2-37.1,3.2
		c-0.3,0-0.7,0-1,0c-0.3,0-0.7,0-1,0c-12,0-23.7-1-35.1-2.9c-9.5-1.6-18.9-3.8-27.9-6.6c-26-8.1-49.8-21-70.5-37.8
		c-2.9-2.4-5.7-4.8-8.5-7.3c-0.1-0.1-0.3-0.2-0.4-0.4l-0.6,58c0,0,7.6,5.3,10.5,7.7c20.4,16.5,43.9,29.4,69.5,37.5
		c0.3,0.1,0.7,0.2,1,0.3c9.1,2.8,18.4,5,27.9,6.6c11.4,1.9,23.1,2.9,35.1,2.9c0.3,0,0.7,0,1,0c0.3,0,0.7,0,1,0
		c12.7,0,25-1.1,37.1-3.2c36.1-6.4,69.1-21.9,96.4-44.1c3-2.4,5.9-4.9,8.7-7.5L810.6,725z"/>
	<path class="st0" d="M602.6,770.5v57.7c-25.6-8.1-49.1-20.9-69.5-37.5c-2.9-2.4-10.5-7.7-10.5-7.7l0.6-58c0.1,0.1,0.3,0.2,0.4,0.4
		c2.8,2.5,5.6,4.9,8.5,7.3C552.7,749.5,576.6,762.4,602.6,770.5z"/>
	<path class="st3" d="M602.6,713.5v57.7c-25.6-8.1-49.1-20.9-69.5-37.5c-2.9-2.4-10.5-7.7-10.5-7.7l0.6-58c0.1,0.1,0.3,0.2,0.4,0.4
		c2.8,2.5,5.6,4.9,8.5,7.3C552.7,692.5,576.6,705.4,602.6,713.5z"/>
	<path class="st2" d="M981.4,800.1c-76.6-9.5-89.9-12-89.9-12l19.3-42h0.5c30.7,0,58,19.4,68.1,48.4L981.4,800.1z"/>
	<path class="st1" d="M508.6,746c-30.6,0-57.9,19.3-68,48.1l-176,498.9h-82l176-498.9c10.2-28.9,37.5-48.1,68-48.1H508.6z"/>
	<path class="st4" d="M764.6,1137V1293h-194V1137c0-28.1,22.8-50.9,50.9-50.9h92.2c0.3,0,0.6,0,0.9,0
		C742.3,1086.5,764.6,1109.2,764.6,1137z"/>
	<path class="st3" d="M764.6,1137V1293h-100V1137c0-27.8,22.3-50.4,50-50.9C742.3,1086.5,764.6,1109.2,764.6,1137z"/>
	<path class="st3" d="M929.6,1293h255v-127h-128C986.4,1166,929.6,1222.9,929.6,1293L929.6,1293z"/>
	<path class="st3" d="M34.6,1293h255v-127h-128C91.4,1166,34.6,1222.9,34.6,1293L34.6,1293z"/>
	<path class="st4" d="M1299.6,1339H33.6c-12.7,0-23-10.3-23-23l0,0c0-12.7,10.3-23,23-23h1266c12.7,0,23,10.3,23,23l0,0
		C1322.6,1328.7,1312.3,1339,1299.6,1339z"/>
	<path class="st0" d="M749.6,131l-45.1,201h-73.5l-48.3-202l75.8-97.6c2.2-2.8,5.1-4.4,8.2-5c5-0.9,10.3,0.9,13.6,5.5L749.6,131z"/>
	<path class="st2" d="M749.6,131l-45.1,201h-37.9V27.5c5-0.9,10.3,0.9,13.6,5.5L749.6,131z"/>
	<path class="st1" d="M403.6,1282c0,3.7-0.2,7.4-0.5,11h-219c-0.3-3.6-0.5-7.3-0.5-11c0-64.1,49.2-116,110-116
		S403.6,1218,403.6,1282z"/>
	<path class="st1" d="M1298.6,1282c0,3.7-0.2,7.4-0.5,11h-219c-0.3-3.6-0.5-7.3-0.5-11c0-64.1,49.2-116,110-116
		S1298.6,1218,1298.6,1282z"/>
	<path class="st0" d="M811.1,381v106.6c0,4.1-0.2,8.1-0.5,12.1c-5,60.7-47.7,110.7-104.6,126.6c-3.6,1-7.2,1.9-10.9,2.6
		c-9,1.8-18.4,2.7-28,2.7s-18.9-0.9-28-2.7h0c-12.9-2.5-25.1-6.8-36.5-12.5c-43.6-21.9-74.6-65.3-79-116.3c0-0.1,0-0.2,0-0.2
		c-0.4-4-0.5-8.1-0.5-12.3V381c0-3.3,0.3-6.5,1-9.7c4.5-22.7,24.5-39.8,48.5-39.8h189.1c2.4,0,4.7,0.2,7,0.5
		c20.9,3,37.5,19,41.5,39.5C810.8,374.6,811.1,377.7,811.1,381z"/>
	<path class="st2" d="M811.1,381v106.6c0,66.1-44.5,121.7-105.1,138.7c-59.8-17.5-103.4-72.8-103.4-138.2V332h166.1
		C792.6,335.4,811.1,356.1,811.1,381z"/>
	<path class="st3" d="M1000.2,476.6L877.2,175.9c-7.8-19-25.3-32.4-45.7-34.9l-81.9-10l-66,83l-1.9,79.5c-1.2,2.3-2.3,4.5-3.5,6.8
		c-3.5-0.2-7.1-0.3-10.6-0.3c-0.3,0-0.7,0-1,0c-0.3,0-0.7,0-1,0c-3.6,0-7.1,0.1-10.6,0.3c-1.1-2.2-2.3-4.5-3.5-6.8l-1.9-79.5l-66-83
		l-81.9,10c-20.4,2.5-37.9,15.8-45.7,34.9L332.9,476.6c-9.5,23.2-6,49.7,9.1,69.7l60.5,79.8l1.7,225.8c0.2,26.2,16,49.7,40.2,59.9
		l38.1,16c18.6,7.8,39.1-5.8,39.2-26l1.4-232.6c0.1,0.1,0.3,0.2,0.4,0.4c2.8,2.5,5.6,4.9,8.5,7.3c20.6,16.8,44.5,29.7,70.5,37.8
		c9.1,2.8,18.4,5,27.9,6.6c11.4,1.9,23.1,2.9,35.1,2.9c0.3,0,0.7,0,1,0c0.3,0,0.7,0,1,0c12.7,0,25-1.1,37.1-3.2
		c36.1-6.4,69.1-21.9,96.4-44.1c3-2.5,6-5,8.9-7.7l0.6,0l0.8,232.7c0.1,20.2,20.6,33.8,39.2,26l38.1-16c24.2-10.1,40-33.7,40.2-59.9
		l1.7-225.8l60.5-79.8C1006.3,526.3,1009.7,499.8,1000.2,476.6z M811.1,487.5c0,4.1-0.2,8.1-0.5,12.1
		c-5,60.7-47.7,110.7-104.6,126.6c-3.6,1-7.2,1.9-10.9,2.6c-9,1.8-18.4,2.7-28,2.7s-18.9-0.9-28-2.7h0c-12.9-2.5-25.1-6.8-36.5-12.5
		c-43.6-21.9-74.6-65.3-79-116.3c0-0.1,0-0.2,0-0.2c-0.4-4-0.5-8.1-0.5-12.3V381c0-3.3,0.3-6.5,1-9.7c4.5-22.7,24.5-39.8,48.5-39.8
		h189.1c2.4,0,4.7,0.2,7,0.5c20.9,3,37.5,19,41.5,39.5c0.6,3.1,0.9,6.2,0.9,9.5V487.5z"/>
	<path class="st4" d="M410.9,476.6c-9.5,23.2-6,49.7,9.1,69.7l60.5,79.8l1.7,225.8c0.2,25.4,15,48.3,38,58.9
		c-5.1,14.9-22.1,23.5-37.7,16.9l-38.1-16c-24.2-10.1-40-33.7-40.2-59.9L402.6,626L342,546.3c-15.2-20-18.6-46.5-9.1-69.7
		l123.1-300.7c7.8-19,25.3-32.4,45.7-34.9l50-6.1c-5.4,5.3-9.8,11.7-12.7,19L410.9,476.6z"/>
	<path class="st4" d="M602.6,616.3v98.2c-26-8.1-49.8-21-70.5-37.8c-2.9-2.4-5.7-4.8-8.5-7.3V500h0C528,551,558.9,594.4,602.6,616.3
		z"/>
	<path class="st1" d="M523.1,487.5c0,4.1,0.2,8.2,0.5,12.3c-1.7,0.2-3.3,0.2-5,0.2c-33.7,0-61-28.9-61-64.5c0-9.1,1.8-17.7,5-25.5
		c9.3-22.9,30.9-39,56-39c1.8,0,3.7,0.1,5.5,0.3c-0.6,3.1-1,6.4-1,9.7V487.5z"/>
	<path class="st0" d="M524,371.3c-0.6,3.1-1,6.4-1,9.7v67.9c-1.5,0.1-3,0.2-4.5,0.2c-25.1,0-46.7-16.1-56-39c9.3-22.9,30.9-39,56-39
		C520.4,371,522.2,371.1,524,371.3z"/>
	<path class="st1" d="M878.6,435.5c0,35.6-27.3,64.5-61,64.5c-2.4,0-4.7-0.1-7-0.4c0.3-4,0.5-8,0.5-12.1V381c0-3.2-0.3-6.4-0.9-9.5
		c2.4-0.3,4.9-0.5,7.4-0.5c25.1,0,46.7,16.1,56,39C876.8,417.9,878.6,426.5,878.6,435.5z"/>
	<path class="st0" d="M873.6,410c-9.3,22.9-30.9,39-56,39c-2.2,0-4.4-0.1-6.5-0.4V381c0-3.2-0.3-6.4-0.9-9.5
		c2.4-0.3,4.9-0.5,7.4-0.5C842.7,371,864.3,387.1,873.6,410z"/>
	<path class="st0" d="M722.6,893h-108l15.9-171.9l8.6-92.3h0c9,1.8,18.4,2.7,28,2.7c3,0,6-0.1,8.9-0.3c6.5-0.4,12.9-1.2,19.1-2.5
		l9.6,92L722.6,893z"/>
	<path class="st1" d="M676,631.3L668.4,893h-53.8l15.9-171.9l8.6-92.3h0c9,1.8,18.4,2.7,28,2.7C670.1,631.5,673,631.5,676,631.3z"/>
</g>
</svg>
