<svg id="Calque_2" data-name="Calque 2" xmlns="http://www.w3.org/2000/svg" viewBox="0 0 915.43 2022"><defs><style>.cls-1{fill:#fff;}.cls-2{fill:#cbd0d1;}.cls-3{fill:#e0e2e2;}.cls-4{fill:#bbbebf;}.cls-5{fill:#a4a5a5;}.cls-6{fill:#c0a992;}.cls-7{fill:#fdb74f;}.cls-8{fill:#faa83c;}.cls-9{fill:#fdcc50;}.cls-10{fill:#d8ccbb;}.cls-11{fill:#9a806c;}.cls-12{fill:#ab927c;}.cls-13{fill:#9b9b9b;}.cls-14{fill:none;stroke:#000;stroke-miterlimit:10;}</style></defs><title>statuedelaliberte</title><ellipse class="cls-1" cx="411" cy="806.5" rx="114" ry="89.5"/><ellipse class="cls-2" cx="411.5" cy="821" rx="106.5" ry="69"/><rect class="cls-3" x="352" y="957" width="114" height="149"/><rect class="cls-2" x="352" y="957" width="80" height="149"/><path class="cls-4" d="M742.5,1055.7c0,35.82-5.94,69.52-16.41,98.94-23.88-37.46-38.59-88.58-38.59-144.94,0-35.82,5.94-69.52,16.41-98.94C727.79,948.22,742.5,999.34,742.5,1055.7Z" transform="translate(-206.5 -42.7)"/><path class="cls-1" d="M693.76,981.43c.47-.53.94-1.07,1.4-1.61-8.65,36-29.33,61.43-53.68,71.3a60.81,60.81,0,0,1-23,4.58c-35.11,0-65.76-28.65-76.71-74.78h0c-.17-.73-.34-1.46-.5-2.19s-.29-1.34-.42-2-.22-1.06-.32-1.59-.24-1.21-.35-1.82c-.22-1.21-.43-2.42-.63-3.65-.13-.85-.26-1.71-.38-2.57s-.25-1.8-.36-2.7c0-.19-.05-.38-.07-.58-.09-.67-.16-1.34-.23-2-.06-.48-.11-1-.15-1.45q-.39-3.84-.6-7.8c0-.44,0-.89-.07-1.34s-.05-1.14-.07-1.72c0-.25,0-.49,0-.74,0-.84-.05-1.68-.06-2.53,0-1.16,0-2.32,0-3.5,0-1,0-1.89,0-2.83s0-1.61.06-2.41c0-.5,0-1,.06-1.49s0-.81.06-1.22,0-.79.06-1.18c0-.55.07-1.1.11-1.65l.06-.89c0-.62.1-1.24.16-1.85,0-.28,0-.57.07-.85.05-.54.11-1.07.17-1.6s.09-.91.14-1.36c.19-1.63.4-3.24.64-4.84,0,0,0-.07,0-.11,14.44-8.47,31.77-23.68,46.55-39v-1.05c7.33-7.63,14-15.24,19.29-22a15.59,15.59,0,0,1,24.51,0C645.72,879,675.15,907.72,697,920.51a149,149,0,0,1,1.49,21.19A162.31,162.31,0,0,1,693.76,981.43Z" transform="translate(-206.5 -42.7)"/><path class="cls-5" d="M719.5,913.7a101.78,101.78,0,0,1-24.34,66.12c-.46.54-.93,1.08-1.4,1.61a162.31,162.31,0,0,0,4.74-39.73A149,149,0,0,0,697,920.51c-21.86-12.79-51.29-41.52-67.52-62.11a15.59,15.59,0,0,0-24.51,0c-5.31,6.76-12,14.37-19.29,22l-1,1.05c-14.78,15.3-32.11,30.51-46.55,39a149.9,149.9,0,0,0-1.64,22.28,165.14,165.14,0,0,0,4.29,38.22A102,102,0,0,1,609.94,812c1-.08,2-.14,3-.17,1.51-.08,3-.11,4.56-.11q3.81,0,7.56.28A102,102,0,0,1,719.5,913.7Z" transform="translate(-206.5 -42.7)"/><polygon class="cls-3" points="595 835 518 804 513 826 595 835"/><polygon class="cls-3" points="624 747 512 765 518 794 624 747"/><polygon class="cls-3" points="565 675 466 731 482 752 565 675"/><polygon class="cls-3" points="411 609 411 733 434.36 718.88 411 609"/><polygon class="cls-2" points="411 609 411 733 387.64 718.88 411 609"/><polygon class="cls-2" points="356.52 727.87 259 675 340 752 356.52 727.87"/><polygon class="cls-2" points="309 766.5 214 750 305 794 309 766.5"/><polygon class="cls-2" points="297 807 234 831 299.56 825.41 297 807"/><path class="cls-6" d="M81,323h54a0,0,0,0,1,0,0V497a27,27,0,0,1-27,27h0a27,27,0,0,1-27-27V323A0,0,0,0,1,81,323Z"/><path class="cls-4" d="M544.39,1037.85c-6.29,36.69-17.67,70.28-32.45,98.77-15.32-42.14-19.84-96.82-9.93-154.55,6.3-36.69,17.67-70.28,32.45-98.77C549.79,925.43,554.3,980.12,544.39,1037.85Z" transform="translate(-206.5 -42.7)"/><rect class="cls-3" x="285.7" y="420.31" width="23.4" height="78.4" rx="11.7" ry="11.7" transform="translate(-448.3 322.71) rotate(-47.19)"/><rect class="cls-3" x="287.7" y="390.31" width="23.4" height="78.4" rx="11.7" ry="11.7" transform="translate(-425.66 314.56) rotate(-47.19)"/><rect class="cls-3" x="281.7" y="352.31" width="23.4" height="78.4" rx="11.7" ry="11.7" transform="translate(-399.7 297.99) rotate(-47.19)"/><rect class="cls-3" x="281.7" y="448.31" width="23.4" height="78.4" rx="11.7" ry="11.7" transform="translate(-470.13 328.75) rotate(-47.19)"/><rect class="cls-3" x="1060.7" y="1444.31" width="23.4" height="78.4" rx="11.7" ry="11.7" transform="translate(-617.61 2513.21) rotate(-90)"/><path class="cls-3" d="M428.56,831h0c-.08.61-3.5,25.75-23.13,59.09-11.87,20.18-29.68,43.38-56.29,66-1.28-12.36-2.7-25.94-4.19-40.4q-.68-6.39-1.36-13c-10-96.09-23.18-224.21-30.09-293.91,0,0-18-25-16-56s30-23,30-23l15-54c-14-20-28-54-15-55s50,27,46,72-7,56,3,97c7.85,32.19,37.9,174.12,50.45,233.61C427.52,826,428.06,828.6,428.56,831Z" transform="translate(-206.5 -42.7)"/><path class="cls-7" d="M387.5,182.7c0,58.54-61,101-73,98-18.12-4.53-73-41.46-73-100,0-34.52,18.77-66,42-87,31-28,7-51,31-51C337.5,42.7,387.5,124.16,387.5,182.7Z" transform="translate(-206.5 -42.7)"/><path class="cls-8" d="M354.65,205.2c0,32.2-33.55,55.55-40.15,53.9-10-2.49-40.15-22.8-40.15-55,0-19,10.32-36.31,23.1-47.85,17.05-15.4,3.83-28.05,17.05-28.05C327.15,128.2,354.65,173,354.65,205.2Z" transform="translate(-206.5 -42.7)"/><path class="cls-9" d="M387.5,182.7c0,30.6-16.67,56.81-34.29,74.42a118.5,118.5,0,0,1-13-15.85c-13.79-20.13-21.75-44.57-21.75-68.57a89.25,89.25,0,0,1,7.93-36.65c7.41-16.6,19.63-31.1,34.89-42.18C375.91,121,387.5,154.52,387.5,182.7Z" transform="translate(-206.5 -42.7)"/><path class="cls-7" d="M354.65,205.2c0,14.21-6.53,26.7-14.4,36.07-13.79-20.13-21.75-44.57-21.75-68.57a89.25,89.25,0,0,1,7.93-36.65C339.43,150.32,354.65,181.25,354.65,205.2Z" transform="translate(-206.5 -42.7)"/><polygon class="cls-10" points="81 323 135 323 186 286 30 286 81 323"/><rect class="cls-11" y="217" width="216" height="69" rx="34.5" ry="34.5"/><rect class="cls-12" x="108" y="217" width="108" height="69" rx="34.5" ry="34.5"/><path class="cls-6" d="M400.09,261.88A34.39,34.39,0,0,0,388,259.7H241a34.39,34.39,0,0,0-12.09,2.18A34.53,34.53,0,0,1,263,232.7H366A34.51,34.51,0,0,1,400.09,261.88Z" transform="translate(-206.5 -42.7)"/><path class="cls-1" d="M928.5,1378.7l-14,134-55.33-11-298.72-59.2-.26,0-99.82-19.78-.28-.06-8.76-1.74c-5.52-10.84-14.44-36.35-16.78-90.24l-54.25,52.22a127.43,127.43,0,0,0-15.85,18.46c-4.29-208.37-45.14-346.92-60.84-392.88a22,22,0,0,1,9.08-25.81A317.89,317.89,0,0,0,349.14,956c1.67-1.42,3.3-2.84,4.91-4.26C378,930.54,394.31,909,405.43,890.06c19.63-33.34,23.05-58.48,23.13-59.09L493,1007.79a74.76,74.76,0,0,0,38.36,42l130.83,61.71.34.16a174,174,0,0,1,22.21-1.07c.86,0,1.74,0,2.64,0l2.53.06,1.83.07c1.9.07,3.87.18,5.89.31l1.84.14,1.24.1,2,.17c3.71.34,7.57.8,11.54,1.41a165,165,0,0,1,30.45,7.53l.65.24c22.41,8.12,44.29,22.47,58.15,47.47a106.85,106.85,0,0,1,8.07,18.53C859.82,1333.27,843.5,1311.7,928.5,1378.7Z" transform="translate(-206.5 -42.7)"/><path class="cls-1" d="M1034.5,1590.7c-26,96-64,176-98,176-30,0-75-81.26-75-181.5s33.58-181.5,75-181.5S1060.7,1494,1034.5,1590.7Z" transform="translate(-206.5 -42.7)"/><path class="cls-4" d="M1034.5,1590.7c-25.27,93.29-61.86,171.47-95.11,175.81-14.31-32.57-24.89-76.71-24.89-125.31,0-100.24,33.58-181.5,75-181.5,7.55,0,16.48,3,25.87,8.49C1035.26,1502,1046.7,1545.63,1034.5,1590.7Z" transform="translate(-206.5 -42.7)"/><path class="cls-2" d="M1039.42,1558.09a144.52,144.52,0,0,1-4.92,32.61c-24.56,90.66-59.81,167-92.29,175.27a334.79,334.79,0,0,1-1.71-33.77c0-100.24,33.58-181.5,75-181.5C1022.52,1550.7,1030.74,1553.3,1039.42,1558.09Z" transform="translate(-206.5 -42.7)"/><path class="cls-5" d="M1119.37,1419.41l-123.62,228.2a21.17,21.17,0,0,1-28.69,8.52L893,1616l-61.07-33.08a21.15,21.15,0,0,1-8.53-28.68L947,1326.05a21.16,21.16,0,0,1,28.69-8.53l135.12,73.2a21.18,21.18,0,0,1,8.53,28.69Z" transform="translate(-206.5 -42.7)"/><path class="cls-4" d="M1119.37,1419.41l-123.62,228.2a21.17,21.17,0,0,1-28.69,8.52L893,1616a21.14,21.14,0,0,1-5.6-26.76L1011,1361.05a21.16,21.16,0,0,1,28.69-8.53l74,40.12A21.15,21.15,0,0,1,1119.37,1419.41Z" transform="translate(-206.5 -42.7)"/><rect class="cls-3" x="1051.7" y="1473.31" width="23.4" height="78.4" rx="11.7" ry="11.7" transform="translate(-990.32 1390.48) rotate(-52.43)"/><rect class="cls-3" x="1006.7" y="1546.31" width="23.4" height="78.4" rx="11.7" ry="11.7" transform="translate(-1065.74 1383.3) rotate(-52.43)"/><rect class="cls-3" x="1022.06" y="1520" width="27.4" height="88.53" rx="11.7" ry="11.7" transform="translate(-1042.12 1388.77) rotate(-52.43)"/><rect class="cls-3" x="1039.06" y="1495" width="27.4" height="88.53" rx="11.7" ry="11.7" transform="translate(-1015.67 1392.49) rotate(-52.43)"/><path class="cls-4" d="M349.14,956a317.89,317.89,0,0,1-36.45,26.64,21.94,21.94,0,0,0-6.16,5.81c.7-36.2,15.33-67.83,37.06-85.85C345.6,922,347.48,940,349.14,956Z" transform="translate(-206.5 -42.7)"/><path class="cls-2" d="M428.56,831h0c-.08.61-3.5,25.75-23.13,59.09-11.87,20.18-29.68,43.38-56.29,66-1.28-12.36-2.7-25.94-4.19-40.4,36.4-30,64-65.11,82-92.3C427.52,826,428.06,828.6,428.56,831Z" transform="translate(-206.5 -42.7)"/><path class="cls-3" d="M928.5,1916.7l-230,148-42.85-15.36L327.5,1931.7v-16.87a248.47,248.47,0,0,1,32.87-123.51l106.88-186.59,92.94-162.25L744.5,1120.7h.78c22.41,8.12,44.29,22.47,58.15,47.47l55.74,333.56Z" transform="translate(-206.5 -42.7)"/><path class="cls-3" d="M714.18,1112.93,460.37,1422.7l-5.39,6.58c.51-.93.82-1.38.82-1.38s-1.85-1.84-4.47-7c-5.52-10.84-14.44-36.35-16.78-90.24l227.61-219.12.34.16a174,174,0,0,1,22.21-1.07c.86,0,1.74,0,2.64,0l2.53.06,1.83.07c1.9.07,3.87.18,5.89.31l1.84.14,1.24.1,2,.17C706.35,1111.86,710.21,1112.32,714.18,1112.93Z" transform="translate(-206.5 -42.7)"/><path class="cls-2" d="M744.63,1120.46,560.45,1442.53l-93,162.7L362.5,1788.7l-36.87-152.28a78.2,78.2,0,0,1,15.4-67.8l114.76-140.7v0l4.29-5.26,252.75-309.91,1.34.2A165,165,0,0,1,744.63,1120.46Z" transform="translate(-206.5 -42.7)"/><path class="cls-2" d="M792.5,1268.7S671,1896.2,559,2015.2l137,49S786.5,1312.7,792.5,1268.7Z" transform="translate(-206.5 -42.7)"/><path class="cls-3" d="M641.48,1051.12a60.81,60.81,0,0,1-23,4.58c-35.11,0-65.76-28.65-76.71-74.78h0c-.17-.73-.34-1.46-.5-2.19s-.29-1.34-.42-2-.22-1.06-.32-1.59-.24-1.21-.35-1.82c-.22-1.21-.43-2.42-.63-3.65-.13-.85-.26-1.71-.38-2.57s-.25-1.8-.36-2.7c0-.19-.05-.38-.07-.58-.09-.67-.16-1.34-.23-2-.06-.48-.11-1-.15-1.45q-.39-3.84-.6-7.8c0-.44,0-.89-.07-1.34s-.05-1.14-.07-1.72c0-.25,0-.49,0-.74,0-.84-.05-1.68-.06-2.53,0-1.16,0-2.32,0-3.5,0-1,0-1.89,0-2.83s0-1.61.06-2.41c0-.5,0-1,.06-1.49s0-.81.06-1.22,0-.79.06-1.18c0-.55.07-1.1.11-1.65l.06-.89c0-.62.1-1.24.16-1.85,0-.28,0-.57.07-.85.05-.54.11-1.07.17-1.6s.09-.91.14-1.36c.19-1.63.4-3.24.64-4.84,0,0,0-.07,0-.11,14.44-8.47,31.77-23.68,46.55-39,0,10.1.41,22.42.81,38.26C588.31,992.26,588.48,1020.4,641.48,1051.12Z" transform="translate(-206.5 -42.7)"/><path class="cls-13" d="M613.93,811.81a2.09,2.09,0,0,0-.14.17l-3.06,3.68c-.69.83-1.36,1.65-2,2.45l-1,1.19-.94,1.17c-.61.77-1.21,1.53-1.79,2.28l-.86,1.11c-1.13,1.47-2.19,2.89-3.19,4.28l-.74,1c-.45.63-.88,1.24-1.29,1.85s-1,1.51-1.5,2.25-.8,1.24-1.17,1.85q-1.23,2-2.3,4c-.21.38-.42.77-.61,1.15s-.25.49-.38.74-.25.5-.37.75c-.22.45-.44.91-.65,1.36-.13.28-.25.56-.37.83-.25.56-.49,1.13-.72,1.7s-.44,1.09-.64,1.64-.39,1-.57,1.59-.28.83-.41,1.25-.32,1-.48,1.58c-.09.32-.18.64-.26,1-.14.52-.28,1.05-.41,1.58-.18.74-.35,1.5-.5,2.26-.19.92-.36,1.86-.52,2.82-.08.46-.15.93-.21,1.4s-.14.94-.2,1.43c-.12,1-.24,1.94-.33,3-.47,4.82-.66,10.18-.67,16.36-14.78,15.3-32.11,30.51-46.55,39,0,0,0,.07,0,.11-.24,1.6-.45,3.21-.64,4.84-.05.45-.1.9-.14,1.36s-.12,1.06-.17,1.6c0,.28,0,.57-.07.85-.06.61-.11,1.23-.16,1.85l-.06.89c0,.55-.08,1.1-.11,1.65,0,.39,0,.79-.06,1.18s-.05.81-.06,1.22,0,1-.06,1.49c0,.8-.05,1.6-.06,2.41s0,1.88,0,2.83c0,1.18,0,2.34,0,3.5,0,.85,0,1.69.06,2.53,0,.25,0,.49,0,.74,0,.58,0,1.15.07,1.72s0,.9.07,1.34q.21,4,.6,7.8c0,.48.09,1,.15,1.45.07.68.14,1.35.23,2,0,.2,0,.39.07.58.11.91.23,1.8.36,2.7s.25,1.72.38,2.57c.2,1.23.41,2.44.63,3.65.11.61.23,1.22.35,1.82s.2,1.06.32,1.59.28,1.34.42,2,.33,1.46.5,2.19A102,102,0,0,1,610.94,812C611.94,811.9,612.93,811.84,613.93,811.81Z" transform="translate(-206.5 -42.7)"/><path class="cls-14" d="M541.28,978.72l.51,2.2h0C541.61,980.18,541.44,979.45,541.28,978.72Z" transform="translate(-206.5 -42.7)"/><path class="cls-14" d="M613.94,811.81l-.15.17a2.09,2.09,0,0,1,.14-.17Z" transform="translate(-206.5 -42.7)"/><path class="cls-2" d="M455.8,1427.9s-.31.45-.82,1.38L355.5,1550.7,344.56,1505a128,128,0,0,1,35.74-122.09l54.25-52.22c2.34,53.89,11.26,79.4,16.78,90.24C454,1426.06,455.8,1427.9,455.8,1427.9Z" transform="translate(-206.5 -42.7)"/><path class="cls-3" d="M434.55,1330.66l-54.25,52.22a127.43,127.43,0,0,0-15.85,18.46c-4.29-208.37-45.14-346.92-60.84-392.88a22,22,0,0,1,9.08-25.81A317.89,317.89,0,0,0,349.14,956c1.67-1.42,3.3-2.84,4.91-4.26C421.56,1101,431.59,1262.54,434.55,1330.66Z" transform="translate(-206.5 -42.7)"/><path class="cls-2" d="M655.65,2049.34,327.5,1931.7v-16.87a248.47,248.47,0,0,1,32.87-123.51l106.88-186.59.57,1.77C453.5,1728.7,508.76,1895,587.13,1963.83,628.53,2000.22,647.23,2029.66,655.65,2049.34Z" transform="translate(-206.5 -42.7)"/><path class="cls-4" d="M467.41,1605.23,362.5,1788.7l-36.87-152.28a78.2,78.2,0,0,1,15.4-67.8l114.76-140.7C455.09,1428.94,425.33,1474.05,467.41,1605.23Z" transform="translate(-206.5 -42.7)"/></svg>