<?xml version="1.0" encoding="utf-8"?>
<!-- Generator: Adobe Illustrator 22.0.1, SVG Export Plug-In . SVG Version: 6.00 Build 0)  -->
<svg version="1.1" xmlns="http://www.w3.org/2000/svg" xmlns:xlink="http://www.w3.org/1999/xlink" x="0px" y="0px"
	 viewBox="0 0 2095 1086.4" style="enable-background:new 0 0 2095 1086.4;" xml:space="preserve">
<style type="text/css">
	.st0{fill:#EBE4DD;}
	.st1{fill:#C0A992;}
	.st2{fill:#D8CCBB;}
	.st3{fill:#AB947F;}
</style>
<g id="Calque_1">
</g>
<g id="Calque_2">
	<path class="st0" d="M1004.3,88.8h-35V41.3c0-9.7,7.8-17.5,17.5-17.5l0,0c9.7,0,17.5,7.8,17.5,17.5V88.8z"/>
	<path class="st1" d="M708.3,512.3h-147c-9.7,0-17.5-7.8-17.5-17.5v0c0-9.7,7.8-17.5,17.5-17.5h147c9.7,0,17.5,7.8,17.5,17.5v0
		C725.8,504.5,718,512.3,708.3,512.3z"/>
	<path class="st2" d="M708.3,512.3h-72c-9.7,0-17.5-7.8-17.5-17.5v0c0-9.7,7.8-17.5,17.5-17.5h72c9.7,0,17.5,7.8,17.5,17.5v0
		C725.8,504.5,718,512.3,708.3,512.3z"/>
	<path class="st2" d="M794.3,628.3h-303c-9.7,0-17.5-7.8-17.5-17.5l0,0c0-9.7,7.8-17.5,17.5-17.5h303c9.7,0,17.5,7.8,17.5,17.5l0,0
		C811.8,620.5,804,628.3,794.3,628.3z"/>
	<path class="st0" d="M794.3,628.3h-183c-9.7,0-17.5-7.8-17.5-17.5l0,0c0-9.7,7.8-17.5,17.5-17.5h183c9.7,0,17.5,7.8,17.5,17.5l0,0
		C811.8,620.5,804,628.3,794.3,628.3z"/>
	<path class="st1" d="M1190.3,464.8c0,4.8-2,9.2-5.1,12.4c-3.2,3.2-7.5,5.1-12.4,5.1H801.3c-9.7,0-17.5-7.8-17.5-17.5
		c0-4.8,2-9.2,5.1-12.4c3.2-3.2,7.5-5.1,12.4-5.1h371.5C1182.5,447.3,1190.3,455.1,1190.3,464.8z"/>
	<path class="st2" d="M1172.8,482.3H933.3c-9.7,0-17.5-7.8-17.5-17.5v0c0-9.7,7.8-17.5,17.5-17.5h239.5c9.7,0,17.5,7.8,17.5,17.5v0
		C1190.3,474.5,1182.5,482.3,1172.8,482.3z"/>
	<path class="st2" d="M1179.8,564.3H796.3c-9.7,0-17.5-7.8-17.5-17.5l0,0c0-9.7,7.8-17.5,17.5-17.5h383.5c9.7,0,17.5,7.8,17.5,17.5
		l0,0C1197.3,556.5,1189.5,564.3,1179.8,564.3z"/>
	<path class="st0" d="M1179.8,564.3H935.3c-9.7,0-17.5-7.8-17.5-17.5l0,0c0-9.7,7.8-17.5,17.5-17.5h244.5c9.7,0,17.5,7.8,17.5,17.5
		l0,0C1197.3,556.5,1189.5,564.3,1179.8,564.3z"/>
	<path class="st1" d="M1417.8,512.3h-151.5c-9.7,0-17.5-7.8-17.5-17.5v0c0-9.7,7.8-17.5,17.5-17.5h151.5c9.7,0,17.5,7.8,17.5,17.5v0
		C1435.3,504.5,1427.5,512.3,1417.8,512.3z"/>
	<path class="st2" d="M1417.8,512.3h-75.5c-9.7,0-17.5-7.8-17.5-17.5v0c0-9.7,7.8-17.5,17.5-17.5h75.5c9.7,0,17.5,7.8,17.5,17.5v0
		C1435.3,504.5,1427.5,512.3,1417.8,512.3z"/>
	<path class="st2" d="M1480.3,628.3h-296c-9.7,0-17.5-7.8-17.5-17.5l0,0c0-9.7,7.8-17.5,17.5-17.5h296c9.7,0,17.5,7.8,17.5,17.5l0,0
		C1497.8,620.5,1490,628.3,1480.3,628.3z"/>
	<path class="st0" d="M1480.3,628.3h-115c-9.7,0-17.5-7.8-17.5-17.5l0,0c0-9.7,7.8-17.5,17.5-17.5h115c9.7,0,17.5,7.8,17.5,17.5l0,0
		C1497.8,620.5,1490,628.3,1480.3,628.3z"/>
	<path class="st3" d="M2004.8,1066.3H49.8c-17.1,0-31-13.9-31-31l0,0c0-17.1,13.9-31,31-31h1955c17.1,0,31,13.9,31,31l0,0
		C2035.8,1052.4,2021.9,1066.3,2004.8,1066.3z"/>
	<path class="st2" d="M2004.8,1066.3H802.6c-17.1,0-31-13.9-31-31l0,0c0-17.1,13.9-31,31-31h1202.2c17.1,0,31,13.9,31,31l0,0
		C2035.8,1052.4,2021.9,1066.3,2004.8,1066.3z"/>
	<path class="st0" d="M1186.8,358.8c0,31.8-7.4,61.8-20.5,88.5H804.7c-13.1-26.7-20-56.7-18.9-88.5
		c4.8-141.3,172.5-242.3,199.1-251.8c1.3-0.5,2.3-0.7,2.9-0.7C999.8,106.3,1186.8,215.3,1186.8,358.8z"/>
	<path class="st2" d="M926.3,447.3H804.7c-13.1-26.7-20-56.7-18.9-88.5c4.8-141.3,172.5-242.3,199.1-251.8
		C951.6,172.1,898,271.8,926.3,447.3z"/>
	<path class="st0" d="M722.3,437.7c0,14.2-3.2,27.6-8.9,39.6H557.5c-5.6-11.9-8.6-25.4-8.2-39.6c2.1-63.2,74.4-108.4,85.9-112.6
		c0.6-0.2,1-0.3,1.3-0.3C641.7,324.8,722.3,373.6,722.3,437.7z"/>
	<path class="st2" d="M609.9,477.3h-52.4c-5.6-11.9-8.6-25.4-8.2-39.6c2.1-63.2,74.4-108.4,85.9-112.6
		C620.9,354.2,597.7,398.8,609.9,477.3z"/>
	<path class="st0" d="M1428.3,437.7c0,14.2-3.2,27.6-8.9,39.6h-155.9c-5.6-11.9-8.6-25.4-8.2-39.6c2.1-63.2,74.4-108.4,85.9-112.6
		c0.6-0.2,1-0.3,1.3-0.3C1347.7,324.8,1428.3,373.6,1428.3,437.7z"/>
	<path class="st2" d="M1315.9,477.3h-52.4c-5.6-11.9-8.6-25.4-8.2-39.6c2.1-63.2,74.4-108.4,85.9-112.6
		C1326.9,354.2,1303.7,398.8,1315.9,477.3z"/>
	<rect x="807.8" y="482.3" class="st3" width="357" height="47"/>
	<rect x="930.8" y="482.3" class="st1" width="234" height="47"/>
	<rect x="558.8" y="512.3" class="st3" width="148" height="81"/>
	<rect x="632.8" y="512.3" class="st1" width="74" height="81"/>
	<rect x="1268.3" y="512.8" class="st3" width="148" height="81"/>
	<rect x="1342.3" y="512.8" class="st1" width="74" height="81"/>
	<path class="st1" d="M665.8,567.3v26h-66v-26c0-18.2,14.8-33,33-33c6,0,11.7,1.6,16.5,4.4c2.5,1.5,4.8,3.2,6.8,5.2
		C662.1,549.9,665.8,558.2,665.8,567.3z"/>
	<path class="st2" d="M665.8,567.3v26h-33v-26c0-12.2,6.6-22.9,16.5-28.6c2.5,1.5,4.8,3.2,6.8,5.2
		C662.1,549.9,665.8,558.2,665.8,567.3z"/>
	<path class="st1" d="M436,586.1H332.2c-6.8,0-12.4-5.5-12.4-12.4v0c0-6.8,5.5-12.4,12.4-12.4H436c6.8,0,12.4,5.5,12.4,12.4v0
		C448.3,580.6,442.8,586.1,436,586.1z"/>
	<path class="st2" d="M436,586.1h-50.8c-6.8,0-12.4-5.5-12.4-12.4v0c0-6.8,5.5-12.4,12.4-12.4H436c6.8,0,12.4,5.5,12.4,12.4v0
		C448.3,580.6,442.8,586.1,436,586.1z"/>
	<path class="st2" d="M436,668.1H332.2c-6.8,0-12.4-5.5-12.4-12.4v0c0-6.8,5.5-12.4,12.4-12.4H436c6.8,0,12.4,5.5,12.4,12.4v0
		C448.3,662.6,442.8,668.1,436,668.1z"/>
	<path class="st0" d="M436,668.1h-50.8c-6.8,0-12.4-5.5-12.4-12.4v0c0-6.8,5.5-12.4,12.4-12.4H436c6.8,0,12.4,5.5,12.4,12.4v0
		C448.3,662.6,442.8,668.1,436,668.1z"/>
	<path class="st1" d="M441,859.1H327.2c-6.8,0-12.4-5.5-12.4-12.4v0c0-6.8,5.5-12.4,12.4-12.4H441c6.8,0,12.4,5.5,12.4,12.4v0
		C453.3,853.6,447.8,859.1,441,859.1z"/>
	<path class="st2" d="M441,859.1h-56.7c-6.8,0-12.4-5.5-12.4-12.4v0c0-6.8,5.5-12.4,12.4-12.4H441c6.8,0,12.4,5.5,12.4,12.4v0
		C453.3,853.6,447.8,859.1,441,859.1z"/>
	<path class="st0" d="M445.8,533.5c0,10-2.3,19.5-6.3,27.9H329.5c-4-8.4-6.1-17.9-5.8-27.9c1.4-44.6,52.5-76.5,60.6-79.5
		c0.4-0.2,0.7-0.2,0.9-0.2C388.9,453.7,445.8,488.1,445.8,533.5z"/>
	<path class="st2" d="M366.5,561.4h-37c-4-8.4-6.1-17.9-5.8-27.9c1.4-44.6,52.5-76.5,60.6-79.5C374.2,474.5,357.9,506,366.5,561.4z"
		/>
	<rect x="330.4" y="586.1" class="st3" width="104.5" height="57.2"/>
	<rect x="382.7" y="586.1" class="st1" width="52.2" height="57.2"/>
	<rect x="330.4" y="668.1" class="st2" width="104.5" height="165.7"/>
	<rect x="382.7" y="668.1" class="st0" width="52.2" height="165.7"/>
	<rect x="327.3" y="859.1" class="st2" width="114.6" height="144.7"/>
	<rect x="384.6" y="859.1" class="st0" width="57.3" height="144.7"/>
	<path class="st1" d="M406,624.9v18.4h-46.6v-18.4c0-12.9,10.4-23.3,23.3-23.3c4.2,0,8.2,1.1,11.6,3.1c1.8,1,3.4,2.3,4.8,3.7
		C403.3,612.7,406,618.5,406,624.9z"/>
	<path class="st2" d="M406,624.9v18.4h-23.3v-18.4c0-8.6,4.7-16.2,11.6-20.2c1.8,1,3.4,2.3,4.8,3.7C403.3,612.7,406,618.5,406,624.9
		z"/>
	<path class="st1" d="M1374.8,567.3v26h-66v-26c0-18.2,14.8-33,33-33c6,0,11.7,1.6,16.5,4.4c2.5,1.5,4.8,3.2,6.8,5.2
		C1371.1,549.9,1374.8,558.2,1374.8,567.3z"/>
	<path class="st2" d="M1374.8,567.3v26h-33v-26c0-12.2,6.6-22.9,16.5-28.6c2.5,1.5,4.8,3.2,6.8,5.2
		C1371.1,549.9,1374.8,558.2,1374.8,567.3z"/>
	<rect x="493.8" y="628.3" class="st2" width="300" height="376"/>
	<rect x="610.8" y="628.3" class="st0" width="183" height="376"/>
	<path class="st3" d="M585.8,727.3v81.5c0,2.5-2,4.5-4.5,4.5h-56.9c-2.5,0-4.5-2-4.5-4.5v-81.5c0-18.2,14.8-33,33-33
		c6,0,11.7,1.6,16.5,4.4C579.2,704.4,585.8,715.1,585.8,727.3z"/>
	<path class="st1" d="M585.8,727.3v81.5c0,2.5-2,4.5-4.5,4.5h-23.9c-2.5,0-4.5-2-4.5-4.5v-81.5c0-12.2,6.6-22.9,16.5-28.6
		C579.2,704.4,585.8,715.1,585.8,727.3z"/>
	<path class="st3" d="M585.8,918.3v81.5c0,2.5-2,4.5-4.5,4.5h-56.9c-2.5,0-4.5-2-4.5-4.5v-81.5c0-18.2,14.8-33,33-33
		c6,0,11.7,1.6,16.5,4.4C579.2,895.4,585.8,906.1,585.8,918.3z"/>
	<path class="st1" d="M585.8,918.3v81.5c0,2.5-2,4.5-4.5,4.5h-23.9c-2.5,0-4.5-2-4.5-4.5v-81.5c0-12.2,6.6-22.9,16.5-28.6
		C579.2,895.4,585.8,906.1,585.8,918.3z"/>
	<path class="st3" d="M765.8,757.3v49.2c0,3.8-3,6.8-6.8,6.8H646.6c-3.8,0-6.8-3-6.8-6.8v-49.2c0-34.8,28.2-63,63-63
		c12.1,0,23.4,3.4,33,9.3C753.8,714.7,765.8,734.6,765.8,757.3z"/>
	<path class="st1" d="M765.8,757.3v49.2c0,3.8-3,6.8-6.8,6.8h-52.7c-0.3,0-0.5-0.2-0.5-0.5v-55.5c0-22.7,12-42.6,30-53.7
		C753.8,714.7,765.8,734.6,765.8,757.3z"/>
	<path class="st3" d="M765.8,948.3v49.2c0,3.8-3,6.8-6.8,6.8H646.6c-3.8,0-6.8-3-6.8-6.8v-49.2c0-34.8,28.2-63,63-63
		c12.1,0,23.4,3.4,33,9.3C753.8,905.7,765.8,925.6,765.8,948.3z"/>
	<path class="st1" d="M765.8,948.3v49.2c0,3.8-3,6.8-6.8,6.8h-52.7c-0.3,0-0.5-0.2-0.5-0.5v-55.5c0-22.7,12-42.6,30-53.7
		C753.8,905.7,765.8,925.6,765.8,948.3z"/>
	
		<rect x="1179.8" y="628.3" transform="matrix(-1 -4.489266e-11 4.489266e-11 -1 2659.6277 1632.6106)" class="st0" width="300" height="376"/>
	
		<rect x="1179.8" y="628.3" transform="matrix(-1 -4.489843e-11 4.489843e-11 -1 2542.6277 1632.6106)" class="st2" width="183" height="376"/>
	<path class="st3" d="M1454.8,727.3v81.5c0,2.5-2,4.5-4.5,4.5h-56.9c-2.5,0-4.5-2-4.5-4.5v-81.5c0-18.2,14.8-33,33-33
		c6,0,11.7,1.6,16.5,4.4C1448.2,704.4,1454.8,715.1,1454.8,727.3z"/>
	<path class="st1" d="M1454.8,727.3v81.5c0,2.5-2,4.5-4.5,4.5h-23.9c-2.5,0-4.5-2-4.5-4.5v-81.5c0-12.2,6.6-22.9,16.5-28.6
		C1448.2,704.4,1454.8,715.1,1454.8,727.3z"/>
	<path class="st3" d="M1454.8,918.3v81.5c0,2.5-2,4.5-4.5,4.5h-56.9c-2.5,0-4.5-2-4.5-4.5v-81.5c0-18.2,14.8-33,33-33
		c6,0,11.7,1.6,16.5,4.4C1448.2,895.4,1454.8,906.1,1454.8,918.3z"/>
	<path class="st1" d="M1454.8,918.3v81.5c0,2.5-2,4.5-4.5,4.5h-23.9c-2.5,0-4.5-2-4.5-4.5v-81.5c0-12.2,6.6-22.9,16.5-28.6
		C1448.2,895.4,1454.8,906.1,1454.8,918.3z"/>
	<path class="st3" d="M1334.8,757.3v49.2c0,3.8-3,6.8-6.8,6.8h-112.4c-3.8,0-6.8-3-6.8-6.8v-49.2c0-34.8,28.2-63,63-63
		c12.1,0,23.4,3.4,33,9.3C1322.8,714.7,1334.8,734.6,1334.8,757.3z"/>
	<path class="st1" d="M1334.8,757.3v49.2c0,3.8-3,6.8-6.8,6.8h-52.7c-0.3,0-0.5-0.2-0.5-0.5v-55.5c0-22.7,12-42.6,30-53.7
		C1322.8,714.7,1334.8,734.6,1334.8,757.3z"/>
	<path class="st3" d="M1334.8,948.3v49.2c0,3.8-3,6.8-6.8,6.8h-112.4c-3.8,0-6.8-3-6.8-6.8v-49.2c0-34.8,28.2-63,63-63
		c12.1,0,23.4,3.4,33,9.3C1322.8,905.7,1334.8,925.6,1334.8,948.3z"/>
	<path class="st1" d="M1334.8,948.3v49.2c0,3.8-3,6.8-6.8,6.8h-52.7c-0.3,0-0.5-0.2-0.5-0.5v-55.5c0-22.7,12-42.6,30-53.7
		C1322.8,905.7,1334.8,925.6,1334.8,948.3z"/>
	<rect x="795.8" y="564.3" class="st2" width="384" height="440"/>
	<rect x="930.8" y="564.3" class="st0" width="249" height="440"/>
	<path class="st1" d="M1110.8,1005.3h-248V640.7c0-6.9,5.6-12.4,12.4-12.4h223.1c6.9,0,12.4,5.6,12.4,12.4V1005.3z"/>
	<path class="st2" d="M1110.8,1005.3h-187V640.7c0-6.9,5.6-12.4,12.4-12.4h162.1c6.9,0,12.4,5.6,12.4,12.4V1005.3z"/>
	<path class="st3" d="M1072.8,781.3v221h-174v-221c0-48.1,39-87,87-87c10.9,0,21.4,2,31,5.7C1049.6,712.5,1072.8,744.2,1072.8,781.3
		z"/>
	<path class="st1" d="M1072.8,781.3v221h-112v-221c0-37.1,23.3-68.8,56-81.3C1049.6,712.5,1072.8,744.2,1072.8,781.3z"/>
	<path class="st1" d="M1640,586.1h-103.8c-6.8,0-12.4-5.5-12.4-12.4v0c0-6.8,5.5-12.4,12.4-12.4H1640c6.8,0,12.4,5.5,12.4,12.4v0
		C1652.3,580.6,1646.8,586.1,1640,586.1z"/>
	<path class="st2" d="M1640,586.1h-50.8c-6.8,0-12.4-5.5-12.4-12.4v0c0-6.8,5.5-12.4,12.4-12.4h50.8c6.8,0,12.4,5.5,12.4,12.4v0
		C1652.3,580.6,1646.8,586.1,1640,586.1z"/>
	<path class="st2" d="M1640,668.1h-103.8c-6.8,0-12.4-5.5-12.4-12.4v0c0-6.8,5.5-12.4,12.4-12.4H1640c6.8,0,12.4,5.5,12.4,12.4v0
		C1652.3,662.6,1646.8,668.1,1640,668.1z"/>
	<path class="st0" d="M1640,668.1h-50.8c-6.8,0-12.4-5.5-12.4-12.4v0c0-6.8,5.5-12.4,12.4-12.4h50.8c6.8,0,12.4,5.5,12.4,12.4v0
		C1652.3,662.6,1646.8,668.1,1640,668.1z"/>
	<path class="st1" d="M1645,859.1h-113.8c-6.8,0-12.4-5.5-12.4-12.4v0c0-6.8,5.5-12.4,12.4-12.4H1645c6.8,0,12.4,5.5,12.4,12.4v0
		C1657.3,853.6,1651.8,859.1,1645,859.1z"/>
	<path class="st2" d="M1645,859.1h-56.7c-6.8,0-12.4-5.5-12.4-12.4v0c0-6.8,5.5-12.4,12.4-12.4h56.7c6.8,0,12.4,5.5,12.4,12.4v0
		C1657.3,853.6,1651.8,859.1,1645,859.1z"/>
	<path class="st0" d="M1649.8,533.5c0,10-2.3,19.5-6.3,27.9h-110.1c-4-8.4-6.1-17.9-5.8-27.9c1.4-44.6,52.5-76.5,60.6-79.5
		c0.4-0.2,0.7-0.2,0.9-0.2C1592.9,453.7,1649.8,488.1,1649.8,533.5z"/>
	<path class="st2" d="M1570.5,561.4h-37c-4-8.4-6.1-17.9-5.8-27.9c1.4-44.6,52.5-76.5,60.6-79.5
		C1578.2,474.5,1561.9,506,1570.5,561.4z"/>
	<rect x="1534.4" y="586.1" class="st3" width="104.5" height="57.2"/>
	<rect x="1586.7" y="586.1" class="st1" width="52.2" height="57.2"/>
	<rect x="1534.4" y="668.1" class="st2" width="104.5" height="165.7"/>
	<rect x="1586.7" y="668.1" class="st0" width="52.2" height="165.7"/>
	<rect x="1531.3" y="859.1" class="st2" width="114.6" height="144.7"/>
	<rect x="1588.6" y="859.1" class="st0" width="57.3" height="144.7"/>
	<path class="st1" d="M1610,624.9v18.4h-46.6v-18.4c0-12.9,10.4-23.3,23.3-23.3c4.2,0,8.2,1.1,11.6,3.1c1.8,1,3.4,2.3,4.8,3.7
		C1607.3,612.7,1610,618.5,1610,624.9z"/>
	<path class="st2" d="M1610,624.9v18.4h-23.3v-18.4c0-8.6,4.7-16.2,11.6-20.2c1.8,1,3.4,2.3,4.8,3.7
		C1607.3,612.7,1610,618.5,1610,624.9z"/>
	<path class="st1" d="M1884.3,361.8h-134c-10.5,0-19-8.5-19-19v0c0-10.5,8.5-19,19-19h134c10.5,0,19,8.5,19,19v0
		C1903.3,353.3,1894.8,361.8,1884.3,361.8z"/>
	<path class="st2" d="M1884.3,361.8h-67.5c-10.5,0-19-8.5-19-19v0c0-10.5,8.5-19,19-19h67.5c10.5,0,19,8.5,19,19v0
		C1903.3,353.3,1894.8,361.8,1884.3,361.8z"/>
	<path class="st2" d="M1884.3,487.8h-134c-10.5,0-19-8.5-19-19v0c0-10.5,8.5-19,19-19h134c10.5,0,19,8.5,19,19v0
		C1903.3,479.3,1894.8,487.8,1884.3,487.8z"/>
	<path class="st0" d="M1884.3,487.8h-67.5c-10.5,0-19-8.5-19-19v0c0-10.5,8.5-19,19-19h67.5c10.5,0,19,8.5,19,19v0
		C1903.3,479.3,1894.8,487.8,1884.3,487.8z"/>
	<path class="st1" d="M1884.3,780.8h-134c-10.5,0-19-8.5-19-19l0,0c0-10.5,8.5-19,19-19h134c10.5,0,19,8.5,19,19l0,0
		C1903.3,772.3,1894.8,780.8,1884.3,780.8z"/>
	<path class="st2" d="M1884.3,780.8h-67.5c-10.5,0-19-8.5-19-19l0,0c0-10.5,8.5-19,19-19h67.5c10.5,0,19,8.5,19,19l0,0
		C1903.3,772.3,1894.8,780.8,1884.3,780.8z"/>
	<path class="st0" d="M1894.8,280.9c0,15.4-2.9,30-7.9,42.9h-139.5c-5-13-7.7-27.5-7.3-42.9c1.8-68.6,66.6-117.6,76.8-122.2
		c0.5-0.2,0.9-0.4,1.1-0.4C1822.7,158.4,1894.8,211.3,1894.8,280.9z"/>
	<path class="st2" d="M1794.3,323.9h-46.9c-5-13-7.7-27.5-7.3-42.9c1.8-68.6,66.6-117.6,76.8-122.2
		C1804.1,190.3,1783.4,238.7,1794.3,323.9z"/>
	<rect x="1748.6" y="361.8" class="st3" width="132.4" height="87.9"/>
	<rect x="1814.8" y="361.8" class="st1" width="66.2" height="87.9"/>
	<rect x="1748.6" y="487.9" class="st3" width="132.4" height="254.7"/>
	<rect x="1814.8" y="487.9" class="st1" width="66.2" height="254.7"/>
	<rect x="1744.7" y="781.4" class="st3" width="145.2" height="222.4"/>
	<rect x="1817.3" y="781.4" class="st1" width="72.6" height="222.4"/>
	<path class="st1" d="M1844.3,421.5v28.2h-59v-28.2c0-19.8,13.2-35.8,29.5-35.8c5.4,0,10.4,1.7,14.8,4.8c2.2,1.6,4.3,3.5,6.1,5.7
		C1841,402.7,1844.3,411.6,1844.3,421.5z"/>
	<path class="st2" d="M1844.3,421.5v28.2h-29.5v-28.2c0-13.3,5.9-24.8,14.8-31c2.2,1.6,4.3,3.5,6.1,5.7
		C1841,402.7,1844.3,411.6,1844.3,421.5z"/>
	<path class="st1" d="M222.3,362.8h-134c-10.5,0-19-8.5-19-19v0c0-10.5,8.5-19,19-19h134c10.5,0,19,8.5,19,19v0
		C241.3,354.3,232.8,362.8,222.3,362.8z"/>
	<path class="st2" d="M222.3,362.8h-67.5c-10.5,0-19-8.5-19-19v0c0-10.5,8.5-19,19-19h67.5c10.5,0,19,8.5,19,19v0
		C241.3,354.3,232.8,362.8,222.3,362.8z"/>
	<path class="st2" d="M222.3,488.8h-134c-10.5,0-19-8.5-19-19v0c0-10.5,8.5-19,19-19h134c10.5,0,19,8.5,19,19v0
		C241.3,480.3,232.8,488.8,222.3,488.8z"/>
	<path class="st0" d="M222.3,488.8h-67.5c-10.5,0-19-8.5-19-19v0c0-10.5,8.5-19,19-19h67.5c10.5,0,19,8.5,19,19v0
		C241.3,480.3,232.8,488.8,222.3,488.8z"/>
	<path class="st1" d="M222.3,781.8h-134c-10.5,0-19-8.5-19-19l0,0c0-10.5,8.5-19,19-19h134c10.5,0,19,8.5,19,19l0,0
		C241.3,773.3,232.8,781.8,222.3,781.8z"/>
	<path class="st2" d="M222.3,781.8h-67.5c-10.5,0-19-8.5-19-19l0,0c0-10.5,8.5-19,19-19h67.5c10.5,0,19,8.5,19,19l0,0
		C241.3,773.3,232.8,781.8,222.3,781.8z"/>
	<path class="st0" d="M232.8,281.9c0,15.4-2.9,30-7.9,42.9H85.4c-5-13-7.7-27.5-7.3-42.9c1.8-68.6,66.6-117.6,76.8-122.2
		c0.5-0.2,0.9-0.4,1.1-0.4C160.7,159.4,232.8,212.3,232.8,281.9z"/>
	<path class="st2" d="M132.3,324.9H85.4c-5-13-7.7-27.5-7.3-42.9c1.8-68.6,66.6-117.6,76.8-122.2
		C142.1,191.3,121.4,239.7,132.3,324.9z"/>
	<rect x="86.6" y="362.8" class="st3" width="132.4" height="87.9"/>
	<rect x="152.8" y="362.8" class="st1" width="66.2" height="87.9"/>
	<rect x="86.6" y="488.9" class="st3" width="132.4" height="254.7"/>
	<rect x="152.8" y="488.9" class="st1" width="66.2" height="254.7"/>
	<rect x="82.7" y="782.4" class="st3" width="145.2" height="222.4"/>
	<rect x="155.3" y="782.4" class="st1" width="72.6" height="222.4"/>
	<path class="st1" d="M182.3,422.5v28.2h-59v-28.2c0-19.8,13.2-35.8,29.5-35.8c5.4,0,10.4,1.7,14.8,4.8c2.2,1.6,4.3,3.5,6.1,5.7
		C179,403.7,182.3,412.6,182.3,422.5z"/>
	<path class="st2" d="M182.3,422.5v28.2h-29.5v-28.2c0-13.3,5.9-24.8,14.8-31c2.2,1.6,4.3,3.5,6.1,5.7
		C179,403.7,182.3,412.6,182.3,422.5z"/>
	<path class="st1" d="M1018.3,124.3h-63c-9.7,0-17.5-7.8-17.5-17.5v0c0-9.7,7.8-17.5,17.5-17.5h63c9.7,0,17.5,7.8,17.5,17.5v0
		C1035.8,116.5,1028,124.3,1018.3,124.3z"/>
	<path class="st2" d="M1018.3,124.3h-25c-9.7,0-17.5-7.8-17.5-17.5v0c0-9.7,7.8-17.5,17.5-17.5h25c9.7,0,17.5,7.8,17.5,17.5v0
		C1035.8,116.5,1028,124.3,1018.3,124.3z"/>
	<path class="st0" d="M171.7,170.3h-31.3v-58.2c0-6.8,5.5-12.4,12.4-12.4h6.6c6.8,0,12.4,5.5,12.4,12.4V170.3z"/>
	<path class="st0" d="M396.8,461.6h-24.7v-33.5c0-6.8,5.5-12.4,12.4-12.4h0c6.8,0,12.4,5.5,12.4,12.4V461.6z"/>
	<path class="st0" d="M653.3,335.8h-35v-47.5c0-9.7,7.8-17.5,17.5-17.5l0,0c9.7,0,17.5,7.8,17.5,17.5V335.8z"/>
	<path class="st0" d="M1359.3,335.8h-35v-47.5c0-9.7,7.8-17.5,17.5-17.5h0c9.7,0,17.5,7.8,17.5,17.5V335.8z"/>
	<path class="st0" d="M1600.8,460.6h-24.7v-33.5c0-6.8,5.5-12.4,12.4-12.4h0c6.8,0,12.4,5.5,12.4,12.4V460.6z"/>
	<path class="st0" d="M1832.7,169.3h-31.3v-58.2c0-6.8,5.5-12.4,12.4-12.4h6.6c6.8,0,12.4,5.5,12.4,12.4V169.3z"/>
</g>
</svg>
