<?xml version="1.0" encoding="utf-8"?>
<!-- Generator: Adobe Illustrator 22.0.1, SVG Export Plug-In . SVG Version: 6.00 Build 0)  -->
<svg version="1.1" xmlns="http://www.w3.org/2000/svg" xmlns:xlink="http://www.w3.org/1999/xlink" x="0px" y="0px"
	 viewBox="0 0 1242 2208" style="enable-background:new 0 0 1242 2208;" xml:space="preserve">
<style type="text/css">
	.st0{fill:#5B5A58;}
	.st1{fill:#D9D1C7;}
	.st2{fill:#A3A2A2;}
	.st3{fill:#EBE4DD;}
	.st4{fill:#727170;}
	.st5{fill:#4E4E50;}
	.st6{fill:#5D5D5E;}
</style>
<g id="Calque_1">
</g>
<g id="Calque_2">
	<rect x="558.5" y="1113.5" class="st0" width="76" height="88"/>
	<path class="st1" d="M624.5,201.5h-62v-146c0-17.1,13.9-31,31-31h0c17.1,0,31,13.9,31,31V201.5z"/>
	<path class="st2" d="M779.5,1776.5v153h-7.8c-46.4-41.1-107.4-66-174.2-66c-20.3,0-40.1,2.3-59.1,6.7
		c-43.5,10-82.9,30.8-115.2,59.3h-4.8v-153H779.5z"/>
	<path class="st0" d="M569.8,1776.5l-31.4,93.7c-43.5,10-82.9,30.8-115.2,59.3h-4.8v-153H569.8z"/>
	<path class="st2" d="M84.5,2123.5c178-86,298.4-586.8,334-719c76-282,114-877,115-1165c16.4-15.7,91,0,91,0s-46,962-92,1202
		c-36.1,188.2-114,568-201,685L84.5,2123.5z"/>
	<path class="st1" d="M1111.5,2123.5c-178-86-298.4-586.8-334-719c-76-282-114-877-115-1165c-16.4-15.7-91,0-91,0s46,962,92,1202
		c36.1,188.2,114,568,201,685L1111.5,2123.5z"/>
	<rect x="841.5" y="1619.5" class="st3" width="61" height="48"/>
	<rect x="704.5" y="1619.5" class="st3" width="61" height="48"/>
	<rect x="567.5" y="1619.5" class="st3" width="61" height="48"/>
	<rect x="430.5" y="1619.5" class="st3" width="61" height="48"/>
	<rect x="293.5" y="1619.5" class="st3" width="61" height="48"/>
	<path class="st0" d="M918.6,1801.5H277.4c-13.8,0-24.9-11.2-24.9-24.9v-84.1c0-13.8,11.2-24.9,24.9-24.9h641.1
		c13.8,0,24.9,11.2,24.9,24.9v84.1C943.5,1790.3,932.3,1801.5,918.6,1801.5z"/>
	<path class="st4" d="M918.6,1801.5H491.4c-13.8,0-24.9-11.2-24.9-24.9v-84.1c0-13.8,11.2-24.9,24.9-24.9h427.1
		c13.8,0,24.9,11.2,24.9,24.9v84.1C943.5,1790.3,932.3,1801.5,918.6,1801.5z"/>
	<path class="st0" d="M914,1619.5H282c-16.6,0-30-13.4-30-30l0,0c0-16.6,13.4-30,30-30h632c16.6,0,30,13.4,30,30l0,0
		C944,1606.1,930.6,1619.5,914,1619.5z"/>
	<path class="st4" d="M914,1619.5H490.5c-16.6,0-30-13.4-30-30l0,0c0-16.6,13.4-30,30-30H914c16.6,0,30,13.4,30,30l0,0
		C944,1606.1,930.6,1619.5,914,1619.5z"/>
	<path class="st0" d="M731,1143.5H459.5c-16.6,0-30-13.4-30-30l0,0c0-16.6,13.4-30,30-30H731c16.6,0,30,13.4,30,30l0,0
		C761,1130.1,747.6,1143.5,731,1143.5z"/>
	<path class="st4" d="M731,1143.5H573.5c-16.6,0-30-13.4-30-30l0,0c0-16.6,13.4-30,30-30H731c16.6,0,30,13.4,30,30l0,0
		C761,1130.1,747.6,1143.5,731,1143.5z"/>
	<path class="st0" d="M681.5,663.5h-174c-16.6,0-30-13.4-30-30l0,0c0-16.6,13.4-30,30-30h174c16.6,0,30,13.4,30,30l0,0
		C711.5,650.1,698.1,663.5,681.5,663.5z"/>
	<path class="st5" d="M681.5,723.5h-174c-16.6,0-30-13.4-30-30l0,0c0-16.6,13.4-30,30-30h174c16.6,0,30,13.4,30,30l0,0
		C711.5,710.1,698.1,723.5,681.5,723.5z"/>
	<path class="st4" d="M681.5,663.5h-80c-16.6,0-30-13.4-30-30l0,0c0-16.6,13.4-30,30-30h80c16.6,0,30,13.4,30,30l0,0
		C711.5,650.1,698.1,663.5,681.5,663.5z"/>
	<path class="st6" d="M681.5,723.5h-80c-16.6,0-30-13.4-30-30l0,0c0-16.6,13.4-30,30-30h80c16.6,0,30,13.4,30,30l0,0
		C711.5,710.1,698.1,723.5,681.5,723.5z"/>
	<path class="st0" d="M668.2,311.5H519.8c-14,0-25.3-11.3-25.3-25.3v-59.4c0-14,11.3-25.3,25.3-25.3h148.4c14,0,25.3,11.3,25.3,25.3
		v59.4C693.5,300.2,682.2,311.5,668.2,311.5z"/>
	<path class="st4" d="M668.2,311.5h-58.9c-14,0-25.3-11.3-25.3-25.3v-59.4c0-14,11.3-25.3,25.3-25.3h58.9c14,0,25.3,11.3,25.3,25.3
		v59.4C693.5,300.2,682.2,311.5,668.2,311.5z"/>
</g>
</svg>
