<?xml version="1.0" encoding="utf-8"?>
<!-- Generator: Adobe Illustrator 22.0.1, SVG Export Plug-In . SVG Version: 6.00 Build 0)  -->
<svg version="1.1" xmlns="http://www.w3.org/2000/svg" xmlns:xlink="http://www.w3.org/1999/xlink" x="0px" y="0px"
	 viewBox="0 0 851 851" style="enable-background:new 0 0 851 851;" xml:space="preserve">
<style type="text/css">
	.st0{fill:#9773AB;stroke:#000000;stroke-linecap:round;stroke-linejoin:round;stroke-miterlimit:10;}
	.st1{fill:#D2BBD8;stroke:#000000;stroke-miterlimit:10;}
	.st2{stroke:#000000;stroke-linecap:round;stroke-linejoin:round;stroke-miterlimit:10;}
	.st3{fill:#FFFFFF;stroke:#000000;stroke-linecap:round;stroke-linejoin:round;stroke-miterlimit:10;}
	.st4{fill:none;stroke:#000000;stroke-linecap:round;stroke-linejoin:round;stroke-miterlimit:10;}
	.st5{fill:#7C3889;stroke:#000000;stroke-linecap:round;stroke-linejoin:round;stroke-miterlimit:10;}
	.st6{fill:#AA89BA;}
	.st7{fill:#9773AB;}
	.st8{fill:none;stroke:#000000;stroke-miterlimit:10;}
	.st9{stroke:#000000;stroke-miterlimit:10;}
	.st10{opacity:0.59;fill:#FFFFFF;stroke:#000000;stroke-miterlimit:10;}
	.st11{fill:#B4ABB7;}
	.st12{fill:#958D99;}
	.st13{fill:#603813;}
	.st14{fill:#42210B;}
</style>
<g id="Calque_1">
	<path class="st0" d="M390.4,476.1c-8.1,15.1-42.9,66.6-147.1,89c-89.1,19.1-96.3,91-93.5,129c0.3,3.8,5.7,4.3,6.7,0.6
		c0.9-3.6,2.1-7.4,3.5-11.4c2.8-7.5,6.7-15.7,12.3-24c7.2-10.7,17.2-21.6,31.1-31c7.3-5,15.5-9.6,25.1-13.6c8-3.4,16.8-6.4,26.5-8.8
		c6.3-1.6,12.9-3,19.9-4.1c3.2-0.5,6.4-1.2,9.6-2c8.2-2.1,16.5-5.2,24.3-8.6c7.5-3.3,14.5-6.9,20.7-10.3
		c13.3-7.4,22.3-13.7,22.3-13.7l26.1-29.4c0,0,22.4-30.2,26.7-67c-12.5,59.2-24.9,64-52.7,96.4c-51.1,59.8-16,118.7,4.6,144.4
		c2.3,2.9,7,0.4,5.9-3.1c-0.9-3-1.7-5.9-2.3-8.8c-2.6-11.6-3.3-22.5-2.4-32.8c1.1-12.6,4.4-24.4,9.3-35.8
		c4.3-9.9,9.7-19.4,15.7-28.8c3.8-5.7,7.7-11.4,11.9-17.1c3.6-4.9,7.3-9.8,11-14.7c2.7-3.5,5.1-7.1,7.4-10.7
		c26.9-42.7,28.8-91.5,28.8-91.5c-3,36.9-16.4,67.8-16.4,67.8c2.2,12.6,10.6,25.6,19.8,35.8c7.2,7.9,15.9,15.2,25.2,22.1
		c5.4,4,10.9,7.8,16.4,11.5c7.7,5.2,15.4,10.2,22.6,15c1.3,0.9,2.6,1.8,3.9,2.6c9.8,6.8,19.3,15.8,27.4,26.1
		c4.8,6,9.1,12.4,12.8,19.1c3.7,6.7,6.8,13.5,9,20.4c2.3,7,3.6,13.9,4,20.7c0.1,1.7,0.1,3.3,0.1,5c-0.1,3.4,4.3,4.9,6.2,2
		c12-18.4,30.8-55.8,11.9-87.9c-26.2-44.6-101.7-44.6-107-160c-0.3,25,6.3,43.2,6.3,43.2c32.1,23.6,104,28,140,22
		c57.3-9.6,102-28,79-76s-101-34-144-8s-83.3,12.6-111,9.6c-70-7.6-87.3,40.1-90.7,64.8c-0.5,3.6,4.2,5.3,6.2,2.3
		c1.1-1.6,2.1-3.1,3.3-4.5c0,0,0,0,0,0c4-5.2,8.3-9.5,12.7-13.1c7.2-5.8,15-9,22.5-11.3c19.1-5.8,41.1-7.8,66.1,0.2
		c43,13.8,91-3,117-20s85-25,92-7c12.5,32.1-127,57-157.5,18c74.5,33,83.9-5.2,88.3-21.9c1.7-6.5,3.4-13.8,5.2-21.6
		c1.4-6.2,2.8-12.6,4.4-19.2c1.7-7,3.5-14,5.5-21.1c2.2-7.8,4.7-15.5,7.6-22.9c4.3-11.1,9.5-21.4,15.9-30.1
		c10.4-14.1,24-24,42.5-25.6c8.1-0.7,17.2,0.1,27.3,2.9c2.6,0.7,5.3,1.5,8.1,2.5c3.4,1.2,6.1-3,3.6-5.6
		c-19-19.5-64.2-54.5-112.6-10.8C558,366.4,588.5,483.4,539,472.4c-27-6-29.5-30.5-29.5-30.5c5.4,27.4,29.5,30.5,29.5,30.5
		s-29.8-43.9,21.7-164.8S513.5,134,448.8,128.6c-101.5-8.5-162.1,118.8-118.9,184.1c86.9,131.4,62.2,144.7,34.8,161.4
		c-48.3,29.4-84.1-119.2-182.9-70.8c-84.2,41.3-61.4,115.2-47.2,145.7c1.5,3.3,6.4,2.2,6.5-1.4c0-3.6,0.2-7.6,0.6-12
		c0.7-7.6,2.2-16.2,5.1-24.9c2.4-7.4,5.8-15,10.5-22c5.9-8.9,14-17.2,24.8-23.6c8.2-4.9,18-8.8,29.8-11.2c4.5-0.9,8.7-1.4,12.8-1.4
		c12.1-0.2,22.6,3.1,31.9,8.4c10,5.7,18.5,13.7,26.2,22.3c6.7,7.5,12.7,15.3,18.4,22.4c11.3,14.1,22.1,26.2,33.5,24.9
		c0,0,39.2-21.1,57.7-58.5"/>
	<path class="st1" d="M301.2,505.5c-5.2,4.1-13.2,7.7-20.9,0.6c-9.9-9.1-2-18.8,2.4-23C289.5,490.5,295.5,498.4,301.2,505.5z"/>
	<path class="st1" d="M256.6,460.7c-4.4,11.1-12.4,12-25.8,9.3c-10.1-2-8.3-11.6-6.1-17.7C236.8,452.2,247.3,455.4,256.6,460.7z"/>
	<path class="st1" d="M187.4,483.3c-8.5,10.4-23.1,12.5-30.1,5.3c5.9-8.9,14-17.2,24.8-23.6C187.7,468.7,194,475.1,187.4,483.3z"/>
	<path class="st1" d="M157.2,523.9c-1.1,9.7-9.6,11.5-15.5,11.6c0.7-7.6,2.2-16.2,5.1-24.9C151.8,511.6,158.2,514.6,157.2,523.9z"/>
	<path class="st1" d="M321.4,598.7c-7.2,4.8-11.2-3-12.8-7.6c7.5-3.3,14.5-6.9,20.7-10.3C332.5,587.8,330.5,592.8,321.4,598.7z"/>
	<path class="st1" d="M275.3,618.7c-13.8,1.6-18.7-6.3-20.4-12.9c6.3-1.6,12.9-3,19.9-4.1c3.2-0.5,6.4-1.2,9.6-2
		C288.1,606.2,291.4,616.9,275.3,618.7z"/>
	<path class="st1" d="M229.7,628.9c-8.6,7.3-18.3,9.3-26.4-0.7c7.3-5,15.5-9.6,25.1-13.6C232.1,618.1,235.8,623.7,229.7,628.9z"/>
	<path class="st1" d="M181.4,679.6c-6.4,10.2-15.4,9.7-21.4,3.6c2.8-7.5,6.7-15.7,12.3-24C178.2,662.9,187.2,670.4,181.4,679.6z"/>
	<path class="st1" d="M370.5,684.1c0.2,10-5.7,13.9-10.7,15.4c-2.6-11.6-3.3-22.5-2.4-32.8C362.5,668.3,370.2,672.6,370.5,684.1z"/>
	<path class="st1" d="M386.7,623.9c-6.1,10.9-14.5,9.7-20.1,7.1c4.3-9.9,9.7-19.4,15.7-28.8C387.5,606.2,392.7,613.3,386.7,623.9z"
		/>
	<path class="st1" d="M411.9,579.5c-6.8,9-13.3,8.1-17.7,5.6c3.6-4.9,7.3-9.8,11-14.7c2.7-3.5,5.1-7.1,7.4-10.7
		C416.1,564.2,418.2,571.1,411.9,579.5z"/>
	<path class="st1" d="M470,593.8c-6.1,5.3-14.9,9.4-23-0.6c-7.9-9.6-5.7-16.9-2.1-21.5C452,579.7,460.7,587,470,593.8z"/>
	<path class="st1" d="M509,620.3c-3,6.4-9.1,14.2-19.7,6.7c-10.3-7.2-6.9-16.1-2.9-21.7C494.1,610.5,501.8,615.5,509,620.3z"/>
	<path class="st1" d="M553,668.1c-4.1,2.4-10.1,3.6-16-2.9c-6.9-7.5-1.6-13.1,3.2-16.3C545,655,549.3,661.4,553,668.1z"/>
	<path class="st1" d="M566,709.2c-4.2,2-10.1,2.6-12.2-7.4c-2-9.8,3.5-12.6,8.2-13.3C564.2,695.5,565.6,702.5,566,709.2z"/>
	<path class="st1" d="M623.1,456.5c-5.9,7.8-8.8,13.5-15.7,10.1c1.7-6.5,3.4-13.8,5.2-21.6C618.8,446.4,628.2,449.7,623.1,456.5z"/>
	<path class="st1" d="M634.5,414.6c-3.4,10.8-11.9,11.8-17.6,11.1c1.7-7,3.5-14,5.5-21.1C629.1,403.5,637.9,403.7,634.5,414.6z"/>
	<path class="st1" d="M658.7,368.5c-8,13.6-21.3,14.2-28.6,13.3c4.3-11.1,9.5-21.4,15.9-30.1C654.9,352.5,666,356,658.7,368.5z"/>
	<path class="st1" d="M701,341.3c-12.4-1.2-13.4-9.5-12.5-15.2c8.1-0.7,17.2,0.1,27.3,2.9C715.9,334.4,714,342.5,701,341.3z"/>
	<path class="st2" d="M470,277.2l-0.8,10.7c0,0,26.7-4.7,34.3,26.1c0.2,0.9,1.6,0.5,1.6-0.4C505.2,304.5,502.5,278.8,470,277.2z"/>
	<path class="st2" d="M430.5,296.8l-0.1,10.7c0,0-26.2-6.9-36.4,23.1c-0.3,0.8-1.6,0.3-1.6-0.5C393.2,320.9,398,295.6,430.5,296.8z"
		/>
	<path class="st3" d="M479.5,329.5c-7.6-2.8-26.6,0.1-33.4,21.9c-0.4,1.4-0.8,2.9-1.2,4.3c-0.4-1.4-0.7-2.9-1.2-4.3
		c-6.7-21.8-18.2-31.7-27.3-29.9c-15,3-23.9,21.9-17.2,43.7c5.3,17.1,15.9,29.8,26.1,32.6c0.8-0.3,1.7-0.6,2.6-0.8h0
		c1.9-0.6,4-1.1,6.1-1.5c1.4-0.3,2.8-0.5,4.3-0.7c0.2,0,0.5-0.1,0.7-0.1h0c1.9-1.7,3.4-4,4.6-6.7c0.4-0.9,0.4-3.8,0.8-4.9
		c0,0,0.4,1.8,0.4,1.8c1.1,3.3,2.5,6.1,4.4,8.3c0.1,0.2,0.3,0.4,0.5,0.5c0.1,0,0.2,0,0.3,0c0.7,0,1.4-0.1,2.1-0.1
		c1.8,0,3.7-0.1,5.5,0c2.7,0,5.4,0.2,7.9,0.4c1.9,0.2,3.7,0.4,5.5,0.6c7.9-5.4,15.2-16,19.4-29.3
		C497.3,343.4,490.5,333.5,479.5,329.5z"/>
	<path class="st4" d="M412.6,406.3c2.4-3.7,7-6.5,12.9-8.6c0.8-0.3,1.7-0.6,2.6-0.8h0c0.8-0.2,1.5-0.4,2.3-0.6
		c0.6-0.1,1.1-0.3,1.7-0.4c2-0.5,4.1-0.9,6.2-1.2c0,0,0,0,0,0c0.2-0.1,0.5-0.1,0.7-0.1h0c1.3-0.2,2.6-0.3,3.9-0.5
		c1.4-0.2,2.8-0.3,4.2-0.4c0.9-0.1,1.8-0.1,2.7-0.1c0.2,0,0.4,0,0.6,0c0.6,0,1.2,0,1.8-0.1c2.6-0.1,5.2-0.1,7.8,0
		c0.8,0,1.6,0.1,2.4,0.1c1.1,0,2.2,0.1,3.3,0.2c1.9,0.2,3.7,0.3,5.5,0.6c9.5,1.3,17.2,3.8,20.2,7.2"/>
	<path class="st3" d="M464.5,433c0,1.5-0.2,3-0.5,4.4c-1.5,6.4-6.3,11.1-12,11.1c-5.2,0-9.6-3.9-11.5-9.5c-0.6-1.9-1-3.9-1-6
		c0-8.6,5.6-15.5,12.5-15.5S464.5,424.4,464.5,433z"/>
	<path class="st5" d="M464,437.4c-1.5,6.4-6.3,11.1-12,11.1c-5.2,0-9.6-3.9-11.5-9.5l0.3-0.6c2.5-3.8,7-4,11.8-1.7
		C457.4,433.3,462.9,431.8,464,437.4z"/>
	<path class="st6" d="M480.8,186.5c44,19.7,38,77.1,55.7,77.1s55.4-56.6-6.2-93s-122.6-47.6-117-4.7S448.2,172,480.8,186.5z"/>
	<path class="st6" d="M334.6,530.4c-11.4,1.2-22.1-10.9-33.4-24.9c-5.7-7.1-11.7-15-18.4-22.4c-7.7-8.6-16.3-16.6-26.2-22.3
		c-9.3-5.3-19.8-8.6-31.9-8.4c-4.1,0.1-8.3,0.5-12.8,1.4c-11.8,2.4-21.6,6.3-29.8,11.2c-10.9,6.5-18.9,14.7-24.8,23.6
		c-4.7,7.1-8.1,14.6-10.5,22c-2.8,8.7-4.3,17.3-5.1,24.9c-0.4,4.4-0.6,8.5-0.6,12c0,3.6-5,4.7-6.5,1.4c-0.9-1.8-1.7-3.8-2.6-5.9
		c0.5-36.5,20.6-93.8,74.5-101.9c60.6-9.2,121.6,66.6,141.3,80.6c0.1,0,0.2,0.1,0.2,0.2L334.6,530.4z"/>
	<path class="st6" d="M377.7,537.6l-3.4,3.9l-10.4,11.7l-0.3,0.3l-12,13.5c0,0-9,6.4-22.3,13.7c-6.1,3.4-13.2,7-20.7,10.3
		c-7.8,3.4-16.1,6.5-24.3,8.6c-3.2,0.8-6.4,1.5-9.6,2c-7,1.1-13.7,2.5-19.9,4.1c-9.7,2.5-18.5,5.5-26.5,8.8
		c-9.5,4-17.8,8.6-25.1,13.6c-13.8,9.5-23.8,20.3-31.1,31c-5.5,8.2-9.5,16.4-12.3,24c-1.5,4-2.6,7.9-3.5,11.4
		c-0.9,3.7-6.4,3.2-6.7-0.6c-0.2-3.1-0.4-6.4-0.4-9.9c13.8-33.8,43.5-74.7,87.2-86c63.7-16.4,97.6-24.2,140.4-60
		C377.1,538,377.4,537.8,377.7,537.6z"/>
	<path class="st6" d="M434.9,504.8c0,0-0.1,1-0.4,2.6c0,0,0,0.1,0,0.1c-0.2,1-0.4,2.3-0.7,3.7c-1.4,6.8-4.1,17.7-8.7,24.7l0,0
		c0,0,0,0.1,0,0.1c-0.5,0.7-0.9,1.7-1.3,3c-3.1,6.9-6.8,13.9-11,20.7c-2.3,3.6-4.8,7.2-7.4,10.7c-3.7,4.9-7.4,9.8-11,14.7
		c-4.1,5.7-8.1,11.3-11.9,17.1c-6.1,9.3-11.5,18.9-15.7,28.8c-4.9,11.3-8.2,23.2-9.3,35.8c-0.9,10.4-0.2,21.3,2.4,32.8
		c0.7,2.9,1.4,5.8,2.3,8.8c1.1,3.6-3.6,6-5.9,3.1c-3.1-3.8-6.5-8.4-9.8-13.6c-4.5-24.7-2-53.9,11.6-77
		c22.6-38.4,29.1-32.2,55.5-78.3C423.5,524.8,434.9,504.8,434.9,504.8z"/>
	<path class="st6" d="M577.9,706.9c-1.9,3.5-3.8,6.6-5.6,9.3c-1.9,2.9-6.3,1.4-6.2-2c0-1.6,0-3.3-0.1-5c-0.4-6.8-1.7-13.7-4-20.7
		c-2.2-6.9-5.3-13.8-9-20.4c-3.7-6.7-8-13.1-12.8-19.1c-8.1-10.3-17.6-19.3-27.4-26.1c-1.3-0.9-2.6-1.8-3.9-2.6
		c-7.1-4.8-14.9-9.8-22.6-15c-5.5-3.7-11-7.5-16.4-11.5c-9.3-6.8-18-14.1-25.2-22.1c-9.2-10.1-17.6-23.2-19.8-35.7c0,0,0,0,0,0
		c0,0,0,0,0,0l2-9.2c0,1.3,0,2.6,0.1,3.9c0,0.1,0,0.2,0,0.2c3.2,38.7,59.3,57.3,103,85.6C560.7,636.4,575,676.3,577.9,706.9z"/>
	<path class="st6" d="M488.4,402.2c-2.8-3.7-40.6-8.5-50.5-4.4c-11.6,4.8,13.2-1.4,25.7,0.7C474.3,400.4,493.5,408.9,488.4,402.2z"
		/>
	<path class="st6" d="M723.8,331.4c-2.8-1-5.5-1.8-8.1-2.5c-10.1-2.8-19.2-3.6-27.3-2.9c-18.5,1.6-32.1,11.5-42.5,25.6
		c-6.4,8.7-11.6,19-15.9,30.1c-2.9,7.4-5.4,15.1-7.6,22.9c-2,7-3.8,14.1-5.5,21.1c-1.6,6.6-3,13-4.4,19.2
		c-1.8,7.8-3.4,15.1-5.2,21.6c-3.4,13-9.4,23.3-14.4,27.5l-7,4c14.8-11.8,18.4-91.1,44.8-143.1c21-41.3,59.8-45.1,90.6-34.9
		c2.2,2,4.3,4,6.1,5.9C729.9,328.5,727.2,332.6,723.8,331.4z"/>
	<path class="st6" d="M674.7,467.5c-9.1-10.5-41.5-8.6-67.5-0.3c-8.7,2.8-16.6,6.3-22.7,10.3c-11.1,7.3-26.3,14.5-43.4,19.3
		c-2.8,0.8-5.7,1.5-8.6,2.2c-16.4,3.7-34.1,4.9-51.5,1.8c-0.2,0-0.3,0-0.5-0.1c-4.4-0.8-8.8-1.9-13.1-3.2c-10.2-3.3-20-4.9-29.2-5.2
		c-0.1,0-0.2,0-0.3,0c-13.2-0.5-25.4,1.6-36.6,5.1c-1.2,0.4-2.5,0.8-3.7,1.2c-1.2,3.5-2.6,6.8-3.9,10c1.2-3,2.3-6.3,3.4-9.8
		c-6.2,2.2-12.4,5.2-18.3,9.9c-4.4,3.5-8.6,7.9-12.7,13.1c0,0,0,0,0,0c-1.1,1.4-2.2,2.9-3.3,4.5c-1.2,1.8-3.4,1.9-4.8,0.9
		c8.2-15.3,23-33.3,42.1-39.3c0.3-0.1,0.5-0.2,0.8-0.2c2.6-0.8,5.2-1.3,7.9-1.6c8.8-0.9,19.3-0.2,30,1c0.1,0,0.1,0,0.2,0
		c13.8,1.7,28,4.3,39.9,6c0.2,0,0.4,0.1,0.6,0.1c8.9,1.2,16.4,1.8,21.4,0.9c5.3-0.9,12.3-1.8,20.2-3c0.9-0.1,1.7-0.3,2.6-0.4
		c17.1-2.8,38.2-7.8,57.2-19.5c7.6-4.7,17.6-8.8,28.2-11.7C639,450.9,673.7,451,674.7,467.5z"/>
	<path class="st4" d="M390.4,476.1c-8.1,15.1-42.9,66.6-147.1,89c-89.1,19.1-96.3,91-93.5,129c0.3,3.8,5.7,4.3,6.7,0.6
		c0.9-3.6,2.1-7.4,3.5-11.4c2.8-7.5,6.7-15.7,12.3-24c7.2-10.7,17.2-21.6,31.1-31c7.3-5,15.5-9.6,25.1-13.6c8-3.4,16.8-6.4,26.5-8.8
		c6.3-1.6,12.9-3,19.9-4.1c3.2-0.5,6.4-1.2,9.6-2c8.2-2.1,16.5-5.2,24.3-8.6c7.5-3.3,14.5-6.9,20.7-10.3
		c13.3-7.4,22.3-13.7,22.3-13.7l26.1-29.4c0,0,22.4-30.2,26.7-67c-12.5,59.2-24.9,64-52.7,96.4c-51.1,59.8-16,118.7,4.6,144.4
		c2.3,2.9,7,0.4,5.9-3.1c-0.9-3-1.7-5.9-2.3-8.8c-2.6-11.6-3.3-22.5-2.4-32.8c1.1-12.6,4.4-24.4,9.3-35.8
		c4.3-9.9,9.7-19.4,15.7-28.8c3.8-5.7,7.7-11.4,11.9-17.1c3.6-4.9,7.3-9.8,11-14.7c2.7-3.5,5.1-7.1,7.4-10.7
		c26.9-42.7,28.8-91.5,28.8-91.5c-3,36.9-16.4,67.8-16.4,67.8c2.2,12.6,10.6,25.6,19.8,35.8c7.2,7.9,15.9,15.2,25.2,22.1
		c5.4,4,10.9,7.8,16.4,11.5c7.7,5.2,15.4,10.2,22.6,15c1.3,0.9,2.6,1.8,3.9,2.6c9.8,6.8,19.3,15.8,27.4,26.1
		c4.8,6,9.1,12.4,12.8,19.1c3.7,6.7,6.8,13.5,9,20.4c2.3,7,3.6,13.9,4,20.7c0.1,1.7,0.1,3.3,0.1,5c-0.1,3.4,4.3,4.9,6.2,2
		c12-18.4,30.8-55.8,11.9-87.9c-26.2-44.6-101.7-44.6-107-160c-0.3,25,6.3,43.2,6.3,43.2c32.1,23.6,104,28,140,22
		c57.3-9.6,102-28,79-76s-101-34-144-8s-83.3,12.6-111,9.6c-70-7.6-87.3,40.1-90.7,64.8c-0.5,3.6,4.2,5.3,6.2,2.3
		c1.1-1.6,2.1-3.1,3.3-4.5c0,0,0,0,0,0c4-5.2,8.3-9.5,12.7-13.1c7.2-5.8,15-9,22.5-11.3c19.1-5.8,41.1-7.8,66.1,0.2
		c43,13.8,91-3,117-20s85-25,92-7c12.5,32.1-127,57-157.5,18c74.5,33,83.9-5.2,88.3-21.9c1.7-6.5,3.4-13.8,5.2-21.6
		c1.4-6.2,2.8-12.6,4.4-19.2c1.7-7,3.5-14,5.5-21.1c2.2-7.8,4.7-15.5,7.6-22.9c4.3-11.1,9.5-21.4,15.9-30.1
		c10.4-14.1,24-24,42.5-25.6c8.1-0.7,17.2,0.1,27.3,2.9c2.6,0.7,5.3,1.5,8.1,2.5c3.4,1.2,6.1-3,3.6-5.6
		c-19-19.5-64.2-54.5-112.6-10.8C558,366.4,588.5,483.4,539,472.4c-27-6-29.5-30.5-29.5-30.5c5.4,27.4,29.5,30.5,29.5,30.5
		s-29.8-43.9,21.7-164.8S513.5,134,448.8,128.6c-101.5-8.5-162.1,118.8-118.9,184.1c86.9,131.4,62.2,144.7,34.8,161.4
		c-48.3,29.4-84.1-119.2-182.9-70.8c-84.2,41.3-61.4,115.2-47.2,145.7c1.5,3.3,6.4,2.2,6.5-1.4c0-3.6,0.2-7.6,0.6-12
		c0.7-7.6,2.2-16.2,5.1-24.9c2.4-7.4,5.8-15,10.5-22c5.9-8.9,14-17.2,24.8-23.6c8.2-4.9,18-8.8,29.8-11.2c4.5-0.9,8.7-1.4,12.8-1.4
		c12.1-0.2,22.6,3.1,31.9,8.4c10,5.7,18.5,13.7,26.2,22.3c6.7,7.5,12.7,15.3,18.4,22.4c11.3,14.1,22.1,26.2,33.5,24.9
		c0,0,39.2-21.1,57.7-58.5"/>
	<path class="st7" d="M483.5,511.5c32.1,23.6,104,28,140,22c57.3-9.6,102-28,79-76s-101-34-144-8s-83.3,12.6-111,9.6
		c-70-7.6-87.3,40.1-90.7,64.8c-0.5,3.6,4.2,5.3,6.2,2.3c1.1-1.6,2.1-3.1,3.3-4.5c0,0,0,0,0,0c4-5.2,8.3-9.5,12.7-13.1
		c7.2-5.8,15-9,22.5-11.3c19.1-5.8,41.1-7.8,66.1,0.2c43,13.8,91-3,117-20s85-25,92-7c12.5,32.1-127,57-157.5,18"/>
	<path class="st1" d="M420.5,506.5c-10.6,0.9-14.2-4.4-16.9-9.8c10-2.9,20.8-4.7,32.4-4.5C437.7,504.6,431.7,505.6,420.5,506.5z"/>
	<path class="st1" d="M489.8,502c-1.2,3.3-3.9,5.4-7.1,6.5c0,0-0.1,0-0.2,0c-5.8,1.9-13.2,0.7-17.1-2.1c-3.7-2.6-2.7-6.7-0.8-9.9
		c0.9,0.3,1.9,0.6,2.8,0.9c4.3,1.4,8.7,2.5,13.1,3.2c0.2,0,0.3,0,0.5,0.1C483.9,501.3,486.9,501.7,489.8,502z"/>
	<path class="st1" d="M649.5,460.3c-0.4,15.3-9.3,9.2-12,9.2c-2.7,0-12.8,5.7-14-6.5C632.5,461.2,641.5,460.2,649.5,460.3z"/>
	<path class="st1" d="M571.2,535.4c-2.2,16.2-15,8.1-19.7,7.1c-4.7-0.9-15.4,6.8-16.8-11.6C546.6,533.2,559.1,534.6,571.2,535.4z"/>
	<path class="st1" d="M628.5,543.5c-3.7,0.9-13.3,10.3-18.7-8.4c4.9-0.4,9.5-1,13.7-1.6c5.8-1,11.4-2,16.9-3.2
		C646.1,542.5,632.1,542.6,628.5,543.5z"/>
	<path class="st1" d="M693.5,518.5c-2.7,3.6-8.5,9.5-15.4,0.2c7.7-3.5,14.2-7.5,19.2-12.3C709.6,512.1,696.2,514.9,693.5,518.5z"/>
	<path class="st6" d="M703.1,499.6c-1.6,2.4-3.5,4.6-5.8,6.8c-5,4.8-11.5,8.8-19.2,12.3c-10.7,4.9-23.6,8.6-37.7,11.6
		c-5.5,1.2-11.1,2.2-16.9,3.2c-4.1,0.7-8.7,1.2-13.7,1.6c-11.4,0.9-24.8,1-38.6,0.2c-12.1-0.7-24.6-2.2-36.6-4.5
		c-20.1-3.9-38.6-10.2-51.1-19.3c-0.3-1-0.5-2-0.8-3c1.4-0.5,2.7-1.2,3.9-2.1c23.6,9.2,63.3,28.1,114.9,20.1
		C653.1,518.5,671.5,516.8,703.1,499.6z"/>
	<path class="st1" d="M366.3,521.7C366.3,521.7,366.3,521.7,366.3,521.7c3,2.4,7.5,3.8,12.7-0.6c6.1-5.1,3.2-9.7,0-12.5
		C374.5,512.1,370.3,516.5,366.3,521.7z"/>
	<path class="st8" d="M483.5,511.5c32.1,23.6,104,28,140,22c57.3-9.6,102-28,79-76s-101-34-144-8s-83.3,12.6-111,9.6
		c-70-7.6-87.3,40.1-90.7,64.8c-0.5,3.6,4.2,5.3,6.2,2.3c1.1-1.6,2.1-3.1,3.3-4.5c0,0,0,0,0,0c4-5.2,8.3-9.5,12.7-13.1
		c7.2-5.8,15-9,22.5-11.3c19.1-5.8,41.1-7.8,66.1,0.2c43,13.8,91-3,117-20s85-25,92-7c11.1,28.5-97.5,51.3-143.4,28.8"/>
	<path class="st1" d="M565,501.4c-0.5,0.1-1,0.1-1.5,0.1c-3.2,0-6.4,2.6-9.3,4.4c-3.5,2.2-6.5,3.4-8.6-2c-0.6-1.5-1.1-3.6-1.6-6.3
		c-0.1-0.5-0.2-1-0.2-1.6c12.4-3.7,23.8-8.7,33.1-14C586.8,494.6,572.6,500.6,565,501.4z"/>
	<path class="st9" d="M444.5,382.5c0,3.3-1,6.3-2.6,8.7c-1,1.4-2.2,2.6-3.5,3.5c-2.2,0.3-4.2,0.7-6.2,1.2c-0.6,0.1-1.2,0.3-1.7,0.4
		c-5.6-1.1-9.9-6.9-9.9-13.8c0-7.7,5.4-14,12-14S444.5,374.8,444.5,382.5z"/>
	<path class="st9" d="M468.5,381.5c0,5.2-2.5,9.8-6.1,12.2c-0.8,0-1.6-0.1-2.4-0.1c-2.6-0.1-5.2-0.1-7.8,0c-0.6,0-1.2,0-1.8,0.1
		c-0.8-0.5-1.5-1.2-2.2-1.9c-0.1-0.2-0.3-0.3-0.4-0.5c-2.1-2.5-3.4-5.9-3.4-9.7c0-7.7,5.4-14,12-14S468.5,373.8,468.5,381.5z"/>
	<path class="st10" d="M441.9,391.2c-1,1.4-2.2,2.6-3.5,3.5c-2.2,0.3-4.2,0.7-6.2,1.2c-0.9-0.7-1.5-1.5-1.5-2.5
		c0-2.1,2.8-3.8,6.2-3.8C438.9,389.6,440.8,390.2,441.9,391.2z"/>
	<path class="st10" d="M460,393.6c-2.6-0.1-5.2-0.1-7.8,0c-0.6,0-1.2,0-1.8,0.1c-0.8-0.5-1.5-1.2-2.2-1.9c-0.1-0.2-0.3-0.3-0.4-0.5
		c5.9-4.7,11.5-4.3,12.8-2.1C461.4,390.3,461.1,392,460,393.6z"/>
</g>
<g id="Calque_3">
	<path class="st11" d="M473.5,462.8c-0.3,2.2-2.1,3.7-4.2,3.7c-0.2,0-0.3,0-0.5,0l-26.6-3.3c-1.5-0.2-2.7-1.1-3.3-2.4
		c-0.3-0.7-0.5-1.5-0.4-2.4c0.1-0.9,0.5-1.8,1.1-2.4c0.8-0.8,1.9-1.3,3.1-1.3c0.1,0,0.2,0,0.3,0c0.1,0,0.2,0,0.2,0l26.4,3.3l0.3,0
		C472.2,458.3,473.8,460.4,473.5,462.8z"/>
	<path class="st12" d="M469.6,458l-26.4-3.3c-0.1,0-0.2,0-0.2,0c0.8-1,2-1.6,3.3-1.6c0.2,0,0.4,0,0.5,0l19.5,2.4
		C467.8,455.8,469,456.7,469.6,458z"/>
	<path class="st12" d="M438.8,460.7c-1.2-0.5-2-1.7-1.7-2.9c0.2-1.1,1.3-1.8,2.5-1.9c-0.6,0.6-1,1.5-1.1,2.4
		C438.3,459.2,438.5,460,438.8,460.7z"/>
	<path class="st12" d="M461.3,462.8l-12.9-1.6c-0.8-0.1-1.4-0.8-1.3-1.7l0,0c0.1-0.8,0.8-1.4,1.7-1.3l12.9,1.6
		c0.8,0.1,1.4,0.8,1.3,1.7l0,0C462.8,462.3,462.1,462.9,461.3,462.8z"/>
	<path class="st13" d="M448.9,461.3L446,494c0,0,4,3,9,2l0,0l6-33.3L448.9,461.3z"/>
	<circle class="st14" cx="453" cy="477" r="1"/>
	<circle class="st14" cx="452" cy="486" r="1"/>
	<circle class="st14" cx="451" cy="494" r="1"/>
</g>
<g id="Calque_2">
</g>
</svg>
