<?xml version="1.0" encoding="utf-8"?>
<!-- Generator: Adobe Illustrator 22.0.1, SVG Export Plug-In . SVG Version: 6.00 Build 0)  -->
<svg version="1.1" id="Calque_1" xmlns="http://www.w3.org/2000/svg" xmlns:xlink="http://www.w3.org/1999/xlink" x="0px" y="0px"
	 viewBox="0 0 851 851" style="enable-background:new 0 0 851 851;" xml:space="preserve">
<style type="text/css">
	.st0{fill:#D2BBD8;stroke:#000000;stroke-miterlimit:10;}
	.st1{fill:#9773AB;stroke:#000000;stroke-linecap:round;stroke-linejoin:round;stroke-miterlimit:10;}
	.st2{stroke:#000000;stroke-linecap:round;stroke-linejoin:round;stroke-miterlimit:10;}
	.st3{fill:#FFFFFF;stroke:#000000;stroke-linecap:round;stroke-linejoin:round;stroke-miterlimit:10;}
	.st4{stroke:#000000;stroke-miterlimit:10;}
	.st5{opacity:0.59;fill:#FFFFFF;stroke:#000000;stroke-miterlimit:10;}
	.st6{fill:none;stroke:#000000;stroke-linecap:round;stroke-linejoin:round;stroke-miterlimit:10;}
	.st7{fill:#7C3889;stroke:#000000;stroke-linecap:round;stroke-linejoin:round;stroke-miterlimit:10;}
	.st8{fill:#AA89BA;}
	.st9{fill:#323232;}
	.st10{fill:#252525;}
	.st11{fill:#616161;}
	.st12{fill:#555555;}
	.st13{fill:none;stroke:#FBB03B;stroke-width:11;stroke-linecap:round;stroke-linejoin:round;stroke-miterlimit:10;}
	.st14{fill:#FBB03B;}
	.st15{fill:#FFFFFF;}
	.st16{fill:#6B6763;}
	.st17{fill:#545251;}
	.st18{fill:#754C24;}
	.st19{opacity:0.71;fill:#FFFFFF;}
	.st20{opacity:0.73;fill:none;stroke:#A5A5A5;stroke-width:2;stroke-linecap:round;stroke-linejoin:round;stroke-miterlimit:10;}
</style>
<path class="st0" d="M564,727.6C564,727.6,564,727.6,564,727.6"/>
<path class="st0" d="M380,458.6"/>
<path class="st0" d="M301.2,505.5c-5.2,4.1-13.2,7.7-20.9,0.6c-9.9-9.1-2-18.8,2.4-23C289.5,490.5,295.5,498.4,301.2,505.5z"/>
<path class="st0" d="M256.6,460.7c-4.4,11.1-12.4,12-25.8,9.3c-10.1-2-8.3-11.6-6.1-17.7C236.8,452.2,247.3,455.4,256.6,460.7z"/>
<path class="st0" d="M187.4,483.3c-8.5,10.4-23.1,12.5-30.1,5.3c5.9-8.9,14-17.2,24.8-23.6C187.7,468.7,194,475.1,187.4,483.3z"/>
<path class="st0" d="M157.2,523.9c-1.1,9.7-9.6,11.5-15.5,11.6c0.7-7.6,2.2-16.2,5.1-24.9C151.8,511.6,158.2,514.6,157.2,523.9z"/>
<path class="st0" d="M321.4,598.7c-7.2,4.8-11.2-3-12.8-7.6c7.5-3.3,14.5-6.9,20.7-10.3C332.5,587.8,330.5,592.8,321.4,598.7z"/>
<path class="st0" d="M275.3,618.7c-13.8,1.6-18.7-6.3-20.4-12.9c6.3-1.6,12.9-3,19.9-4.1c3.2-0.5,6.4-1.2,9.6-2
	C288.1,606.2,291.4,616.9,275.3,618.7z"/>
<path class="st0" d="M229.7,628.9c-8.6,7.3-18.3,9.3-26.4-0.7c7.3-5,15.5-9.6,25.1-13.6C232.1,618.1,235.8,623.7,229.7,628.9z"/>
<path class="st0" d="M181.4,679.6c-6.4,10.2-15.4,9.7-21.4,3.6c2.8-7.5,6.7-15.7,12.3-24C178.2,662.9,187.2,670.4,181.4,679.6z"/>
<path class="st0" d="M370.5,684.1c0.2,10-5.7,13.9-10.7,15.4c-2.6-11.6-3.3-22.5-2.4-32.8C362.5,668.3,370.2,672.6,370.5,684.1z"/>
<path class="st0" d="M386.7,623.9c-6.1,10.9-14.5,9.7-20.1,7.1c4.3-9.9,9.7-19.4,15.7-28.8C387.5,606.2,392.7,613.3,386.7,623.9z"/>
<path class="st0" d="M411.9,579.5c-6.8,9-13.3,8.1-17.7,5.6c3.6-4.9,7.3-9.8,11-14.7c2.7-3.5,5.1-7.1,7.4-10.7
	C416.1,564.2,418.2,571.1,411.9,579.5z"/>
<path class="st0" d="M470,593.8c-6.1,5.3-14.9,9.4-23-0.6c-7.9-9.6-5.7-16.9-2.1-21.5C452,579.7,460.7,587,470,593.8z"/>
<path class="st0" d="M509,620.3c-3,6.4-9.1,14.2-19.7,6.7c-10.3-7.2-6.9-16.1-2.9-21.7C494.1,610.5,501.8,615.5,509,620.3z"/>
<path class="st0" d="M553,668.1c-4.1,2.4-10.1,3.6-16-2.9c-6.9-7.5-1.6-13.1,3.2-16.3C545,655,549.3,661.4,553,668.1z"/>
<path class="st0" d="M566,709.2c-4.2,2-10.1,2.6-12.2-7.4c-2-9.8,3.5-12.6,8.2-13.3C564.2,695.5,565.6,702.5,566,709.2z"/>
<path class="st0" d="M527.7,555.7c-8.6-1.4-7.2-8.4-5.1-13.3c6.6,1.2,13.7,1.6,21.1,1.4C547.9,552.3,539.6,557.6,527.7,555.7z"/>
<path class="st0" d="M576.3,556.4c-14.2,4.1-14.8-6.3-13.5-14.2c8-1,16.2-2.4,24.3-3.9C592.6,545.8,593.5,551.5,576.3,556.4z"/>
<path class="st0" d="M631.7,545.4c-10.2,0.5-11.3-7.9-10.8-13.6c7.1-1.3,14-2.4,20.6-3.1C645,535.4,644.5,544.8,631.7,545.4z"/>
<path class="st0" d="M702.9,553.6c-6.2,4-15.5,7.5-23.2,0c-8.8-8.6-3.4-16.5,1-20.7C689.7,537.2,697.6,544.2,702.9,553.6z"/>
<path class="st0" d="M708.9,595.9C708.9,595.9,708.9,595.9,708.9,595.9c-3.8-0.6-7.8-2.9-8.2-9.7c-0.4-7.9,4.9-8.9,9.2-8.5
	C710.3,583.4,710,589.4,708.9,595.9z"/>
<path class="st0" d="M623.1,456.5c-5.9,7.8-8.8,13.5-15.7,10.1c1.7-6.5,3.4-13.8,5.2-21.6C618.8,446.4,628.2,449.7,623.1,456.5z"/>
<path class="st0" d="M634.5,414.6c-3.4,10.8-11.9,11.8-17.6,11.1c1.7-7,3.5-14,5.5-21.1C629.1,403.5,637.9,403.7,634.5,414.6z"/>
<path class="st0" d="M658.7,368.5c-8,13.6-21.3,14.2-28.6,13.3c4.3-11.1,9.5-21.4,15.9-30.1C654.9,352.5,666,356,658.7,368.5z"/>
<path class="st0" d="M701,341.3c-12.4-1.2-13.4-9.5-12.5-15.2c8.1-0.7,17.2,0.1,27.3,2.9C715.9,334.4,714,342.5,701,341.3z"/>
<path class="st1" d="M392.4,471.9c-18.5,37.3-57.7,58.5-57.7,58.5c-11.4,1.3-22.2-10.8-33.5-24.9c-5.7-7.1-11.7-15-18.4-22.4
	c-7.7-8.6-16.3-16.6-26.2-22.3c-9.3-5.3-19.8-8.6-31.9-8.4c-4.1,0.1-8.3,0.5-12.8,1.4c-11.8,2.4-21.6,6.3-29.8,11.2
	c-10.9,6.5-18.9,14.7-24.8,23.6c-4.7,7.1-8.1,14.6-10.5,22c-2.8,8.7-4.3,17.3-5.1,24.9c-0.4,4.4-0.6,8.5-0.6,12c0,3.6-5,4.7-6.5,1.4
	c-14.1-30.5-37-104.4,47.2-145.7c98.7-48.4,134.5,100.3,182.9,70.8c27.3-16.7,52-30-34.8-161.4c-43.1-65.3,17.5-192.5,118.9-184.1
	c64.7,5.4,163.4,58.2,111.9,179.1S539,472.4,539,472.4s-24.1-3-29.5-30.5c0,0,2.5,24.5,29.5,30.5c49.4,10.9,18.9-106.1,75.8-157.4
	c48.4-43.7,93.5-8.7,112.6,10.8c2.5,2.6-0.2,6.8-3.6,5.6c-2.8-1-5.5-1.8-8.1-2.5c-10.1-2.8-19.2-3.6-27.3-2.9
	c-18.5,1.6-32.1,11.5-42.5,25.6c-6.4,8.7-11.6,19-15.9,30.1c-2.9,7.4-5.4,15.1-7.6,22.9c-2,7-3.8,14.1-5.5,21.1
	c-1.6,6.6-3,13-4.4,19.2c-1.8,7.8-3.4,15.1-5.2,21.6c-4.4,16.8-9.2,28.4-16.6,29.3c0,0-44.8,14.8-71.7-7.3
	c55.7,41.6,130.2-39.3,180.7,5.3c53.9,47.7,29.8,91.3,14,110.6c-2.3,2.8-6.7,0.5-5.9-3c0.4-1.8,0.8-3.7,1.1-5.4c0,0,0,0,0,0
	c1.1-6.5,1.4-12.5,1-18.2c-0.6-9.3-3.1-17.3-7-24.2c-5.3-9.4-13.2-16.4-22.2-20.7c-6.7-3.2-14-4.9-21.4-5.1
	c-5.6-0.1-11.5,0.2-17.7,0.9c-6.6,0.7-13.5,1.8-20.6,3.1c-11,2-22.3,4.4-33.7,6.5c-8.2,1.5-16.4,2.9-24.3,3.9
	c-6.5,0.8-12.9,1.4-19.1,1.5c-7.4,0.2-14.5-0.2-21.1-1.4c-14.5-2.6-27.4-8.8-36.3-21.5c0,0-9.4-27.6-9.2-52.6
	c5.4,115.4,80.9,115.4,107,160c18.9,32.1,0,69.5-11.9,87.9c-1.9,2.9-6.3,1.4-6.2-2c0-1.6,0-3.3-0.1-5c-0.4-6.8-1.7-13.7-4-20.7
	c-2.2-6.9-5.3-13.8-9-20.4c-3.7-6.7-8-13.1-12.8-19.1c-8.1-10.3-17.6-19.3-27.4-26.1c-1.3-0.9-2.6-1.8-3.9-2.6
	c-7.1-4.8-14.9-9.8-22.6-15c-5.5-3.7-11-7.5-16.4-11.5c-9.3-6.8-18-14.1-25.2-22.1c-9.2-10.1-17.6-23.2-19.8-35.8
	c0,0,13.4-30.9,16.4-67.8c0,0-1.9,48.8-28.8,91.5c-2.3,3.6-4.8,7.2-7.4,10.7c-3.7,4.9-7.4,9.8-11,14.7c-4.1,5.7-8.1,11.3-11.9,17.1
	c-6.1,9.3-11.5,18.9-15.7,28.8c-4.9,11.3-8.2,23.2-9.3,35.8c-0.9,10.4-0.2,21.3,2.4,32.8c0.7,2.9,1.4,5.8,2.3,8.8
	c1.1,3.6-3.6,6-5.9,3.1c-20.6-25.7-55.7-84.6-4.6-144.4c27.8-32.5,40.2-37.2,52.7-96.4c-4.2,36.9-26.7,67-26.7,67L351.6,567
	c0,0-9,6.4-22.3,13.7c-6.1,3.4-13.2,7-20.7,10.3c-7.8,3.4-16.1,6.5-24.3,8.6c-3.2,0.8-6.4,1.5-9.6,2c-7,1.1-13.7,2.5-19.9,4.1
	c-9.7,2.5-18.5,5.5-26.5,8.8c-9.5,4-17.8,8.6-25.1,13.6c-13.8,9.5-23.8,20.3-31.1,31c-5.5,8.2-9.5,16.4-12.3,24
	c-1.5,4-2.6,7.9-3.5,11.4c-0.9,3.7-6.4,3.2-6.7-0.6c-2.8-38,4.4-109.9,93.5-129c104.2-22.4,138.9-73.9,147.1-89"/>
<path class="st2" d="M474.1,292.5l-2,10.5c0,0,27.1-1.8,31.3,29.6c0.1,0.9,1.5,0.6,1.6-0.2C506.1,323.3,506.2,297.5,474.1,292.5z"/>
<path class="st2" d="M405.3,290.2l3.7,10c0,0-27,2.7-25.9,34.4c0,0.9-1.4,0.9-1.7,0C378.8,325.9,374.4,300.5,405.3,290.2z"/>
<path class="st3" d="M480.5,318.8c-12.3-3.8-27.7,10.8-34.4,32.6c-0.4,1.4-0.8,2.9-1.2,4.3c-0.4-1.4-0.7-2.9-1.2-4.3
	c-6.7-21.8-22.1-36.4-34.4-32.6c-12.3,3.8-16.8,24.5-10,46.3c5.3,17.1,15.9,29.8,26.1,32.6c0.8-0.3,1.7-0.6,2.6-0.8h0
	c1.9-0.6,4-1.1,6.1-1.5c1.4-0.3,2.8-0.5,4.3-0.7c0.2,0,0.5-0.1,0.7-0.1h0c1.9-1.7,3.4-4,4.6-6.7c0.4-0.9,0.4-3.8,0.8-4.9
	c0,0,0.4,1.8,0.4,1.8c1.1,3.3,2.5,6.1,4.4,8.3c0.1,0.2,0.3,0.4,0.5,0.5c0.1,0,0.2,0,0.3,0c0.7,0,1.4-0.1,2.1-0.1
	c1.8,0,3.7-0.1,5.5,0c2.7,0,5.4,0.2,7.9,0.4c1.9,0.2,3.7,0.4,5.5,0.6c7.9-5.4,15.2-16,19.4-29.3
	C497.3,343.4,492.8,322.6,480.5,318.8z"/>
<path class="st4" d="M469,377.8c-1.9,7.5-6.3,13.5-11.2,15.7c-1.8,0-3.7,0-5.5,0c-0.7,0-1.4,0-2.1,0.1c-0.2-0.1-0.5-0.3-0.7-0.4
	c-2.1-1.4-3.6-3.8-4.5-6.8c-0.1-0.3-0.2-0.5-0.2-0.8c-0.1-0.2-0.1-0.5-0.2-0.7c0,0,0,0,0,0c-0.4-1.8-0.5-3.8-0.4-5.9v-0.1
	c0.1-1.6,0.4-3.4,0.8-5.1c0.4-1.6,0.9-3.1,1.5-4.5v0c3.3-7.9,9.5-13,15.1-12.1C468.2,358.3,471.5,367.5,469,377.8z"/>
<path class="st4" d="M444.5,385.4c0,0.1,0,0.2,0,0.2c-0.1,1.3-0.4,2.6-0.7,3.7c-1.2,2.2-2.8,4-4.6,5.4h0c-0.2,0-0.5,0-0.7,0.1
	c-1.4,0.2-2.9,0.4-4.3,0.6c-5.7-1-11.7-6.9-14.7-14.8c-3.6-9.7-1.3-18.8,5.1-20.4c6.5-1.6,14.7,5,18.3,14.7c0,0.1,0.1,0.3,0.2,0.4
	c0.5,1.5,0.9,2.9,1.2,4.3C444.6,381.7,444.7,383.7,444.5,385.4z"/>
<ellipse class="st5" cx="420.9" cy="369.4" rx="6.2" ry="3.8"/>
<ellipse transform="matrix(0.9647 -0.2634 0.2634 0.9647 -80.117 136.1914)" class="st5" cx="468" cy="366.9" rx="7.7" ry="4.7"/>
<path class="st6" d="M491.4,401.7c-3-3.4-10.7-5.9-20.2-7.2c-1.8-0.2-3.6-0.4-5.5-0.6c-4.3-0.4-8.9-0.5-13.5-0.4
	c-0.8,0-1.6,0-2.4,0.1c-3.6,0.2-7.2,0.5-10.7,1h0c-0.2,0-0.5,0.1-0.7,0.1c-3.7,0.5-7.1,1.3-10.3,2.2h0c-0.9,0.3-1.8,0.5-2.6,0.8
	c-5.9,2-10.5,4.9-12.9,8.6"/>
<path class="st6" d="M426.3,417.8c0,0,3.4,3.5,9.3,6.2c7.5,3.4,19,5.3,32.8-3c2.6-1.6,5.3-3.5,8.1-5.9"/>
<path class="st3" d="M468.4,421c-2.2,3.5-2.1,11.7-4.4,18.2c-1.7,4.7-4.6,8.6-10.7,9.3c-7.3,0.9-10.7-3.5-12.8-9
	c-2.1-5.3-3-11.7-5-15.5C443,427.4,454.5,429.3,468.4,421z"/>
<path class="st7" d="M464.1,438.3L464.1,438.3c-1.7,4.8-4.6,8.7-10.7,9.4c-7.3,0.9-10.7-3.5-12.8-9l0.1-0.3c2.5-3.8,7-4,11.8-1.7
	C457.6,433.1,463.4,431.7,464.1,438.3z"/>
<path class="st8" d="M480.8,186.5c44,19.7,38,77.1,55.7,77.1s55.4-56.6-6.2-93s-122.6-47.6-117-4.7S448.2,172,480.8,186.5z"/>
<path class="st8" d="M334.6,530.4c-11.4,1.2-22.1-10.9-33.4-24.9c-5.7-7.1-11.7-15-18.4-22.4c-7.7-8.6-16.3-16.6-26.2-22.3
	c-9.3-5.3-19.8-8.6-31.9-8.4c-4.1,0.1-8.3,0.5-12.8,1.4c-11.8,2.4-21.6,6.3-29.8,11.2c-10.9,6.5-18.9,14.7-24.8,23.6
	c-4.7,7.1-8.1,14.6-10.5,22c-2.8,8.7-4.3,17.3-5.1,24.9c-0.4,4.4-0.6,8.5-0.6,12c0,3.6-5,4.7-6.5,1.4c-0.9-1.8-1.7-3.8-2.6-5.9
	c0.5-36.5,20.6-93.8,74.5-101.9c60.6-9.2,121.6,66.6,141.3,80.6c0.1,0,0.2,0.1,0.2,0.2L334.6,530.4z"/>
<path class="st8" d="M377.7,537.6l-3.4,3.9l-10.4,11.7l-0.3,0.3l-12,13.5c0,0-9,6.4-22.3,13.7c-6.1,3.4-13.2,7-20.7,10.3
	c-7.8,3.4-16.1,6.5-24.3,8.6c-3.2,0.8-6.4,1.5-9.6,2c-7,1.1-13.7,2.5-19.9,4.1c-9.7,2.5-18.5,5.5-26.5,8.8
	c-9.5,4-17.8,8.6-25.1,13.6c-13.8,9.5-23.8,20.3-31.1,31c-5.5,8.2-9.5,16.4-12.3,24c-1.5,4-2.6,7.9-3.5,11.4
	c-0.9,3.7-6.4,3.2-6.7-0.6c-0.2-3.1-0.4-6.4-0.4-9.9c13.8-33.8,43.5-74.7,87.2-86c63.7-16.4,97.6-24.2,140.4-60
	C377.1,538,377.4,537.8,377.7,537.6z"/>
<path class="st8" d="M434.9,504.8c0,0-0.1,1-0.4,2.6c0,0,0,0.1,0,0.1c-0.2,1-0.4,2.3-0.7,3.7c-1.4,6.8-4.1,17.7-8.7,24.7l0,0
	c0,0,0,0.1,0,0.1c-0.5,0.7-0.9,1.7-1.3,3c-3.1,6.9-6.8,13.9-11,20.7c-2.3,3.6-4.8,7.2-7.4,10.7c-3.7,4.9-7.4,9.8-11,14.7
	c-4.1,5.7-8.1,11.3-11.9,17.1c-6.1,9.3-11.5,18.9-15.7,28.8c-4.9,11.3-8.2,23.2-9.3,35.8c-0.9,10.4-0.2,21.3,2.4,32.8
	c0.7,2.9,1.4,5.8,2.3,8.8c1.1,3.6-3.6,6-5.9,3.1c-3.1-3.8-6.5-8.4-9.8-13.6c-4.5-24.7-2-53.9,11.6-77c22.6-38.4,29.1-32.2,55.5-78.3
	C423.5,524.8,434.9,504.8,434.9,504.8z"/>
<path class="st8" d="M577.9,706.9c-1.9,3.5-3.8,6.6-5.6,9.3c-1.9,2.9-6.3,1.4-6.2-2c0-1.6,0-3.3-0.1-5c-0.4-6.8-1.7-13.7-4-20.7
	c-2.2-6.9-5.3-13.8-9-20.4c-3.7-6.7-8-13.1-12.8-19.1c-8.1-10.3-17.6-19.3-27.4-26.1c-1.3-0.9-2.6-1.8-3.9-2.6
	c-7.1-4.8-14.9-9.8-22.6-15c-5.5-3.7-11-7.5-16.4-11.5c-9.3-6.8-18-14.1-25.2-22.1c-9.2-10.1-17.6-23.2-19.8-35.7c0,0,0,0,0,0
	c0,0,0,0,0,0l2-9.2c0,1.3,0,2.6,0.1,3.9c0,0.1,0,0.2,0,0.2c3.2,38.7,59.3,57.3,103,85.6C560.7,636.4,575,676.3,577.9,706.9z"/>
<path class="st8" d="M488.4,402.2c-2.8-3.7-40.6-8.5-50.5-4.4c-11.6,4.8,13.2-1.4,25.7,0.7C474.3,400.4,493.5,408.9,488.4,402.2z"/>
<path class="st8" d="M721.8,592.9c-2.7,4.4-5.5,8.2-8.1,11.4c-2.3,2.8-6.7,0.5-5.9-3c0.4-1.8,0.8-3.6,1.1-5.4c0,0,0,0,0,0
	c1.1-6.5,1.4-12.5,1-18.2c-0.6-9.3-3.1-17.3-7-24.2c-5.3-9.4-13.2-16.4-22.2-20.7c-6.7-3.2-14-4.9-21.4-5.1
	c-5.6-0.1-11.5,0.2-17.7,0.9c-6.6,0.7-13.5,1.8-20.6,3.1c-11,2-22.3,4.4-33.7,6.5c-8.2,1.5-16.4,2.9-24.3,3.9
	c-6.5,0.8-12.9,1.4-19.1,1.5c-7.4,0.2-14.5-0.2-21.1-1.4c-14.5-2.6-27.3-8.8-36.3-21.4c0.5,1.6,1.1,3.1,1.7,4.6l-0.7-0.6l-5.2-17.5
	c0.2,0.3,0.3,0.6,0.5,0.9c0,0,0,0.1,0.1,0.1c30.5,52.9,130.4,8.4,183.1,8.4C704,516.9,723,553.3,721.8,592.9z"/>
<path class="st1" d="M584.5,497l5.5-1.4C588.3,496.9,586.5,497.4,584.5,497z"/>
<path class="st8" d="M723.8,331.4c-2.8-1-5.5-1.8-8.1-2.5c-10.1-2.8-19.2-3.6-27.3-2.9c-18.5,1.6-32.1,11.5-42.5,25.6
	c-6.4,8.7-11.6,19-15.9,30.1c-2.9,7.4-5.4,15.1-7.6,22.9c-2,7-3.8,14.1-5.5,21.1c-1.6,6.6-3,13-4.4,19.2c-1.8,7.8-3.4,15.1-5.2,21.6
	c-3.4,13-7.1,22.9-12,27.1l-1.1,0.5l-5.9,1.5c14.8-11.8,15.9-88.7,42.3-140.7c21-41.3,59.8-45.1,90.6-34.9c2.2,2,4.3,4,6.1,5.9
	C729.9,328.5,727.2,332.6,723.8,331.4z"/>
<path class="st6" d="M392.4,471.9c-18.5,37.3-57.7,58.5-57.7,58.5c-11.4,1.3-22.2-10.8-33.5-24.9c-5.7-7.1-11.7-15-18.4-22.4
	c-7.7-8.6-16.3-16.6-26.2-22.3c-9.3-5.3-19.8-8.6-31.9-8.4c-4.1,0.1-8.3,0.5-12.8,1.4c-11.8,2.4-21.6,6.3-29.8,11.2
	c-10.9,6.5-18.9,14.7-24.8,23.6c-4.7,7.1-8.1,14.6-10.5,22c-2.8,8.7-4.3,17.3-5.1,24.9c-0.4,4.4-0.6,8.5-0.6,12c0,3.6-5,4.7-6.5,1.4
	c-14.1-30.5-37-104.4,47.2-145.7c98.7-48.4,134.5,100.3,182.9,70.8c27.3-16.7,52-30-34.8-161.4c-43.1-65.3,17.5-192.5,118.9-184.1
	c64.7,5.4,163.4,58.2,111.9,179.1S539,472.4,539,472.4s-24.1-3-29.5-30.5c0,0,2.5,24.5,29.5,30.5c49.4,10.9,18.9-106.1,75.8-157.4
	c48.4-43.7,93.5-8.7,112.6,10.8c2.5,2.6-0.2,6.8-3.6,5.6c-2.8-1-5.5-1.8-8.1-2.5c-10.1-2.8-19.2-3.6-27.3-2.9
	c-18.5,1.6-32.1,11.5-42.5,25.6c-6.4,8.7-11.6,19-15.9,30.1c-2.9,7.4-5.4,15.1-7.6,22.9c-2,7-3.8,14.1-5.5,21.1
	c-1.6,6.6-3,13-4.4,19.2c-1.8,7.8-3.4,15.1-5.2,21.6c-4.4,16.8-9.2,28.4-16.6,29.3c0,0-44.8,14.8-71.7-7.3
	c55.7,41.6,130.2-39.3,180.7,5.3c53.9,47.7,29.8,91.3,14,110.6c-2.3,2.8-6.7,0.5-5.9-3c0.4-1.8,0.8-3.7,1.1-5.4c0,0,0,0,0,0
	c1.1-6.5,1.4-12.5,1-18.2c-0.6-9.3-3.1-17.3-7-24.2c-5.3-9.4-13.2-16.4-22.2-20.7c-6.7-3.2-14-4.9-21.4-5.1
	c-5.6-0.1-11.5,0.2-17.7,0.9c-6.6,0.7-13.5,1.8-20.6,3.1c-11,2-22.3,4.4-33.7,6.5c-8.2,1.5-16.4,2.9-24.3,3.9
	c-6.5,0.8-12.9,1.4-19.1,1.5c-7.4,0.2-14.5-0.2-21.1-1.4c-14.5-2.6-27.4-8.8-36.3-21.5c0,0-9.4-27.6-9.2-52.6
	c5.4,115.4,80.9,115.4,107,160c18.9,32.1,0,69.5-11.9,87.9c-1.9,2.9-6.3,1.4-6.2-2c0-1.6,0-3.3-0.1-5c-0.4-6.8-1.7-13.7-4-20.7
	c-2.2-6.9-5.3-13.8-9-20.4c-3.7-6.7-8-13.1-12.8-19.1c-8.1-10.3-17.6-19.3-27.4-26.1c-1.3-0.9-2.6-1.8-3.9-2.6
	c-7.1-4.8-14.9-9.8-22.6-15c-5.5-3.7-11-7.5-16.4-11.5c-9.3-6.8-18-14.1-25.2-22.1c-9.2-10.1-17.6-23.2-19.8-35.8
	c0,0,13.4-30.9,16.4-67.8c0,0-1.9,48.8-28.8,91.5c-2.3,3.6-4.8,7.2-7.4,10.7c-3.7,4.9-7.4,9.8-11,14.7c-4.1,5.7-8.1,11.3-11.9,17.1
	c-6.1,9.3-11.5,18.9-15.7,28.8c-4.9,11.3-8.2,23.2-9.3,35.8c-0.9,10.4-0.2,21.3,2.4,32.8c0.7,2.9,1.4,5.8,2.3,8.8
	c1.1,3.6-3.6,6-5.9,3.1c-20.6-25.7-55.7-84.6-4.6-144.4c27.8-32.5,40.2-37.2,52.7-96.4c-4.2,36.9-26.7,67-26.7,67L351.6,567
	c0,0-9,6.4-22.3,13.7c-6.1,3.4-13.2,7-20.7,10.3c-7.8,3.4-16.1,6.5-24.3,8.6c-3.2,0.8-6.4,1.5-9.6,2c-7,1.1-13.7,2.5-19.9,4.1
	c-9.7,2.5-18.5,5.5-26.5,8.8c-9.5,4-17.8,8.6-25.1,13.6c-13.8,9.5-23.8,20.3-31.1,31c-5.5,8.2-9.5,16.4-12.3,24
	c-1.5,4-2.6,7.9-3.5,11.4c-0.9,3.7-6.4,3.2-6.7-0.6c-2.8-38,4.4-109.9,93.5-129c104.2-22.4,138.9-73.9,147.1-89"/>
<path class="st9" d="M569.6,116.9l-14.3,82.8c0,0-1.9,13.3-87.6-1.5c-0.2,0-0.3-0.1-0.5-0.1c-87.1-15.1-84.4-28.2-84.4-28.2
	l14.3-82.8l86.9,15L569.6,116.9z"/>
<path class="st10" d="M569.6,116.9l-14.3,82.8c0,0-1.9,13.3-87.6-1.5l16.3-96.1L569.6,116.9z"/>
<path class="st11" d="M576.2,126.7l-99.1,41.1c-1.5,0.6-3.1,0.8-4.6,0.6c-1.7-0.2-3.4-0.9-4.8-2.1l-83.1-73.1
	c-5.2-4.6-3.5-13,3-15.2l99.6-23.4c1.4-0.5,2.9-0.6,4.3-0.3c1.5,0.2,3,0.9,4.2,1.9l82.6,55.3C583.7,115.8,582.5,124.1,576.2,126.7z"
	/>
<path class="st12" d="M576.2,126.7l-99.1,41.1c-1.5,0.6-3.1,0.8-4.6,0.6l19-114.2c1.5,0.2,3,0.9,4.2,1.9l82.6,55.3
	C583.7,115.8,582.5,124.1,576.2,126.7z"/>
<polyline class="st13" points="483,108.6 581.7,119.3 586,204 "/>
<polyline class="st13" points="600.5,206.5 584.7,178.8 573.5,205.5 "/>
<g>
	<path class="st14" d="M727.5,196.1c-3.7,12.2-12.5,21.4-23.4,26.1l0,0c-11.3,8.4-12.5,17.7-12.5,17.7l-36.1-11
		c3.1-10,0.6-16.9-1.2-20.2c-0.8-1.4-1.5-2.2-1.6-2.4c0,0,0,0,0,0c-6.3-9.9-8.4-22.4-4.7-34.5c6.7-22,30-34.4,52-27.7
		C721.8,150.8,734.2,174.1,727.5,196.1z"/>
	<path class="st14" d="M654.2,208.7c-0.6-0.8-1.1-1.6-1.6-2.4C652.7,206.5,653.4,207.3,654.2,208.7z"/>
	<path class="st14" d="M731.2,247.6c-1-0.3-1.9-0.9-2.6-1.8l-11.4-15.6c-1.6-2.2-1.1-5.4,1.1-7c2.2-1.6,5.4-1.1,7,1.1l11.4,15.6
		c1.6,2.2,1.1,5.4-1.1,7C734.3,247.8,732.6,248,731.2,247.6z"/>
	<path class="st14" d="M739.2,200.9c-2.5-0.8-4-3.4-3.4-6c0.7-2.7,3.4-4.3,6.1-3.7l18.7,4.6c2.7,0.6,4.3,3.4,3.7,6.1
		c-0.7,2.7-3.4,4.3-6.1,3.7l-18.7-4.6C739.4,200.9,739.3,200.9,739.2,200.9z"/>
	<path class="st14" d="M734.1,164.5c-1.3-0.4-2.4-1.3-3-2.6c-1.2-2.5-0.2-5.5,2.3-6.7l17.3-8.5c2.5-1.2,5.5-0.2,6.7,2.3
		c1.2,2.5,0.2,5.5-2.3,6.7l-17.3,8.5C736.6,164.8,735.3,164.9,734.1,164.5z"/>
	<path class="st14" d="M616.1,212.5c-1.5-0.4-2.7-1.5-3.3-3.1c-0.9-2.6,0.4-5.5,3-6.4l18.1-6.6c2.6-0.9,5.5,0.4,6.4,3
		c0.9,2.6-0.4,5.5-3,6.4l-18.1,6.6C618.2,212.8,617.1,212.8,616.1,212.5z"/>
	<path class="st14" d="M635.5,169.3c-0.1,0-0.2-0.1-0.3-0.1l-18.1-6.6c-2.6-1-3.9-3.8-3-6.4c1-2.6,3.9-3.9,6.4-3l18.1,6.6
		c2.6,1,3.9,3.8,3,6.4C640.7,168.7,638,170,635.5,169.3z"/>
	<path class="st14" d="M660,141.9c-1.2-0.4-2.2-1.1-2.9-2.3l-9.6-16.7c-1.4-2.4-0.6-5.5,1.8-6.8c2.4-1.4,5.5-0.6,6.8,1.8l9.6,16.7
		c1.4,2.4,0.6,5.5-1.8,6.8C662.7,142.2,661.3,142.3,660,141.9z"/>
	<path class="st14" d="M700.3,138.6c-2.6-0.8-4.1-3.6-3.3-6.3l4.9-16.2c0.8-2.6,3.6-4.1,6.3-3.3c2.6,0.8,4.1,3.6,3.3,6.3l-4.9,16.2
		C705.7,138,702.9,139.5,700.3,138.6z"/>
	<path class="st15" d="M665.5,233.6c-0.9-0.3-1.5-1.1-1.3-2.1l7.7-58.9c0.1-0.6,0.4-1.1,1-1.4c4.2-2.3,7.2-3.2,8.7-2.8
		c1.4,0.4,2.2,2,3.1,4c0.2,0.5,0.6,1.3,0.9,1.8c0.5-0.1,1.2-0.4,1.6-0.5c1.6-0.6,3-1.1,4.2-0.7c1.3,0.4,2.2,1.7,3.2,3
		c0.3,0.4,0.7,1,1,1.3c0.5-0.3,1.3-0.7,1.8-1c2-1.2,3.4-2,4.8-1.6c0.6,0.2,2.2,0.7,4.3,7c0.2,0.5,0.1,1-0.1,1.4l-25.5,53.5
		c-0.5,1-1.6,1.4-2.6,0.9c-1-0.5-1.4-1.6-0.9-2.6l25.2-52.8c-0.5-1.4-1.1-2.8-1.6-3.5c-0.5,0.3-1.2,0.7-1.7,1c-2,1.2-3.4,2-4.8,1.6
		c-1.3-0.4-2.2-1.7-3.2-3c-0.3-0.5-0.8-1.2-1.1-1.5c-0.5,0.1-1.3,0.4-1.8,0.6c-1.6,0.6-3,1.1-4.2,0.7c-1.4-0.4-2.2-2-3.1-4
		c-0.3-0.6-0.6-1.4-0.9-1.9c-0.9,0.2-2.8,1-4.7,1.9L668,232c-0.1,1.1-1.1,1.8-2.2,1.7C665.7,233.7,665.6,233.6,665.5,233.6z
		 M690.2,176.6L690.2,176.6L690.2,176.6z M680.6,172.1 M700.7,178.2L700.7,178.2L700.7,178.2z M701.6,178.4L701.6,178.4L701.6,178.4
		z"/>
	<path class="st16" d="M672.5,270.8l-18.4-5.6c-5.1-1.6-8-6.9-6.4-12l7.5-24.7l36.9,11.2l-7.5,24.7
		C683,269.5,677.6,272.4,672.5,270.8z"/>
	
		<ellipse transform="matrix(0.2916 -0.9566 0.9566 0.2916 216.7239 823.6941)" class="st16" cx="664.4" cy="265.5" rx="8.5" ry="9.3"/>
	<path class="st17" d="M683.1,264l-35.4-10.8c-1.8-0.6-2.9-2.5-2.3-4.3l0,0c0.6-1.8,2.5-2.9,4.3-2.3l35.4,10.8
		c1.8,0.6,2.9,2.5,2.3,4.3l0,0C686.8,263.5,684.9,264.5,683.1,264z"/>
	<path class="st17" d="M686.4,252.9L651,242.1c-1.8-0.6-2.9-2.5-2.3-4.3l0,0c0.6-1.8,2.5-2.9,4.3-2.3l35.4,10.8
		c1.8,0.6,2.9,2.5,2.3,4.3v0C690.2,252.4,688.3,253.5,686.4,252.9z"/>
</g>
<path class="st1" d="M450.4,340.8c0,0,30.1,13.7,47.1,10.7C497.5,351.5,487.7,278.7,450.4,340.8z"/>
<path class="st1" d="M438.1,338.1c0,0-24.6,17.4-43.6,16.4C391.5,346.5,402.5,280.5,438.1,338.1z"/>
<path class="st18" d="M429,380.5c-9.1,0-16.5,6.9-16.5,15.5s7.4,15.5,16.5,15.5s16.5-6.9,16.5-15.5S438.1,380.5,429,380.5z
	 M429,408.5c-7.3,0-13.3-5.6-13.3-12.5s6-12.5,13.3-12.5s13.3,5.6,13.3,12.5S436.3,408.5,429,408.5z"/>
<path class="st18" d="M464,380.5c-9.1,0-16.5,6.9-16.5,15.5s7.4,15.5,16.5,15.5s16.5-6.9,16.5-15.5S473.1,380.5,464,380.5z
	 M464,408.5c-7.3,0-13.3-5.6-13.3-12.5s6-12.5,13.3-12.5s13.3,5.6,13.3,12.5S471.3,408.5,464,408.5z"/>
<path class="st18" d="M479,397.5c-0.3,0-0.7-0.1-1-0.3c-0.6-0.5-0.7-1.5-0.2-2.1c0.1-0.1,11.8-14.3,25.2-27.5
	c18.7-18.4,31.2-26.2,38.4-23.8c3.8,1.3,5.9,5.4,6,12.2c0,0.8-0.6,1.5-1.5,1.5c-0.8,0-1.5-0.6-1.5-1.5c-0.1-5.4-1.5-8.6-4-9.5
	c-3.3-1.1-12.3,0.3-35.3,23c-13.3,13.2-24.9,27.2-25,27.3C479.8,397.3,479.4,397.5,479,397.5z"/>
<path class="st18" d="M413.5,400.3c-0.4,0-0.9-0.2-1.2-0.6c-0.1-0.1-11-13.9-23.4-27c-21.4-22.4-29.4-24.2-32.3-23.2
	c-2,0.6-3,3.2-3.1,7.5c0,0.8-0.7,1.5-1.5,1.5c-0.8,0-1.5-0.7-1.5-1.5c0.2-5.7,1.9-9.2,5.2-10.3c14.4-4.8,54.5,45.4,59,51.2
	c0.5,0.7,0.4,1.6-0.2,2.1C414.2,400.2,413.9,400.3,413.5,400.3z"/>
<path class="st18" d="M444,396c0,0,2.7-2.4,5.3,0.3L449,398c0,0-3-2-5,0V396z"/>
<ellipse class="st19" cx="429" cy="396" rx="13.3" ry="12.5"/>
<path class="st19" d="M477.3,396c0,6.9-6,12.5-13.3,12.5c-2.4,0-4.7-0.6-6.7-1.7c-4-2.2-6.6-6.2-6.6-10.8c0-6.9,6-12.5,13.3-12.5
	c2.6,0,5,0.7,7.1,1.9C474.8,387.6,477.3,391.5,477.3,396z"/>
<path class="st20" d="M429,387c0,0-11-1-11,11"/>
<path class="st20" d="M465,387c0,0-11-1-11,11"/>
</svg>
