<svg id="Calque_1" data-name="Calque 1" xmlns="http://www.w3.org/2000/svg" viewBox="0 0 29.89 29.89"><defs><style>.cls-1{fill:#765593;}.cls-2{fill:#d2bcd8;}</style></defs><title>boutonson</title><path class="cls-1" d="M15,.05A15,15,0,1,0,30,15,15,15,0,0,0,15,.05Z" transform="translate(-0.05 -0.05)"/><path class="cls-2" d="M7.73,10.46h2a0,0,0,0,1,0,0v7.47a0,0,0,0,1,0,0h-2a2.5,2.5,0,0,1-2.5-2.5V13A2.5,2.5,0,0,1,7.73,10.46Z"/><path class="cls-2" d="M16.24,20.85,10.52,18V10.52l5.72-2.86A1.21,1.21,0,0,1,18,8.74v11A1.21,1.21,0,0,1,16.24,20.85Z" transform="translate(-0.05 -0.05)"/><line class="cls-2" x1="19.43" y1="11.21" x2="25.41" y2="7.47"/><path class="cls-2" d="M19.48,12a.75.75,0,0,1-.39-1.38l6-3.74a.75.75,0,0,1,1,.24.76.76,0,0,1-.24,1l-6,3.74A.8.8,0,0,1,19.48,12Z" transform="translate(-0.05 -0.05)"/><line class="cls-2" x1="19.43" y1="17.19" x2="25.41" y2="20.92"/><path class="cls-2" d="M25.46,21.73a.71.71,0,0,1-.39-.12l-6-3.73a.75.75,0,1,1,.79-1.27l6,3.73a.76.76,0,0,1,.24,1A.77.77,0,0,1,25.46,21.73Z" transform="translate(-0.05 -0.05)"/><line class="cls-2" x1="19.43" y1="14.2" x2="26.15" y2="14.2"/><path class="cls-2" d="M26.21,15H19.48a.75.75,0,0,1,0-1.49h6.73a.75.75,0,1,1,0,1.49Z" transform="translate(-0.05 -0.05)"/></svg>