<svg id="Calque_1" data-name="Calque 1" xmlns="http://www.w3.org/2000/svg" viewBox="0 0 29.91 29.9"><defs><style>.cls-1{fill:#765593;}.cls-2{fill:#d2bcd8;}.cls-3{fill:none;}.cls-4{fill:#e42321;}</style></defs><title>boutonsonmuted</title><path class="cls-1" d="M15,.05A15,15,0,0,0,5.47,3.47c-.38.33-.75.67-1.1,1s-.69.73-1,1.12A14.95,14.95,0,0,0,24.5,26.54c.38-.32.75-.65,1.11-1s.69-.73,1-1.12A14.94,14.94,0,0,0,15,.05Z" transform="translate(-0.05 -0.05)"/><path class="cls-2" d="M7.74,10.47h2a0,0,0,0,1,0,0v7.47a0,0,0,0,1,0,0h-2a2.5,2.5,0,0,1-2.5-2.5V13A2.5,2.5,0,0,1,7.74,10.47Z"/><path class="cls-2" d="M16.24,20.85,10.52,18V10.52l5.72-2.86A1.21,1.21,0,0,1,18,8.74v11A1.21,1.21,0,0,1,16.24,20.85Z" transform="translate(-0.05 -0.05)"/><line class="cls-3" x1="19.43" y1="11.21" x2="25.41" y2="7.48"/><path class="cls-2" d="M19.48,12a.75.75,0,0,1-.39-1.38l6-3.74a.75.75,0,0,1,1,.24.76.76,0,0,1-.24,1l-6,3.74A.8.8,0,0,1,19.48,12Z" transform="translate(-0.05 -0.05)"/><line class="cls-3" x1="19.43" y1="17.19" x2="25.41" y2="20.93"/><path class="cls-2" d="M25.46,21.73a.71.71,0,0,1-.39-.12l-6-3.73a.75.75,0,1,1,.79-1.27l6,3.73a.76.76,0,0,1,.24,1A.77.77,0,0,1,25.46,21.73Z" transform="translate(-0.05 -0.05)"/><line class="cls-3" x1="19.43" y1="14.2" x2="26.16" y2="14.2"/><path class="cls-2" d="M26.21,15H19.48a.75.75,0,0,1,0-1.49h6.73a.75.75,0,1,1,0,1.49Z" transform="translate(-0.05 -0.05)"/><polyline class="cls-3" points="4.32 4.44 10.47 10.53 17.94 17.93 25.56 25.48"/><line class="cls-3" x1="29.91" y1="29.79" x2="29.9" y2="29.79"/><path class="cls-4" d="M26.61,24.41c-.31.39-.65.76-1,1.12s-.73.69-1.11,1L18,20.05l-7.43-7.36L9.77,12,8.33,10.52l-5-4.91c.31-.39.65-.76,1-1.12s.72-.69,1.1-1l6.42,6.36,6.1,6,.92.91,2.68,2.66Z" transform="translate(-0.05 -0.05)"/></svg>