<?xml version="1.0" encoding="utf-8"?>
<!-- Generator: Adobe Illustrator 22.1.0, SVG Export Plug-In . SVG Version: 6.00 Build 0)  -->
<svg version="1.1" id="Calque_1" xmlns="http://www.w3.org/2000/svg" xmlns:xlink="http://www.w3.org/1999/xlink" x="0px" y="0px"
	 viewBox="0 0 406.4 1477.5" style="enable-background:new 0 0 406.4 1477.5;" xml:space="preserve">
<style type="text/css">
	.st0{fill:#9773AB;}
	.st1{fill:#AE99BC;}
	.st2{fill:#292F33;}
	.st3{fill:#6B4087;}
</style>
<g>
	<path class="st0" d="M37.7,1479.1l331.4-0.6c18.3,0,33.1-14.9,33.1-33.2l-2-1093.5c0-18.3-14.9-33.1-33.2-33.1
		c-33.2,0.1-111.6-255.9-118.2-274.2l-95.7-0.1c-6.5,18.3-84.2,274.8-117.5,274.9c-18.3,0-33.1,14.9-33.1,33.2l2,1093.5
		C4.5,1464.3,19.4,1479.1,37.7,1479.1"/>
	<path class="st1" d="M2.5,386.9l397.9-0.7l1.8,1027.8l-397.9,0.7L2.5,386.9z"/>
	<g>
		<path class="st2" d="M4.1,1282.1l397.9-0.7l0.1,66.3l-397.9,0.7L4.1,1282.1z"/>
		<path class="st2" d="M2.6,453.2l397.9-0.7l0.1,66.3L2.8,519.5L2.6,453.2z"/>
	</g>
	<path class="st3" d="M197.4,1232c70.2-0.1,126.8-149.3,126.5-333.2c-0.3-183.9-57.5-332.8-127.7-332.7S69.3,715.4,69.7,899.3
		S127.3,1232.2,197.4,1232"/>
</g>
</svg>
