<svg id="Calque_1" data-name="Calque 1" xmlns="http://www.w3.org/2000/svg" viewBox="0 0 29.76 29.76"><defs><style>.cls-1{fill:#fff;}.cls-2{fill:#765593;}</style></defs><title>flecheretour2blanc</title><rect class="cls-1" x="4.68" y="6.22" width="20.48" height="16.42"/><path class="cls-2" d="M2.2,7.39A14.88,14.88,0,1,0,22.57,2.11,14.88,14.88,0,0,0,2.2,7.39Zm3.87,9.44c.3-2.69.84-5,10.49-4.51a.57.57,0,0,0,.6-.57c0-1.17-.07-3.71-.09-4.61A.14.14,0,0,1,17.3,7l6.88,6.64a.78.78,0,0,1,0,1.1l-6.64,6.89a.13.13,0,0,1-.23-.09l-.08-4.85a.55.55,0,0,0-.48-.55C7.47,15.77,6.07,16.83,6.07,16.83Z" transform="translate(-0.15 -0.05)"/></svg>