<svg id="Calque_1" data-name="Calque 1" xmlns="http://www.w3.org/2000/svg" viewBox="0 0 29.97 29.97"><defs><style>.cls-1{fill:#765593;}</style></defs><title>flecheretour</title><path class="cls-1" d="M15,0A15,15,0,1,0,30,15,15,15,0,0,0,15,0Zm-.85,27.13c1.94-1.59,13.19-11.43,1.15-16.1a.58.58,0,0,0-.7.23L12,15.46a.14.14,0,0,1-.25,0L9.54,6.05a.78.78,0,0,1,.58-.94l9.37-2.25a.13.13,0,0,1,.14.2L17.21,7a.59.59,0,0,0,.23.81c15.1,8,4.75,17.12-3.24,19.47A.07.07,0,0,1,14.14,27.16Z" transform="translate(-0.01 -0.03)"/></svg>