<?xml version="1.0" encoding="utf-8"?>
<!-- Generator: Adobe Illustrator 22.0.1, SVG Export Plug-In . SVG Version: 6.00 Build 0)  -->
<svg version="1.1" id="Calque_1" xmlns="http://www.w3.org/2000/svg" xmlns:xlink="http://www.w3.org/1999/xlink" x="0px" y="0px"
	 viewBox="0 0 20 30" style="enable-background:new 0 0 20 30;" xml:space="preserve">
<style type="text/css">
	.st0{fill:#5EBCB1;}
	.st1{fill:#AA8ABA;}
</style>
<g>
	<rect x="0.1" y="10.1" class="st0" width="19.9" height="19.9"/>
	<path class="st1" d="M11.6,20.9l1.3,5.4H7l1.3-5.4C7.5,20.3,7,19.5,7,18.5c0-1.6,1.3-2.9,2.9-2.9s2.9,1.3,2.9,2.9
		C12.8,19.5,12.3,20.3,11.6,20.9z"/>
	<path class="st0" d="M1.1,10.1c0-5,4-9.3,8.9-9c5.7,0.3,9.2,4.2,8.9,9h1C20,4.6,15.5,0.1,10,0.1S0.1,4.6,0.1,10.1H1.1z"/>
</g>
</svg>
