<?xml version="1.0" encoding="utf-8"?>
<!-- Generator: Adobe Illustrator 22.0.1, SVG Export Plug-In . SVG Version: 6.00 Build 0)  -->
<svg version="1.1" id="Calque_1" xmlns="http://www.w3.org/2000/svg" xmlns:xlink="http://www.w3.org/1999/xlink" x="0px" y="0px"
	 viewBox="0 0 18.9 30" style="enable-background:new 0 0 18.9 30;" xml:space="preserve">
<style type="text/css">
	.st0{fill:#5EBCB1;}
	.st1{fill:#AA8ABA;}
</style>
<g>
	<rect x="0.7" y="11.9" class="st0" width="18.1" height="18.1"/>
	<path class="st1" d="M11.1,21.7l1.1,4.9H6.9l1.1-4.9c-0.7-0.5-1.1-1.3-1.1-2.2c0-1.5,1.2-2.7,2.7-2.7s2.7,1.2,2.7,2.7
		C12.3,20.4,11.8,21.2,11.1,21.7z"/>
	<path class="st0" d="M2.8,14.2C0,10.6,0.4,5.2,4.1,2.7c4.2-3,8.9-2.2,11.5,1.4l0.7-0.6C13.2-0.4,7.5-1.1,3.5,2S-1,10.8,2.1,14.7
		L2.8,14.2z"/>
</g>
</svg>
