<?xml version="1.0" encoding="utf-8"?>
<!-- Generator: Adobe Illustrator 16.0.3, SVG Export Plug-In . SVG Version: 6.00 Build 0)  -->
<!DOCTYPE svg PUBLIC "-//W3C//DTD SVG 1.1//EN" "http://www.w3.org/Graphics/SVG/1.1/DTD/svg11.dtd">
<svg version="1.1" id="Layer_1" xmlns="http://www.w3.org/2000/svg" xmlns:xlink="http://www.w3.org/1999/xlink" x="0px" y="0px"
	 width="600px" height="400px" viewBox="0 0 600 400" enable-background="new 0 0 600 400" xml:space="preserve">
<rect fill="#BF0D3E" width="600" height="400"/>
<path fill="#006233" d="M297.2,139.88c-1.5,4.3-3.199,9.1-3.699,10.8c-0.5,1.6-2.601,8.4-4.801,15l-3.899,12l-24.4,0.5l-24.3,0.5
	l7,5.2c3.9,2.899,7.5,5.6,8,6.1c0.6,0.5,2.4,1.7,4,2.8c7.8,5.101,20,14.801,19.8,15.801c-0.1,0.6-3.3,10.8-7.2,22.5
	c-3.899,11.8-6.8,21.699-6.6,21.899c0.7,0.7,14.9-9.2,27.8-19.399c2.9-2.2,6.601-4.9,8.3-5.9c3.601-2.1,0.601-3.8,24.9,14
	c7.6,5.5,14.3,10.4,15.1,11c2.601,1.9,2.4-0.4-0.6-9.1c-1.7-4.9-3.8-11.2-4.5-13.9c-0.8-2.8-2.8-8.8-4.4-13.5l-3-8.5l2.101-1.5
	c2.1-1.4,23.5-17.3,32.7-24.2l4.399-3.3l-24-0.3l-24.1-0.2l-1-2.8c-1.4-3.4-3.9-11.3-9.2-27.7c-2.3-7.2-4.5-13.6-4.9-14.3
	C300.2,132.479,298.9,134.88,297.2,139.88z M302.001,172.08c0.899,2.8,1.6,5.199,1.6,5.5c0,0.3-1.6,0.6-3.5,0.6s-3.5-0.1-3.5-0.3
	c0-0.9,3.1-10.7,3.4-10.7C300.2,167.18,301.101,169.38,302.001,172.08z M280.601,190.08c0,0.5-0.4,2.1-1,3.6l-1,2.6l-4.5-3.1
	c-2.5-1.7-4.5-3.3-4.5-3.5c0-0.3,2.5-0.5,5.5-0.5S280.601,189.58,280.601,190.08z M309.801,196.18l2.5,7.1l-6,4.301l-6.101,4.399
	l-4.1-2.899c-8.5-6.301-8-5.4-6.6-10.101c2.899-10.1,2.5-9.8,10.6-9.8h7.2L309.801,196.18z M329.2,190.479
	c-1,0.7-3.199,2.3-4.8,3.601c-1.6,1.3-3,2.199-3.1,2c-0.101-0.2-0.8-1.9-1.4-3.7l-1.1-3.2l6.1,0.1
	C330.101,189.279,330.801,189.479,329.2,190.479z M317.501,220.08c1.1,3,1.899,5.6,1.699,5.8c-0.1,0.2-2.399-1.4-5-3.4l-4.699-3.6
	l2.8-2.3c1.5-1.2,2.899-2.101,3-2.101C315.4,214.58,316.4,217.08,317.501,220.08z M288.4,216.979l2.3,1.8l-4.5,3.301
	c-4.899,3.5-5.3,3.199-3.399-2.9C284.2,214.779,285.001,214.38,288.4,216.979z"/>
<sodipodi:namedview  inkscape:cx="161.76157" borderopacity="1" showgrid="false" inkscape:zoom="3.5952452" bordercolor="#666666" inkscape:cy="104.1499" guidetolerance="10" gridtolerance="10" fit-margin-top="0.8" pagecolor="#ffffff" fit-margin-left="0.8" objecttolerance="10" id="namedview8" inkscape:pageopacity="0" inkscape:pageshadow="2" inkscape:window-height="1057" inkscape:window-width="1920" fit-margin-right="0.8" fit-margin-bottom="0.8" inkscape:window-x="-8" inkscape:window-y="-8" inkscape:window-maximized="1" inkscape:current-layer="svg2">
	</sodipodi:namedview>
</svg>
