<?xml version="1.0"?>
<svg version="1.1"  xmlns="http://www.w3.org/2000/svg">
<g>
	<path d="M38,20.1v-5.6C38,6.5,30.8,0,22,0S6,6.5,6,14.5v5.6c-3.4,0.6-6,3.5-6,7.1v19.5c0,4,3.2,7.2,7.2,7.2h29.5
		c4,0,7.2-3.2,7.2-7.2V27.2C44,23.7,41.4,20.7,38,20.1z M8,14.5C8,7.6,14.3,2,22,2s14,5.6,14,12.5V20H8V14.5z M42,46.8
		c0,2.9-2.3,5.2-5.2,5.2H7.2C4.3,52,2,49.7,2,46.8V27.2C2,24.3,4.3,22,7.2,22h29.5c2.9,0,5.2,2.3,5.2,5.2V46.8z"/>
	<path d="M22,28c-2.2,0-4,1.8-4,4v6c0,2.2,1.8,4,4,4s4-1.8,4-4v-6C26,29.8,24.2,28,22,28z M24,38c0,1.1-0.9,2-2,2s-2-0.9-2-2v-6
		c0-1.1,0.9-2,2-2s2,0.9,2,2V38z"/>
</g>
</svg>
