<?xml version="1.0" encoding="utf-8"?>
<!-- Generator: Adobe Illustrator 22.0.1, SVG Export Plug-In . SVG Version: 6.00 Build 0)  -->
<svg version="1.1" id="Calque_1" xmlns="http://www.w3.org/2000/svg" xmlns:xlink="http://www.w3.org/1999/xlink" x="0px" y="0px"
	 viewBox="0 0 1000 1000" style="enable-background:new 0 0 1000 1000;" xml:space="preserve">
<style type="text/css">
	.st0{fill:#D5E8D5;}
</style>
<g>
	<ellipse transform="matrix(0.7071 -0.7071 0.7071 0.7071 -201.521 503.4853)" class="st0" cx="507" cy="495" rx="81.5" ry="81.5"/>
	<path class="st0" d="M608.4,318.1H403.7c-43.5,0-78.8,35.3-78.8,78.8v204.7c0,43.5,35.3,78.8,78.8,78.8h204.7
		c43.5,0,78.8-35.3,78.8-78.8V396.9C687.3,353.4,652,318.1,608.4,318.1z M507,612.6c-65,0-117.6-52.7-117.6-117.6
		S442,377.4,507,377.4c65,0,117.6,52.7,117.6,117.6S572,612.6,507,612.6z"/>
	<path class="st0" d="M500,117.9L500,117.9C289,117.9,117.9,289,117.9,500v0c0,211,171.1,382.1,382.1,382.1h0
		c211,0,382.1-171.1,382.1-382.1v0C882.1,289,711,117.9,500,117.9z M722.4,604.7c0,61.3-49.7,111-111,111H400.7
		c-61.3,0-111-49.7-111-111V393.9c0-61.3,49.7-111,111-111h210.8c61.3,0,111,49.7,111,111V604.7z"/>
</g>
</svg>
