<?xml version="1.0" encoding="utf-8"?>
<!-- Generator: Adobe Illustrator 22.0.1, SVG Export Plug-In . SVG Version: 6.00 Build 0)  -->
<svg version="1.1" id="Calque_1" xmlns="http://www.w3.org/2000/svg" xmlns:xlink="http://www.w3.org/1999/xlink" x="0px" y="0px"
	 viewBox="0 0 1000 1000" style="enable-background:new 0 0 1000 1000;" xml:space="preserve">
<style type="text/css">
	.st0{display:none;}
	.st1{fill:#FFFFFF;}
</style>
<g id="AU3xRS.tif" class="st0">
	
		<image style="display:inline;overflow:visible;" width="312" height="312" id="Layer_0_1_" xlink:href="6FBD46464D717773.png"  transform="matrix(2.438 0 0 2.438 127.9036 108.5863)">
	</image>
</g>
<g>
	
		<ellipse transform="matrix(0.7071 -0.7071 0.7071 0.7071 -186.6847 497.3399)" class="st1" cx="507" cy="474" rx="81.5" ry="81.5"/>
	<path class="st1" d="M608.4,297.1H403.7c-43.5,0-78.8,35.3-78.8,78.8v204.7c0,43.5,35.3,78.8,78.8,78.8h204.7
		c43.5,0,78.8-35.3,78.8-78.8V375.9C687.3,332.4,652,297.1,608.4,297.1z M507,591.6c-65,0-117.6-52.7-117.6-117.6
		S442,356.4,507,356.4c65,0,117.6,52.7,117.6,117.6S572,591.6,507,591.6z"/>
	<path class="st1" d="M500,96.9L500,96.9C289,96.9,117.9,268,117.9,479v0c0,211,171.1,382.1,382.1,382.1h0
		c211,0,382.1-171.1,382.1-382.1v0C882.1,268,711,96.9,500,96.9z M722.4,583.7c0,61.3-49.7,111-111,111H400.7
		c-61.3,0-111-49.7-111-111V372.9c0-61.3,49.7-111,111-111h210.8c61.3,0,111,49.7,111,111V583.7z"/>
</g>
</svg>
