<?xml version="1.0" standalone="no"?>
<!DOCTYPE svg PUBLIC "-//W3C//DTD SVG 20010904//EN"
 "http://www.w3.org/TR/2001/REC-SVG-20010904/DTD/svg10.dtd">
<svg version="1.0" xmlns="http://www.w3.org/2000/svg"
 width="724.000000pt" height="724.000000pt" viewBox="0 0 724.000000 724.000000"
 preserveAspectRatio="xMidYMid meet">
<metadata>
Created by potrace 1.15, written by Peter Selinger 2001-2017
</metadata>
<g transform="translate(0.000000,724.000000) scale(0.100000,-0.100000)"
fill="#000000" stroke="none">
<path d="M2541 5185 c-199 -56 -349 -164 -409 -293 -77 -170 -13 -393 182
-622 30 -35 54 -69 53 -75 -1 -5 3 -9 9 -8 6 1 35 -18 64 -43 78 -67 168 -128
232 -160 31 -15 55 -31 52 -36 -3 -4 3 -5 12 -1 12 4 15 3 10 -5 -4 -7 -2 -10
6 -7 8 3 31 -1 53 -10 25 -10 30 -13 13 -10 -45 9 -32 -1 32 -25 33 -12 60
-28 60 -34 0 -6 13 -11 30 -12 22 -1 30 4 33 20 2 12 5 -16 6 -61 0 -46 4 -83
7 -83 19 0 46 26 59 55 9 23 20 35 32 34 17 -1 17 -2 0 -6 -10 -3 -16 -10 -14
-16 10 -31 115 -17 160 22 18 16 42 31 55 35 58 19 46 71 -28 125 l-39 28 36
1 c67 3 105 -30 237 -208 139 -186 170 -237 198 -318 13 -39 17 -46 13 -22 -9
62 -72 171 -186 325 -138 187 -162 212 -223 233 l-48 17 6 75 c21 256 16 457
-15 565 -10 33 -13 36 -19 20 -6 -16 -8 -14 -13 14 -4 18 -4 38 0 45 3 6 2 8
-2 4 -5 -5 -22 29 -39 75 -38 100 -110 211 -173 267 -25 22 -76 55 -112 73
-59 29 -75 32 -171 34 -70 2 -123 -2 -159 -12z m324 -83 c27 -13 61 -33 74
-45 38 -35 81 -98 81 -119 0 -16 -9 -11 -50 26 -87 78 -211 107 -351 83 -46
-8 -47 -7 -58 24 -6 18 -11 36 -11 40 0 13 48 17 160 15 85 -2 115 -6 155 -24z"/>
<path d="M4250 4851 c0 -210 -103 -450 -287 -667 -42 -50 -44 -51 -88 -46 -52
5 -203 -16 -212 -31 -4 -6 4 -7 23 -2 121 32 205 34 233 3 27 -28 81 -141 82
-170 0 -13 5 -32 10 -43 17 -37 -2 77 -22 130 l-19 49 24 51 c12 27 49 88 80
135 131 193 175 319 183 528 3 72 3 132 -1 132 -3 0 -6 -31 -6 -69z"/>
<path d="M5388 4575 c-35 -187 -270 -431 -568 -589 -91 -48 -229 -99 -296
-110 -38 -7 -47 -4 -89 29 -99 75 -188 88 -259 38 -41 -29 -118 -142 -131
-193 -3 -14 10 7 30 47 22 43 57 91 86 118 45 42 52 45 104 45 63 0 115 -22
183 -78 40 -32 44 -38 40 -73 -2 -22 1 -39 6 -39 5 0 38 18 72 41 35 22 127
67 206 100 79 33 175 78 213 101 88 51 257 220 326 325 53 82 92 191 87 245
l-3 33 -7 -40z"/>
<path d="M1650 4477 c-116 -33 -231 -123 -314 -244 -72 -107 -90 -167 -90
-303 0 -99 3 -124 26 -182 58 -152 169 -284 313 -373 44 -27 82 -52 85 -55 3
-3 11 -5 18 -6 28 -2 33 -4 28 -13 -7 -11 120 -57 202 -72 94 -18 229 -6 343
29 52 17 121 33 152 37 32 4 57 12 57 19 0 6 9 -2 19 -18 22 -33 47 -50 61
-41 5 3 12 22 16 43 4 20 18 57 31 83 28 56 29 76 6 82 -14 4 -12 5 5 6 18 1
22 7 22 32 0 18 9 47 21 66 18 28 19 36 8 49 -11 13 -28 15 -89 12 -41 -3 -69
-3 -62 -1 6 3 12 11 12 18 0 23 64 65 99 65 62 0 111 -40 176 -145 80 -127
160 -198 236 -210 27 -4 25 -2 -12 10 -66 21 -141 93 -215 207 -36 53 -78 107
-95 119 -58 41 -148 34 -188 -15 -16 -18 -41 -10 -41 14 0 32 -41 154 -81 237
-118 249 -323 464 -506 533 -71 27 -182 35 -243 17z m284 -127 c52 -20 115
-59 72 -45 -114 36 -271 1 -411 -90 -72 -48 -89 -49 -121 -14 -19 21 -19 22
25 60 51 46 148 95 211 109 61 12 160 3 224 -20z"/>
<path d="M4545 3710 c-75 -16 -121 -68 -165 -184 -36 -94 -48 -109 -106 -130
-21 -8 -33 -15 -26 -15 25 -2 79 27 100 53 11 15 28 51 38 79 26 83 60 134
108 162 104 61 195 4 281 -178 l43 -89 -25 -55 c-14 -30 -23 -57 -20 -59 3 -3
40 0 82 7 77 13 77 13 243 -29 227 -58 288 -65 482 -59 174 5 239 17 339 63
116 53 188 143 196 246 4 40 3 45 -4 22 -36 -135 -149 -227 -346 -280 -82 -22
-324 -30 -455 -14 -137 15 -308 59 -401 102 l-75 35 -29 69 c-78 187 -168 274
-260 254z"/>
<path d="M4021 3630 c-2 -46 -59 -126 -167 -239 -59 -61 -108 -110 -110 -108
-2 2 3 25 12 51 9 26 13 50 10 53 -3 4 -6 1 -6 -5 0 -6 -10 -37 -22 -69 l-23
-58 -6 80 -6 80 1 -88 c1 -48 -2 -87 -6 -87 -5 0 -8 -7 -8 -15 0 -22 -8 -19
-53 21 -44 40 -125 81 -178 89 -23 4 -16 0 21 -13 74 -25 110 -45 149 -81 28
-26 30 -32 19 -50 -10 -16 -9 -25 1 -44 10 -20 10 -30 -3 -60 -8 -21 -11 -37
-5 -37 5 0 9 8 10 18 0 14 2 14 8 -3 l8 -20 5 20 c5 17 6 17 7 -4 1 -18 4 -21
14 -12 8 6 18 7 22 3 5 -4 5 2 0 13 -14 38 -17 65 -7 65 19 0 36 40 23 53 -6
6 -11 14 -11 19 0 15 97 63 214 104 66 24 116 43 110 43 -22 2 -218 -69 -269
-98 -30 -16 -55 -27 -55 -24 0 3 43 50 95 104 155 162 221 256 212 302 -4 20
-4 19 -6 -3z"/>
<path d="M2530 2972 c-27 -12 -55 -36 -73 -62 -14 -21 -17 -51 -17 -197 0
-109 4 -173 10 -173 6 0 10 42 10 105 l0 105 90 0 90 0 0 -105 c0 -63 4 -105
10 -105 6 0 10 75 10 204 0 200 0 205 -22 220 -23 16 -80 20 -108 8z m98 -24
c7 -7 12 -44 12 -95 l0 -83 -90 0 -90 0 0 56 c0 52 3 59 39 95 32 32 46 39 78
39 21 0 44 -5 51 -12z"/>
<path d="M3050 2760 c0 -140 4 -220 10 -220 6 0 10 74 10 203 l1 202 53 -120
c29 -66 56 -120 61 -120 5 0 32 51 60 114 l50 113 3 -196 c1 -119 6 -196 12
-196 6 0 10 83 10 220 0 178 -3 220 -13 220 -8 0 -34 -48 -61 -112 -27 -62
-51 -117 -56 -121 -4 -5 -31 46 -60 112 -30 69 -59 121 -66 121 -11 0 -14 -42
-14 -220z"/>
<path d="M3783 2964 c-65 -32 -73 -61 -73 -253 0 -107 4 -171 10 -171 6 0 10
42 10 105 l0 105 90 0 90 0 0 -105 c0 -63 4 -105 10 -105 6 0 10 74 10 203 0
185 -2 205 -18 220 -24 21 -87 22 -129 1z m115 -16 c7 -7 12 -44 12 -95 l0
-83 -90 0 -90 0 0 54 c0 81 49 134 126 135 16 1 35 -4 42 -11z"/>
<path d="M3473 2366 c-25 -22 -28 -31 -28 -84 0 -45 5 -65 19 -81 23 -26 67
-27 89 -3 36 40 28 160 -13 182 -27 15 -36 13 -67 -14z"/>
</g>
</svg>
