<?xml version="1.0" encoding="utf-8"?>
<!-- Generator: Adobe Illustrator 22.0.1, SVG Export Plug-In . SVG Version: 6.00 Build 0)  -->
<svg version="1.1" id="Calque_1" xmlns="http://www.w3.org/2000/svg" xmlns:xlink="http://www.w3.org/1999/xlink" x="0px" y="0px"
	 viewBox="0 0 1000 1000" style="enable-background:new 0 0 1000 1000;" xml:space="preserve">
<style type="text/css">
	.st0{display:none;}
	.st1{fill:#FFFFFF;}
</style>
<g id="AU3xRS.tif" class="st0">
	
		<image style="display:inline;overflow:visible;" width="312" height="312" id="Layer_0_1_" xlink:href="5A88AF96058CE083.png"  transform="matrix(2.438 0 0 2.438 127.9036 108.5863)">
	</image>
</g>
<path class="st1" d="M725.1,924.7H274.9c-113,0-204.9-91.9-204.9-204.9v-33.3c0-37.3,30.2-67.5,67.5-67.5s67.5,30.2,67.5,67.5v33.3
	c0,38.5,31.3,69.9,69.9,69.9h450.2c38.5,0,69.9-31.3,69.9-69.9v-33.3c0-37.3,30.2-67.5,67.5-67.5s67.5,30.2,67.5,67.5v33.3
	C930,832.8,838.1,924.7,725.1,924.7z"/>
<path class="st1" d="M714.3,540.3L560,721.2c-15.6,18.3-37.8,27.6-60,27.5c-22.3,0.1-44.4-9.2-60-27.5L285.7,540.3
	c-28-32.9-24.1-82.2,8.8-110.2c14.7-12.5,32.8-18.7,50.7-18.7c22.1,0,44.1,9.3,59.5,27.5l17.1,20.1V108.2c0-43.2,35-78.2,78.2-78.2
	h0c43.2,0,78.2,35,78.2,78.2v350.7l17.1-20.1c15.5-18.1,37.4-27.5,59.5-27.5c17.9,0,36,6.2,50.7,18.7
	C738.4,458,742.3,507.4,714.3,540.3z"/>
</svg>
