<svg xmlns="http://www.w3.org/2000/svg" viewBox="0 0 841.89 595.28"><defs><style>.cls-1{fill:#806047;}.cls-2{fill:#5d74b2;}.cls-3{fill:#fff;}.cls-4{fill:#e5e5e5;}.cls-5{fill:#a3c42f;}.cls-6{fill:#e74e50;}.cls-7{fill:#7f2626;}.cls-8{fill:#94141b;}.cls-9{fill:#e42321;}.cls-10{fill:#5e2c2b;}.cls-11{fill:#fece30;}.cls-11,.cls-12{stroke:#7f2626;stroke-linecap:round;stroke-linejoin:round;stroke-width:5px;}.cls-12,.cls-34{fill:#1a171b;}.cls-13{fill:#917449;}.cls-14{fill:#59322c;}.cls-15{fill:none;stroke:#59322c;stroke-width:12px;}.cls-15,.cls-58,.cls-60{stroke-miterlimit:10;}.cls-16{fill:#aa8a55;}.cls-17{fill:#c07f49;}.cls-18{fill:#a96c30;}.cls-19{fill:#995d2c;}.cls-20{fill:#b57344;}.cls-21{fill:#4d411f;}.cls-22{fill:#f6a91c;}.cls-23{fill:#f3981d;}.cls-24{fill:#663416;}.cls-25{fill:#713917;}.cls-26{fill:#4a2714;}.cls-27{fill:#5f2e15;}.cls-28{fill:#7b7a87;}.cls-29{fill:#6f6f7b;}.cls-30{fill:#979699;}.cls-31{fill:#ccccca;}.cls-32{fill:#e5e5e6;}.cls-33{fill:#717180;}.cls-35{fill:#e3bb52;}.cls-36{fill:#cea440;}.cls-37{fill:#9b6619;}.cls-38{fill:#cd9405;}.cls-39{fill:#b87f13;}.cls-40{fill:#100f0f;}.cls-41{fill:#bd5619;}.cls-42{fill:#a4471a;}.cls-43{fill:#cda647;}.cls-44{fill:#807171;}.cls-45{fill:#914319;}.cls-46{fill:#feead1;}.cls-47{fill:#f5a447;}.cls-48{fill:#f08943;}.cls-49{fill:#fddeb6;}.cls-50{fill:#fbd2a0;}.cls-51{fill:#454656;}.cls-52{fill:#df6627;}.cls-53{fill:#e6e1d6;}.cls-54{fill:#db898c;}.cls-55,.cls-58{fill:#f19b9b;}.cls-56{fill:#434343;}.cls-57{fill:#202021;}.cls-58{stroke:#f19b9c;}.cls-59{fill:#3c3c3c;}.cls-60{fill:#da888a;stroke:#da888a;}.cls-61{fill:#e6b970;}.cls-62{fill:#fccc7b;}</style></defs><title>collection-animaux</title><g id="Calque_1" data-name="Calque 1"><rect class="cls-1" x="-2.82" y="458.23" width="848.04" height="136.14"/><rect class="cls-2" x="-18.82" y="-27.09" width="867.13" height="503.34"/><path class="cls-3" d="M219.3,123.05c0,15.81-13.08,28.62-29.22,28.62-13,0-66.21-1.24-79.3-1.24-16.14,0-29.22-12.82-29.22-28.63s13.08-28.62,29.22-28.62a29.18,29.18,0,0,1,8,1.11C121.42,78.23,135.63,66,152.76,66s31.54,12.44,34,28.66a27.89,27.89,0,0,1,3.31-.19C206.22,94.42,219.3,107.24,219.3,123.05Z"/><path class="cls-3" d="M795.51,75.71a20,20,0,0,1-20.18,19.77c-9,0-45.74-.86-54.78-.86a19.78,19.78,0,1,1,0-39.55,20.4,20.4,0,0,1,5.56.77,23.83,23.83,0,0,1,46.93.22,19.41,19.41,0,0,1,2.29-.13A20,20,0,0,1,795.51,75.71Z"/><path class="cls-3" d="M701.22,109.48a12.32,12.32,0,0,1-12.44,12.19c-5.52,0-28.2-.53-33.78-.53a12.2,12.2,0,1,1,0-24.39h.11A4.55,4.55,0,0,0,659.37,94,14.74,14.74,0,0,1,687.09,96a1.71,1.71,0,0,0,1.67,1.27h0A12.32,12.32,0,0,1,701.22,109.48Z"/><path class="cls-4" d="M259.18,141.6a18.74,18.74,0,0,1-18.94,18.55c-8.39,0-42.9-.81-51.38-.81A18.55,18.55,0,1,1,194.07,123a22.36,22.36,0,0,1,44,.2,19.05,19.05,0,0,1,2.14-.12A18.75,18.75,0,0,1,259.18,141.6Z"/><path class="cls-5" d="M65.61,474.19a12.32,12.32,0,0,1-12.45,12.19c-5.52,0-28.2-.53-33.78-.53a12.19,12.19,0,1,1,0-24.38,12.52,12.52,0,0,1,3.43.47,14.69,14.69,0,0,1,28.94.14,10.9,10.9,0,0,1,1.41-.08A12.32,12.32,0,0,1,65.61,474.19Z"/></g><g id="Calque_2" data-name="Calque 2"><polygon class="cls-6" points="566.07 486.82 287.05 486.82 351.72 342.83 493.9 342.83 566.07 486.82"/><polygon class="cls-7" points="529.55 486.82 515.09 486.82 463.81 359.17 468.4 355.15 529.55 486.82"/><polygon class="cls-7" points="384.08 360.31 342.26 486.82 316.45 486.82 380.06 356.87 384.08 360.31"/><path class="cls-8" d="M457.08,251.39H385.45a140.73,140.73,0,0,0,9.92-19.83,26.9,26.9,0,0,1,25-17.43h.94a26.87,26.87,0,0,1,24.47,16.59A133.77,133.77,0,0,0,457.08,251.39Z"/><path class="cls-8" d="M305.5,352.8c-.25,30.43,35.47,28.76,35.36,0Z"/><path class="cls-9" d="M340.8,352.8c-.25,30.43,35.47,28.76,35.36,0Z"/><path class="cls-9" d="M403.25,352.79c-.31,30.43,43.73,28.76,43.59,0Z"/><path class="cls-9" d="M474,352.8c-.26,30.43,35.47,28.76,35.35,0Z"/><path class="cls-8" d="M509.26,352.8c-.25,30.43,35.47,28.76,35.35,0Z"/><path class="cls-8" d="M376.08,352.86c-.25,30.43,27.33,28.82,27.21.06Z"/><path class="cls-8" d="M446.84,352.79c-.25,30.43,27.33,28.82,27.22.06Z"/><path class="cls-9" d="M394.09,251.33,340.9,352.67H305.62s54.09-57.49,79.92-101.4Z"/><path class="cls-6" d="M446.84,352.79l-29.26.14L403,353c11.33-37.1,12.7-101.56,12.7-101.56l12.38,0C429,293.22,446.84,352.79,446.84,352.79Z"/><path class="cls-6" d="M404.71,251.29s-15,85.66-28.31,101.18l-.23.27-35.27-.07,53.19-101.34Z"/><path class="cls-9" d="M376.24,352.56c13.28-15.52,28.31-101.18,28.31-101.18h11.17s-1.17,64.26-12.5,101.5Z"/><path class="cls-9" d="M448.54,251.37l60.89,101.34h35.28s-61.79-57.49-87.62-101.4Z"/><path class="cls-6" d="M439.16,251.35s21.3,85.8,34.58,101.32l.23.27,35.29-.14L449.37,251.36Z"/><path class="cls-9" d="M474.08,352.92c-13.28-15.52-34.9-101.57-34.9-101.57H428s2.16,56.37,18.83,101.43Z"/><path class="cls-9" d="M426.56,403.41l-38.86,27.8a16.22,16.22,0,0,0-6.78,13.2V487h44.44Z"/><polygon class="cls-10" points="426.56 403.41 425.36 486.98 384.56 486.96 426.56 403.41"/><path class="cls-9" d="M426.56,403.41l37.23,27.79a16.21,16.21,0,0,1,6.53,13V487h-45Z"/><polygon class="cls-10" points="426.07 403.46 425.36 486.98 466.16 486.96 426.07 403.46"/><path class="cls-11" d="M421.53,163.59c28.6.22,33.79,20.72,85.37,21.62-22.07,19.6-38.07,16.9-84.92,18.7Z"/><line class="cls-12" x1="421.53" y1="153.7" x2="421.53" y2="217.2"/><path class="cls-5" d="M362.4,488.76A12.32,12.32,0,0,1,350,501c-5.52,0-28.21-.53-33.78-.53a12.2,12.2,0,1,1,3.42-23.91,14.7,14.7,0,0,1,28.95.13,13,13,0,0,1,1.41-.08A12.32,12.32,0,0,1,362.4,488.76Z"/></g><g id="Calque_3" data-name="Calque 3"><rect class="cls-13" x="46.98" y="369.25" width="85.56" height="78.61"/><rect class="cls-14" x="44.99" y="444.76" width="88.77" height="65.01"/><rect class="cls-15" x="44.99" y="368.29" width="88.77" height="141.48"/><rect class="cls-16" x="58.24" y="456" width="12.66" height="47.11"/><rect class="cls-16" x="74.69" y="456" width="12.66" height="47.11"/><rect class="cls-16" x="91.14" y="456" width="12.66" height="47.11"/><rect class="cls-16" x="107.59" y="456" width="12.66" height="47.11"/><circle class="cls-16" cx="49.8" cy="458.11" r="3.52"/><rect class="cls-13" x="134.75" y="369.25" width="85.56" height="78.61"/><rect class="cls-14" x="132.75" y="444.76" width="88.77" height="65.01"/><rect class="cls-15" x="132.75" y="368.29" width="88.77" height="141.48"/><rect class="cls-16" x="146" y="456" width="12.66" height="47.11"/><rect class="cls-16" x="162.45" y="456" width="12.66" height="47.11"/><rect class="cls-16" x="178.9" y="456" width="12.66" height="47.11"/><rect class="cls-16" x="195.35" y="456" width="12.66" height="47.11"/><circle class="cls-16" cx="137.56" cy="458.11" r="3.52"/><rect class="cls-13" x="222.51" y="369.25" width="85.56" height="78.61"/><rect class="cls-14" x="220.52" y="444.76" width="88.77" height="65.01"/><rect class="cls-15" x="220.52" y="368.29" width="88.77" height="141.48"/><rect class="cls-16" x="233.77" y="456" width="12.66" height="47.11"/><rect class="cls-16" x="250.22" y="456" width="12.66" height="47.11"/><rect class="cls-16" x="266.67" y="456" width="12.66" height="47.11"/><rect class="cls-16" x="283.11" y="456" width="12.66" height="47.11"/><circle class="cls-16" cx="225.33" cy="458.11" r="3.52"/><rect class="cls-13" x="533.73" y="369.25" width="85.56" height="78.61"/><rect class="cls-14" x="531.74" y="444.76" width="88.77" height="65.01"/><rect class="cls-15" x="531.74" y="368.29" width="88.77" height="141.48"/><rect class="cls-16" x="544.98" y="456" width="12.66" height="47.11"/><rect class="cls-16" x="561.43" y="456" width="12.66" height="47.11"/><rect class="cls-16" x="577.88" y="456" width="12.66" height="47.11"/><rect class="cls-16" x="594.33" y="456" width="12.66" height="47.11"/><circle class="cls-16" cx="536.55" cy="458.11" r="3.52"/><rect class="cls-13" x="621.5" y="369.25" width="85.56" height="78.61"/><rect class="cls-14" x="619.5" y="444.76" width="88.77" height="65.01"/><rect class="cls-15" x="619.5" y="368.29" width="88.77" height="141.48"/><rect class="cls-16" x="632.75" y="456" width="12.66" height="47.11"/><rect class="cls-16" x="649.2" y="456" width="12.66" height="47.11"/><rect class="cls-16" x="665.65" y="456" width="12.66" height="47.11"/><rect class="cls-16" x="682.1" y="456" width="12.66" height="47.11"/><circle class="cls-16" cx="624.31" cy="458.11" r="3.52"/><rect class="cls-13" x="709.26" y="369.25" width="85.56" height="78.61"/><rect class="cls-14" x="707.27" y="444.76" width="88.77" height="65.01"/><rect class="cls-15" x="707.27" y="368.29" width="88.77" height="141.48"/><rect class="cls-16" x="720.51" y="456" width="12.66" height="47.11"/><rect class="cls-16" x="736.96" y="456" width="12.66" height="47.11"/><rect class="cls-16" x="753.41" y="456" width="12.66" height="47.11"/><rect class="cls-16" x="769.86" y="456" width="12.66" height="47.11"/><circle class="cls-16" cx="712.08" cy="458.11" r="3.52"/><g id="Calque_2-2" data-name="Calque 2"><path class="cls-17" d="M100.73,425.88a64.21,64.21,0,0,1-7.41,28.43c-2.25,4.05-4.63,6.64-6.53,6.64C80.24,461,72,441.14,72,425.35c0-1,0-2,.15-3.05,1.36-13.5,11.54-18.55,14.66-18.55s8.94,3.28,12,11a28.52,28.52,0,0,1,1.75,7.26A35.83,35.83,0,0,1,100.73,425.88Z"/><path class="cls-18" d="M100.53,422a9.54,9.54,0,0,0-3.82,1,8,8,0,0,0-3.66,4.49c-2.21,5.72.57,9.07,1.2,14h0a15.11,15.11,0,0,1,0,3.86,24.25,24.25,0,0,1-2.07,7A22.72,22.72,0,0,1,91,454.6,15.88,15.88,0,0,1,89.24,457l-5.54.3a22.51,22.51,0,0,1-5-11.63c-1-7.35,3.9-10.8,1.18-17.89-1.65-4.29-4.6-5.31-7.76-5.45,1.35-13.5,11.54-18.55,14.66-18.55s8.94,3.28,12,11A28.52,28.52,0,0,1,100.53,422Z"/><path class="cls-19" d="M94.25,441.49a14.59,14.59,0,0,1,0,3.85A24.11,24.11,0,0,1,91,454.6c-1.29-.45-1.65-1.76-.19-4.54A50.5,50.5,0,0,0,94.25,441.49Z"/><path class="cls-19" d="M100.53,422a9.54,9.54,0,0,0-3.82,1,17.19,17.19,0,0,0-2-7.16l4-1.06A28.52,28.52,0,0,1,100.53,422Z"/><path class="cls-20" d="M100.73,425.88a64.21,64.21,0,0,1-7.41,28.43l-1.16-1.94a24.23,24.23,0,0,0,2.07-7,14.59,14.59,0,0,0,0-3.85h0c1.89-6.13,3-13,2.47-18.51a9.17,9.17,0,0,1,3.81-1A33.16,33.16,0,0,1,100.73,425.88Z"/><path class="cls-21" d="M95.44,431.73a.89.89,0,0,1-.89-.89.86.86,0,0,1,.08-.36l1-2.27a.94.94,0,0,1,.44-.44l2.58-1.19a.89.89,0,1,1,.74,1.62l-2.27,1-.23.52,1.06-.13a.89.89,0,0,1,.22,1.76h0l-2.62.33Z"/><path class="cls-21" d="M77.18,431.73a.89.89,0,0,0,.89-.89.86.86,0,0,0-.07-.36l-1-2.27a.9.9,0,0,0-.44-.44L74,426.58a.89.89,0,0,0-.74,1.62l2.28,1,.23.52-1.06-.13a.89.89,0,1,0-.22,1.76h0l2.61.33Z"/><path class="cls-18" d="M90,405a67.31,67.31,0,0,0,10.47-10.57.26.26,0,0,1,.38,0,.31.31,0,0,1,.09.11c.56,1.49,2.16,6.33.89,9.94-1.11,3.14-2,1.31-4.18,7.28Z"/><path class="cls-17" d="M100.22,397.31a.12.12,0,0,0-.14-.1.16.16,0,0,0-.08.06c-1.71,2.72-3.65,5.29-4.17,7.19s-.77,1.1.15,6.51c0,0,1.87-4.7,3.89-6.36C101.19,403.52,100.45,398.6,100.22,397.31Z"/><path class="cls-18" d="M83.6,405a67.5,67.5,0,0,1-10.46-10.57.28.28,0,0,0-.39-.05.28.28,0,0,0-.08.12c-.56,1.49-2.17,6.33-.89,9.94,1.1,3.14,2,1.31,4.17,7.28Z"/><path class="cls-17" d="M73.35,397.31a.12.12,0,0,1,.14-.1.1.1,0,0,1,.08.06c1.72,2.72,3.66,5.29,4.18,7.19s.77,1.1-.15,6.51c0,0-1.88-4.7-3.9-6.36C72.39,403.52,73.13,398.6,73.35,397.31Z"/><path class="cls-19" d="M95.12,418.32c-2.1,3.23-5,4.78-6.28,4-1.8-1.07.56-2.91,1-4.21.21-.57.05-1-1-1.28-1.58-.36-3,1-4.77,2.73-2.19,2.08-5,4.62-9.25,4.93-.59,0,0-1,.73-2.21,1.19-1.9,2.94-4.3,2-4.1-1.85.39-4.3,2.46-6.17,4.06s-3.13,2.7-2.72,1.31a25.11,25.11,0,0,1,1.76-4.33c3-5.94,8.51-12.37,13.09-14.29a6.57,6.57,0,0,1,2.52-.57c7,0,13.32,8.1,14.24,13.24C100.47,418.65,97.2,415.11,95.12,418.32Z"/><path class="cls-22" d="M95.12,417.71c-2.1,3.23-5,4.78-6.28,4-1.8-1.06.56-2.91,1-4.21.21-.57.05-1-1-1.27-1.58-.36-3,1-4.77,2.72-2.19,2.09-5,4.63-9.25,4.93-.59,0,0-1,.73-2.21,1.19-1.9,2.94-4.3,2-4.1-1.85.39-4.3,2.46-6.17,4.07s-3.13,2.7-2.72,1.3a25,25,0,0,1,1.76-4.32c3-5.95,8.51-12.38,13.09-14.3a6.57,6.57,0,0,1,2.52-.57c7,0,13.32,8.1,14.24,13.24C100.47,418,97.2,414.51,95.12,417.71Z"/><path class="cls-23" d="M84.11,419c-2.19,2.09-5,4.63-9.25,4.93-.59,0,0-1,.73-2.21,1.5-1,2.82-1.44,3.29-2.32,1.21-2.22,3.58-3.7,5.57-3C85.45,416.64,84.83,417.68,84.11,419Z"/><path class="cls-23" d="M95.12,417.71c-2.1,3.23-5,4.78-6.28,4-1.8-1.06.56-2.91,1-4.21a35.26,35.26,0,0,1,3.75-4c-2.36-6.15-1.72-5.39-10.1-9.2a6.57,6.57,0,0,1,2.52-.57c7,0,13.32,8.1,14.24,13.24C100.47,418,97.2,414.51,95.12,417.71Z"/><path class="cls-23" d="M71.4,421.64c-1.85,1.57-3.13,2.7-2.72,1.3a25,25,0,0,1,1.76-4.32c1-.77,1.78-1.13,2.19-.87S72.22,419.89,71.4,421.64Z"/><path class="cls-24" d="M87.19,462.87H86c-2.28,0-5-1.86-5-4.15h0a4.14,4.14,0,0,1,4.14-4.14h2.69A4.14,4.14,0,0,1,92,458.72h0C92,461,89.48,462.87,87.19,462.87Z"/><path class="cls-25" d="M94.23,455.43a4.47,4.47,0,0,1-4.48,4.47H83.17a4.47,4.47,0,0,1-4.47-4.47h0a2.71,2.71,0,0,1,.79-1.93v-.18a5.7,5.7,0,0,1,5.7-5.7h2.52a5.7,5.7,0,0,1,5.7,5.7v.16A2.69,2.69,0,0,1,94.23,455.43Z"/><rect class="cls-26" x="82.81" y="450.75" width="1.76" height="4.12" rx="0.84" ry="0.84" transform="translate(-261.09 147.57) rotate(-38.01)"/><path class="cls-27" d="M94.23,455.43a4.47,4.47,0,0,1-4.48,4.47H88.57a6.27,6.27,0,0,0,1.33-5.63c-1.5-6.09-3.63-6.47-6.22-6.45a5.91,5.91,0,0,1,1.51-.2h2.52a5.7,5.7,0,0,1,5.7,5.7v.16A2.69,2.69,0,0,1,94.23,455.43Z"/><rect class="cls-26" x="87.22" y="451.93" width="4.12" height="1.76" rx="0.84" ry="0.84" transform="translate(-322.46 244.32) rotate(-51.99)"/></g><g id="Calque_4" data-name="Calque 4"><path class="cls-28" d="M187.63,442.39a20.33,20.33,0,0,1-5.42-.77c1.73-5.39,4.55-6.4,4.55-6.4-1.24-2.2-.9-4.08-.79-6.7s4.87-9.26,4.95-11.94-.77-3.83-.77-5.85c0-3.1,1.59-5.44.21-8a18,18,0,0,0-7.33-7.27c6.44-2.31,13-3.52,17.72-3.18,6,.43,9.52,4.62,13.33,7.42,5.13,3.76,10.73,6.68,11.17,9.86C227,422.47,207.67,442.39,187.63,442.39Z"/><path class="cls-29" d="M225.05,414.27c-.38-1.79-1.1-4.52-1.91-5-1.22-.75-4.13-1.81-10-3.48s-10.75-4.53-13.76-4.77c-2.65-.21-5.25.88-8.79,2.29a4.34,4.34,0,0,0-.25-.54c-.05-.09-.1-.19-.16-.28l-.16-.29-.31-.5-.09-.14-.15-.23-.14-.19,0-.06-.18-.25-.19-.26c-.21-.28-.43-.56-.66-.83l-.17-.19-.14-.17-.18-.19,0,0a1.8,1.8,0,0,0-.19-.2l-.16-.17-.1-.1-.12-.12c-.11-.11-.21-.21-.33-.31a.8.8,0,0,0-.13-.13l-.4-.36-.5-.41-.22-.18h0l-.23-.18-.2-.14c-.28-.2-.56-.4-.85-.58l-.18-.12-.25-.16-.29-.16-.28-.17-.29-.15c6.44-2.31,13-3.52,17.71-3.18,6,.43,9.53,4.62,13.34,7.42,5.13,3.76,10.73,6.68,11.17,9.86A13.86,13.86,0,0,1,225.05,414.27Z"/><path class="cls-30" d="M218.81,415c0,7.16-7.61,14.59-13.18,17.64-4.47,2.45-13.2,5.51-14.19,2.39-.68-2.13.31-3.16.37-3.76.09-.95-.87-1.89-.87-3.44,0-4.49,3.91-5.7,3.84-9.77,0-1.68-.47-3.21-.38-5.05.08-1.58.57-3.24.15-4.91,6.76-2.53,9.24-.24,12.43.9C212.94,411.16,218.81,411.83,218.81,415Z"/><path class="cls-28" d="M160.67,442.39a20.28,20.28,0,0,0,5.42-.77c-1.73-5.39-4.55-6.4-4.55-6.4,1.24-2.2.9-4.08.79-6.7s-4.87-9.26-5-11.94.77-3.83.77-5.85c0-3.1-1.59-5.44-.21-8a18,18,0,0,1,7.33-7.27c-6.44-2.31-13-3.52-17.71-3.18-6,.43-9.53,4.62-13.34,7.42-5.12,3.76-10.73,6.68-11.17,9.86C121.27,422.47,140.64,442.39,160.67,442.39Z"/><path class="cls-29" d="M123.25,414.27c.39-1.79,1.1-4.52,1.91-5,1.23-.75,4.13-1.81,10-3.48s10.75-4.53,13.76-4.77c2.66-.21,5.27.88,8.8,2.29a5.22,5.22,0,0,1,.24-.54,2.69,2.69,0,0,0,.16-.29l.17-.28c.1-.17.2-.34.31-.5l.08-.14.16-.23.13-.19,0-.06.18-.25c.06-.08.12-.18.19-.26.21-.28.43-.56.66-.83l.16-.19.15-.17.18-.2,0,0,.18-.2.17-.18.1-.1.11-.11.33-.32.14-.12.4-.36.49-.41.22-.18h0l.23-.18.2-.15q.41-.3.84-.57l.18-.12.26-.16.28-.16.28-.17c.1-.06.2-.1.29-.16-6.44-2.3-13-3.51-17.71-3.17-6,.43-9.53,4.62-13.34,7.42-5.12,3.76-10.73,6.68-11.17,9.86A14.12,14.12,0,0,0,123.25,414.27Z"/><path class="cls-30" d="M129.49,415c0,7.16,7.61,14.59,13.18,17.64,4.48,2.45,13.2,5.51,14.2,2.39.68-2.13-.32-3.16-.37-3.76-.09-.95.87-1.89.87-3.44,0-4.49-3.91-5.7-3.84-9.77,0-1.68.46-3.21.37-5.05-.07-1.58-.56-3.24-.15-4.91-6.76-2.53-9.23-.24-12.42.9C135.36,411.16,129.49,411.83,129.49,415Z"/><path class="cls-28" d="M167.91,464.35a13.74,13.74,0,0,0,14,13.54c7.94,0,14.61-5.81,14.29-15.9l.11,0,.12,0a1.52,1.52,0,0,0,1.08-1.46v-.91A1.51,1.51,0,0,0,196,458h-8.79a1.52,1.52,0,0,0-1.52,1.52v.91a1.46,1.46,0,0,0,1.1,1.36l.18,0c0,3.14-1.35,3.93-3,3.93a3,3,0,0,1-3-3h0V451c.19-13.73,5.87-15.75,5.87-15.75-1.25-2.2-.91-4.09-.79-6.7.12-2.78,4.86-9.27,5-11.94s-.78-3.83-.78-5.86c0-3.09,1.59-5.43.21-8a17.91,17.91,0,0,0-15.77-9.38h-.88a17.94,17.94,0,0,0-15.77,9.39c-1.38,2.54.21,4.88.21,8,0,2-.86,3.21-.77,5.86s4.83,9.16,5,11.94c.11,2.61.45,4.5-.79,6.7,0,0,5.68,2,5.87,15.75Z"/><path class="cls-31" d="M166.63,443.6a13.92,13.92,0,0,1-4.4,4.6c-3.21,2.13-11.5,1.81-13.23-1.29a.75.75,0,0,1,.17-.94h0a1,1,0,0,1,.13-.09l0,0h.21l.14,0c9.1,2,11.58-8.9,11.84-10.62a6.81,6.81,0,0,1,3,3A17.34,17.34,0,0,1,166.63,443.6Z"/><path class="cls-32" d="M164.57,438.21c-1.17,5.11-6.6,9-9.35,9s-3.76.18-6.05-1.22l.13-.08.06,0h0l0,0h.14l.14,0c9.1,2,11.59-8.9,11.84-10.62A6.78,6.78,0,0,1,164.57,438.21Z"/><path class="cls-31" d="M199.31,446.94c-1.73,3.1-10,3.42-13.24,1.29a14.05,14.05,0,0,1-4.4-4.61,17.77,17.77,0,0,1,2.06-5.41,7.18,7.18,0,0,1,3-3h.07c.25,1.72,2.74,12.61,11.83,10.62l.14,0h.15l0,0h0l.05,0a.57.57,0,0,1,.13.08h0A.75.75,0,0,1,199.31,446.94Z"/><path class="cls-32" d="M199.13,446c-2.28,1.4-3.44,1.18-6,1.21-2.76,0-8.2-3.87-9.36-9a7.18,7.18,0,0,1,3-3h.07c.25,1.72,2.74,12.61,11.83,10.62l.14,0h.15l0,0h0l.05,0A.38.38,0,0,1,199.13,446Z"/><path class="cls-33" d="M162.46,431.23c0-.83-.09-1.72-.13-2.71-.12-2.77-4.86-9.26-5-11.94s.77-3.83.77-5.85a10.93,10.93,0,0,0-.06-1.15c3.28,2.26,6.87,4.82,7.44,6.22C166,416.94,163.78,426.62,162.46,431.23Z"/><path class="cls-29" d="M186,428.52c-.11,2.62-.45,4.5.79,6.7,0,0-5.68,2-5.87,15.76v11.8a3,3,0,0,0,3,3h0c1.67,0,3-.79,3-3.92h2.55s1.07,6.07-6.81,6.07c-5.83,0-7-7.26-6.95-13.73a2.87,2.87,0,0,0-1.2-.17,2,2,0,0,0-1.33.48,1.79,1.79,0,1,1-2.7-2.36h0a5.72,5.72,0,0,1,4.8-1.68l.59.08c.06-.77.13-1.5.2-2.16a7.86,7.86,0,0,0-4.16.25,1.79,1.79,0,1,1-1.4-3.3,11.45,11.45,0,0,1,6.06-.5c.15-.77.3-1.47.46-2.11a11.12,11.12,0,0,0-6,.12,1.79,1.79,0,1,1-1.47-3.27,14.31,14.31,0,0,1,8.59-.27c.42-1.09.84-2,1.19-2.87,1-2.46-.9-3.94-1.15-7.22s3.2-6,4.43-10,.33-5.58,0-8.77,1.64-3.2.33-7.3c-1.09-3.42-6.47-6.62-11.7-9.63a18.82,18.82,0,0,1,2.49-.17h.88a17.92,17.92,0,0,1,15.77,9.39c1.38,2.54-.21,4.88-.21,8,0,2,.86,3.21.77,5.86S186.09,425.75,186,428.52Z"/><path class="cls-34" d="M183.68,420.88a1.37,1.37,0,0,1-1.32-1,3.35,3.35,0,0,1,.49-2.91,4.7,4.7,0,0,1,3.31-1.73,1.37,1.37,0,0,1,.21,2.73h0a2.07,2.07,0,0,0-1.3.6c0,.07-.16.23-.06.64a1.36,1.36,0,0,1-1,1.66h0A1.86,1.86,0,0,1,183.68,420.88Z"/><path class="cls-34" d="M163.29,420.88a1.37,1.37,0,0,0,1.33-1,3.39,3.39,0,0,0-.49-2.91,4.7,4.7,0,0,0-3.32-1.73,1.37,1.37,0,0,0-.2,2.73,2.1,2.1,0,0,1,1.3.6c.05.07.16.23.06.64a1.36,1.36,0,0,0,1,1.66A1.88,1.88,0,0,0,163.29,420.88Z"/></g><g id="Calque_4-2" data-name="Calque 4"><path class="cls-35" d="M771.44,340.09c-1.12,2.78-4.15,5.11-9.29,5.74a8.65,8.65,0,0,1,.06,2.59l-1.11,8.77A12.1,12.1,0,0,1,749,368.36h-.36a12.1,12.1,0,0,1-12.07-11.21L735,349a7.22,7.22,0,0,1,.07-3.17c-4.91-.69-7.82-3-8.91-5.69-.73-1.78-2.46-3.82-1-5.23,1.85-1.73,10.35-.93,13.16,6.39v0c.52-.34,2.33-1.33,2.33-1.33a2.66,2.66,0,0,0,1.35-2.8l-.87-4.92a1.41,1.41,0,0,1,2.78-.51l.5,2.6a4.34,4.34,0,0,0,8.52.08l.56-2.68a1.4,1.4,0,0,1,2.76.51l-.81,4.91a2.67,2.67,0,0,0,1.42,2.81s1.76.9,2.33,1.3c2.81-7.32,11.31-8.12,13.15-6.39C773.9,336.27,772.16,338.31,771.44,340.09Z"/><path class="cls-36" d="M744.31,367.55a12.1,12.1,0,0,1-7.7-10.4L735,349a7.22,7.22,0,0,1,.07-3.17,16.76,16.76,0,0,1-3.42-.84,8.94,8.94,0,0,1-5.49-4.85c-.73-1.78-2.46-3.82-1-5.23,1.73-1.62,9.29-1,12.55,5.07a11.23,11.23,0,0,1,.61,1.32v0c.43-.28,1.72-1,2.17-1.24.24.34.49.71.76,1.11-2.06,2.38-2.35,3.41-1.87,9.09a2.43,2.43,0,0,1,1.82,2.92,2.4,2.4,0,0,1-1.4,1.68l.08.86C740.5,361.63,742.41,365.31,744.31,367.55Z"/><path class="cls-37" d="M766,343.43a6,6,0,0,1-6.53.79,17.64,17.64,0,0,1,2.87-4.62c1.49-1.42,4.12-2.05,5.79-.76C769.07,339.55,767.52,342,766,343.43Z"/><path class="cls-37" d="M731.45,343.43a6,6,0,0,0,6.53.79,17.64,17.64,0,0,0-2.87-4.62c-1.49-1.42-4.12-2.05-5.79-.76C728.4,339.55,730,342,731.45,343.43Z"/><path class="cls-35" d="M761.54,446.65c-1.24.38-10.64.45-17.08.32a51.15,51.15,0,0,1-6-.32h0l.09-2.83.23-7.19.32-10.3.25-7.8.33-10.19.24-7.79.3-9.22.12-3.91.16-4.26V383l.16-4,0-.61.29-7.58.06-1.61.06-1.46.07-2v-.06h15.37v.07l.09,2.8.07,2v.07l.24,7.45.15,4.73V383l.58,8.32.66,9.42.51,7.35.69,9.86.6,8.67.65,9.33.6,8.58Z"/><path class="cls-36" d="M756.63,368.55a12,12,0,0,1-5.66,2.2,3.49,3.49,0,0,1-1.87.61,4,4,0,0,1-2.16-.74l-.67-.14a1,1,0,0,0-1.21.73.89.89,0,0,0,0,.22l0,5.24,0,5V384l-.06,7.1,0,2.28,0,3.44,0,4.15-.06,7.36,0,3.64,0,3.94,0,1.87-.07,9.32v1.5l0,2.4,0,4.17-.08,10.09V447a51.15,51.15,0,0,1-6-.32l.09-2.81.24-7.22.33-10.27.26-7.83.32-10.17.26-7.83.3-9.18.26-8.2.14-4.17,0-.61.29-7.58.06-1.61.06-1.46.07-2v-.06h15.37v.07Z"/><path class="cls-38" d="M754.84,358.61a4.68,4.68,0,0,1,.4,1.84c0,2.27-1.75,5.88-3.9,7.69a4.09,4.09,0,0,1-2.54,1.11,4.5,4.5,0,0,1-2.75-1.17c-2.13-1.74-3.88-5-3.88-7.23a6.19,6.19,0,0,1,2.58-4.65c2.72-5-.9-11.21-3.45-15.05l-.76-1.11.11-.07h0l.11-.06.08-.05,0,0,.08-.06.1-.08.09-.08h0l.09-.08.09-.09.08-.09a2.29,2.29,0,0,0,.28-.41,2.66,2.66,0,0,0,.31-1.77l-.87-4.92a1.41,1.41,0,0,1,2.78-.51l.5,2.6a4.34,4.34,0,0,0,8.52.08l.56-2.68a1.4,1.4,0,0,1,2.76.51l-.81,4.91A2.68,2.68,0,0,0,756.9,340l.18.09c-2.49,3.63-7.2,10.65-4.22,16.15A6.23,6.23,0,0,1,754.84,358.61Z"/><path class="cls-39" d="M749.84,356.07c-3-.12-6.3,2.63-4.05,8.34,1.43,3.65,1.73,4.33,2.75,4.83a4.86,4.86,0,0,1-2.5-1.16c-2.12-1.74-3.87-5-3.87-7.23a6.19,6.19,0,0,1,2.58-4.65c2.72-5-.9-11.21-3.46-15.05-.26-.4-.52-.77-.75-1.11l.11-.07h0l.1-.06.09-.05,0,0,.08-.06.1-.08.09-.08h0l.09-.08.09-.09.08-.09a3,3,0,0,0,.28-.41,2.72,2.72,0,0,0,.31-1.77l-.87-4.92a1.42,1.42,0,0,1,1.15-1.64h0c-.52,1,0,2.52.77,5.66,1,4.1,4.83,3.32,5.7,3.42s1.62,1.22-1.41,1.56-2-.19-.78,5.42.22,8.53.2,8.59a5.18,5.18,0,0,1,2.34-.73C750,354.6,752.87,356.19,749.84,356.07Z"/><path class="cls-39" d="M755.42,330.69c-1.43.73-1.57,4.24-1.62,5.8s-.76,2.31-4.46,1.32l-.32,0,.31,0A4.36,4.36,0,0,0,753,334.4l.56-2.68a1.41,1.41,0,0,1,1.26-1.12H755l.14,0Z"/><circle class="cls-36" cx="758.74" cy="352.59" r="2.51"/><path class="cls-40" d="M760.24,352a1.34,1.34,0,0,1-.06.4,1.43,1.43,0,1,1-1-1.77A1.43,1.43,0,0,1,760.24,352Z"/><path class="cls-32" d="M760.24,352a1.34,1.34,0,0,1-.06.4,1.51,1.51,0,0,1-.48.08,1.43,1.43,0,0,1-1.42-1.43,1.31,1.31,0,0,1,.05-.39,1.43,1.43,0,0,1,1.83.86,1.61,1.61,0,0,1,.08.48Z"/><path class="cls-40" d="M740.17,352a1.34,1.34,0,0,1-.06.4,1.41,1.41,0,1,1,.06-.4Z"/><path class="cls-32" d="M740.17,352a1.34,1.34,0,0,1-.06.4,1.51,1.51,0,0,1-.48.08A1.43,1.43,0,0,1,738.2,351a1.32,1.32,0,0,1,.06-.39,1.42,1.42,0,0,1,1.82.86,1.36,1.36,0,0,1,.09.48Z"/><path class="cls-38" d="M752.74,381.52,750,383.58a2,2,0,0,1-2.3,0l-2.81-2a2,2,0,0,1-.75-2.18l1-3.29a2,2,0,0,1,1.84-1.38l3.44,0a2,2,0,0,1,1.89,1.33l1.11,3.26A2,2,0,0,1,752.74,381.52Z"/><path class="cls-38" d="M753.68,395.47l-1.11,3.25a2,2,0,0,1-1.89,1.33l-3.44-.05a2,2,0,0,1-1.84-1.38l-1-3.28a2,2,0,0,1,.74-2.18l2.82-2a2,2,0,0,1,2.3,0l2.75,2.06A2,2,0,0,1,753.68,395.47Z"/><path class="cls-38" d="M752.74,416,750,418a2,2,0,0,1-2.3,0l-2.81-2a2,2,0,0,1-.75-2.18l1-3.28a2,2,0,0,1,1.84-1.38l3.44-.05a2,2,0,0,1,1.89,1.32l1.11,3.26A2,2,0,0,1,752.74,416Z"/><path class="cls-38" d="M754.93,430.53l-1.25,3.69a2.22,2.22,0,0,1-2.14,1.5l-3.9-.05a2.21,2.21,0,0,1-2.09-1.57l-1.16-3.72a2.24,2.24,0,0,1,.85-2.48l3.18-2.24a2.24,2.24,0,0,1,2.62,0l3.12,2.34A2.23,2.23,0,0,1,754.93,430.53Z"/><path class="cls-38" d="M746.68,387.61l-1.53,3.08a2.42,2.42,0,0,1-.27.41,2,2,0,0,1-1.77.66l-2.84-.42h0l.12-3.91.16-4.26,0,0,1-.54a2,2,0,0,1,2.28.33l1.09,1.07,1.36,1.34A2,2,0,0,1,746.68,387.61Z"/><path class="cls-38" d="M757.68,391.33l-2.91.43a2,2,0,0,1-2-1.07l-1.53-3.08a2,2,0,0,1,.39-2.27l2.45-2.41a2,2,0,0,1,2.28-.33l.79.41Z"/><path class="cls-38" d="M746.68,404.71l-1.53,3.08a1.81,1.81,0,0,1-.4.54,2,2,0,0,1-1.64.52l-3.4-.5h0l.24-7.79.05,0,1.6-.83a2,2,0,0,1,2.28.34l1,.94,1.49,1.46A2,2,0,0,1,746.68,404.71Z"/><path class="cls-38" d="M758.85,408.1a1.74,1.74,0,0,1-.68.25l-3.4.5a2,2,0,0,1-2-1.06l-1.53-3.08a2,2,0,0,1,.39-2.28L754,400a2,2,0,0,1,2.28-.34l2,1.06Z"/><path class="cls-38" d="M747.54,422.66,745.86,426a2.11,2.11,0,0,1-1.25,1.08,2.14,2.14,0,0,1-1,.09l-3.71-.55a1.93,1.93,0,0,1-.79-.29l0,0,.25-7.8h0l2.56-1.33a2.14,2.14,0,0,1,2.49.36l.24.24,2.44,2.4A2.15,2.15,0,0,1,747.54,422.66Z"/><path class="cls-38" d="M760.14,426.63h0l-3.72.55a2.15,2.15,0,0,1-2.23-1.17l-1.68-3.36a2.15,2.15,0,0,1,.42-2.48l2.69-2.64a2.12,2.12,0,0,1,2.48-.36l1.49.78Z"/><path class="cls-38" d="M747.88,440.57l-1.73,3.48a2.22,2.22,0,0,1-1.68,1.21,2.15,2.15,0,0,1-.62,0l-3.85-.57a2.26,2.26,0,0,1-1.44-.85v0l.23-7.19h0l3.3-1.72a2.22,2.22,0,0,1,2.45.27.69.69,0,0,1,.13.11l2.77,2.72A2.21,2.21,0,0,1,747.88,440.57Z"/><path class="cls-38" d="M761.39,444.54a2.23,2.23,0,0,1-.52.15l-3.85.57a2.22,2.22,0,0,1-2.31-1.21L753,440.57a2.22,2.22,0,0,1,.43-2.57l2.78-2.72a2.21,2.21,0,0,1,2.57-.38l2,1.06Z"/><path class="cls-38" d="M743.18,374.28l-.81,2.54a2.26,2.26,0,0,1-1.68,1.54l.29-7.58,1.32.93A2.29,2.29,0,0,1,743.18,374.28Z"/><path class="cls-38" d="M756.94,378.11A2.29,2.29,0,0,1,755,376.5l-.69-2.22a2.3,2.3,0,0,1,.87-2.55l1.51-1.07Z"/><path class="cls-37" d="M752.63,361.94c0,.81-.61,2-1.26,2s-1.22-1.19-1.22-2,.41-1.53,1.22-1.53A1.32,1.32,0,0,1,752.63,361.94Z"/><path class="cls-37" d="M747.49,361.94c0,.81-.61,2-1.26,2s-1.22-1.19-1.22-2,.41-1.53,1.22-1.53A1.32,1.32,0,0,1,747.49,361.94Z"/></g><g id="Calque_2-3" data-name="Calque 2"><path class="cls-41" d="M594.07,434.09c.66,3.19,1.3,8.51-.28,8.66-1.17.12-1.19-2.13-2-1.86-1,.35-.55,9.42-4.43,9.24-.7,0-.89-1.66-1.89-1.56-1.57.16-.35,4.55-2.18,4.69-.68.05-1.92-2.56-3.46-2.26-1.84.35-2.74,9.77-6.42,9.78-3,0-3.75-9.81-6.28-9.83-1.07,0-1.81,2.46-3.42,2.23-2-.26-.46-4.67-2.11-4.81-1.2-.11-.39,2-2.07,1.91-3.55-.22-3.21-9.16-4-9.45-1-.39-.62,2.11-2.18,1.77-3-.66,3.12-14,1.73-15.5-1-1.1-2.43.8-3-.24-.77-1.51,5.34-12.8,12.05-15.32,2.58-1,6.69.35,9.61.35s3.9-.72,7.41-.42c6.89.59,14.57,14,13.82,15.19s-2.65-.19-3,.43C591.38,428.12,593.3,430.31,594.07,434.09Z"/><path class="cls-42" d="M576,458.79c-.7,1.16-1.54,2-2.62,2-3,0-3.76-9.81-6.28-9.83-1.08,0-1.82,2.46-3.43,2.23-2-.26-.46-4.67-2.11-4.81-1.19-.11-.38,2-2.06,1.91-3.55-.22-3.22-9.16-4-9.45-1-.39-.62,2.11-2.19,1.77-3-.66,3.13-14,1.74-15.49-1-1.1-2.43.8-3-.24-.76-1.51,5.35-12.8,12.06-15.32,1.49-.57,3.5-.36,5.49-.08,1.88.57,3.24,1.41,1.88,2.26s-11.22-2.7-13.48,10.21c.3-1.3,2-6.08,10.46-6.73.39,0-7.18,4.26-5.93,6,.83,1.15,4.08-2.28,5.61-1.07s-1.68,3.39.79,6.53c3.26,4.17-6.73,18.75-3.61,20.25,1.41.68,2.07-1,4.08-.44s0,5,2.65,6.34c.62.31.84-.75,1.45-.61S575.25,456.42,576,458.79Z"/><path class="cls-42" d="M578,444.18l3.91-2.16s.62,6.38-.43,6.75C579.68,449.41,578,444.18,578,444.18Z"/><path class="cls-42" d="M573,443.75l3.09-1.58s.54,6.8-.72,6.75C573.43,448.84,573,443.75,573,443.75Z"/><path class="cls-35" d="M572.36,428.61l-6.46-2.14a3.39,3.39,0,0,0-4.4,2.62l-1.6,9.06a4.78,4.78,0,0,0,3.23,5.39l5.84,1.9a15,15,0,0,0,9.4,0l5.74-1.91a4.78,4.78,0,0,0,3.19-5.43l-1.69-9a3.4,3.4,0,0,0-4.41-2.58l-6.32,2.13A4,4,0,0,1,572.36,428.61Z"/><path class="cls-43" d="M577.89,438.1a4.45,4.45,0,0,1-4.28,4.41,4.26,4.26,0,0,1-4.39-4.06c0-2.32,2.07-8.56,4.39-8.56S577.89,435.78,577.89,438.1Z"/><path class="cls-31" d="M574.19,442.51a4.41,4.41,0,0,1-4.42,4.41,4.28,4.28,0,0,1-1-.11,4.42,4.42,0,0,1,1-8.72,4.31,4.31,0,0,1,1.73.35A4.4,4.4,0,0,1,574.19,442.51Z"/><path class="cls-32" d="M574.19,442.51a4.41,4.41,0,0,1-4.42,4.41,4.28,4.28,0,0,1-1-.11,7.48,7.48,0,0,1-1.21-3.81,4.59,4.59,0,0,1,4-4.56A4.41,4.41,0,0,1,574.19,442.51Z"/><circle class="cls-32" cx="577.51" cy="442.51" r="4.42"/><path class="cls-40" d="M577.89,438.41a4.16,4.16,0,0,1-4.42,4.1,4,4,0,0,1-4.25-4.06c0-1,1.81-1.71,4.25-1.71S577.89,437.3,577.89,438.41Z"/><circle class="cls-44" cx="575.82" cy="438.58" r="1.17"/><path class="cls-43" d="M575.52,446.45a3.67,3.67,0,0,1-2,.53,3.53,3.53,0,0,1-1.86-.49,4.42,4.42,0,0,0,1.95-1.85A4.44,4.44,0,0,0,575.52,446.45Z"/><circle class="cls-43" cx="580.98" cy="434.2" r="2.54"/><path class="cls-40" d="M582.53,433.71a1.58,1.58,0,0,1,0,.38,1.45,1.45,0,0,1-2.86-.38,1.47,1.47,0,0,1,.9-1.35,1.68,1.68,0,0,1,.55-.1A1.46,1.46,0,0,1,582.53,433.71Z"/><path class="cls-32" d="M582.53,433.71a1.58,1.58,0,0,1,0,.38,1.63,1.63,0,0,1-.55.1,1.45,1.45,0,0,1-1.45-1.46,2.21,2.21,0,0,1,0-.37,1.68,1.68,0,0,1,.55-.1A1.46,1.46,0,0,1,582.53,433.71Z"/><circle class="cls-43" cx="566.07" cy="434.2" r="2.54"/><path class="cls-40" d="M567.62,433.71a1.58,1.58,0,0,1,0,.38,1.45,1.45,0,0,1-2.86-.38,1.48,1.48,0,0,1,.9-1.35,1.68,1.68,0,0,1,.55-.1A1.45,1.45,0,0,1,567.62,433.71Z"/><path class="cls-32" d="M567.62,433.71a1.58,1.58,0,0,1,0,.38,1.63,1.63,0,0,1-.55.1,1.45,1.45,0,0,1-1.45-1.46,2.21,2.21,0,0,1,0-.37,1.68,1.68,0,0,1,.55-.1A1.45,1.45,0,0,1,567.62,433.71Z"/><path class="cls-35" d="M593.24,418a6.55,6.55,0,0,1-4.12,6.08,6.74,6.74,0,0,0-.37-1,7.46,7.46,0,0,0-2.44-3.08,16.08,16.08,0,0,0-2.53-1.47,15,15,0,0,0-3.57-1.19,6.53,6.53,0,0,1,13,.67Z"/><path class="cls-45" d="M591.14,419.55a3.75,3.75,0,0,1-2.39,3.5,7.46,7.46,0,0,0-2.44-3.08,16.08,16.08,0,0,0-2.53-1.47,3.75,3.75,0,0,1,7.36,1.05Z"/><path class="cls-35" d="M566.91,417.43a14.83,14.83,0,0,0-3.48,1.09,12.91,12.91,0,0,0-2.16,1.24,10.59,10.59,0,0,0-2.85,3.28c-.18.33-.34.66-.49,1a6.54,6.54,0,1,1,9-6.62Z"/><path class="cls-45" d="M563.43,418.52a12.24,12.24,0,0,0-2.16,1.23,10.59,10.59,0,0,0-2.85,3.28,3.76,3.76,0,1,1,5-4.51Z"/><path class="cls-42" d="M581.23,422.71c-.45.47-3.61-.77-4.13-2.16-.34-.9-1.92-1.52-1.17-2.12.49-.4,2.14.14,3.22,1.16S581.65,422.27,581.23,422.71Z"/><path class="cls-42" d="M585,421.86c-.3.31-2.4-.51-2.76-1.44-.22-.6-1.28-1-.77-1.42.32-.26,1.42.1,2.14.78S585.25,421.57,585,421.86Z"/></g><g id="Calque_2-4" data-name="Calque 2"><path class="cls-46" d="M644.47,430.51c-1.69,2.21-3.29,7.16-3.72,9.27a.41.41,0,0,0,.41.5H642s-1.18,1.18-1.36,4.94a.43.43,0,0,0,.6.4l1.66-.74s-1.38,1.66-1.54,5.31a.43.43,0,0,0,.61.39l1.71-.86a6.06,6.06,0,0,0-1,3,.42.42,0,0,0,.57.39l1.69-.62a3.93,3.93,0,0,0-.17,2.8.42.42,0,0,0,.58.26l2.73-1.3.57,1.41a.42.42,0,0,0,.7.13,8,8,0,0,1,4.54-2.14Z"/><path class="cls-46" d="M677.76,430.51c1.69,2.21,3.29,7.16,3.73,9.27a.42.42,0,0,1-.41.5h-.88s1.18,1.18,1.36,4.94a.42.42,0,0,1-.6.4l-1.66-.74s1.38,1.66,1.54,5.31a.42.42,0,0,1-.61.39l-1.71-.86a6,6,0,0,1,1,3,.42.42,0,0,1-.57.39l-1.69-.62a3.93,3.93,0,0,1,.17,2.8.42.42,0,0,1-.58.26l-2.72-1.3-.58,1.41a.42.42,0,0,1-.7.13,8,8,0,0,0-4.53-2.14Z"/><path class="cls-47" d="M661.11,448.33l-10.46.2c-2.53-6.48-4.09-10.74-5-13.48-.26-.75-.48-1.4-.66-1.94a8.88,8.88,0,0,1,2.36-9.33c3.08-2.86,8.11-4.72,13.79-4.72h.06c5.68,0,10.71,1.86,13.79,4.72a8.9,8.9,0,0,1,2.36,9.33c-.18.54-.4,1.19-.67,1.94-1,2.74-2.52,7-5,13.48l-10.47-.2Z"/><ellipse class="cls-46" cx="652.79" cy="435.87" rx="3.85" ry="3.02" transform="translate(-124.08 548.1) rotate(-41.95)"/><circle cx="652.59" cy="435.81" r="1.38"/><ellipse class="cls-46" cx="669.55" cy="435.87" rx="3.02" ry="3.85" transform="translate(-102.21 642.44) rotate(-48.05)"/><circle cx="669.75" cy="435.81" r="1.38"/><path class="cls-48" d="M670.69,449.9a.62.62,0,0,1-.23-1.19,13.4,13.4,0,0,0,6.71-7.25.62.62,0,1,1,1.18.36,12.65,12.65,0,0,1-2.92,4.73,13.29,13.29,0,0,1-4.5,3.31A1,1,0,0,1,670.69,449.9Z"/><path class="cls-48" d="M651.53,449.9a.48.48,0,0,1-.23,0,13.18,13.18,0,0,1-4.51-3.3,12.86,12.86,0,0,1-2.92-4.73.62.62,0,0,1,1.19-.36,13.4,13.4,0,0,0,6.7,7.24.62.62,0,0,1,.34.81A.61.61,0,0,1,651.53,449.9Z"/><path class="cls-48" d="M656.21,436.63h9.67a1.23,1.23,0,0,1,1.1.68c1.24,2.48,5.38,11.05,4.93,14.07-.53,3.54-21.15,3.39-21.74,0-.5-2.9,3.69-11.57,4.94-14.07A1.22,1.22,0,0,1,656.21,436.63Z"/><path class="cls-48" d="M670.19,420.18c3.36.15,5.26-5.46,8.77-5.46s4,6.07,2.26,7.82-6.22,3-6.22,3Z"/><path class="cls-48" d="M651.93,420.18c-3.36.15-5.26-5.46-8.77-5.46s-4,6.07-2.26,7.82,6.22,3,6.22,3Z"/><path class="cls-46" d="M668.19,454.15c0,4.5-3.18,5.62-7.11,5.62s-7.12-1.48-7.12-5c0-2,3.19-2.21,7.12-2.21S668.19,452.14,668.19,454.15Z"/><path class="cls-49" d="M672,450.89c0,2.53-3,4.57-6.6,4.57a8.9,8.9,0,0,1-3.58-.73,5.59,5.59,0,0,1-.73-.38c-.21.12-.43.24-.66.35a8.81,8.81,0,0,1-3.65.76c-3.65,0-6.6-2-6.6-4.57s3-4.57,6.6-4.57a8.48,8.48,0,0,1,4.31,1.11,8.51,8.51,0,0,1,4.31-1.11C669,446.32,672,448.36,672,450.89Z"/><path class="cls-50" d="M661.78,451.88v2.85a5.59,5.59,0,0,1-.73-.38,6,6,0,0,1-.67.34v-2.77a2,2,0,0,0,.65.13A1.87,1.87,0,0,0,661.78,451.88Z"/><path class="cls-51" d="M665.19,448.55a8.18,8.18,0,0,1-3.42,3.33,2,2,0,0,1-.74.17,2,2,0,0,1-.65-.13,7.87,7.87,0,0,1-3.51-3.46,1.33,1.33,0,0,1,1.2-1.95l6,.07A1.33,1.33,0,0,1,665.19,448.55Z"/><path class="cls-48" d="M671.65,434.53a.68.68,0,0,1-.68-.63,5.67,5.67,0,0,1,1.34-3.13c.79-1.2,1.61-2.45,1.24-3.36a.68.68,0,1,1,1.26-.5c.63,1.56-.43,3.18-1.37,4.61a5.26,5.26,0,0,0-1.12,2.29.7.7,0,0,1-.63.73Z"/><path class="cls-52" d="M674.52,443a.7.7,0,0,1-.37-.11.68.68,0,0,1-.2-.94,11.66,11.66,0,0,0,1.19-5.24.68.68,0,0,1,1.34-.2,12.55,12.55,0,0,1-1.39,6.18A.71.71,0,0,1,674.52,443Z"/><path class="cls-48" d="M650.34,434.53a.68.68,0,0,0,.68-.63,5.72,5.72,0,0,0-1.33-3.13c-.8-1.2-1.62-2.45-1.25-3.36a.68.68,0,0,0-1.26-.5c-.63,1.56.44,3.18,1.38,4.61a5.33,5.33,0,0,1,1.11,2.29.7.7,0,0,0,.63.73Z"/><path class="cls-52" d="M647.47,443a.7.7,0,0,0,.37-.11.68.68,0,0,0,.2-.94,11.66,11.66,0,0,1-1.19-5.24.68.68,0,0,0-1.34-.2,12.55,12.55,0,0,0,1.39,6.18A.71.71,0,0,0,647.47,443Z"/><path class="cls-48" d="M667.44,429.58a.64.64,0,0,1-.35-.1,12.39,12.39,0,0,0-6.6-1.41c-2.32.06-4.42.6-5.35,1.36a.68.68,0,0,1-.86-1.05c1.16-.95,3.53-1.6,6.17-1.67a13.86,13.86,0,0,1,7.35,1.62.68.68,0,0,1-.36,1.25Z"/><path class="cls-48" d="M668.74,426.77a.68.68,0,0,1-.36-.1,15.05,15.05,0,0,0-8-1.72c-2.81.08-5.36.73-6.49,1.66a.67.67,0,1,1-.86-1c1.37-1.13,4.18-1.89,7.32-2a16.42,16.42,0,0,1,8.74,1.91.67.67,0,0,1,.22.93A.68.68,0,0,1,668.74,426.77Z"/><path class="cls-48" d="M670.28,424.51a.64.64,0,0,1-.35-.1,18.19,18.19,0,0,0-9.67-2.08c-3.4.09-6.5.88-7.87,2a.7.7,0,0,1-1-.09.69.69,0,0,1,.1-1c1.62-1.33,5-2.23,8.7-2.33a19.74,19.74,0,0,1,10.41,2.27.69.69,0,0,1,.22.93A.65.65,0,0,1,670.28,424.51Z"/><path class="cls-52" d="M673.91,422.86a10.31,10.31,0,0,1-3.43-1,24,24,0,0,0-9.34-2.09,21.24,21.24,0,0,0-8.64,1.81c-1.87.73-3.48,1.37-5.33.83a.74.74,0,1,1,.42-1.41c1.36.39,2.62-.1,4.38-.79a22.5,22.5,0,0,1,9.06-1.9h.12a25.34,25.34,0,0,1,9.88,2.19c1.62.65,2.79,1.11,3.41.75a.74.74,0,0,1,1,.26.75.75,0,0,1-.27,1A2.58,2.58,0,0,1,673.91,422.86Z"/><path class="cls-52" d="M643.83,437.36a.63.63,0,0,1-.63-.54c-1-5.64,2.34-11.36,3.57-12.92a.65.65,0,0,1,.92-.1.64.64,0,0,1,.1.91c-1.43,1.81-4.13,7.11-3.32,11.9a.64.64,0,0,1-.52.74Z"/><path class="cls-52" d="M678.39,437.36h-.11a.65.65,0,0,1-.53-.75c.81-4.79-1.89-10.09-3.32-11.9a.65.65,0,1,1,1-.8c1.23,1.56,4.54,7.28,3.57,12.92A.63.63,0,0,1,678.39,437.36Z"/></g><g id="Calque_1-2" data-name="Calque 1"><path class="cls-53" d="M279.05,426a46,46,0,0,1-2.24,12.4,12,12,0,0,0-.36,3.44c0,1,0,2-.12,3.15-.34,4.7-1.8,9.95-9.43,9.95h-4.72c-8-.19-9.16-5.3-9.36-10,0-1.21,0-2.4-.07-3.47a9.88,9.88,0,0,0-.45-3.17A42.62,42.62,0,0,1,250,426c-.16-5.32,3.79-10.53,9.12-12.24a12.19,12.19,0,0,1,3.7-.59h3.33A12.92,12.92,0,0,1,279.05,426Z"/><path class="cls-54" d="M267.11,457H261.8c-3.41,0-5.89-1.81-5.89-4v-1.87h17.34V453C273.25,455.19,271.06,456.88,267.11,457Z"/><path class="cls-55" d="M276.33,445c-.34,4.7-1.8,9.95-9.43,9.95h-4.72c-8-.19-9.16-5.3-9.36-10a26.19,26.19,0,0,1,23.51.07Z"/><path class="cls-56" d="M260.14,431.73c-.13,2.07,0,3.37-4.85,7a10.59,10.59,0,0,0-2.54,2.7,9.61,9.61,0,0,0-.45-3.17A43.27,43.27,0,0,1,250,426.13V426c0-.27,0-.53,0-.8a11.62,11.62,0,0,1,1-4,13.55,13.55,0,0,1,8.15-7.4c-3.83,6.9-3,8.58-1.1,11.45C260,428.28,260.28,429.67,260.14,431.73Z"/><path class="cls-56" d="M279.05,426v.13a46.07,46.07,0,0,1-2.24,12.27,12.34,12.34,0,0,0-.36,3.44,8.83,8.83,0,0,0-2.29-2.9c-4.05-3.14-4.8-3.78-5.12-7.69s2-5.33,3.14-8.47c1.07-2.91-.06-5.83-3.15-9.25a12.91,12.91,0,0,1,9.07,7.67,12.33,12.33,0,0,1,.92,4C279,425.46,279.05,425.73,279.05,426Z"/><path class="cls-56" d="M285.67,425.83a7.66,7.66,0,0,1-3.88.95,10.34,10.34,0,0,1-2.75-.66V426c0-.26,0-.53,0-.79a12.33,12.33,0,0,0-.92-4,25.63,25.63,0,0,1,2.2-1.67,6.27,6.27,0,0,1,4.05-1.12c3,.21,5.39.33,5.72,1.24S288.9,424.28,285.67,425.83Z"/><path class="cls-56" d="M251,421.18a11.62,11.62,0,0,0-1,4c0,.27,0,.53,0,.8v.11a9.91,9.91,0,0,1-2.69.65,7.66,7.66,0,0,1-3.88-.95c-3.24-1.55-4.74-5.29-4.41-6.19s2.76-1,5.72-1.24a6.29,6.29,0,0,1,4.05,1.12A25.28,25.28,0,0,1,251,421.18Z"/><ellipse class="cls-57" cx="258.76" cy="447.8" rx="1.95" ry="2.93" transform="translate(-100.65 75.9) rotate(-14)"/><ellipse class="cls-57" cx="270.4" cy="447.8" rx="2.93" ry="1.95" transform="translate(-229.51 601.83) rotate(-76)"/><path class="cls-57" d="M256.75,431.48a1.93,1.93,0,0,1,0,.48.57.57,0,0,1-.39.47,2.28,2.28,0,0,1-2.85-1.51,2.11,2.11,0,0,1-.09-.49,2.26,2.26,0,0,1,0-.45.61.61,0,0,1,.42-.5,2.3,2.3,0,0,1,2.84,1.54,2.46,2.46,0,0,1,.08.46Z"/><path class="cls-57" d="M272.49,431.48a1.93,1.93,0,0,0,0,.48.56.56,0,0,0,.39.47,2.28,2.28,0,0,0,2.85-1.51,2.51,2.51,0,0,0,.09-.94.61.61,0,0,0-.42-.5,2.29,2.29,0,0,0-2.84,1.54,2.46,2.46,0,0,0-.08.46Z"/><path class="cls-58" d="M285.36,423.05a8.68,8.68,0,0,1-3.38,2.16l-.41.09a5.33,5.33,0,0,1-2.55-.1,12.83,12.83,0,0,0-.38-2.38,8.51,8.51,0,0,1,2.86-1.4,12.41,12.41,0,0,1,3.74,0C286.2,421.54,286.11,422.49,285.36,423.05Z"/><path class="cls-59" d="M281.79,426.78a10.34,10.34,0,0,1-2.75-.66V426c0-.26,0-.53,0-.79a12.33,12.33,0,0,0-.92-4,25.63,25.63,0,0,1,2.2-1.67C281.74,421.35,282.43,422.87,281.79,426.78Z"/><path class="cls-60" d="M282,425.21l-.41.09a5.33,5.33,0,0,1-2.55-.1,12.83,12.83,0,0,0-.38-2.38,8.51,8.51,0,0,1,2.86-1.4A7.49,7.49,0,0,1,282,425.21Z"/><path class="cls-58" d="M250.38,422.78a11.3,11.3,0,0,0-.4,2.44,5.37,5.37,0,0,1-2.48.08l-.41-.09a8.62,8.62,0,0,1-3.37-2.16c-.76-.56-.85-1.51.11-1.62a12.41,12.41,0,0,1,3.74,0A8.53,8.53,0,0,1,250.38,422.78Z"/><path class="cls-59" d="M251,421.18a11.62,11.62,0,0,0-1,4c0,.27,0,.53,0,.8v.11a9.91,9.91,0,0,1-2.69.65c-.1-.57-.16-1.09-.2-1.57,0-.25,0-.5,0-.73v-.13a.66.66,0,0,1,0-.14v-.42s0-.07,0-.1v-.06s0-.06,0-.09v-.14c0-.13,0-.26,0-.38s0-.06,0-.09l0-.17,0-.17c0-.06,0-.09,0-.14a0,0,0,0,1,0,0,.24.24,0,0,1,0-.08l.06-.24,0-.08a.14.14,0,0,1,0-.06l0-.09c0-.06,0-.11,0-.16h0l.11-.27v0a9.12,9.12,0,0,1,1.2-1.9A25.28,25.28,0,0,1,251,421.18Z"/><path class="cls-60" d="M250.38,422.78a11.3,11.3,0,0,0-.4,2.44,5.37,5.37,0,0,1-2.48.08l-.41-.09c0-.25,0-.5,0-.73v-.13a.66.66,0,0,1,0-.14v-.42s0-.07,0-.1v-.06s0-.06,0-.09v-.14c0-.13,0-.26,0-.38s0-.06,0-.09l0-.17,0-.17c0-.06,0-.09,0-.14a0,0,0,0,1,0,0,.24.24,0,0,1,0-.08l.06-.24,0-.08a.14.14,0,0,1,0-.06l0-.09c0-.06,0-.11,0-.16h0l.11-.27v0A8.53,8.53,0,0,1,250.38,422.78Z"/><path class="cls-61" d="M274.72,415.84c-.47,2-1.67,3.67-3.2,3.11-1.85-.68-2-1.49-1.73-2.3.22-.62.72-1.24.94-1.8.77-1.94,1.11-3.87,2.69-3.53a1,1,0,0,1,.49.29A5,5,0,0,1,274.72,415.84Z"/><path class="cls-62" d="M273.91,411.61c-.47,4.77-1.74,6.19-4.12,5,.23-.62.72-1.24.94-1.8.77-1.94,1.11-3.87,2.69-3.53A1,1,0,0,1,273.91,411.61Z"/><path class="cls-61" d="M254.36,415.84c.47,2,1.68,3.67,3.2,3.11,1.85-.68,2-1.49,1.73-2.3-.22-.62-.71-1.24-.93-1.8-.77-1.94-1.11-3.87-2.7-3.53a1,1,0,0,0-.48.29A5,5,0,0,0,254.36,415.84Z"/><path class="cls-62" d="M255.17,411.61c.48,4.77,1.75,6.19,4.12,5-.22-.62-.71-1.24-.93-1.8-.77-1.94-1.11-3.87-2.7-3.53A1.12,1.12,0,0,0,255.17,411.61Z"/></g><line class="cls-15" x1="707.06" y1="444.86" x2="796.54" y2="444.86"/><path class="cls-5" d="M833.55,511.13A14,14,0,0,1,819.43,525c-6.26,0-32-.6-38.34-.6a13.84,13.84,0,1,1,0-27.68,14.28,14.28,0,0,1,3.89.54,16.68,16.68,0,0,1,32.85.16,12.06,12.06,0,0,1,1.6-.1A14,14,0,0,1,833.55,511.13Z"/><path class="cls-5" d="M780.75,544.81a14,14,0,0,1-14.13,13.84c-6.26,0-32-.6-38.33-.6a13.84,13.84,0,1,1,0-27.68,13.83,13.83,0,0,1,3.88.54,16.68,16.68,0,0,1,32.85.15,14.17,14.17,0,0,1,1.6-.09A14,14,0,0,1,780.75,544.81Z"/><path class="cls-5" d="M164.4,517.5a14,14,0,0,1-14.13,13.83c-6.26,0-32-.6-38.34-.6a13.84,13.84,0,1,1,0-27.67,14.22,14.22,0,0,1,3.89.53,16.68,16.68,0,0,1,32.85.16,14.17,14.17,0,0,1,1.6-.09A14,14,0,0,1,164.4,517.5Z"/></g></svg>