<svg xmlns="http://www.w3.org/2000/svg" viewBox="0 0 445.25 412.89"><defs><style>.cls-1{fill:#f2e3e2;}.cls-2{fill:#eedfdd;}.cls-3{fill:#ee7f3c;}.cls-4{fill:#8f5f55;}.cls-5{fill:#f3b1cd;}.cls-6{fill:#f1a5c5;}.cls-7{fill:#ebb04c;}.cls-8{fill:#1d2e39;}.cls-9{fill:#fff;}.cls-10{fill:#dcc4b8;}.cls-11{fill:#ccb4aa;}</style></defs><title>chat</title><g id="tete"><path class="cls-1" d="M449.22,237.16a57.56,57.56,0,0,0-3.67,14.19c-2.6,20.83-10.28,79-10.28,79A161.91,161.91,0,0,1,274.78,470.84H238.2A161.91,161.91,0,0,1,77.72,330.36l-9.31-69.6a57.59,57.59,0,0,0-4-14.58c-47.21-113-27.87-170.73-7.79-179.65,19.09-8.48,81,10.77,103.22,84.28H350.11C372.33,77.3,445.34,51,464.43,59.48,484,68.16,492.32,128.72,449.22,237.16Z" transform="translate(-35.14 -57.95)"/><path class="cls-2" d="M449.22,237.16a57.56,57.56,0,0,0-3.67,14.19c-2.6,20.83-10.28,79-10.28,79A161.91,161.91,0,0,1,274.78,470.84H255.46v-320h94.65C372.33,77.3,445.34,51,464.43,59.48,484,68.16,492.32,128.72,449.22,237.16Z" transform="translate(-35.14 -57.95)"/><path class="cls-3" d="M253.88,150.81C233,159,186.06,175,168.68,200.48c-26.78,39.19-41.15,38.05-52.91,33.4-9.64-3.82-21,41.95-43.16,58.24l-4.2-31.36a57.7,57.7,0,0,0-4-14.58c-47.21-113-27.87-170.73-7.79-179.65,19.09-8.48,81,10.77,103.22,84.28Z" transform="translate(-35.14 -57.95)"/><path class="cls-4" d="M449.22,237.16a57.56,57.56,0,0,0-3.67,14.19c-1.13,9.07-3.23,25.22-5.23,40.57-56.6,36.5-86.69-7.15-86.69-25.82,0-20.62-20.62-55.25-44.54-61-20.2-4.87-38-29.75-55.21-54.26h96.23C372.33,77.3,445.34,51,464.43,59.48,484,68.16,492.32,128.72,449.22,237.16Z" transform="translate(-35.14 -57.95)"/><path class="cls-5" d="M65.76,97.17c8.72-23.72,58.48,17.4,66.75,49.56s-31.89,70.07-49.34,69.15S49.22,142.19,65.76,97.17Z" transform="translate(-35.14 -57.95)"/><path class="cls-6" d="M453.58,90.12c-8.71-23.73-69.58,24.45-77.85,56.61s31.89,70.07,49.34,69.15S470.12,135.14,453.58,90.12Z" transform="translate(-35.14 -57.95)"/><circle class="cls-7" cx="143.88" cy="207.87" r="31.94"/><circle class="cls-8" cx="143.66" cy="207.79" r="25.56"/><circle class="cls-9" cx="137.47" cy="196.66" r="12.78"/><circle class="cls-7" cx="295.64" cy="207.87" r="31.94"/><circle class="cls-8" cx="295.86" cy="207.79" r="25.56"/><circle class="cls-9" cx="289.27" cy="197.4" r="12.78"/><path class="cls-5" d="M276.76,348.92s-11.61,11.53-21.86,11.53c-12.32,0-21.77-11.53-21.77-11.53a17.65,17.65,0,0,1-17.65-17.64h0a17.65,17.65,0,0,1,17.65-17.65h43.63a17.65,17.65,0,0,1,17.64,17.65h0A17.64,17.64,0,0,1,276.76,348.92Z" transform="translate(-35.14 -57.95)"/><path class="cls-10" d="M255,391.34a37.7,37.7,0,0,1-75.36-1.87s4.59,33,37.71,34.62a32.68,32.68,0,0,0,6.95-.38c22.42-3.65,29.76-30.28,30.66-33.84C254.91,390.36,254.92,390.86,255,391.34Z" transform="translate(-35.14 -57.95)"/><path class="cls-11" d="M254.86,391.34a37.7,37.7,0,0,0,75.36-1.87s-4.59,33-37.7,34.62a32.74,32.74,0,0,1-7-.38c-22.42-3.65-29.76-30.28-30.65-33.84C254.91,390.36,254.89,390.86,254.86,391.34Z" transform="translate(-35.14 -57.95)"/><path class="cls-5" d="M283.29,426a40.79,40.79,0,0,1-56.82,0A37.73,37.73,0,0,0,255,391.34,37.71,37.71,0,0,0,283.29,426Z" transform="translate(-35.14 -57.95)"/><rect class="cls-5" x="218.49" y="302.44" width="2.45" height="45.7"/><path class="cls-6" d="M294.4,331.28a17.65,17.65,0,0,1-17.64,17.64S265.23,360.37,255,360.45V313.63h21.75A17.65,17.65,0,0,1,294.4,331.28Z" transform="translate(-35.14 -57.95)"/><rect class="cls-6" x="219.86" y="302.44" width="1.08" height="45.7"/><path class="cls-6" d="M283.29,426a40.59,40.59,0,0,1-28.42,11.54h0V392.77c0-.47.08-.95.1-1.43A37.71,37.71,0,0,0,283.29,426Z" transform="translate(-35.14 -57.95)"/><circle class="cls-8" cx="251.54" cy="309.91" r="1.4"/><circle class="cls-8" cx="266.49" cy="309.91" r="1.4"/><circle class="cls-8" cx="280.11" cy="309.91" r="1.4"/><circle class="cls-8" cx="259.11" cy="327.47" r="1.4"/><circle class="cls-8" cx="272.73" cy="327.47" r="1.4"/><circle class="cls-8" cx="159.35" cy="309.91" r="1.4"/><circle class="cls-8" cx="173.18" cy="309.81" r="1.4"/><circle class="cls-8" cx="187.92" cy="309.91" r="1.4"/><circle class="cls-8" cx="166.93" cy="327.47" r="1.4"/><circle class="cls-8" cx="180.55" cy="327.47" r="1.4"/><path class="cls-8" d="M301.34,366.85a98.77,98.77,0,0,1,33.07-30.77,86.45,86.45,0,0,1,21-8.42,89.65,89.65,0,0,1,22.47-2.73V325a89.21,89.21,0,0,0-22.36,3.05,86.45,86.45,0,0,0-20.78,8.67,97.72,97.72,0,0,0-32.24,30.91Z" transform="translate(-35.14 -57.95)"/><path class="cls-8" d="M315,367.27A98.79,98.79,0,0,1,357,350.48a87.27,87.27,0,0,1,22.66-.27,89.7,89.7,0,0,1,21.94,5.56l0,.08a89.77,89.77,0,0,0-22-5.22,86.05,86.05,0,0,0-22.5.61,97.7,97.7,0,0,0-41.22,17.2Z" transform="translate(-35.14 -57.95)"/><path class="cls-8" d="M395.23,388.5a89.66,89.66,0,0,0-20.71-9,86.5,86.5,0,0,0-22.26-3.37,97.64,97.64,0,0,0-43.62,9.68l-.59-1.28a98.54,98.54,0,0,1,44.23-9.11,86.92,86.92,0,0,1,22.35,3.74,89.41,89.41,0,0,1,20.6,9.34Z" transform="translate(-35.14 -57.95)"/><path class="cls-8" d="M207.36,367.65a97.63,97.63,0,0,0-32.24-30.91,86.45,86.45,0,0,0-20.78-8.67A89.21,89.21,0,0,0,132,325v-.09a89.65,89.65,0,0,1,22.47,2.73,86.45,86.45,0,0,1,21,8.42,98.77,98.77,0,0,1,33.07,30.77Z" transform="translate(-35.14 -57.95)"/><path class="cls-8" d="M194,368.44a97.7,97.7,0,0,0-41.22-17.2,86.05,86.05,0,0,0-22.5-.61,89.77,89.77,0,0,0-22,5.22l0-.08a89.7,89.7,0,0,1,21.94-5.56,87.26,87.26,0,0,1,22.66.27,98.79,98.79,0,0,1,41.94,16.79Z" transform="translate(-35.14 -57.95)"/><path class="cls-8" d="M201.25,385.81a97.59,97.59,0,0,0-43.61-9.67,86.94,86.94,0,0,0-22.25,3.38,89.52,89.52,0,0,0-20.69,9l0-.07a89.48,89.48,0,0,1,20.61-9.34,86.92,86.92,0,0,1,22.36-3.74,98.73,98.73,0,0,1,44.24,9.13Z" transform="translate(-35.14 -57.95)"/></g></svg>