<svg xmlns="http://www.w3.org/2000/svg" viewBox="0 0 969.95 853.94"><defs><style>.cls-1{fill:#f6ddb2;}.cls-2{fill:#e8c8a2;}.cls-3{fill:#b7946a;}.cls-4{fill:#b53857;}.cls-5{fill:#d8b37f;}.cls-6{fill:#5e5a60;}.cls-7{fill:#a6253e;}.cls-8{fill:#1a171b;}.cls-9{fill:#fff;}.cls-10{fill:#834640;}.cls-11{fill:#965a4d;}</style></defs><title>chien</title><g id="Calque_1" data-name="Calque 1"><path class="cls-1" d="M861.15,451v56.14C861.15,679.37,721.56,819,549.38,819H447.57a312.09,312.09,0,0,1-71.12-8.15c-137.92-32.18-240.66-155.9-240.66-303.63V451s-101.9-236.08-21-304.4C152,115.16,247.19,121,309.21,137.32c14.76,3.87,26.42,4.72,37.69,3.86,31.57-2.39,60.24-18.09,146-18.08C640.3,123.13,641,151.88,701,138.17s146.42-16.79,182.51,15.18C960.45,221.6,861.15,451,861.15,451Z" transform="translate(-16.64 -105.29)"/><path class="cls-2" d="M376.45,810.81c-137.92-32.18-240.66-155.9-240.66-303.63V451s-101.9-236.08-21-304.4C152,115.16,247.19,121,309.21,137.32c14.76,3.87,26.42,4.72,37.69,3.86-71.49,55.95-131.75,120-115.14,315.25C249.08,659.8,288.19,684.51,376.45,810.81Z" transform="translate(-16.64 -105.29)"/><path class="cls-3" d="M364.29,608.18H605.65A50.38,50.38,0,0,1,656,658.56V679A140.15,140.15,0,0,1,515.88,819.14H448.36A134.45,134.45,0,0,1,313.91,684.7V658.56a50.38,50.38,0,0,1,50.38-50.38Z"/><path class="cls-4" d="M475,662.1h19.89a64.68,64.68,0,0,1,64.68,64.68v57.89a69.28,69.28,0,0,1-69.28,69.28h-10.7a69.28,69.28,0,0,1-69.28-69.28V726.78A64.68,64.68,0,0,1,475,662.1Z"/><path class="cls-5" d="M715.43,746.08c0,50.88-52.93,92.12-118.22,92.12-28.3,0-60.52-9.57-80-27a25,25,0,0,0-33.35-.08c-19.58,17-50.94,27.06-79,27.06-65.27,0-118.19-41.24-118.19-92.12s52.93-80.75,118.21-80.75c39.64,0,74.7,24.83,96.14,48.14,21.43-23.31,56.5-48.14,96.14-48.14C662.51,665.33,715.43,695.19,715.43,746.08Z" transform="translate(-16.64 -105.29)"/><path class="cls-6" d="M598.12,662.94c0,23.21-32.12,50.55-63.44,63.71-11.7,4.94-23.3,7.87-33.07,7.87-28.16,0-96.52-39.7-96.52-71.58,0-25.34,27.31-46.85,65.3-54.6a156.21,156.21,0,0,1,31.22-3.09C554.92,605.25,598.12,631.07,598.12,662.94Z" transform="translate(-16.64 -105.29)"/><path class="cls-7" d="M576.23,836.32V869c-22.15-3.43-44.24-12.12-59-25.32l-.12-.11v24a16,16,0,0,1-32.07,0V842.7c-.4.3-.78.62-1.16.95-14.54,12.63-35.57,21.41-56.9,25.09V836c21.33-3.69,42.36-12.48,56.9-25.12.38-.32.76-.64,1.16-.93a24.93,24.93,0,0,1,32.07.91l.12.1C532,824.2,554.08,832.89,576.23,836.32Z" transform="translate(-16.64 -105.29)"/><path class="cls-8" d="M390.1,452v38a53.5,53.5,0,1,1-107,0V452a53.51,53.51,0,0,1,45.19-52.85,54.15,54.15,0,0,1,8.3-.64A53.52,53.52,0,0,1,390.1,452Z" transform="translate(-16.64 -105.29)"/><path class="cls-6" d="M390.1,452v26.71a30.9,30.9,0,1,1-61.8,0V399.16a54.15,54.15,0,0,1,8.3-.64A53.52,53.52,0,0,1,390.1,452Z" transform="translate(-16.64 -105.29)"/><circle class="cls-9" cx="319.97" cy="334.1" r="22.59"/><path class="cls-8" d="M715.43,452v38a53.5,53.5,0,1,1-107,0V452a53.52,53.52,0,0,1,45.19-52.85,54.18,54.18,0,0,1,8.31-.64A53.5,53.5,0,0,1,715.43,452Z" transform="translate(-16.64 -105.29)"/><path class="cls-6" d="M715.43,452v26.71a30.9,30.9,0,0,1-61.8,0V399.16a54.18,54.18,0,0,1,8.31-.64A53.5,53.5,0,0,1,715.43,452Z" transform="translate(-16.64 -105.29)"/><circle class="cls-9" cx="645.3" cy="334.1" r="22.59"/><path class="cls-8" d="M534.68,726.65c-11.7,4.94-23.3,7.87-33.07,7.87-28.16,0-96.52-39.7-96.52-71.58,0-25.34,27.31-46.85,65.3-54.6C448.45,642.58,441.66,680.5,534.68,726.65Z" transform="translate(-16.64 -105.29)"/><circle class="cls-3" cx="339.05" cy="627.55" r="3.17"/><circle class="cls-3" cx="320.45" cy="663.99" r="4.28"/><circle class="cls-3" cx="374.35" cy="646.47" r="2.69"/><circle class="cls-3" cx="371.93" cy="619.55" r="2.41"/><circle class="cls-3" cx="375.69" cy="695.75" r="1.34"/><circle class="cls-3" cx="344.46" cy="692.6" r="3.16"/><circle class="cls-3" cx="584.18" cy="646.47" r="2.69"/><circle class="cls-3" cx="608.35" cy="607.08" r="1.1"/><circle class="cls-3" cx="613.19" cy="637.09" r="3.2"/><circle class="cls-3" cx="637.33" cy="655.27" r="2.63"/><circle class="cls-3" cx="604.96" cy="668.27" r="3.39"/><circle class="cls-3" cx="621.43" cy="685.59" r="3.85"/><circle class="cls-3" cx="581.49" cy="678.72" r="2.69"/><circle class="cls-3" cx="650.97" cy="674.86" r="1.17"/></g><g id="Calque_3" data-name="Calque 3"><path class="cls-10" d="M329.84,141.06C209.72,171.5,186.68,371.3,176.5,445.63S128.64,584.09,95,584.09c-33.3,0-42.6-67-43.75-161.35l0-2.58c-1-95.7-34.62-99.78-34.62-99.78,9.17-56,46.92-144.24,114-192.44,58.87-42.26,138.29-15.61,176.62,1.7A248.91,248.91,0,0,1,329.84,141.06Z" transform="translate(-16.64 -105.29)"/><path class="cls-11" d="M307.29,129.64c-72.51-8.36-165.52-8.81-256,293.1l0-2.58c-1-95.7-34.62-99.78-34.62-99.78,9.17-56,46.92-144.24,114-192.44C189.54,85.68,269,112.33,307.29,129.64Z" transform="translate(-16.64 -105.29)"/><path class="cls-10" d="M673.38,141.06C793.5,171.5,816.54,371.3,826.72,445.63s47.86,138.46,81.46,138.46c33.3,0,42.6-67,43.75-161.35l0-2.58c1-95.7,34.62-99.78,34.62-99.78-9.17-56-46.92-144.24-114-192.44-58.87-42.26-138.29-15.61-176.62,1.7A248.91,248.91,0,0,0,673.38,141.06Z" transform="translate(-16.64 -105.29)"/><path class="cls-11" d="M695.93,129.64c72.51-8.36,165.52-8.81,256,293.1l0-2.58c1-95.7,34.62-99.78,34.62-99.78-9.17-56-46.92-144.24-114-192.44C813.68,85.68,734.26,112.33,695.93,129.64Z" transform="translate(-16.64 -105.29)"/><ellipse class="cls-2" cx="561.81" cy="148.59" rx="8.73" ry="6.38"/><circle class="cls-2" cx="583.63" cy="130.47" r="5.03"/><circle class="cls-2" cx="593.87" cy="160.17" r="5.2"/><circle class="cls-2" cx="552.25" cy="111.17" r="7.22"/><ellipse class="cls-2" cx="628.27" cy="143.73" rx="8.73" ry="4.87"/><circle class="cls-2" cx="606.96" cy="118.22" r="4.2"/><circle class="cls-2" cx="579.18" cy="104.21" r="4.45"/><circle class="cls-2" cx="600.92" cy="98.42" r="1.85"/><circle class="cls-2" cx="604.44" cy="140.54" r="1.68"/><circle class="cls-2" cx="568.02" cy="127.95" r="2.52"/><path class="cls-2" d="M595.82,260.46v0Z" transform="translate(-16.64 -105.29)"/><ellipse class="cls-2" cx="626.83" cy="120.57" rx="4.13" ry="2.18"/></g></svg>