<svg xmlns="http://www.w3.org/2000/svg" viewBox="0 0 972.89 813.5"><defs><style>.cls-1{fill:#7b7a87;}.cls-2{fill:#6f6f7a;}.cls-3{fill:#969599;}.cls-4{fill:#cccccb;}.cls-5{fill:#e5e5e6;}.cls-6{fill:#717080;}.cls-7{fill:#1a171b;}</style></defs><title>elephant</title><g id="Calque_4" data-name="Calque 4"><path class="cls-1" d="M626.89,592.65a190.4,190.4,0,0,1-51.51-7.39c16.46-51.18,43.22-60.71,43.22-60.71-11.8-20.91-8.57-38.8-7.49-63.65,1.15-26.36,46.2-88,47-113.39.84-25.2-7.33-36.38-7.33-55.65,0-29.4,15.09-51.6,2-75.74A171,171,0,0,0,583.2,147c61.16-21.89,123.44-33.39,168.22-30.15,56.66,4.09,90.51,43.89,126.68,70.45C926.77,223,980,250.75,984.18,281,1001.1,403.45,817.16,592.65,626.89,592.65Z" transform="translate(-12.38 -116.3)"/><path class="cls-2" d="M982.32,325.56c-3.69-17-10.45-43-18.16-47.73-11.64-7.16-39.25-17.15-94.83-33s-102.07-43.1-130.65-45.37c-25.24-2-49.95,8.37-83.51,21.77a42.85,42.85,0,0,0-2.37-5.09c-.5-.92-1-1.83-1.52-2.73s-1-1.81-1.56-2.7q-1.43-2.41-2.93-4.77l-.83-1.29c-.49-.75-1-1.5-1.49-2.24s-.82-1.22-1.24-1.82a6,6,0,0,0-.36-.52c-.55-.8-1.11-1.59-1.68-2.38s-1.21-1.67-1.83-2.49q-3-4-6.29-7.87c-.5-.6-1-1.2-1.53-1.79s-.93-1.07-1.41-1.6-1.12-1.26-1.7-1.88c-.11-.12-.22-.25-.34-.37-.58-.63-1.17-1.26-1.77-1.88s-1.05-1.1-1.59-1.65c-.3-.31-.61-.63-.93-.94s-.73-.74-1.1-1.1q-1.55-1.53-3.12-3c-.42-.41-.85-.8-1.28-1.19-1.26-1.16-2.53-2.3-3.83-3.42q-2.31-2-4.69-3.91c-.69-.57-1.39-1.12-2.09-1.66l-.15-.12c-.73-.57-1.46-1.13-2.2-1.68s-1.26-1-1.89-1.41q-3.9-2.85-8-5.46c-.58-.39-1.17-.76-1.76-1.13-.79-.51-1.59-1-2.4-1.49s-1.78-1.07-2.68-1.59-1.81-1-2.72-1.55-1.82-1-2.74-1.5c61.16-21.89,123.44-33.39,168.22-30.15,56.66,4.09,90.51,43.89,126.68,70.45C926.77,223,980,250.75,984.18,281,986.13,295.1,985.41,310.08,982.32,325.56Z" transform="translate(-12.38 -116.3)"/><path class="cls-3" d="M923,332.42c0,68.07-72.27,138.64-125.15,167.58C755.32,523.29,672.43,552.35,663,522.73c-6.47-20.25,3-30,3.55-35.71.85-9-8.3-18-8.3-32.67,0-42.65,37.16-54.17,36.52-92.83-.26-16-4.44-30.46-3.6-48,.71-15,5.39-30.74,1.44-46.62,64.22-24,87.74-2.27,118,8.6C867.25,296,923,302.31,923,332.42Z" transform="translate(-12.38 -116.3)"/><path class="cls-1" d="M370.75,592.65a190.4,190.4,0,0,0,51.51-7.39C405.8,534.08,379,524.55,379,524.55c11.8-20.91,8.57-38.8,7.49-63.65-1.15-26.36-46.2-88-47-113.39-.84-25.2,7.33-36.38,7.33-55.65,0-29.4-15.09-51.6-2-75.74A171,171,0,0,1,414.44,147C353.28,125.1,291,113.6,246.22,116.84c-56.66,4.09-90.51,43.89-126.68,70.45C70.87,223,17.63,250.75,13.46,281-3.46,403.45,180.48,592.65,370.75,592.65Z" transform="translate(-12.38 -116.3)"/><path class="cls-2" d="M15.32,325.56c3.69-17,10.45-43,18.16-47.73,11.64-7.16,39.25-17.15,94.83-33S230.38,201.71,259,199.44c25.24-2,50,8.37,83.51,21.77a42.85,42.85,0,0,1,2.37-5.09c.5-.92,1-1.83,1.52-2.73s1-1.81,1.56-2.7q1.43-2.41,2.93-4.77l.83-1.29c.49-.75,1-1.5,1.49-2.24s.82-1.22,1.24-1.82a6,6,0,0,1,.36-.52c.55-.8,1.11-1.59,1.68-2.38s1.21-1.67,1.83-2.49q3-4,6.29-7.87c.5-.6,1-1.2,1.53-1.79s.93-1.07,1.41-1.6,1.12-1.26,1.7-1.88c.11-.12.22-.25.34-.37.58-.63,1.17-1.26,1.77-1.88s1.05-1.1,1.59-1.65c.3-.31.61-.63.93-.94l1.1-1.1q1.55-1.53,3.12-3c.42-.41.85-.8,1.28-1.19,1.26-1.16,2.53-2.3,3.83-3.42q2.31-2,4.69-3.91c.69-.57,1.39-1.12,2.09-1.66l.15-.12c.73-.57,1.46-1.13,2.2-1.68s1.26-1,1.89-1.41q3.9-2.85,7.95-5.46c.58-.39,1.17-.76,1.76-1.13.79-.51,1.59-1,2.4-1.49s1.78-1.07,2.68-1.59,1.81-1,2.72-1.55,1.82-1,2.74-1.5C353.28,125.1,291,113.6,246.22,116.84c-56.66,4.09-90.51,43.89-126.68,70.45C70.87,223,17.63,250.75,13.46,281,11.51,295.1,12.23,310.08,15.32,325.56Z" transform="translate(-12.38 -116.3)"/><path class="cls-3" d="M74.6,332.42c0,68.07,72.27,138.64,125.15,167.58,42.57,23.29,125.46,52.35,134.92,22.73,6.47-20.25-3-30-3.55-35.71-.85-9,8.3-18,8.3-32.67,0-42.65-37.16-54.17-36.52-92.83.26-16,4.44-30.46,3.6-48-.71-15-5.39-30.74-1.44-46.62-64.22-24-87.74-2.27-118,8.6C130.39,296,74.6,302.31,74.6,332.42Z" transform="translate(-12.38 -116.3)"/><path class="cls-1" d="M439.57,801.23c0,69.16,57.21,128.57,132.59,128.57s138.78-55.19,135.74-151l1-.27,1.17-.33a14.4,14.4,0,0,0,10.28-13.8v-8.69a14.39,14.39,0,0,0-14.39-14.39H622.45a14.4,14.4,0,0,0-14.4,14.39v8.69c0,6.42,4.61,11,10.41,12.84l1.74.36c0,29.81-12.83,37.31-28.66,37.31a28.65,28.65,0,0,1-28.65-28.65l0-112.1c1.79-130.43,55.75-149.65,55.75-149.65-11.8-20.91-8.57-38.8-7.49-63.65,1.15-26.36,46.2-88,47-113.39.84-25.2-7.33-36.38-7.33-55.65,0-29.4,15.09-51.6,2-75.74A170.33,170.33,0,0,0,503,127h-8.36a170.33,170.33,0,0,0-149.8,89.16c-13.12,24.14,2,46.34,2,75.74,0,19.27-8.17,30.45-7.33,55.65.85,25.35,45.9,87,47,113.39,1.08,24.85,4.31,42.74-7.49,63.65,0,0,54,19.22,55.75,149.65Z" transform="translate(-12.38 -116.3)"/><path class="cls-4" d="M427.35,604.11a132.06,132.06,0,0,1-41.73,43.7C355.05,668,276.36,665,259.88,635.6a7.22,7.22,0,0,1,1.69-9h0a5.8,5.8,0,0,1,1.22-.79,4.25,4.25,0,0,1,.49-.21h0a.88.88,0,0,1,.23-.07,2.8,2.8,0,0,1,.41-.13l.09,0a5.77,5.77,0,0,1,.6-.1,4.87,4.87,0,0,1,.66,0,6.16,6.16,0,0,1,1.33.15c86.41,18.94,110-84.54,112.4-100.85,0,0,14.52,5.17,28.74,28.35C415,564.72,422.22,581.22,427.35,604.11Z" transform="translate(-12.38 -116.3)"/><path class="cls-5" d="M407.78,552.9c-11.06,48.55-62.67,85.58-88.8,85.27-24.75-.3-35.74,1.74-57.4-11.55a5.8,5.8,0,0,1,1.22-.79,4.25,4.25,0,0,1,.49-.21h0a.88.88,0,0,1,.23-.07,2.8,2.8,0,0,1,.41-.13l.09,0a5.77,5.77,0,0,1,.6-.1,4.87,4.87,0,0,1,.66,0,6.16,6.16,0,0,1,1.33.15c86.41,18.94,110-84.54,112.4-100.85C379,524.55,393.56,529.72,407.78,552.9Z" transform="translate(-12.38 -116.3)"/><path class="cls-4" d="M737.79,635.86c-16.48,29.38-95.17,32.44-125.74,12.21a132.16,132.16,0,0,1-41.8-43.81c5.14-22.94,12.32-39.48,19.59-51.32C602.29,532.62,615,526.12,618,524.82h.68c2.41,16.34,26,119.78,112.4,100.84a6.16,6.16,0,0,1,1.33-.15,4.87,4.87,0,0,1,.66,0,5.77,5.77,0,0,1,.6.1l.09,0,.42.13a.81.81,0,0,1,.22.07h0a4.25,4.25,0,0,1,.49.21,5.8,5.8,0,0,1,1.22.79h0A7.22,7.22,0,0,1,737.79,635.86Z" transform="translate(-12.38 -116.3)"/><path class="cls-5" d="M736.09,626.88c-21.66,13.29-32.65,11.25-57.4,11.55-26.17.31-77.9-36.83-88.85-85.49C602.29,532.62,615,526.12,618,524.82h.68c2.41,16.34,26,119.78,112.4,100.84a6.16,6.16,0,0,1,1.33-.15,4.87,4.87,0,0,1,.66,0,5.77,5.77,0,0,1,.6.1l.09,0,.42.13a.81.81,0,0,1,.22.07h0a4.25,4.25,0,0,1,.49.21A5.8,5.8,0,0,1,736.09,626.88Z" transform="translate(-12.38 -116.3)"/><path class="cls-6" d="M387.75,486.64c-.09-7.95-.81-16.35-1.22-25.74-1.15-26.36-46.2-88-47-113.39-.84-25.2,7.33-36.38,7.33-55.65a95.89,95.89,0,0,0-.64-10.86c31.2,21.43,65.31,45.75,70.74,59.07C421.32,350.87,400.31,442.81,387.75,486.64Z" transform="translate(-12.38 -116.3)"/><path class="cls-2" d="M611.11,460.9c-1.08,24.85-4.31,42.74,7.49,63.65,0,0-54,19.22-55.75,149.65l0,112.1A28.65,28.65,0,0,0,591.54,815c15.81,0,28.63-7.48,28.66-37.22h24.22s10.13,57.63-64.64,57.63c-55.47,0-66.79-69-66.07-130.38a27.17,27.17,0,0,0-11.41-1.63c-5.61.29-10.45,2-12.64,4.53a17,17,0,0,1-25.59-22.39c10.14-11.59,27.19-17.54,45.61-15.94q2.86.26,5.6.73c.55-7.31,1.2-14.23,1.88-20.57-10.94-2.5-28.92-2.14-39.57,2.39a17,17,0,1,1-13.3-31.3c14.95-6.35,38.36-8.49,57.64-4.73,1.34-7.34,2.78-14,4.3-20.1-17.7-4.7-44.79-4.54-57.3,1.13a17,17,0,0,1-14.05-31c20.38-9.25,55.85-9.94,81.62-2.61,4-10.36,8-18.86,11.34-27.25,9.35-23.37-8.56-37.39-10.9-68.54s30.38-56.86,42.06-95,3.11-53,0-83.34,15.58-30.37,3.11-69.32c-10.4-32.5-61.5-62.84-111.17-91.46a173.09,173.09,0,0,1,23.7-1.63H503a170.33,170.33,0,0,1,149.8,89.16c13.12,24.14-2,46.34-2,75.74,0,19.27,8.17,30.45,7.33,55.65C657.31,372.86,612.26,434.54,611.11,460.9Z" transform="translate(-12.38 -116.3)"/><path class="cls-7" d="M589.37,388.27a13,13,0,0,1-12.59-9.8c-3.29-12.94.71-22.17,4.65-27.64,7.92-11,21.92-15.74,31.5-16.45a13,13,0,1,1,1.92,25.93c-3.63.26-9.94,2.4-12.32,5.71-.46.64-1.54,2.14-.55,6a13,13,0,0,1-9.4,15.8A12.68,12.68,0,0,1,589.37,388.27Z" transform="translate(-12.38 -116.3)"/><path class="cls-7" d="M395.69,388.27a13,13,0,0,0,12.59-9.8c3.29-12.94-.71-22.17-4.65-27.64-7.93-11-21.93-15.74-31.51-16.45a13,13,0,0,0-1.92,25.93c3.64.26,9.95,2.4,12.33,5.71.46.64,1.54,2.14.55,6a13,13,0,0,0,9.4,15.8A12.68,12.68,0,0,0,395.69,388.27Z" transform="translate(-12.38 -116.3)"/></g></svg>