<svg xmlns="http://www.w3.org/2000/svg" viewBox="0 0 960.93 944.74"><defs><style>.cls-1{fill:#dcd9dc;}.cls-2{fill:#edebed;}.cls-3{fill:#fff;}.cls-4{fill:#4b404f;}.cls-5{fill:#6f6571;}.cls-6{fill:#5d5360;}</style></defs><title>panda</title><g id="Calque_4" data-name="Calque 4"><path class="cls-1" d="M947.14,542.36c0,236.27-199.22,433.51-435.48,433.51a462.58,462.58,0,0,1-54.48-3.23c-213.47-25.33-394.29-197.06-394.29-415,0-206.08,156.26-384.71,353-427a421.62,421.62,0,0,1,88.72-9.47C740.82,121.18,947.14,306.1,947.14,542.36Z" transform="translate(-24.1 -31.13)"/><path class="cls-2" d="M947.14,542.36c0,236.27-199.22,433.51-435.48,433.51a462.58,462.58,0,0,1-54.48-3.23c-155.28-70-258.82-242.43-258.82-424.11,0-161.56,86.95-328.47,217.49-417.88a421.62,421.62,0,0,1,88.72-9.47C740.82,121.18,947.14,306.1,947.14,542.36Z" transform="translate(-24.1 -31.13)"/><path class="cls-3" d="M620.55,828.05c.07,1,.09,2.05.09,3.07,0,49.44-62.07,89.16-111.51,89.16s-118.8-40.08-118.8-89.52a53,53,0,0,1,.93-9.85c-23-7.15-38-19.51-38-40.8,0-51.93,82.12-65.58,159.14-65.58S665,734.27,665,786.2C665,812.33,647.61,823.45,620.55,828.05Z" transform="translate(-24.1 -31.13)"/><path class="cls-4" d="M953.9,296.67c-12.36,16.89-33.26,33.78-58.69,48.8a418.23,418.23,0,0,0-31.64-48c-41.1-54-95.14-98.19-157-128.86a457.66,457.66,0,0,0-56.77-23.5,365.44,365.44,0,0,1,40.3-58.61c53.37-63.54,158.17-73.62,224.41-23.64S1013.34,215.49,953.9,296.67Z" transform="translate(-24.1 -31.13)"/><path class="cls-5" d="M897.36,266.22c-7.65,10.46-19.49,21.21-33.79,31.21-41.1-54-95.14-98.19-157-128.86a321.12,321.12,0,0,1,27-37.16c37.35-44.47,99.83-58,146.19-23S939,209.4,897.36,266.22Z" transform="translate(-24.1 -31.13)"/><path class="cls-4" d="M360.18,146.6a443.5,443.5,0,0,0-56,24.61A461.34,461.34,0,0,0,150.94,301.1a453.56,453.56,0,0,0-31.46,47.58c-27.93-15.8-51-33.91-64.25-52C-4.2,215.49,28.42,112.8,94.65,62.82s171-39.9,224.41,23.64A363.5,363.5,0,0,1,360.18,146.6Z" transform="translate(-24.1 -31.13)"/><path class="cls-5" d="M304.22,171.21A461.34,461.34,0,0,0,150.94,301.1c-16.7-11-30.57-23.13-39.17-34.88C70.16,209.4,83,143.35,129.38,108.37s108.84-21.43,146.19,23A322,322,0,0,1,304.22,171.21Z" transform="translate(-24.1 -31.13)"/><path class="cls-4" d="M831.27,493.12c41.19,71.35,29.8,156.52-25.53,194-68.19,46.25-155,13-196.21-58.32S574.31,468,643.9,428.44C706.57,392.8,790.08,421.77,831.27,493.12Z" transform="translate(-24.1 -31.13)"/><path class="cls-6" d="M737.69,536v14.31a46.84,46.84,0,0,1-93.68,0V536a46.84,46.84,0,0,1,93.68,0Z" transform="translate(-24.1 -31.13)"/><path class="cls-5" d="M665,786.2c0,20.48-6,36.2-17.69,46.7-22.12,19.8-57.67,15.84-95.31,11.64-9.93-1.1-20.09-2.24-30-2.92-5.9-.41-11.72-.67-17.37-.67-3.49,0-7,.11-10.53.3-12.51.66-25.18,2.34-37.52,4-14.46,1.93-28.57,3.81-41.59,3.81-16.74,0-31.68-3.12-43.26-13.25C359.3,825,353.29,808.38,353.29,785a16.56,16.56,0,0,1,33.12,0c0,13,2.37,21.73,7.08,25.85,9.26,8.11,34.37,4.76,58.64,1.52,12.24-1.63,25.72-3.43,39.42-4.18V770.58a16.56,16.56,0,1,1,33.12,0v38c10.41.74,20.8,1.9,31,3,28.75,3.21,58.47,6.52,69.56-3.41,1.64-1.46,6.66-5.94,6.66-22a16.56,16.56,0,1,1,33.11,0Z" transform="translate(-24.1 -31.13)"/><path class="cls-6" d="M583.78,719.22c0,17.59-14.29,34.66-32.36,46.24-14,9-30.37,14.65-44,14.65-31.25,0-77.29-26.66-77.29-57.92,0-17.23,14-30.08,31.82-38.12a115.78,115.78,0,0,1,45.47-9.91C538.63,674.16,583.78,688,583.78,719.22Z" transform="translate(-24.1 -31.13)"/><path class="cls-4" d="M551.42,765.46c-14,9-30.37,14.65-44,14.65-31.25,0-77.29-26.66-77.29-57.92,0-17.23,14-30.08,31.82-38.12-3.32,17.77-2.66,36.37,20.25,56.31C508.3,763.14,523,765.06,551.42,765.46Z" transform="translate(-24.1 -31.13)"/><path class="cls-5" d="M737.69,536v7.09a23.42,23.42,0,0,1-46.84,0V489.19A46.84,46.84,0,0,1,737.69,536Z" transform="translate(-24.1 -31.13)"/><path class="cls-4" d="M182.59,493.12c-41.19,71.35-29.8,156.52,25.54,194,68.18,46.25,155,13,196.21-58.32S439.55,468,370,428.44C307.3,392.8,223.78,421.77,182.59,493.12Z" transform="translate(-24.1 -31.13)"/><path class="cls-6" d="M369.85,536v14.31a46.84,46.84,0,0,1-93.68,0V536a46.84,46.84,0,0,1,93.68,0Z" transform="translate(-24.1 -31.13)"/><path class="cls-5" d="M369.85,536v7.09a23.42,23.42,0,0,1-46.84,0V489.19A46.84,46.84,0,0,1,369.85,536Z" transform="translate(-24.1 -31.13)"/><circle class="cls-3" cx="668" cy="488.57" r="15.45"/><circle class="cls-3" cx="298.91" cy="488.57" r="15.45"/></g></svg>