<svg xmlns="http://www.w3.org/2000/svg" viewBox="0 0 927.87 903.21"><defs><style>.cls-1{fill:#c9c6ca;}.cls-2{fill:#c0bcc1;}.cls-3{fill:#ada7af;}.cls-4{fill:#5d5360;}.cls-5{fill:#6f6571;}.cls-6{fill:#fff;}.cls-7{fill:#f6ddb2;}.cls-8{fill:#ebc99c;}.cls-9{fill:#9c969f;}</style></defs><title>souris</title><g id="Calque_4" data-name="Calque 4"><path class="cls-1" d="M872.58,627.64c0,197.53-172.74,296.21-370.27,296.21S144.65,817.29,144.65,619.76s169.94-427,367.47-427S872.58,430.11,872.58,627.64Z" transform="translate(-44.22 -48.4)"/><path class="cls-2" d="M258.28,619.76c0,109.9,49,214.34,123.64,289.62C243.62,874.11,144.66,775,144.66,619.76c0-171.58,128.2-367.24,291.35-415.69C333,323.73,258.28,499.73,258.28,619.76Z" transform="translate(-44.22 -48.4)"/><path class="cls-2" d="M924.05,233.66c0,77.78-58.74,173.13-132,209.57q-8.45-18.18-18.28-35.7c-33.06-58.92-77.35-111.37-128.92-148.81a331.55,331.55,0,0,0-63.12-36.3c29.7-87.51,98.77-166.81,197.1-166.81S924.05,135.32,924.05,233.66Z" transform="translate(-44.22 -48.4)"/><path class="cls-3" d="M929.3,233.74c0,70.08-51.92,157.78-120.31,166.58C775.93,341.4,731.63,289,680.06,251.5a99.48,99.48,0,0,1,5-27.69c22.29-65.73,74.18-125.29,148-125.29S929.3,159.88,929.3,233.74Z" transform="translate(-44.22 -48.4)"/><path class="cls-2" d="M398.86,217.86A352.05,352.05,0,0,0,335,255.16c-50.93,37.17-94.88,88.16-127.67,145.33q-10.11,17.64-18.76,36c-73.63-36.13-132.84-131.92-132.84-210,0-98.34,46.86-178,145.19-178S368.32,127.7,398,215.21C398.3,216.1,398.58,217,398.86,217.86Z" transform="translate(-44.22 -48.4)"/><path class="cls-3" d="M335,255.16c-50.93,37.17-94.88,88.16-127.67,145.33-69.06-7.81-121.68-96.21-121.68-166.75,0-73.86,22.37-135.22,96.23-135.22s125.74,59.56,148,125.29A101.28,101.28,0,0,1,335,255.16Z" transform="translate(-44.22 -48.4)"/><path class="cls-4" d="M713.05,602.22v16.63a54.41,54.41,0,0,1-108.82,0V602.22a54.41,54.41,0,0,1,108.82,0Z" transform="translate(-44.22 -48.4)"/><path class="cls-5" d="M713.05,602.22v8.23a27.21,27.21,0,1,1-54.41,0V547.81a54.42,54.42,0,0,1,54.41,54.41Z" transform="translate(-44.22 -48.4)"/><path class="cls-4" d="M411.78,601.06v16.63a54.41,54.41,0,1,1-108.82,0V601.06a54.41,54.41,0,1,1,108.82,0Z" transform="translate(-44.22 -48.4)"/><path class="cls-5" d="M411.78,601.06v8.23a27.21,27.21,0,1,1-54.41,0V546.65a54.41,54.41,0,0,1,54.41,54.41Z" transform="translate(-44.22 -48.4)"/><circle class="cls-6" cx="615.87" cy="534.87" r="17.94"/><circle class="cls-6" cx="313.15" cy="533.71" r="17.94"/><path class="cls-7" d="M581.77,790.21c0,22.61-23.47,48.94-48,61-8.56,4.21-17.24,6.7-25.12,6.7-30.47,0-72.6-35.18-72.6-65.66,0-26.32,29.82-50.69,57.58-56.83A59.47,59.47,0,0,1,506.42,734C536.9,734,581.77,759.74,581.77,790.21Z" transform="translate(-44.22 -48.4)"/><path class="cls-8" d="M533.73,851.26c-8.56,4.21-17.24,6.7-25.12,6.7-30.47,0-72.6-35.18-72.6-65.66,0-26.32,29.82-50.69,57.58-56.83-13.81,23.85-23.63,52.29-1.22,79.18A194,194,0,0,0,533.73,851.26Z" transform="translate(-44.22 -48.4)"/><path class="cls-2" d="M615,904.78a19.93,19.93,0,0,1-.21,2.88c-3.34,24.52-49.18,43.94-105.24,43.94-55.76,0-101.42-19.22-105.19-43.56a19.73,19.73,0,0,1-.26-3.26c0-9.27,6.06-17.91,16.52-25.17,4.91,6.61,11.76,11.09,20.44,13.33,18,4.65,41.16-1,57.72-14.06a15.68,15.68,0,0,1,19.87.37c14.68,12.5,37.37,17.49,57.84,12.69,9.84-2.3,17.73-6.73,22.11-12.24C609,886.94,615,895.54,615,904.78Z" transform="translate(-44.22 -48.4)"/><path class="cls-3" d="M630,887.8a52.52,52.52,0,0,1-15.23,19.86c-8.28,6.84-18.91,12-31.15,14.82-26.06,6.11-53.89,1.48-75.38-12.06a105.43,105.43,0,0,1-54,15.48,84.1,84.1,0,0,1-21-2.59,67.53,67.53,0,0,1-46.3-40,15.68,15.68,0,1,1,28.92-12.11,39.87,39.87,0,0,0,4.79,8.46c4.91,6.61,11.76,11.09,20.44,13.33,18,4.65,41.16-1,57.72-14.06a15.68,15.68,0,0,1,19.87.37c14.68,12.5,37.37,17.49,57.84,12.69,9.84-2.3,17.73-6.73,22.11-12.24a18.41,18.41,0,0,0,2.59-4.26A15.68,15.68,0,0,1,630,887.8Z" transform="translate(-44.22 -48.4)"/></g><g id="Calque_2" data-name="Calque 2"><path class="cls-9" d="M958.16,792.54a14.12,14.12,0,0,1-3.21-.37c-100.53-23.75-266.7-15.37-268.37-15.28a13.94,13.94,0,0,1-1.46-27.84c7-.37,171.8-8.68,276.24,16a13.94,13.94,0,0,1-3.2,27.51Z" transform="translate(-44.22 -48.4)"/><path class="cls-9" d="M899.78,893.11a13.93,13.93,0,0,1-5.73-1.24C789.61,844.72,651.77,820.19,650.39,820a13.94,13.94,0,1,1,4.82-27.46c5.77,1,142.61,25.35,250.32,74a13.94,13.94,0,0,1-5.75,26.65Z" transform="translate(-44.22 -48.4)"/><path class="cls-9" d="M58.15,792.54a14.21,14.21,0,0,0,3.22-.37c100.53-23.75,266.7-15.37,268.37-15.28a13.94,13.94,0,1,0,1.46-27.84c-7-.37-171.8-8.68-276.24,16a13.94,13.94,0,0,0,3.19,27.51Z" transform="translate(-44.22 -48.4)"/><path class="cls-9" d="M116.53,893.11a13.9,13.9,0,0,0,5.73-1.24C226.71,844.72,364.54,820.19,365.93,820a13.94,13.94,0,0,0-4.82-27.46c-5.77,1-142.62,25.35-250.32,74a13.94,13.94,0,0,0,5.74,26.65Z" transform="translate(-44.22 -48.4)"/></g></svg>