<svg xmlns="http://www.w3.org/2000/svg" viewBox="0 0 981.52 877.05"><defs><style>.cls-1{fill:#e6e1d6;}.cls-2{fill:#db8a8c;}.cls-3,.cls-6{fill:#f19a9a;}.cls-4{fill:#424242;}.cls-5{fill:#202021;}.cls-6{stroke:#f19b9b;}.cls-6,.cls-8{stroke-miterlimit:10;}.cls-7{fill:#3b3b3b;}.cls-8{fill:#da8889;stroke:#da8889;}.cls-9{fill:#e6b86f;}.cls-10{fill:#fccc7a;}</style></defs><title>vache</title><g id="Calque_1" data-name="Calque 1"><path class="cls-1" d="M780.16,354.3c0,97.14-35.77,219.27-42.93,237.78-5.4,14-6.22,37.69-6.87,66.06-.42,18.59-.78,39.17-2.31,60.33-6.52,90.26-34.51,190.88-180.85,190.88H456.62C302.3,905.83,280.79,807.75,277,717.19c-1-23.28-.75-46.07-1.33-66.63-.68-24.35-2.46-45.59-8.6-60.79-7.07-17.52-41.27-122.11-44.62-235-3-102,72.79-201.93,175-234.78a231.72,231.72,0,0,1,71.08-11.25h63.82A249.32,249.32,0,0,1,588,115C697.53,140,780.11,237.41,780.16,354.3Z" transform="translate(-11.02 -72.05)"/><path class="cls-2" d="M551.12,949.09H449.23c-65.38,0-112.88-34.65-112.88-77.39v-36H669.06v36C669.06,914.44,626.86,946.88,551.12,949.09Z" transform="translate(-11.02 -72.05)"/><path class="cls-3" d="M728.05,718.47c-6.52,90.26-34.51,190.88-180.85,190.88H456.62C302.3,905.83,280.79,807.75,277,717.19a502.53,502.53,0,0,1,451,1.28Z" transform="translate(-11.02 -72.05)"/><path class="cls-4" d="M417.54,464.43c-2.59,39.64,0,64.64-93.09,134.46-21.63,16.21-37.35,34-48.74,51.67-.68-24.35-2.46-45.59-8.6-60.79-7-17.4-40.82-120.74-44.54-232.82,0-.73,0-1.47-.08-2.21q-.23-7.64.13-15.26a213.56,213.56,0,0,1,7.54-46.79,230.65,230.65,0,0,1,10.93-30.79C269.31,197,327.14,142.57,397.45,120c-73.45,132.35-56.88,164.54-21,219.71C414.6,398.19,420.13,424.77,417.54,464.43Z" transform="translate(-11.02 -72.05)"/><path class="cls-4" d="M780.16,354.3c0,.78,0,1.57,0,2.37-.53,96.74-35.81,217.05-42.91,235.41-5.4,14-6.22,37.69-6.87,66.06-11.53-22-26-41.75-44-55.71-77.67-60.26-92-72.56-98.19-147.58s38.12-102.08,60.26-162.33C669,236.59,647.2,180.69,588,115,667,133,732,188.72,762.08,262.22a242,242,0,0,1,17.6,76.88Q780.16,346.65,780.16,354.3Z" transform="translate(-11.02 -72.05)"/><path class="cls-4" d="M907.15,351.2c-30.88,14.8-53.34,19.47-74.44,18.17-17.15-1.05-33.4-6-52.57-12.7,0-.8,0-1.59,0-2.37q0-7.65-.48-15.2a242,242,0,0,0-17.6-76.88C776.89,250,790.41,239,804.14,230.14c23-14.87,46.59-23.63,77.78-21.47,56.86,4,103.46,6.33,109.77,23.7S969.11,321.49,907.15,351.2Z" transform="translate(-11.02 -72.05)"/><path class="cls-4" d="M241.09,261.9a230.65,230.65,0,0,0-10.93,30.79,213.56,213.56,0,0,0-7.54,46.79q-.35,7.62-.13,15.26c0,.74,0,1.48.08,2.21-18.81,6.54-34.83,11.39-51.72,12.42-21.11,1.3-43.56-3.37-74.44-18.17-62-29.71-90.86-101.46-84.54-118.83s52.91-19.75,109.77-23.7c31.19-2.16,54.76,6.6,77.78,21.47C213,238.92,226.42,249.85,241.09,261.9Z" transform="translate(-11.02 -72.05)"/><ellipse class="cls-5" cx="390.95" cy="772.64" rx="37.45" ry="56.21" transform="translate(-186.35 45.51) rotate(-14)"/><ellipse class="cls-5" cx="614.27" cy="772.64" rx="56.21" ry="37.45" transform="translate(-295.06 1109.66) rotate(-76)"/><path class="cls-5" d="M352.51,459.58a44.28,44.28,0,0,1-.21,9.16,10.9,10.9,0,0,1-7.58,9,43.77,43.77,0,0,1-56.46-38.36,44.83,44.83,0,0,1,.17-8.61,11.3,11.3,0,0,1,8.05-9.55,43.76,43.76,0,0,1,56,38.36Z" transform="translate(-11.02 -72.05)"/><path class="cls-5" d="M654.29,459.58a45,45,0,0,0,.21,9.16,10.91,10.91,0,0,0,7.59,9,43.74,43.74,0,0,0,56.28-47,11.29,11.29,0,0,0-8-9.55,43.77,43.77,0,0,0-56,38.36Z" transform="translate(-11.02 -72.05)"/><path class="cls-6" d="M901.2,297.73c-13.43,9.87-30.87,32.6-64.7,41.52-2.52.66-5.13,1.25-7.83,1.75-21.86,4-38.53,1.3-49-1.9a242.19,242.19,0,0,0-7.26-45.78c23-15,38.16-23.1,54.75-26.78,18.14-4,38-2.83,71.91.2C917.33,268.87,915.63,287.11,901.2,297.73Z" transform="translate(-11.02 -72.05)"/><path class="cls-7" d="M832.71,369.37c-17.15-1.05-33.4-6-52.57-12.7,0-.8,0-1.59,0-2.37q0-7.65-.48-15.2a242,242,0,0,0-17.6-76.88C776.89,250,790.41,239,804.14,230.14,831.76,265.27,845,294.27,832.71,369.37Z" transform="translate(-11.02 -72.05)"/><path class="cls-8" d="M836.5,339.25c-2.52.66-5.13,1.25-7.83,1.75-21.86,4-38.53,1.3-49-1.9a242.19,242.19,0,0,0-7.26-45.78c23-15,38.16-23.1,54.75-26.78C835.48,285.41,839.08,307.36,836.5,339.25Z" transform="translate(-11.02 -72.05)"/><path class="cls-6" d="M230.16,292.69a213.56,213.56,0,0,0-7.54,46.79c-10.5,3-26.73,5.4-47.73,1.52-2.7-.5-5.31-1.09-7.83-1.75-33.83-8.92-51.27-31.65-64.7-41.52-14.43-10.62-16.13-28.86,2.12-31,33.88-3,53.77-4.23,71.91-.2C192.75,270.17,207.69,278.05,230.16,292.69Z" transform="translate(-11.02 -72.05)"/><path class="cls-7" d="M241.09,261.9a230.65,230.65,0,0,0-10.93,30.79,213.56,213.56,0,0,0-7.54,46.79q-.35,7.62-.13,15.26c0,.74,0,1.48.08,2.21-18.81,6.54-34.83,11.39-51.72,12.42-1.8-11-3-20.95-3.79-30.12-.39-4.87-.64-9.5-.75-13.92,0-.88,0-1.76-.05-2.63s0-1.76,0-2.64,0-1.64,0-2.44c0-.54,0-1.09,0-1.64,0-1.35.07-2.68.13-4,0-.63.05-1.25.1-1.87,0-.38,0-.76.06-1.13,0-.59.08-1.18.12-1.76,0-.34,0-.67.07-1,.05-.58.1-1.16.15-1.72q.34-3.79.85-7.35c.07-.55.16-1.08.24-1.61.18-1.13.37-2.24.56-3.34s.42-2.17.64-3.22.39-1.8.59-2.68c0-.18.09-.36.13-.53.13-.54.26-1.06.4-1.59.39-1.57.81-3.11,1.27-4.62.15-.5.31-1,.46-1.49s.25-.81.38-1.2l.6-1.78c.33-1,.69-1.93,1-2.89h0c.67-1.78,1.39-3.54,2.14-5.27.05-.13.12-.26.17-.39,5.65-12.83,13.48-24.25,23-36.4C213,238.92,226.42,249.85,241.09,261.9Z" transform="translate(-11.02 -72.05)"/><path class="cls-8" d="M230.16,292.69a213.56,213.56,0,0,0-7.54,46.79c-10.5,3-26.73,5.4-47.73,1.52-2.7-.5-5.31-1.09-7.83-1.75-.39-4.87-.64-9.5-.75-13.92,0-.88,0-1.76-.05-2.63s0-1.76,0-2.64,0-1.64,0-2.44c0-.54,0-1.09,0-1.64,0-1.35.07-2.68.13-4,0-.63.05-1.25.1-1.87,0-.38,0-.76.06-1.13,0-.59.08-1.18.12-1.76,0-.34,0-.67.07-1,.05-.58.1-1.16.15-1.72q.34-3.79.85-7.35c.07-.55.16-1.08.24-1.61.18-1.13.37-2.24.56-3.34s.42-2.17.64-3.22.39-1.8.59-2.68c0-.18.09-.36.13-.53.13-.54.26-1.06.4-1.59.39-1.56.82-3.1,1.27-4.62.15-.5.31-1,.46-1.49s.25-.81.38-1.2l.6-1.78c.33-1,.69-1.93,1-2.89h0c.67-1.78,1.39-3.54,2.14-5.27.05-.13.12-.26.17-.39C192.75,270.17,207.69,278.05,230.16,292.69Z" transform="translate(-11.02 -72.05)"/><path class="cls-9" d="M697.2,159.48c-9,39-32.16,70.38-61.37,59.72-35.49-13-38.81-28.56-33.23-44.14,4.27-11.93,13.78-23.85,18-34.57,14.75-37.16,21.28-74.31,51.64-67.67a19.78,19.78,0,0,1,9.38,5.47C695.7,91.9,704.62,127.25,697.2,159.48Z" transform="translate(-11.02 -72.05)"/><path class="cls-10" d="M681.65,78.29c-9.12,91.54-33.46,118.79-79,96.77,4.27-11.93,13.78-23.85,18-34.57,14.75-37.16,21.28-74.31,51.64-67.67A19.78,19.78,0,0,1,681.65,78.29Z" transform="translate(-11.02 -72.05)"/><path class="cls-9" d="M306.64,159.48c9,39,32.16,70.38,61.37,59.72,35.49-13,38.81-28.56,33.23-44.14-4.27-11.93-13.78-23.85-18-34.57-14.75-37.16-21.28-74.31-51.64-67.67a19.78,19.78,0,0,0-9.38,5.47C308.14,91.9,299.22,127.25,306.64,159.48Z" transform="translate(-11.02 -72.05)"/><path class="cls-10" d="M322.19,78.29c9.12,91.54,33.46,118.79,79.05,96.77-4.27-11.93-13.78-23.85-18-34.57-14.75-37.16-21.28-74.31-51.64-67.67A19.78,19.78,0,0,0,322.19,78.29Z" transform="translate(-11.02 -72.05)"/></g></svg>