<svg xmlns="http://www.w3.org/2000/svg" viewBox="0 0 899.08 942.12"><defs><style>.cls-1{fill:#ea675c;}.cls-2{fill:#ef8975;}.cls-3{fill:#454656;}.cls-4{fill:#f0ebdf;}.cls-5{fill:#6a676e;}.cls-6{fill:#d0cac3;}</style></defs><title>coccinelle</title><g id="Calque_3" data-name="Calque 3"><path class="cls-1" d="M793.1,558.76a445.4,445.4,0,0,1-13.12,108q-3.57,14.31-8.05,28.07a395.82,395.82,0,0,1-30.88,70.9,347.69,347.69,0,0,1-43.58,61.52c-47.13,52.92-108.29,86.49-175.58,90.78q-7.32.46-14.72.47-8.7,0-17.27-.65c-66.33-5-126.58-38.41-173.13-90.73a349.21,349.21,0,0,1-44.27-62.82,395.26,395.26,0,0,1-30.08-69.47q-4.47-13.77-8-28.08a445.37,445.37,0,0,1-13.13-108,454.19,454.19,0,0,1,4.16-61.49q2.26-16.45,5.67-32.35h0A421.3,421.3,0,0,1,243.62,419q4.57-13.65,10-26.73C301.37,277.41,397,199,507.17,199S713,277.4,760.72,392.29q5.43,13.06,10,26.74a424.71,424.71,0,0,1,12.13,44q3.93,18,6.41,36.72A453.59,453.59,0,0,1,793.1,558.76Z" transform="translate(-57.63 -25.94)"/><path class="cls-2" d="M521.89,366.88v551.2q-7.32.46-14.72.47-8.7,0-17.27-.65v-551Z" transform="translate(-57.63 -25.94)"/><circle class="cls-3" cx="449.54" cy="311.36" r="43.59"/><circle class="cls-3" cx="568.42" cy="550.69" r="43.59"/><path class="cls-3" d="M741.05,765.78a347.69,347.69,0,0,1-43.58,61.52,43.58,43.58,0,1,1,43.58-61.52Z" transform="translate(-57.63 -25.94)"/><path class="cls-3" d="M355.06,783.9a43.59,43.59,0,0,1-38.29,43.27,349.21,349.21,0,0,1-44.27-62.82,43.6,43.6,0,0,1,82.56,19.55Z" transform="translate(-57.63 -25.94)"/><circle class="cls-3" cx="331.01" cy="550.69" r="43.59"/><circle class="cls-4" cx="509.22" cy="280.46" r="28.53"/><circle class="cls-4" cx="388.49" cy="280.46" r="28.53"/><path class="cls-3" d="M281.49,485.28a29.32,29.32,0,0,1-56.08,12q2.26-16.45,5.67-32.35s0,0,0,0a29.32,29.32,0,0,1,50.41,20.37Z" transform="translate(-57.63 -25.94)"/><path class="cls-3" d="M789.28,499.75A29.32,29.32,0,1,1,782.87,463Q786.8,481,789.28,499.75Z" transform="translate(-57.63 -25.94)"/><path class="cls-5" d="M855.48,967.92a13.54,13.54,0,0,1-2,.14A14.06,14.06,0,0,1,839.58,956c-4.66-32.62-11.42-56.54-56.13-67.3C761.91,883.52,743.54,878,737,862.91c-7.26-16.65,2.6-34.17,22.25-69.09,4.37-7.75,9.31-16.53,14.67-26.34,9.56-17.54,22-42.16,19.69-53.58-1.21-6-8.28-10.74-21.65-19q4.47-13.75,8.05-28.07c1.85,1.16,3.64,2.26,5.37,3.33,17.19,10.61,32,19.76,35.77,38.16,3.33,16.4-3,36.77-22.56,72.64-5.45,10-10.43,18.85-14.84,26.68-7.65,13.6-13.71,24.33-17.35,32.46-3.59,8-3.66,10.89-3.61,11.6,1.26,1.52,6.55,4.71,27.26,9.7,28.44,6.84,48.35,19.45,60.82,38.55,10.77,16.46,14.09,34.76,16.56,52.09A14,14,0,0,1,855.48,967.92Z" transform="translate(-57.63 -25.94)"/><path class="cls-5" d="M277.38,862.91c-6.57,15.08-24.94,20.61-46.48,25.79-44.72,10.76-51.47,34.68-56.13,67.3a14.07,14.07,0,0,1-13.9,12.06,13.54,13.54,0,0,1-2-.14A14,14,0,0,1,146.94,952c2.48-17.33,5.8-35.63,16.56-52.09,12.48-19.1,32.38-31.71,60.82-38.55,20.72-5,26-8.18,27.27-9.7,0-.71,0-3.62-3.61-11.6-3.65-8.13-9.7-18.86-17.35-32.46-4.42-7.83-9.4-16.71-14.85-26.68-19.56-35.87-25.89-56.24-22.56-72.64C197,689.9,211.8,680.75,229,670.14c1.73-1.07,3.53-2.17,5.39-3.34q3.54,14.31,8,28.08c-13.37,8.28-20.44,13-21.65,19-2.33,11.42,10.13,36,19.68,53.58,5.36,9.81,10.3,18.59,14.67,26.34C274.77,828.74,284.63,846.26,277.38,862.91Z" transform="translate(-57.63 -25.94)"/><path class="cls-5" d="M253.63,392.3q-5.43,13.06-10,26.73c-12-2.11-19.32-2.39-25.23,1.67-18.61,12.74-30.88,71.61-38.49,114.78a14.11,14.11,0,0,1-12.07,11.65,15,15,0,0,1-1.76.11,13.84,13.84,0,0,1-12.71-8.17c-1.2-2.37-20.23-37.85-82.1-39.74a14.06,14.06,0,1,1,.87-28.1c42.4,1.3,69.42,16.06,85.65,30.09,12.47-60.78,25.63-90.73,44.72-103.81C218.55,386.51,235.62,388.82,253.63,392.3Z" transform="translate(-57.63 -25.94)"/><path class="cls-5" d="M956.71,484.86a14.06,14.06,0,0,1-13.62,14.47c-61.87,1.89-80.91,37.37-82.11,39.74a13.82,13.82,0,0,1-12.7,8.17,14.85,14.85,0,0,1-1.76-.11,14.12,14.12,0,0,1-12.08-11.65c-7.61-43.17-19.88-102-38.48-114.78-5.92-4.06-13.27-3.78-25.22-1.67q-4.59-13.66-10-26.74c18-3.47,35.08-5.78,51.13,5.22,19.09,13.08,32.25,43,44.72,103.81,16.23-14,43.24-28.79,85.65-30.09A14.07,14.07,0,0,1,956.71,484.86Z" transform="translate(-57.63 -25.94)"/><path class="cls-5" d="M687.13,254.6c-4.1,28.62-79.66,49-182,51.8-96.59,2.65-181.26-31.54-181.24-52.66,0-27.93,13.57-55.11,35.47-74.87a118.69,118.69,0,0,1,59.95-29,117.46,117.46,0,0,1,18.8-1.58H571.65l3,0a145.6,145.6,0,0,1,19.07,1.69c22.45,3.51,43.5,12.29,60,25.28C677.52,194.08,691.84,221.6,687.13,254.6Z" transform="translate(-57.63 -25.94)"/><path class="cls-4" d="M653.67,175.33a43.53,43.53,0,1,1-79-27C604,149,632.58,158.72,653.67,175.33Z" transform="translate(-57.63 -25.94)"/><path class="cls-4" d="M446.12,173.5a43.55,43.55,0,0,1-86.76,5.37,118.3,118.3,0,0,1,78.75-30.53h0A43.43,43.43,0,0,1,446.12,173.5Z" transform="translate(-57.63 -25.94)"/><path class="cls-3" d="M593.69,150.05a145.6,145.6,0,0,0-19.07-1.69l-3,0H438.11a117.46,117.46,0,0,0-18.8,1.58A67.44,67.44,0,0,1,485,97.7h43A67.42,67.42,0,0,1,593.69,150.05Z" transform="translate(-57.63 -25.94)"/><path class="cls-5" d="M860.58,60.76C833.13,83.17,794,83.42,773,81.57c-13.77-1.21-29.84-4.34-43.08-9.11,0,13,.14,24.75.25,35.52.41,43.69.64,67.76-5.33,86.18C718.78,213,706.94,223.71,687.7,235a78.65,78.65,0,0,0-6.93-26.08c24.3-15.46,24.18-28.47,23.5-100.64C704.1,91.7,703.93,73,704,50.64A13,13,0,0,1,726.63,42c2.92,3.06,21.22,11.38,49.12,13.76,16.88,1.45,48.2,1.41,68.42-15.1a13,13,0,0,1,16.41,20.1Z" transform="translate(-57.63 -25.94)"/><path class="cls-5" d="M334.17,211.72a97.36,97.36,0,0,0-8.6,24.95c-21-11.88-33.78-22.7-40.19-42.51-6-18.42-5.74-42.49-5.33-86.18.11-10.77.22-22.49.25-35.52-13.24,4.77-29.31,7.9-43.08,9.11-20.92,1.85-60.09,1.6-87.54-20.81a13,13,0,0,1,16.41-20.1c20.22,16.51,51.54,16.55,68.42,15.1,27.9-2.38,46.2-10.7,49.12-13.76a13,13,0,0,1,22.59,8.64c.11,22.33-.07,41.06-.23,57.59C305.27,184.76,305.18,194.77,334.17,211.72Z" transform="translate(-57.63 -25.94)"/><path class="cls-6" d="M453.11,105.71a67.62,67.62,0,0,0-25.24,23.6c-29.5-20.19-48.48-51.51-48.48-86.62a16.76,16.76,0,0,1,33.51,0C412.9,68.79,428.83,91.88,453.11,105.71Z" transform="translate(-57.63 -25.94)"/><path class="cls-6" d="M632.53,42.69c0,34.81-18.67,65.91-47.76,86.1a67.53,67.53,0,0,0-25.45-23.37c24-13.87,39.7-36.81,39.7-62.73a16.76,16.76,0,0,1,33.51,0Z" transform="translate(-57.63 -25.94)"/></g></svg>