<svg xmlns="http://www.w3.org/2000/svg" viewBox="0 0 957.91 612.28"><defs><style>.cls-1{fill:#82bb5b;}.cls-2{fill:#bdd473;}.cls-3{fill:#d0e09b;}.cls-4{fill:#599842;}.cls-5{fill:#71b04f;}.cls-6{fill:#96c574;}.cls-7{fill:#454656;}</style></defs><title>grenouille</title><g id="Calque_4" data-name="Calque 4"><path class="cls-1" d="M21.05,514.4v.34A52.9,52.9,0,0,0,74,567.65h852.1A52.9,52.9,0,0,0,979,514.74h0A52.89,52.89,0,0,0,951,468.11L684.12,325.05a396.74,396.74,0,0,0-378.2,1.81L48.52,468A52.91,52.91,0,0,0,21.05,514.4Z" transform="translate(-21.05 -203.1)"/><path class="cls-2" d="M952.13,560.79C921.61,704.6,730.81,815.38,500,815.38S78.39,704.6,47.87,560.79A52.57,52.57,0,0,0,74,567.66h852.1A52.57,52.57,0,0,0,952.13,560.79Z" transform="translate(-21.05 -203.1)"/><path class="cls-3" d="M952.13,560.79a209.9,209.9,0,0,1-17.88,50.55c-16.19,9.75-33.82,15.38-50.78,15.38-200.87,0-121.12-29.34-374-29.34S246.81,626.72,99.39,626.62c-10,0-20.19-2.86-29.85-8a212.57,212.57,0,0,1-21.67-57.8q.68.39,1.38.75l.14.08c.47.25.94.49,1.42.72s1,.48,1.51.71,1,.42,1.45.62.74.3,1.11.45l.87.33c.81.29,1.64.57,2.47.83.41.13.83.26,1.25.37s.84.24,1.26.34l1.16.29c.55.13,1.11.25,1.67.36h0l.91.17.28.05h.07c.25.06.49.09.75.13.45.08.91.14,1.37.2l.78.1.94.1.87.08.87.06h.18l.63,0,.61,0c.27,0,.55,0,.82,0,.43,0,.86,0,1.29,0h852.1c.43,0,.86,0,1.29,0,.27,0,.55,0,.82,0l.61,0,.63,0h.18l.87-.06.87-.08.94-.1.78-.1c.46-.06.92-.12,1.37-.2.26,0,.5-.07.75-.13h.07l.28-.05.91-.17h0c.56-.11,1.12-.23,1.67-.36l1.16-.29c.42-.1.84-.22,1.26-.34s.84-.24,1.25-.37c.83-.26,1.66-.54,2.47-.83l.87-.33c.37-.15.74-.29,1.11-.45s1-.4,1.45-.62,1-.46,1.51-.71.95-.47,1.42-.72l.14-.08Q951.44,561.19,952.13,560.79Z" transform="translate(-21.05 -203.1)"/><rect class="cls-4" x="538.17" y="243.29" width="30.69" height="46.41" rx="15.34" ry="15.34"/><rect class="cls-4" x="385.28" y="243.29" width="30.69" height="46.41" rx="15.34" ry="15.34"/><path class="cls-5" d="M298.23,397.75s-32.46,56.79-91.74,56.79-107.35-58.67-107.35-118,43.69-111.1,103-111.1S298.23,338.46,298.23,397.75Z" transform="translate(-21.05 -203.1)"/><path class="cls-6" d="M392.53,325.65c-.25,70.84-91.18,123-162.44,125.79,44.24-11.88,68.14-53.69,68.14-53.69,0-59.28-36.83-172.25-96.11-172.25a96.82,96.82,0,0,0-49.18,13.25c8.16-22.72,27.7-32.59,74.27-35.47C306.41,198.38,392.64,295.17,392.53,325.65Z" transform="translate(-21.05 -203.1)"/><path class="cls-7" d="M239.21,339.82c0,26.69-40.44,48.33-90.33,48.33a157.11,157.11,0,0,1-40-5,117.86,117.86,0,0,1-3.08-85.82,155.44,155.44,0,0,1,43.11-5.85C198.77,291.48,239.21,313.12,239.21,339.82Z" transform="translate(-21.05 -203.1)"/><path class="cls-5" d="M701.77,397.75s32.46,56.79,91.74,56.79,107.35-58.67,107.35-118-43.69-111.1-103-111.1S701.77,338.46,701.77,397.75Z" transform="translate(-21.05 -203.1)"/><path class="cls-6" d="M607.47,325.65c.25,70.84,91.18,123,162.44,125.79-44.24-11.88-68.14-53.69-68.14-53.69,0-59.28,36.83-172.25,96.11-172.25a96.82,96.82,0,0,1,49.18,13.25c-8.16-22.72-27.7-32.59-74.27-35.47C693.59,198.38,607.36,295.17,607.47,325.65Z" transform="translate(-21.05 -203.1)"/><path class="cls-7" d="M760.79,339.82c0,26.69,40.44,48.33,90.33,48.33a157.11,157.11,0,0,0,40-5,117.86,117.86,0,0,0,3.08-85.82,155.44,155.44,0,0,0-43.11-5.85C801.23,291.48,760.79,313.12,760.79,339.82Z" transform="translate(-21.05 -203.1)"/></g></svg>