<svg xmlns="http://www.w3.org/2000/svg" viewBox="0 0 477.53 971.69"><defs><style>.cls-1{fill:#c07f49;}.cls-2{fill:#a96b31;}.cls-3{fill:#995d2c;}.cls-4{fill:#b47243;}.cls-5{fill:#4c401f;}.cls-6{fill:#f6a817;}.cls-7{fill:#f3981b;}.cls-8{fill:#663215;}.cls-9{fill:#713916;}.cls-10{fill:#4a2510;}.cls-11{fill:#5e2d13;}</style></defs><title>cheval</title><g id="Calque_2" data-name="Calque 2"><path class="cls-1" d="M722.2,459.32c0,142-49.87,303.72-105.14,403.15-31.93,57.47-65.66,94.11-92.6,94.11-92.79,0-210-280.83-210-504.81a428.9,428.9,0,0,1,2.14-43.3c19.22-191.38,163.66-263,207.89-263,43.42,0,126.72,46.52,170,156,11.71,29.6,20.49,63.81,24.79,103A502.4,502.4,0,0,1,722.2,459.32Z" transform="translate(-266.6 -12.12)"/><path class="cls-2" d="M719.29,404.48c-19.06,1.19-37.49,4.84-54.08,13.62-21.11,11.12-39.25,30.51-52,63.55-31.22,81.17,8.2,128.69,17,199h0a208.43,208.43,0,0,1-.26,54.69A341.58,341.58,0,0,1,600.58,835a327.43,327.43,0,0,1-17,31.57c-13.46,21.93-24.39,33.61-24.39,33.61l-78.5,4.19S424,843.83,409.84,739.53s55.37-153.24,16.75-253.68c-23.4-60.84-65.23-75.38-110-77.38,19.22-191.38,163.66-263,207.89-263,43.42,0,126.72,46.52,170,156C706.21,331.13,715,365.34,719.29,404.48Z" transform="translate(-266.6 -12.12)"/><path class="cls-3" d="M630.25,680.64a208.43,208.43,0,0,1-.26,54.69,339.28,339.28,0,0,1-46.43,131.21c-18.16-6.34-23.35-24.88-2.59-64.29C599.64,766.85,616.5,725.05,630.25,680.64Z" transform="translate(-266.6 -12.12)"/><path class="cls-3" d="M719.29,404.48c-19.06,1.19-37.49,4.84-54.08,13.62-3.45-39.68-12.42-74.76-28.19-101.62l57.48-15C706.21,331.13,715,365.34,719.29,404.48Z" transform="translate(-266.6 -12.12)"/><path class="cls-4" d="M722.2,459.32c0,142-49.87,303.72-105.14,403.15L600.58,835A341.58,341.58,0,0,0,630,735.33a208.43,208.43,0,0,0,.26-54.69h0c26.87-86.88,41.81-183.78,35-262.53,16.59-8.78,35-12.43,54.08-13.62A502.4,502.4,0,0,1,722.2,459.32Z" transform="translate(-266.6 -12.12)"/><path class="cls-5" d="M647.17,542.21a12.6,12.6,0,0,1-11.52-17.69l14.23-32.13a12.56,12.56,0,0,1,6.27-6.35l36.57-16.75a12.59,12.59,0,1,1,10.49,22.9L671,507l-3.26,7.37,14.94-1.9a12.59,12.59,0,1,1,3.17,25l-37.07,4.71A14.11,14.11,0,0,1,647.17,542.21Z" transform="translate(-266.6 -12.12)"/><path class="cls-5" d="M388.26,542.21a12.6,12.6,0,0,0,11.52-17.69l-14.22-32.13a12.62,12.62,0,0,0-6.28-6.35l-36.57-16.75a12.59,12.59,0,0,0-10.49,22.9L364.46,507l3.26,7.37-14.94-1.9a12.59,12.59,0,1,0-3.17,25l37.07,4.71A14.11,14.11,0,0,0,388.26,542.21Z" transform="translate(-266.6 -12.12)"/><path class="cls-2" d="M569.65,163.47S648.14,102.83,718,13.6a3.89,3.89,0,0,1,6.7,1.05c7.91,21.07,30.65,89.76,12.61,140.92-15.72,44.53-27.82,18.48-59.19,103.2Z" transform="translate(-266.6 -12.12)"/><path class="cls-1" d="M715,54.15a1.72,1.72,0,0,0-3.16-.61c-24.32,38.64-51.83,75.07-59.18,102-7.59,27.82-10.92,15.6,2.11,92.32,0,0,26.56-66.6,55.23-90.21C728.69,142.27,718.15,72.47,715,54.15Z" transform="translate(-266.6 -12.12)"/><path class="cls-2" d="M479.27,163.47S400.77,102.83,330.88,13.6a3.88,3.88,0,0,0-6.69,1.05c-7.92,21.07-30.66,89.76-12.61,140.92,15.71,44.53,27.81,18.48,59.18,103.2Z" transform="translate(-266.6 -12.12)"/><path class="cls-1" d="M333.9,54.15a1.73,1.73,0,0,1,3.17-.61c24.32,38.64,51.82,75.07,59.17,102,7.59,27.82,10.92,15.6-2.11,92.32,0,0-26.56-66.6-55.22-90.21C320.22,142.27,330.76,72.47,333.9,54.15Z" transform="translate(-266.6 -12.12)"/><path class="cls-3" d="M642.57,352.11c-29.79,45.81-70.26,67.77-89.05,56.66-25.47-15.08,8-41.27,14.74-59.63,3-8.12.76-14.71-14.14-18.11-22.35-5.11-42.39,14.64-67.69,38.67-31.07,29.54-70.09,65.55-131.07,69.89-8.36.59-.69-13.88,10.29-31.36,16.93-26.9,41.72-60.94,28.05-58.11-26.25,5.45-61,34.86-87.52,57.61-26.12,22.38-44.27,38.3-38.51,18.51,5.6-19.25,14.18-40.06,25-61.32,42.83-84.26,120.59-175.48,185.63-202.72,12.49-5.23,24.53-8.1,35.76-8.1C613.56,154.1,702.9,269,715.9,341.89,718.54,356.73,672.15,306.63,642.57,352.11Z" transform="translate(-266.6 -12.12)"/><path class="cls-6" d="M642.57,343.5c-29.79,45.8-70.26,67.76-89.05,56.65-25.47-15.08,8-41.27,14.74-59.62,3-8.12.76-14.71-14.14-18.11-22.35-5.11-42.39,14.64-67.69,38.67-31.07,29.53-70.09,65.55-131.07,69.88-8.36.6-.69-13.87,10.29-31.35,16.93-26.91,41.72-60.95,28.05-58.11-26.25,5.44-61,34.85-87.52,57.6-26.12,22.39-44.27,38.3-38.51,18.51,5.6-19.24,14.18-40.06,25-61.32C335.49,272,413.25,180.82,478.29,153.58c12.49-5.22,24.53-8.1,35.76-8.1,99.51,0,188.85,114.88,201.85,187.8C718.54,348.12,672.15,298,642.57,343.5Z" transform="translate(-266.6 -12.12)"/><path class="cls-7" d="M486.43,361.09c-31.07,29.53-70.09,65.55-131.07,69.88-8.36.6-.69-13.87,10.29-31.35,21.24-13.61,40-20.48,46.72-32.91,17.16-31.52,50.65-52.52,78.93-43.12C505.45,328.3,496.69,343.08,486.43,361.09Z" transform="translate(-266.6 -12.12)"/><path class="cls-7" d="M642.57,343.5c-29.79,45.8-70.26,67.76-89.05,56.65-25.47-15.08,8-41.27,14.74-59.62A505.33,505.33,0,0,1,621.45,284C588,196.87,597.11,207.65,478.29,153.58c12.49-5.22,24.53-8.1,35.76-8.1,99.51,0,188.85,114.88,201.85,187.8C718.54,348.12,672.15,298,642.57,343.5Z" transform="translate(-266.6 -12.12)"/><path class="cls-7" d="M306.18,399.11c-26.12,22.39-44.27,38.3-38.51,18.51,5.6-19.24,14.18-40.06,25-61.32,14.82-10.94,25.24-16,31-12.33C329,347.4,317.88,374.32,306.18,399.11Z" transform="translate(-266.6 -12.12)"/><path class="cls-8" d="M530.22,983.81H513.78c-32.46,0-70.52-26.32-70.52-58.79h0A58.78,58.78,0,0,1,502,866.24h38.14A58.79,58.79,0,0,1,599,925h0C599,957.49,562.68,983.81,530.22,983.81Z" transform="translate(-266.6 -12.12)"/><path class="cls-9" d="M630,878.32a63.49,63.49,0,0,1-63.49,63.48h-93.3a63.48,63.48,0,0,1-63.49-63.48A38.79,38.79,0,0,1,421,850.92v-2.55a80.77,80.77,0,0,1,80.81-80.81H537.6a80.81,80.81,0,0,1,80.8,80.81v2.29A38.78,38.78,0,0,1,630,878.32Z" transform="translate(-266.6 -12.12)"/><rect class="cls-10" x="468.05" y="811.93" width="24.89" height="58.42" rx="11.86" ry="11.86" transform="translate(-682.66 462.19) rotate(-38.01)"/><path class="cls-11" d="M630,878.32a63.49,63.49,0,0,1-63.49,63.48H549.69c17.22-21.52,26.76-48,18.91-79.93-21.27-86.35-51.5-91.69-88.18-91.45a80.75,80.75,0,0,1,21.34-2.86H537.6a80.81,80.81,0,0,1,80.8,80.81v2.29A38.78,38.78,0,0,1,630,878.32Z" transform="translate(-266.6 -12.12)"/><rect class="cls-10" x="547.44" y="811.93" width="24.89" height="58.42" rx="11.86" ry="11.86" transform="translate(216.43 1836.52) rotate(-141.99)"/></g></svg>