<svg xmlns="http://www.w3.org/2000/svg" viewBox="0 0 813.21 976.68"><defs><style>.cls-1{fill:#e3bb50;}.cls-2{fill:#cea440;}.cls-3{fill:#9b6619;}.cls-4{fill:#cd9305;}.cls-5{fill:#b87e13;}.cls-6{fill:#0f0f0e;}.cls-7{fill:#e5e5e6;}</style></defs><title>giraffe</title><g id="Calque_4" data-name="Calque 4"><path class="cls-1" d="M876.17,171.76c-18.88,46.71-69.73,86-156.18,96.5a142.4,142.4,0,0,1,1,43.56L702.32,459.29A203.46,203.46,0,0,1,499.48,647.06h-6.05a203.46,203.46,0,0,1-202.9-188.45L263.87,320.79A122.88,122.88,0,0,1,265,267.43c-82.57-11.61-131.38-50.12-149.8-95.67C103,141.78,73.82,107.5,99,83.83c31-29.1,173.88-15.61,221.19,107.49a3.76,3.76,0,0,0,.2.46c8.77-5.71,39.08-22.29,39.08-22.29a44.85,44.85,0,0,0,22.73-47.17L367.63,39.57A23.78,23.78,0,0,1,414.4,31l8.34,43.82a73,73,0,0,0,143.19,1.31L575.37,31a23.63,23.63,0,0,1,46.44,8.69l-13.63,82.51A44.87,44.87,0,0,0,632,169.44s29.61,15.1,39.21,21.88C718.47,68.22,861.4,54.73,892.35,83.83,917.52,107.5,888.3,141.78,876.17,171.76Z" transform="translate(-89.06 -11.66)"/><path class="cls-2" d="M420.06,633.41a203.5,203.5,0,0,1-129.53-174.8L263.87,320.79A122.88,122.88,0,0,1,265,267.43a275.22,275.22,0,0,1-57.48-14.12c-48.36-17.93-78.68-47.81-92.32-81.55C103,141.78,73.82,107.5,99,83.83c29-27.24,156.1-17.15,211,85.24a193.13,193.13,0,0,1,10.18,22.25,3.76,3.76,0,0,0,.2.46c7.2-4.69,28.93-16.71,36.47-20.86,4,5.76,8.24,12,12.71,18.76-34.52,40-39.39,57.34-31.44,152.75a40.93,40.93,0,0,1,7.11,77.41q.66,7,1.36,14.42C356,533.9,388.05,595.7,420.06,633.41Z" transform="translate(-89.06 -11.66)"/><path class="cls-3" d="M785,227.89c-25.15,24-78.07,32.6-109.76,13.32,0,0,23.08-53.63,48.22-77.61s69.34-34.45,97.36-12.86C836.28,162.64,810.16,203.91,785,227.89Z" transform="translate(-89.06 -11.66)"/><path class="cls-3" d="M203.91,227.89c25.14,24,78.07,32.6,109.75,13.32,0,0-23.07-53.63-48.22-77.61s-69.34-34.45-97.35-12.86C152.64,162.64,178.76,203.91,203.91,227.89Z" transform="translate(-89.06 -11.66)"/><path class="cls-1" d="M637.42,967.27a485.52,485.52,0,0,1-95.07,18.81q-23.31,2.25-47.26,2.26a494.12,494.12,0,0,1-49.67-2.5q-9.56-1-19-2.29a483.56,483.56,0,0,1-73.2-16.14h0l2.85-74,3.05-79.36L364,686.57l2-50.37L367.28,602H625.63l1.55,48.24,1.12,34.33v0l4,125.11,2.61,80.84Z" transform="translate(-89.06 -11.66)"/><path class="cls-2" d="M627.18,650.27a202.53,202.53,0,0,1-95.17,37c-10.28,6.5-20.9,10.3-31.4,10.3-12.07,0-24.46-4.66-36.4-12.49q-5.64-1.06-11.16-2.45a16.92,16.92,0,0,0-20.94,16.12l-5.68,284.83a483.56,483.56,0,0,1-73.2-16.14l5.89-153.35L365,660.65,366,636.2,367.28,602H625.63Z" transform="translate(-89.06 -11.66)"/><path class="cls-4" d="M597.08,483.19a76.8,76.8,0,0,1,6.66,30.9c0,38.15-29.29,98.8-65.46,129.22-13.69,11.51-28.36,18.7-42.8,18.7-15.43,0-31.4-7.63-46.25-19.73-35.78-29.16-65.12-84.3-65.12-121.47,0-29.59,18.1-58.51,43.3-78.15,45.73-83.73-15.09-188.56-58.05-253-4.47-6.72-8.76-13-12.71-18.76l1.92-1.06.35-.18.34-.19c.58-.32,1.14-.63,1.7-1s1-.59,1.42-.9l.79-.52q.75-.51,1.47-1c.55-.41,1.09-.84,1.62-1.27s1.05-.88,1.56-1.34l0,0c.51-.45,1-.91,1.49-1.41s1-1,1.44-1.48.93-1,1.36-1.55a45.37,45.37,0,0,0,4.73-6.82A44.8,44.8,0,0,0,382,122.32L367.44,39.57A23.78,23.78,0,0,1,414.21,31l8.34,43.82a73,73,0,0,0,143.19,1.31L575.18,31a23.63,23.63,0,0,1,46.44,8.69L608,122.23a45,45,0,0,0,23.77,47.21l2.92,1.5c-41.8,61-121.07,179-70.86,271.46C578.31,453.38,590.15,467.4,597.08,483.19Z" transform="translate(-89.06 -11.66)"/><path class="cls-5" d="M513,440.4c-51-2-105.84,44.29-68.1,140.28,24.11,61.32,29.14,72.75,46.3,81.14-14.11-1.24-28.52-8.55-42-19.54-35.78-29.16-65.12-84.3-65.12-121.47,0-29.59,18.1-58.51,43.3-78.15,45.73-83.73-15.09-188.56-58.05-253-4.47-6.72-8.76-13-12.71-18.76l1.92-1.06.36-.18.34-.19c.57-.32,1.13-.63,1.69-1s1-.59,1.42-.9l.79-.52q.75-.51,1.47-1c.55-.41,1.09-.84,1.62-1.27s1.05-.88,1.56-1.34l0,0c.51-.45,1-.91,1.49-1.41s1-1,1.44-1.48.93-1,1.36-1.55a45.37,45.37,0,0,0,4.73-6.82A44.8,44.8,0,0,0,382,122.32L367.44,39.57A23.77,23.77,0,0,1,386.93,12c-8.74,16.05-.34,42.36,12.89,95.3,17.24,68.91,81.23,55.79,95.85,57.43S522.88,185.25,472,191s-33.63-3.28-13.12,91.06c20.32,93.42,3.62,143.41,3.29,144.38.72-.4,24.83-13.9,39.37-12.29C516.32,415.78,564,442.4,513,440.4Z" transform="translate(-89.06 -11.66)"/><path class="cls-5" d="M606.87,13.84C582.81,26,580.37,85.1,579.61,111.31c-.82,27.77-12.82,38.78-75.05,22.15-1.75.24-3.5.41-5.28.53,1.75-.13,3.5-.3,5.22-.55a73.08,73.08,0,0,0,61.24-57.32L575.18,31a23.62,23.62,0,0,1,21.26-18.71c.33,0,.67-.05,1-.06a17.38,17.38,0,0,1,1.91,0l.85,0a24.08,24.08,0,0,1,2.39.33A23.14,23.14,0,0,1,606.87,13.84Z" transform="translate(-89.06 -11.66)"/><circle class="cls-2" cx="573.59" cy="370.27" r="42.24"/><path class="cls-6" d="M687.84,371.56a23.55,23.55,0,0,1-.93,6.6,24,24,0,1,1,.93-6.6Z" transform="translate(-89.06 -11.66)"/><path class="cls-7" d="M687.84,371.56a23.55,23.55,0,0,1-.93,6.6,23.72,23.72,0,0,1-8.07,1.4,24,24,0,0,1-24-24,23.53,23.53,0,0,1,.93-6.59,24,24,0,0,1,32.09,22.61Z" transform="translate(-89.06 -11.66)"/><path class="cls-6" d="M350.38,371.56a23.55,23.55,0,0,1-.93,6.6,24,24,0,1,1,.93-6.6Z" transform="translate(-89.06 -11.66)"/><path class="cls-7" d="M350.38,371.56a23.55,23.55,0,0,1-.93,6.6,23.68,23.68,0,0,1-8.07,1.4,24,24,0,0,1-24-24,23.53,23.53,0,0,1,.93-6.59,24,24,0,0,1,32.09,22.61Z" transform="translate(-89.06 -11.66)"/><path class="cls-4" d="M561.84,868.26l-46.3,34.66a33,33,0,0,1-38.73.55l-47.27-33.33a33,33,0,0,1-12.49-36.66l17.09-55.25a32.93,32.93,0,0,1,31-23.21L523,754.2a32.92,32.92,0,0,1,31.65,22.31l18.65,54.75A32.93,32.93,0,0,1,561.84,868.26Z" transform="translate(-89.06 -11.66)"/><path class="cls-4" d="M637.42,968.45a485.51,485.51,0,0,1-95.07,18.8,38.35,38.35,0,0,1,.67-20.33l14.67-47.41A38.56,38.56,0,0,1,594,892.32l40.93-.58Z" transform="translate(-89.06 -11.66)"/><path class="cls-4" d="M445.42,987a485.19,485.19,0,0,1-92.2-18.42l2.85-74,34.92-.5a38.59,38.59,0,0,1,37.08,26.15l16,47A38.35,38.35,0,0,1,445.42,987Z" transform="translate(-89.06 -11.66)"/><path class="cls-4" d="M401,746.64l-13.54,42.61a38.61,38.61,0,0,1-28.36,26L364,687.74l22.3,15.56A38.6,38.6,0,0,1,401,746.64Z" transform="translate(-89.06 -11.66)"/><path class="cls-4" d="M632.33,810.9a38.62,38.62,0,0,1-32.48-27l-11.47-37.37A38.62,38.62,0,0,1,603,703.67l25.3-17.88Z" transform="translate(-89.06 -11.66)"/><path class="cls-3" d="M559.93,539.14c0,13.61-10.24,34.25-21.18,34.25-8.82,0-20.45-19.93-20.45-33.54s6.84-25.77,20.45-25.77S559.93,525.54,559.93,539.14Z" transform="translate(-89.06 -11.66)"/><path class="cls-3" d="M473.42,539.14c0,13.61-10.23,34.25-21.18,34.25-8.82,0-20.45-19.93-20.45-33.54s6.84-25.77,20.45-25.77S473.42,525.54,473.42,539.14Z" transform="translate(-89.06 -11.66)"/></g></svg>