<svg xmlns="http://www.w3.org/2000/svg" viewBox="0 0 974.47 823.17"><defs><style>.cls-1{fill:#feead1;}.cls-2{fill:#fff;}.cls-3{fill:#454656;}.cls-4{fill:#ecb49e;}.cls-5{fill:#f4e9dc;}</style></defs><title>mouton</title><g id="Calque_2" data-name="Calque 2"><path class="cls-1" d="M518.42,937.85H482a83.74,83.74,0,0,1-77.46-51.92l-24.44-59.49H620.85l-25.21,60.08A83.74,83.74,0,0,1,518.42,937.85Z" transform="translate(-11.66 -114.68)"/><path class="cls-1" d="M949,181.16c-22.51-5.32-52.17-6.49-80.06-4.42-39.23,2.91-67.67,63.49-88.5,107.11a142.5,142.5,0,0,1,6.3,41.29v.74l-37,334.8c-6.79,120.12-88,213-208.35,213H459.32c-119.39,0-203.92-91.15-211.92-210.28l-37-337.51A142.69,142.69,0,0,1,217,283.07c-20.78-43.56-49.11-103.44-88.12-106.33-27.88-2.07-57.55-.9-80.05,4.42,36.7-20.33,91.91-18.64,122.92-10.55,31.39,8.18,42,37.75,88.88,46.78a141.78,141.78,0,0,1,92.21-33.9H644.34a141.71,141.71,0,0,1,92.33,34c47.34-8.92,57.88-38.66,89.38-46.88C857.06,162.52,912.27,160.83,949,181.16Z" transform="translate(-11.66 -114.68)"/><path class="cls-2" d="M617.35,808.69a47.51,47.51,0,0,1-.06,12.55c-4.34,29.6-32,52.43-65.5,52.43-21.57,0-40.73-9.47-52.79-24.13-12.06,14.66-31.22,24.13-52.79,24.13-33.48,0-61.15-22.81-65.5-52.38a47.71,47.71,0,0,1,0-12.69l1.07-8.86L416.52,513.2a82.9,82.9,0,1,1,165.8,0l34,286.86Z" transform="translate(-11.66 -114.68)"/><circle class="cls-3" cx="692.35" cy="315.61" r="31.43"/><circle class="cls-3" cx="283.1" cy="315.61" r="31.43"/><path class="cls-3" d="M572.84,771.73l-65.74,49a12.71,12.71,0,0,1-15.17,0l-65.74-49a14.86,14.86,0,0,1-2.7-21.21h0a14.86,14.86,0,0,1,19.56-3.24l30.67,19.48a48.09,48.09,0,0,0,51.58,0L556,747.28a14.85,14.85,0,0,1,19.55,3.24h0A14.86,14.86,0,0,1,572.84,771.73Z" transform="translate(-11.66 -114.68)"/><path class="cls-4" d="M986.13,209.41c0,44-65.47,97.54-109.44,96.78-39.13-.68-70,10.76-90,18.95a142.5,142.5,0,0,0-6.3-41.29c20.83-43.62,49.27-104.2,88.5-107.11,27.89-2.07,57.55-.9,80.06,4.42C971,186.35,986.13,195.49,986.13,209.41Z" transform="translate(-11.66 -114.68)"/><path class="cls-4" d="M11.66,209.41c0,44,65.47,97.54,109.44,96.78,39.13-.68,70,10.76,90,18.95a142.5,142.5,0,0,1,6.31-41.29c-20.84-43.62-49.27-104.2-88.51-107.11-27.88-2.07-57.55-.9-80.05,4.42C26.82,186.35,11.66,195.49,11.66,209.41Z" transform="translate(-11.66 -114.68)"/><path class="cls-5" d="M739.77,236.89a53.68,53.68,0,0,1,10.53,31.83c0,31.72-28.13,57.44-62.83,57.44a65.68,65.68,0,0,1-44.74-17.11,91.46,91.46,0,0,1-31.83,5.61c-21,0-40.12-6.9-54-18.07a66.48,66.48,0,0,1-37.45,11.31,65.68,65.68,0,0,1-44.74-17.11,91.45,91.45,0,0,1-31.82,5.61,89.3,89.3,0,0,1-42.17-10.27c-11.51,13.26-29.29,21.77-49.25,21.77a65.7,65.7,0,0,1-44.75-17.11,91.4,91.4,0,0,1-31.82,5.61c-42.28,0-76.56-27.82-76.56-62.14,0-24.45,17.4-45.6,42.7-55.74a52.12,52.12,0,0,1-.39-6.4c0-31.72,28.13-57.44,62.84-57.44,21.16,0,39.88,9.57,51.27,24.23a88.24,88.24,0,0,1,46.43-12.73,92.42,92.42,0,0,1,27.28,4.06,65.87,65.87,0,0,1,43-15.56c21.17,0,39.89,9.57,51.28,24.23a91.12,91.12,0,0,1,91.16-1,67.65,67.65,0,0,1,25.55-5,66.54,66.54,0,0,1,36.59,10.75A73.73,73.73,0,0,1,702.32,139c35.36,0,64,24.21,64,54.07C766.35,211.08,755.87,227.07,739.77,236.89Z" transform="translate(-11.66 -114.68)"/></g></svg>